<svg width="293" height="100" viewBox="0 0 293 100" fill="none" xmlns="http://www.w3.org/2000/svg">
<g clip-path="url(#clip0_100_463)">
<path d="M255.754 25.9295C263.18 21.3462 270.462 16.5385 277.582 11.5224C278.389 10.9615 279.471 9.77565 278.131 9.10258C276.904 8.4936 274.789 8.92629 273.707 9.6795C266.587 14.7115 259.305 19.5032 251.879 24.0865C251.023 24.6154 250.038 25.8494 251.33 26.5064C252.621 27.1635 254.607 26.6346 255.754 25.9295V25.9295Z" fill="#A5A5A5"/>
<path d="M231.875 39.359C236.977 36.6507 242.062 33.9103 247.132 31.1218C248.02 30.625 248.94 29.343 247.681 28.7019C246.357 28.0289 244.468 28.6218 243.257 29.2789C238.188 32.0513 233.118 34.8077 228 37.516C227.096 37.9968 226.192 39.2949 227.451 39.9359C228.791 40.609 230.648 40 231.875 39.359Z" fill="#A5A5A5"/>
<path d="M204.219 53.686C210.531 50.6571 216.763 47.436 222.882 44.0385C223.77 43.5417 224.707 42.2597 223.431 41.6186C222.156 40.9776 220.202 41.5385 219.008 42.1956C213.195 45.4327 207.609 48.3334 201.749 51.1379C200.99 51.5065 199.133 52.5642 200.086 53.6218C200.974 54.5994 203.218 54.1667 204.219 53.686V53.686Z" fill="#A5A5A5"/>
<path d="M180.356 63.9423C185.296 62.0673 190.188 60.0481 195.016 57.9167C195.791 57.5801 197.631 56.4744 196.679 55.4327C195.726 54.391 193.563 54.9199 192.545 55.3686C187.718 57.5 182.826 59.5032 177.886 61.3942C177.079 61.6987 175.303 62.8526 176.223 63.8782C177.143 64.9038 179.307 64.343 180.356 63.9423Z" fill="#A5A5A5"/>
<path d="M153.055 72.5C158.867 70.6731 164.679 68.8942 170.605 67.4679C171.525 67.2436 173.64 66.3622 173.301 65.0961C172.962 63.8301 170.621 64.1667 169.765 64.375C163.84 65.8013 158.028 67.5961 152.215 69.407C151.311 69.6955 149.164 70.4808 149.519 71.7788C149.874 73.0769 152.215 72.7564 153.055 72.5Z" fill="#A5A5A5"/>
<path d="M128.046 79.5192C133.568 78.4295 138.977 76.8429 144.337 75.1923C145.241 74.9199 147.388 74.1186 147.033 72.8205C146.678 71.5224 144.337 71.843 143.497 72.0994C138.121 73.75 132.728 75.3365 127.207 76.4263C126.287 76.6026 124.172 77.5641 124.511 78.7981C124.866 80.1122 127.174 79.6795 128.046 79.5192Z" fill="#A5A5A5"/>
<path d="M91.7685 69.0384C95.3204 80.3044 108.85 82.3076 119.07 80.7852C120.216 80.6089 122.347 80.048 122.622 78.6858C122.896 77.3237 120.765 77.2435 119.925 77.3557C117.455 77.7243 116.034 77.8205 113.516 77.6762C111.546 77.5801 109.27 77.2275 107.203 76.4903C102.796 74.9358 99.4212 71.8429 98.0005 67.3557C97.3224 65.1922 91.1066 66.907 91.7685 69.0224V69.0384Z" fill="#A5A5A5"/>
<path d="M108.43 37.7564C100.664 43.0609 92.9629 50.2243 91.2677 59.8557C90.8479 62.2275 97.1283 61.2019 97.4997 59.0865C99.0012 50.625 105.588 44.1666 112.305 39.5993C113.112 39.0384 114.177 37.8525 112.854 37.1795C111.61 36.5545 109.528 37.0192 108.43 37.7564V37.7564Z" fill="#A5A5A5"/>
<path d="M134.278 26.3782C128.53 27.7403 122.96 29.8237 117.681 32.4359C116.922 32.8044 115.049 33.8621 116.018 34.9198C116.89 35.8814 119.166 35.4647 120.151 34.9839C122.621 33.766 125.156 32.6602 127.739 31.6826C128.062 31.5705 128.369 31.4423 128.692 31.3301C128.869 31.266 129.063 31.2019 129.241 31.1378C129.564 31.0256 129.612 31.0096 129.386 31.0897C129.16 31.1698 129.209 31.1538 129.531 31.0416C129.709 30.9775 129.903 30.9134 130.08 30.8653C130.403 30.7692 130.726 30.657 131.049 30.5609C132.389 30.1602 133.745 29.7916 135.118 29.4711C136.038 29.2628 138.153 28.3653 137.814 27.0993C137.475 25.8333 135.134 26.1859 134.278 26.3782V26.3782Z" fill="#A5A5A5"/>
<path d="M138.783 54.4071C141.753 50.9295 144.417 47.1475 146.21 42.9327C148.002 38.718 148.502 34.0225 145.806 30.0962C144.627 28.3814 138.573 30.4327 140.01 32.5161C142.415 36.0096 141.414 40.4007 139.848 44.0064C138.282 47.6122 135.635 51.1699 132.971 54.2789C131.986 55.4167 133.81 56.0737 134.666 56.1058C136.167 56.1539 137.798 55.5609 138.783 54.4231V54.4071Z" fill="#A5A5A5"/>
<path d="M98.4849 85.0642C109.98 79.0065 120.797 71.6507 130.388 62.9167C131.356 62.0353 131.049 61.0257 129.79 60.7212C128.402 60.3847 126.432 60.9295 125.383 61.8911C116.115 70.3366 105.702 77.3558 94.6101 83.2212C93.6414 83.734 92.8826 84.936 94.0612 85.6411C95.3366 86.3783 97.3225 85.6731 98.4849 85.0642V85.0642Z" fill="#A5A5A5"/>
<path d="M75.8979 94.8398C80.4669 93.3334 84.9391 91.6026 89.2821 89.5353C89.8794 89.2468 90.5898 88.8943 90.9612 88.3334C91.2033 87.9648 91.3325 87.4199 90.9612 87.0513C89.9925 86.1219 87.9098 86.4744 86.828 86.9872C84.8261 87.9488 82.7918 88.8302 80.7252 89.6635C79.6919 90.0802 78.6587 90.4808 77.6092 90.8494C77.0926 91.0417 76.5598 91.234 76.0432 91.4103C75.8171 91.4904 75.5911 91.5706 75.3651 91.6347C76.253 91.3462 75.2198 91.6828 75.0583 91.7308C74.3156 91.9712 73.5568 92.2436 72.9756 92.7725C72.6366 93.077 72.2168 93.6058 72.3621 94.1026C72.7011 95.3366 75.0583 95.0962 75.8979 94.8238V94.8398Z" fill="#A5A5A5"/>
<path d="M52.4712 99.6955C57.1533 99.3109 61.803 98.5417 66.3882 97.5C67.3085 97.2917 69.4235 96.3782 69.0844 95.1282C68.7454 93.8782 66.4044 94.2147 65.5487 94.407C65.0159 94.5352 64.467 94.6474 63.9342 94.7596C63.6436 94.8237 63.353 94.8718 63.0623 94.9359C62.3681 95.0801 63.6597 94.8237 62.9009 94.9679C61.8515 95.1602 60.8182 95.3526 59.7688 95.5128C57.6376 95.8493 55.4742 96.0897 53.3269 96.266C52.5519 96.3301 51.6317 96.6506 50.9697 97.0673C50.5338 97.3397 49.9041 97.8205 49.7911 98.3814C49.5005 99.7756 51.6801 99.7756 52.4873 99.7115L52.4712 99.6955Z" fill="#A5A5A5"/>
<path d="M20.7787 95.4006C27.9794 98.4135 35.729 99.8077 43.5271 100C44.8994 100.032 46.8368 99.5353 47.6441 98.3173C48.4513 97.0994 46.9498 96.5224 45.9488 96.4904C39.0226 96.3301 32.1448 95.0962 25.7353 92.4199C24.3629 91.843 22.5547 92.2436 21.3115 92.9968C20.5204 93.4776 19.3741 94.8237 20.7626 95.4167L20.7787 95.4006Z" fill="#A5A5A5"/>
<path d="M0.0645432 76.7788C3.18053 82.6282 7.58813 87.4679 13.0774 91.2339C13.5618 91.5705 14.6112 91.5064 15.1279 91.4423C15.9028 91.3461 16.8231 91.0737 17.485 90.641C17.9532 90.3365 18.5506 89.9198 18.6636 89.3269C18.7766 88.782 18.4376 88.4935 18.034 88.2211C13.3196 84.9839 9.05732 80.2884 6.29652 75.1121C5.66687 73.9262 3.87477 74.0705 2.76076 74.391C2.03424 74.5993 1.22699 74.8878 0.678054 75.4326C0.387444 75.7211 -0.193777 76.3141 0.0645432 76.7628V76.7628V76.7788Z" fill="#A5A5A5"/>
<path d="M262.131 12.0193C270.914 8.81415 279.826 5.99364 288.851 3.49364L285.331 3.14108C287.979 5.48082 284.702 9.91992 283.378 12.1635C281.456 15.4167 279.261 18.4936 276.839 21.3943C275.87 22.5642 277.662 23.2212 278.55 23.2372C280.1 23.2853 281.699 22.6763 282.732 21.5225C285.848 17.9968 288.56 14.1667 290.82 10.0321C291.821 8.18915 293.016 6.218 293.016 4.07056C293.016 1.63467 291.482 -0.304436 288.883 0.0160768C286.445 0.304538 283.927 1.33018 281.569 2.03531C279.083 2.77249 276.597 3.54172 274.126 4.343C269.251 5.91351 264.407 7.58018 259.596 9.343C258.676 9.67954 256.98 10.8174 257.852 11.9392C258.724 13.0609 261.146 12.3718 262.163 12.0033L262.131 12.0193Z" fill="#A5A5A5"/>
</g>
<defs>
<clipPath id="clip0_100_463">
<rect width="293" height="100" fill="white"/>
</clipPath>
</defs>
</svg>
