<svg width="97" height="90" viewBox="0 0 97 90" fill="none" xmlns="http://www.w3.org/2000/svg">
<g clip-path="url(#clip0_2_109)">
<path d="M25.571 9.96704C32.6832 10.0725 40.0229 10.8103 46.891 12.7435C49.9323 13.5963 53.0379 14.973 54.7754 17.7542C56.3685 20.2969 56.4221 23.4536 55.9943 26.3324C55.4939 29.6914 54.4346 32.9677 53.4006 36.188C52.239 39.8003 50.9942 43.3857 50.0369 47.0596C48.4656 53.0673 47.6718 59.5732 49.3562 65.6471C51.405 73.0322 57.263 78.1077 63.0231 82.7175C63.4828 83.0817 64.1901 83.3349 64.7765 83.1866C65.2544 83.0673 65.4405 82.6597 65.0124 82.3138C59.7708 78.0033 54.2581 73.4658 52.119 66.7624C50.127 60.525 50.9392 53.8039 52.5667 47.5888C53.5401 43.8749 54.7988 40.241 55.9606 36.5794C57.024 33.2349 58.1249 29.8133 58.5434 26.3153C58.8855 23.4505 58.6985 20.4637 57.2092 17.9246C55.4771 14.963 52.2937 13.1956 49.1573 12.1045C45.3422 10.7839 41.2757 10.0942 37.295 9.52467C33.0886 8.93066 28.8438 8.61084 24.6001 8.54567C24.1547 8.53542 23.6518 8.79549 23.9209 9.28244C24.1899 9.76938 25.0627 9.95577 25.571 9.96704Z" fill="white"/>
<path d="M52.5244 80.537C55.3992 81.8369 58.2688 83.1338 61.1467 84.4284C62.4896 85.0344 63.8239 85.6919 65.1921 86.2419C66.4052 86.7306 67.7826 87.0814 69.0703 86.6958C69.2235 86.6503 69.5437 86.5599 69.5705 86.3425C69.7443 84.6366 69.1484 83.0789 68.5897 81.4933C67.9651 79.7286 67.3687 77.9518 66.7889 76.1706C65.616 72.5582 64.5493 68.9083 63.5744 65.2337C63.3599 64.4325 60.937 64.0356 61.1595 64.9331C62.0469 68.5148 63.0458 72.0621 64.1533 75.5803C64.7029 77.3159 65.2776 79.0448 65.8774 80.767C66.4293 82.3275 67.1765 83.9655 67.0118 85.6555L67.512 85.3023C66.5643 85.5877 65.6134 84.9258 64.7741 84.5471L61.0841 82.8753C58.5798 81.7399 56.0672 80.6067 53.5628 79.4713C53.1394 79.2763 52.2076 79.0699 51.8533 79.5004C51.4784 79.9542 52.2212 80.3902 52.5433 80.5408L52.5244 80.537Z" fill="white"/>
</g>
<defs>
<clipPath id="clip0_2_109">
<rect width="78.3324" height="57.9961" fill="white" transform="translate(28.998) rotate(30)"/>
</clipPath>
</defs>
</svg>
