<svg width="270" height="57" viewBox="0 0 270 57" fill="none" xmlns="http://www.w3.org/2000/svg">
<g clip-path="url(#clip0_100_448)">
<path d="M241.972 10.2966C245.628 10.2966 249.272 10.475 252.904 10.8198C253.886 10.9149 255.365 10.4274 255.921 9.57135C256.536 8.63205 255.388 8.28724 254.679 8.2159C251.046 7.85921 247.391 7.69275 243.747 7.69275C242.729 7.69275 241.321 8.02567 240.73 8.94118C240.138 9.8567 241.226 10.2966 241.972 10.2966V10.2966Z" fill="#A5A5A5"/>
<path d="M220.025 12.627C220.557 12.5081 221.102 12.4011 221.646 12.2822C221.811 12.2466 221.811 12.2466 221.646 12.2822C221.811 12.2466 221.977 12.2228 222.143 12.1871C222.391 12.1396 222.64 12.092 222.888 12.0444C223.929 11.8542 224.97 11.6758 226.023 11.5094C228.153 11.1765 230.306 10.9149 232.448 10.7247C233.288 10.6414 234.838 10.1421 235.051 9.16709C235.264 8.13267 233.666 8.13267 233.075 8.18023C228.484 8.60826 223.917 9.34544 219.41 10.3204C218.735 10.4631 217.185 11.1527 217.434 12.0801C217.682 13.0075 219.398 12.7459 220.025 12.6151V12.627Z" fill="#A5A5A5"/>
<path d="M199.924 19.1783C201.781 18.3579 203.662 17.5851 205.567 16.8598C206.502 16.5031 207.437 16.1702 208.383 15.8373C207.922 16.0037 208.525 15.7897 208.632 15.7541C208.915 15.6589 209.188 15.5638 209.472 15.4806C209.968 15.326 210.454 15.1596 210.95 15.005C211.613 14.8029 213.187 14.2084 212.926 13.2453C212.666 12.2822 210.95 12.52 210.335 12.7102C206.182 13.9944 202.101 15.5281 198.125 17.2878C197.558 17.5375 196.209 18.3579 196.907 19.1308C197.605 19.9036 199.19 19.4994 199.936 19.1783H199.924Z" fill="#A5A5A5"/>
<path d="M180.639 29.6414C184.153 27.4299 187.726 25.3016 191.394 23.3398C192.021 23.0069 192.754 21.9844 191.796 21.5444C190.767 21.0807 189.489 21.4731 188.554 21.9725C184.886 23.9343 181.325 26.0626 177.8 28.2741C177.208 28.6427 176.403 29.6176 177.397 30.0695C178.391 30.5213 179.764 30.1884 180.639 29.6414Z" fill="#A5A5A5"/>
<path d="M164.43 40.2116C167.376 38.3092 170.287 36.3592 173.221 34.4331C173.54 34.2191 174.002 33.8861 174.084 33.4581C174.155 33.1014 173.943 32.7804 173.623 32.6377C172.665 32.1978 171.233 32.5069 170.381 33.0657C167.447 34.9919 164.525 36.9418 161.591 38.8442C161.271 39.0582 160.81 39.403 160.727 39.8192C160.656 40.1759 160.869 40.4969 161.188 40.6396C162.159 41.0795 163.567 40.7704 164.43 40.2116Z" fill="#A5A5A5"/>
<path d="M144.471 51.388C148.422 49.6402 152.256 47.6308 155.994 45.443C156.598 45.0863 157.367 44.0876 156.397 43.6477C155.427 43.2077 154.054 43.5525 153.155 44.0757C151.404 45.0982 149.629 46.0851 147.831 47.0244C147.713 47.0838 147.582 47.1552 147.452 47.2146C147.239 47.3216 147.204 47.3454 147.334 47.2741C147.464 47.2027 147.429 47.2265 147.216 47.3335C147.086 47.393 146.967 47.4643 146.837 47.5238C146.399 47.7378 145.962 47.9637 145.512 48.1658C144.566 48.6176 143.607 49.0575 142.649 49.4856C142.081 49.7353 140.732 50.5557 141.43 51.3285C142.128 52.1014 143.714 51.709 144.459 51.3761L144.471 51.388Z" fill="#A5A5A5"/>
<path d="M120.311 56.9881C125.269 57.1426 130.238 56.3579 134.958 54.8479C135.621 54.6339 137.195 54.0513 136.934 53.0882C136.674 52.1251 134.958 52.3629 134.343 52.5531C130.214 53.8729 126.393 54.515 122.086 54.3842C121.08 54.3485 119.649 54.7409 119.069 55.6326C118.489 56.5244 119.578 56.9643 120.311 56.9881Z" fill="#A5A5A5"/>
<path d="M97.5009 49.0457C101.606 51.828 106.019 54.0276 110.775 55.4544C111.781 55.7516 113.248 55.276 114.005 54.5864C114.763 53.8968 114.479 53.231 113.568 52.9575C109.131 51.6258 104.966 49.4143 101.133 46.8223C99.9026 45.99 95.6789 47.8211 97.5009 49.0457V49.0457Z" fill="#A5A5A5"/>
<path d="M76.6189 29.4869C80.4404 33.8267 84.3565 38.0832 88.6275 41.995C89.3847 42.6846 90.8163 42.423 91.6563 42.0425C92.1414 41.8166 93.6558 40.913 92.8749 40.1996C88.6039 36.2997 84.6878 32.0432 80.8663 27.6915C79.8251 26.5025 75.4476 28.1552 76.6189 29.4869V29.4869Z" fill="#A5A5A5"/>
<path d="M61.0492 13.1383C65.0955 16.1346 68.6685 19.7491 71.6618 23.8035C71.8984 24.1245 72.561 24.1959 72.8922 24.2078C73.472 24.2315 74.1582 24.0889 74.6787 23.8511C75.3176 23.5657 76.5126 22.8404 75.8974 22.0081C72.8922 17.9537 69.331 14.3392 65.2848 11.3429C64.4448 10.7128 63.1788 10.8792 62.256 11.2954C61.8064 11.4975 61.3095 11.7591 61.0255 12.1871C60.8599 12.4487 60.7179 12.9124 61.0255 13.1383H61.0492Z" fill="#A5A5A5"/>
<path d="M39.9542 5.98058C39.7649 5.98058 40.4038 5.96869 40.4985 5.96869C40.7942 5.96869 41.0782 5.96869 41.374 5.96869C41.8709 5.96869 42.3678 5.99247 42.8647 6.01625C43.8703 6.0757 44.805 6.18271 45.8225 6.36105C47.893 6.72964 49.9161 7.30035 51.8801 8.0613C52.9094 8.46556 54.199 8.20398 55.1218 7.63327C55.6779 7.28846 56.5652 6.25404 55.5241 5.8379C50.7325 3.9593 45.716 3.1389 40.5813 3.44804C39.7413 3.4956 38.1914 4.05442 37.9784 5.00561C37.7536 6.05192 39.3627 6.02814 39.9542 5.99247V5.98058Z" fill="#A5A5A5"/>
<path d="M22.6212 14.0419C23.4139 13.3404 24.2185 12.6508 25.0466 12.0088C25.2714 11.8304 25.5081 11.6521 25.7329 11.4856C25.8275 11.4143 25.9458 11.3192 25.7802 11.4499C25.8867 11.3786 25.9813 11.2954 26.0878 11.224C26.5255 10.903 26.9751 10.6058 27.4365 10.3085C28.3239 9.73781 29.2231 9.20276 30.1577 8.70339C30.347 8.59638 30.3352 8.60827 30.1577 8.70339C30.276 8.64394 30.3825 8.58449 30.5008 8.53693C30.7256 8.42992 30.9622 8.31102 31.1989 8.20401C31.7194 7.96622 32.2518 7.74031 32.7961 7.52629C33.3876 7.30038 34.7009 6.44431 34.0147 5.68336C33.3285 4.92241 31.7549 5.33856 30.9859 5.6358C26.5374 7.38361 22.5266 10.1183 18.9654 13.3048C18.7169 13.5307 18.4093 13.923 18.5158 14.2916C18.6223 14.6602 19.0719 14.8623 19.4032 14.9218C20.4798 15.1239 21.8167 14.791 22.6331 14.0538L22.6212 14.0419Z" fill="#A5A5A5"/>
<path d="M4.08163 33.1846C8.37636 29.4987 12.0322 25.1589 15.8182 20.9737C16.0548 20.7121 16.3743 20.3792 16.2678 19.9868C16.1731 19.6182 15.7117 19.4161 15.3804 19.3567C14.4103 19.1783 12.8604 19.4399 12.1505 20.2246C8.36453 24.4217 4.70869 28.7496 0.413959 32.4355C-0.295913 33.0538 -0.0829515 33.8861 0.851714 34.0644C1.94018 34.2665 3.24162 33.9217 4.08163 33.1965V33.1846Z" fill="#A5A5A5"/>
<path d="M242.256 2.699C246.917 3.49562 251.555 4.47058 256.146 5.6239C258.157 6.13517 260.286 6.55131 262.227 7.32415C263.67 7.90675 265.043 8.73905 265.102 10.4393L266.036 9.04818C259.955 12.2466 253.365 14.5175 246.621 15.7541C245.77 15.9086 244.101 16.3129 243.912 17.383C243.723 18.4531 245.308 18.5125 245.971 18.4055C254.075 17.0263 261.825 14.363 269.089 10.5106C269.633 10.2253 270.047 9.74968 270.024 9.11952C269.858 4.95807 263.493 4.09011 260.499 3.31727C255.459 2.02127 250.372 0.939295 245.237 0.0594455C244.101 -0.130792 242.67 0.166454 241.818 0.986855C241.108 1.65269 241.226 2.52065 242.279 2.71088L242.256 2.699Z" fill="#A5A5A5"/>
</g>
<defs>
<clipPath id="clip0_100_448">
<rect width="270" height="57" fill="white"/>
</clipPath>
</defs>
</svg>
