<svg width="427" height="364" viewBox="0 0 427 364" fill="none" xmlns="http://www.w3.org/2000/svg">
<path opacity="0.18" d="M417.856 244.928C414.759 257.138 409.386 269.323 404.679 280.19C386.794 321.223 356.615 349.285 309.361 343.549C286.588 340.778 264.298 333.131 241.367 333.869C219.428 334.546 198.542 342.811 177.705 349.697C138.983 362.511 96.1097 370.715 57.8108 356.606C19.5119 342.497 -10.268 299.091 3.35743 260.611C13.9577 230.577 47.1016 210.429 50.5503 178.773C55.0881 137.631 6.39472 102.139 16.6683 61.9891C21.0366 45.0844 35.0977 32.4996 49.9937 23.424C84.2146 2.50184 126.289 -4.40769 165.604 2.70755C202.996 9.42346 234.107 40.9096 271.788 42.3617C296.087 43.2814 319.465 29.4744 343.667 31.7493C373.604 34.6414 395.555 61.1542 409.555 87.7879C414.062 96.1024 417.832 104.796 420.821 113.768C426.638 132.053 427.819 151.497 424.258 170.351C420.628 189.713 421.063 207.864 420.507 227.721C420.262 233.537 419.373 239.308 417.856 244.928Z" fill="#68E1FD"/>
<path d="M158.525 323.329C157.049 323.789 155.391 324.539 155.016 326.003C159.662 328.956 165.41 329.633 170.904 329.488C176.398 329.343 181.879 328.375 187.385 328.339C194.646 328.339 202.826 329.633 208.658 325.229C206.068 323.588 203.093 322.654 200.03 322.518C201.107 315.742 162.833 321.986 158.525 323.329Z" fill="url(#paint0_linear_100_121)"/>
<path d="M65.2408 242.605C63.2805 242.605 60.5699 243.597 61.0539 245.497L150.515 252.757C161.042 253.617 171.582 254.464 182.158 254.464C198.131 254.464 214.032 252.503 229.968 251.584C244.973 250.725 260.002 250.785 275.019 250.858C288.923 250.93 306.021 253.435 319.526 249.793C321.559 249.248 323.604 247.615 323.471 245.521C323.41 244.553 322.902 243.549 323.277 242.653C323.495 242.214 323.841 241.851 324.269 241.613C327.04 239.906 330.574 241.238 333.768 241.939C338.853 243.045 344.163 242.37 348.81 240.027C349.681 239.665 350.423 239.05 350.939 238.261C351.186 237.862 351.275 237.386 351.19 236.926C351.105 236.465 350.852 236.052 350.48 235.768C350.104 235.582 349.689 235.487 349.27 235.49L321.886 233.36C320.874 233.203 319.84 233.295 318.872 233.626C317.796 234.098 317.856 235.357 316.985 235.877C315.569 236.712 312.35 236.264 310.729 236.361C306.578 236.591 302.428 236.821 298.265 237.026C289.98 237.422 281.679 237.757 273.362 238.031C256.42 238.6 239.395 238.938 222.417 239.241C188.838 239.785 155.246 240.076 121.679 241.371C102.862 242.072 84.0575 242.193 65.2408 242.605Z" fill="url(#paint1_linear_100_121)"/>
<path d="M134.034 56.1686C132.459 55.6216 130.739 55.6646 129.193 56.2896C128.196 56.6453 127.285 57.2059 126.518 57.9354C125.751 58.6649 125.145 59.547 124.74 60.5249C124.732 60.652 124.697 60.776 124.638 60.8885C124.578 61.001 124.495 61.0995 124.394 61.1774C124.293 61.2552 124.177 61.3107 124.053 61.3401C123.929 61.3695 123.8 61.3721 123.675 61.3477C121.914 61.3437 120.215 61.995 118.908 63.175C117.383 64.5665 117.383 66.2727 117.177 68.2694C116.928 68.1438 116.652 68.0784 116.373 68.0784C116.093 68.0784 115.818 68.1438 115.568 68.2694C115.07 68.5151 114.616 68.8423 114.225 69.2374C113.557 69.7735 113.023 70.4569 112.664 71.2341C112.18 72.553 112.724 74.0051 112.748 75.4088C112.757 75.4717 112.752 75.5357 112.733 75.5963C112.714 75.6569 112.682 75.7127 112.64 75.7597C112.59 75.781 112.536 75.792 112.482 75.792C112.428 75.792 112.375 75.781 112.325 75.7597C111.95 75.6871 111.611 75.4935 111.236 75.4572C110.797 75.4613 110.373 75.6182 110.038 75.9009C109.702 76.1836 109.475 76.5744 109.397 77.0061C109.254 77.8728 109.299 78.7601 109.53 79.6078C109.755 80.4559 109.729 81.351 109.457 82.1852C109.167 82.7332 108.787 83.2282 108.332 83.6494C107.019 84.8725 106.165 86.5081 105.912 88.284C105.84 89.1423 106.072 89.9984 106.565 90.7042C106.818 91.0526 107.158 91.3294 107.55 91.5076C107.943 91.6857 108.374 91.7591 108.804 91.7206C110.812 91.4544 111.514 88.6349 113.426 87.9694C115.338 87.3038 117.48 85.0531 118.714 83.2743C119.706 81.8464 120.674 80.1886 122.344 79.6441C122.894 79.5272 123.424 79.3316 123.917 79.0632C124.246 78.807 124.518 78.4856 124.716 78.1194C125.408 77.0998 125.942 75.9822 126.301 74.8038C126.906 72.4804 126.301 69.8667 127.427 67.7248C127.748 67.1104 128.195 66.5708 128.74 66.1412C129.284 65.7117 129.913 65.4019 130.585 65.2321C131.154 65.0869 131.795 65.0506 132.315 64.8933C132.973 64.7033 133.595 64.4048 134.155 64.0099C134.891 63.5867 135.524 63.0059 136.009 62.3093C136.495 61.6127 136.82 60.8174 136.962 59.9804C137.071 58.2741 135.534 56.7495 134.034 56.1686Z" fill="#FF681C"/>
<path d="M138.983 59.0365C139.588 59.2699 140.089 59.7112 140.397 60.2813C140.706 60.8513 140.801 61.5127 140.665 62.1464C140.458 62.6588 140.149 63.124 139.757 63.5138L137.567 65.9339L136.66 62.5699C136.566 61.9387 136.253 61.3605 135.776 60.9363C135.465 60.758 135.112 60.6642 134.754 60.6642C134.395 60.6642 134.042 60.758 133.731 60.9363C133.09 61.263 132.521 61.7713 131.952 62.1464C131.795 62.2432 131.577 62.3521 131.408 62.2553C131.238 62.1585 131.214 61.8076 131.299 61.5656C132.34 58.6856 136.321 57.8869 138.983 59.0365Z" fill="#FF681C"/>
<path d="M140.471 150.07C140.538 151.203 140.915 152.296 141.56 153.229C142.541 154.439 144.174 155.044 145.53 155.927C145.669 155.998 145.791 156.099 145.887 156.222C145.984 156.346 146.052 156.489 146.086 156.641C146.078 156.789 146.027 156.93 145.939 157.049C145.85 157.167 145.729 157.257 145.59 157.307C145.303 157.388 145.002 157.408 144.707 157.367C143.324 157.15 141.93 157.017 140.532 156.968C139.83 156.968 139.019 157.041 138.572 156.496C138.283 156.035 138.184 155.48 138.293 154.947C138.417 152.946 138.254 150.937 137.809 148.981C137.661 148.504 137.607 148.003 137.652 147.505C137.697 147.275 137.802 147.061 137.956 146.884C138.109 146.707 138.307 146.573 138.528 146.496C138.75 146.419 138.988 146.401 139.218 146.444C139.449 146.488 139.664 146.59 139.842 146.743C140.641 147.433 140.375 149.139 140.471 150.07Z" fill="#FCBDBA"/>
<path d="M118.085 157.561C117.921 158.683 118.063 159.828 118.496 160.876C119.21 162.316 120.699 163.175 121.848 164.313C121.973 164.408 122.074 164.531 122.143 164.671C122.212 164.812 122.248 164.967 122.247 165.124C122.212 165.266 122.134 165.395 122.023 165.492C121.913 165.589 121.776 165.651 121.63 165.668C121.335 165.699 121.037 165.661 120.759 165.559C119.444 165.079 118.103 164.675 116.742 164.349C116.052 164.228 115.241 164.107 114.914 163.502C114.716 162.997 114.716 162.435 114.914 161.929C115.44 159.989 115.684 157.985 115.64 155.975C115.591 155.479 115.641 154.977 115.786 154.499C115.877 154.283 116.023 154.094 116.209 153.952C116.395 153.81 116.616 153.719 116.848 153.688C117.081 153.658 117.317 153.689 117.534 153.778C117.751 153.867 117.941 154.011 118.085 154.197C118.775 155.007 118.169 156.629 118.085 157.561Z" fill="#FCBDBA"/>
<path d="M113.68 103.108C113.68 103.108 125.224 120.242 132.787 125.361C132.642 127.074 132.678 128.798 132.896 130.504C133.283 133.275 134.627 135.707 135.062 138.43L136.514 147.59C136.575 148.001 136.696 148.497 137.095 148.643C137.335 148.72 137.593 148.72 137.833 148.643L141.028 147.771C140.836 142.267 140.953 136.757 141.379 131.266C141.641 129.045 141.697 126.805 141.548 124.574C141.016 119.734 137.047 115.414 134.288 111.53C132.63 109.182 130.851 105.673 128.528 103.894C126.592 102.418 123.857 103.12 121.425 103.362C119.601 103.536 117.76 103.405 115.979 102.974C115.615 102.804 115.214 102.727 114.813 102.75C114.411 102.773 114.022 102.896 113.68 103.108Z" fill="#473F47"/>
<path d="M109.288 102.999C109.288 102.999 113.777 123.171 118.968 130.697C118.214 132.247 117.618 133.868 117.189 135.537C116.903 136.904 116.737 138.293 116.693 139.688L115.653 156.532C117.261 156.617 118.872 156.412 120.408 155.927L126.313 141.08C127.441 138.714 128.106 136.156 128.274 133.541C128.274 128.483 123.433 110.017 122.865 109.085C121.594 106.992 118.799 106.665 116.451 105.987C114.689 105.489 113.023 104.695 111.526 103.64C110.788 103.18 110.123 102.732 109.288 102.999Z" fill="#473F47"/>
<path d="M150.732 87.2917C153.192 88.4269 155.922 88.8463 158.61 88.5018C159.398 88.2846 160.224 88.2433 161.03 88.3808C160.679 88.8769 160.34 89.5909 160.836 90.0144C160.988 90.1138 161.163 90.1721 161.344 90.1838C161.997 90.2679 162.66 90.1974 163.281 89.9781C163.573 89.8328 163.898 89.7622 164.224 89.7724C164.513 89.844 164.761 90.0266 164.915 90.2805C165.069 90.5344 165.117 90.8389 165.047 91.1277C164.876 91.7038 164.496 92.1955 163.982 92.5072C163.151 93.0576 162.189 93.3768 161.193 93.4321C160.198 93.4874 159.206 93.2768 158.319 92.8218C157.811 92.5435 157.339 92.1925 156.819 91.9142C155.818 91.4581 154.759 91.1405 153.673 90.9704C150.491 90.3118 147.365 89.4138 144.319 88.284C143.857 88.1742 143.423 87.9717 143.042 87.6888C142.662 87.4058 142.342 87.0484 142.104 86.6383C141.487 85.1136 142.625 82.5603 144.44 83.5526C146.545 84.7748 148.445 86.3479 150.732 87.2917Z" fill="#FCBDBA"/>
<path d="M135.703 78.6035C139.297 80.9527 143.305 82.5954 147.513 83.4438C147.695 83.4438 147.913 83.5648 147.961 83.7463C147.981 83.8699 147.95 83.9961 147.876 84.0972C147.017 85.8272 145.931 87.4347 144.646 88.877C144.508 89.0601 144.33 89.2091 144.125 89.3126C143.924 89.3715 143.713 89.389 143.505 89.3641C143.297 89.3391 143.097 89.2722 142.915 89.1674C140.197 88.0784 137.534 86.8683 134.929 85.5372C132.61 84.5201 130.544 83.0037 128.878 81.0962C128.048 80.1064 127.556 78.8766 127.475 77.587C127.475 76.1591 128.781 73.5938 130.585 74.2956C131.395 74.6102 132.109 75.6146 132.726 76.1833C133.668 77.0503 134.662 77.8585 135.703 78.6035Z" fill="#68E1FD"/>
<path d="M135.703 78.6035C139.297 80.9527 143.305 82.5954 147.513 83.4438C147.695 83.4438 147.913 83.5648 147.961 83.7463C147.981 83.8699 147.95 83.9961 147.876 84.0972C147.017 85.8272 145.931 87.4347 144.646 88.877C144.508 89.0601 144.33 89.2091 144.125 89.3126C143.924 89.3715 143.713 89.389 143.505 89.3641C143.297 89.3391 143.097 89.2722 142.915 89.1674C140.197 88.0784 137.534 86.8683 134.929 85.5372C132.61 84.5201 130.544 83.0037 128.878 81.0962C128.048 80.1064 127.556 78.8766 127.475 77.587C127.475 76.1591 128.781 73.5938 130.585 74.2956C131.395 74.6102 132.109 75.6146 132.726 76.1833C133.668 77.0503 134.662 77.8585 135.703 78.6035Z" fill="url(#paint2_linear_100_121)"/>
<path d="M186.357 71.3914C187.004 72.2067 187.39 73.1978 187.465 74.2355C187.54 75.2733 187.301 76.3096 186.778 77.2094C186.256 78.1092 185.474 78.8308 184.536 79.2802C183.598 79.7296 182.546 79.8859 181.517 79.7288C181.517 79.7288 175.793 79.8619 177.088 85.2589L187.979 99.1263L174.111 110.017C168.715 111.312 168.581 105.588 168.581 105.588C168.729 104.561 168.566 103.512 168.112 102.579C167.659 101.645 166.936 100.869 166.036 100.35C165.137 99.832 164.103 99.595 163.068 99.6701C162.032 99.7452 161.043 100.129 160.228 100.772C159.413 101.415 158.81 102.287 158.496 103.277C158.181 104.266 158.171 105.327 158.466 106.322C158.761 107.317 159.347 108.201 160.149 108.86C160.952 109.519 161.933 109.922 162.967 110.017C167.892 111.639 165.98 116.43 165.98 116.43L152.112 127.321L123.93 91.5392L137.664 80.6485C143.061 79.3537 143.194 85.0774 143.194 85.0774C143.066 85.9259 143.15 86.7931 143.44 87.601C143.729 88.4088 144.215 89.132 144.854 89.7056C145.492 90.2791 146.263 90.685 147.097 90.8867C147.932 91.0884 148.803 91.0797 149.633 90.8613C150.463 90.6429 151.226 90.2216 151.852 89.6354C152.479 89.0492 152.951 88.3164 153.224 87.5029C153.497 86.6894 153.564 85.8207 153.419 84.9749C153.274 84.129 152.92 83.3326 152.391 82.6572C151.949 82.1023 151.4 81.6426 150.776 81.3056C150.152 80.9687 149.467 80.7617 148.76 80.6969C143.884 79.0875 145.796 74.2472 145.796 74.2472L159.796 63.1992L170.687 77.0788C170.687 77.0788 175.527 78.9907 177.1 74.0657C177.204 73.0344 177.614 72.0577 178.278 71.2616C178.942 70.4655 179.829 69.8863 180.825 69.5986C181.821 69.3109 182.88 69.3279 183.866 69.6475C184.852 69.967 185.72 70.5744 186.357 71.3914Z" fill="#68E1FD"/>
<path d="M186.357 71.3914C187.004 72.2067 187.39 73.1978 187.465 74.2355C187.54 75.2733 187.301 76.3096 186.778 77.2094C186.256 78.1092 185.474 78.8308 184.536 79.2802C183.598 79.7296 182.546 79.8859 181.517 79.7288C181.517 79.7288 175.793 79.8619 177.088 85.2589L187.979 99.1263L174.111 110.017C168.715 111.312 168.581 105.588 168.581 105.588C168.729 104.561 168.566 103.512 168.112 102.579C167.659 101.645 166.936 100.869 166.036 100.35C165.137 99.832 164.103 99.595 163.068 99.6701C162.032 99.7452 161.043 100.129 160.228 100.772C159.413 101.415 158.81 102.287 158.496 103.277C158.181 104.266 158.171 105.327 158.466 106.322C158.761 107.317 159.347 108.201 160.149 108.86C160.952 109.519 161.933 109.922 162.967 110.017C167.892 111.639 165.98 116.43 165.98 116.43L152.112 127.321L123.93 91.5392L137.664 80.6485C143.061 79.3537 143.194 85.0774 143.194 85.0774C143.066 85.9259 143.15 86.7931 143.44 87.601C143.729 88.4088 144.215 89.132 144.854 89.7056C145.492 90.2791 146.263 90.685 147.097 90.8867C147.932 91.0884 148.803 91.0797 149.633 90.8613C150.463 90.6429 151.226 90.2216 151.852 89.6354C152.479 89.0492 152.951 88.3164 153.224 87.5029C153.497 86.6894 153.564 85.8207 153.419 84.9749C153.274 84.129 152.92 83.3326 152.391 82.6572C151.949 82.1023 151.4 81.6426 150.776 81.3056C150.152 80.9687 149.467 80.7617 148.76 80.6969C143.884 79.0875 145.796 74.2472 145.796 74.2472L159.796 63.1992L170.687 77.0788C170.687 77.0788 175.527 78.9907 177.1 74.0657C177.204 73.0344 177.614 72.0577 178.278 71.2616C178.942 70.4655 179.829 69.8863 180.825 69.5986C181.821 69.3109 182.88 69.3279 183.866 69.6475C184.852 69.967 185.72 70.5744 186.357 71.3914Z" fill="url(#paint3_linear_100_121)"/>
<path d="M140.532 102.95C143.497 105.37 146.582 107.972 150.212 108.601C150.911 108.758 151.634 108.773 152.338 108.646C153.042 108.519 153.714 108.253 154.315 107.863C154.522 107.74 154.69 107.561 154.801 107.348C154.913 107.134 154.962 106.893 154.944 106.653C154.811 106.06 154.085 105.854 153.492 105.745C150.718 105.366 148.056 104.41 145.675 102.938C144.792 102.313 143.954 101.626 143.17 100.881L137.277 95.6292C137.205 95.5416 137.114 95.4712 137.012 95.4231C136.909 95.3749 136.797 95.3503 136.684 95.3508C136.442 95.3508 136.297 95.6292 136.188 95.847C135.822 96.5903 135.546 97.3742 135.365 98.1824C135.183 99.0658 135.365 99.1868 136.127 99.695C137.652 100.728 139.12 101.813 140.532 102.95Z" fill="url(#paint4_linear_100_121)"/>
<path d="M143.266 98.5212C145.317 100.315 147.835 101.49 150.527 101.909C151.328 101.92 152.116 102.106 152.838 102.454C152.342 102.829 151.809 103.47 152.184 103.967C152.305 104.105 152.459 104.209 152.632 104.269C153.235 104.526 153.889 104.642 154.544 104.608C154.868 104.558 155.199 104.583 155.512 104.68C155.639 104.754 155.749 104.852 155.838 104.969C155.926 105.085 155.991 105.218 156.028 105.36C156.065 105.502 156.074 105.649 156.054 105.794C156.034 105.939 155.986 106.079 155.912 106.205C155.595 106.718 155.092 107.087 154.508 107.234C153.557 107.533 152.544 107.572 151.573 107.347C150.603 107.121 149.711 106.639 148.99 105.951C148.566 105.54 148.215 105.068 147.78 104.668C146.947 103.95 146.019 103.351 145.021 102.89C142.151 101.365 139.4 99.6253 136.792 97.6862C136.381 97.4526 136.021 97.1382 135.734 96.7618C135.447 96.3854 135.239 95.9548 135.122 95.496C134.953 93.8503 136.756 91.7085 138.232 93.1848C139.951 94.9273 141.342 96.9239 143.266 98.5212Z" fill="#FCBDBA"/>
<path d="M109.288 105.588C109.504 105.848 109.778 106.055 110.086 106.193C111.304 106.888 112.57 107.494 113.874 108.008C117.263 109.221 120.972 109.191 124.341 107.924C125.689 107.438 126.954 106.749 128.092 105.879C128.524 105.584 128.887 105.201 129.157 104.753C129.478 104.024 129.579 103.216 129.447 102.43C129.145 98.3519 128.697 94.1408 129.447 90.1839C129.689 88.8245 130.095 87.4998 130.658 86.239C131.637 84.5186 132.448 82.7071 133.078 80.83C133.294 79.6765 133.255 78.4897 132.964 77.3527C132.674 76.2156 132.138 75.1558 131.396 74.2472C129.823 72.2385 126.943 70.4596 124.401 71.3672C121.466 72.4733 118.92 74.4173 117.081 76.9577C115.074 79.8027 113.485 82.92 112.361 86.2148C111.877 87.5096 111.405 88.8044 111.03 90.1355C110.229 93.3553 109.711 96.6391 109.481 99.9492C109.348 101.329 109.227 102.708 109.082 104.088C108.968 104.596 109.041 105.129 109.288 105.588Z" fill="#68E1FD"/>
<path d="M124.341 107.924C125.689 107.438 126.954 106.749 128.092 105.878C128.524 105.584 128.887 105.201 129.157 104.753C129.478 104.024 129.579 103.216 129.447 102.43C129.145 98.3518 128.697 94.1408 129.447 90.1838C128.963 89.6998 128.419 89.2642 127.886 88.8286C126.676 87.8363 124.934 85.876 123.179 86.0091C123.603 87.8605 123.942 89.7482 124.196 91.6359C124.45 93.5236 124.353 95.484 124.655 97.3475C125.057 100.645 124.979 103.983 124.426 107.258C124.374 107.476 124.346 107.699 124.341 107.924Z" fill="url(#paint5_linear_100_121)"/>
<path d="M139.067 92.1684C139.162 92.2166 139.246 92.2832 139.315 92.3642C139.383 92.4452 139.435 92.5391 139.467 92.6404C139.47 92.8415 139.397 93.0364 139.261 93.1849C138.161 94.7366 136.783 96.0703 135.195 97.1176C135.042 97.2394 134.857 97.315 134.663 97.3355C134.44 97.3115 134.231 97.2136 134.07 97.0571C131.65 95.2057 129.23 93.4269 126.87 91.4908C125.344 90.4079 123.997 89.0933 122.877 87.5943C122.054 86.2414 121.426 84.7788 121.013 83.2502C119.573 78.7124 123.929 76.74 126.846 80.0677C130.694 84.4724 134.203 88.7681 139.067 92.1684Z" fill="#68E1FD"/>
<path d="M138.474 156.665C138.411 156.515 138.389 156.351 138.41 156.189C138.431 156.028 138.495 155.875 138.595 155.746C138.861 155.492 139.297 155.613 139.636 155.746C140.384 156.109 141.166 156.396 141.971 156.605C142.782 156.818 143.643 156.728 144.391 156.351C144.803 156.109 145.202 155.746 145.674 155.782C145.912 155.818 146.139 155.904 146.34 156.036C147.066 156.413 147.845 156.678 148.651 156.823C148.99 156.852 149.317 156.959 149.607 157.137C149.694 157.199 149.758 157.289 149.788 157.391C149.788 157.633 149.558 157.815 149.329 157.9C146.812 158.88 143.992 158.517 141.306 158.226C141.005 158.184 140.699 158.184 140.398 158.226C139.95 158.311 139.406 158.541 139.031 158.226C138.71 157.765 138.517 157.226 138.474 156.665Z" fill="#473F47"/>
<path d="M114.575 163.563C114.536 163.406 114.536 163.242 114.576 163.086C114.616 162.929 114.695 162.786 114.805 162.667C115.108 162.45 115.519 162.667 115.846 162.8C116.549 163.248 117.29 163.632 118.06 163.95C118.841 164.24 119.7 164.24 120.48 163.95C120.916 163.768 121.352 163.454 121.824 163.551C122.052 163.618 122.266 163.729 122.453 163.877C123.119 164.365 123.858 164.745 124.643 165.003C124.98 165.072 125.295 165.222 125.563 165.438C125.602 165.471 125.634 165.512 125.657 165.558C125.68 165.604 125.693 165.653 125.696 165.705C125.696 165.947 125.43 166.092 125.188 166.152C122.562 166.818 119.815 166.152 117.189 165.487C116.894 165.401 116.589 165.356 116.281 165.354C115.834 165.354 115.265 165.547 114.926 165.136C114.681 164.649 114.56 164.108 114.575 163.563Z" fill="#473F47"/>
<path d="M136.986 67.3376C136.78 68.0031 136.574 68.6687 136.405 69.3463C136.213 70.357 135.946 71.352 135.606 72.3231C135.434 72.8074 135.158 73.2485 134.799 73.6162C134.44 73.9839 134.005 74.2693 133.525 74.4528C133.035 74.6093 132.504 74.5708 132.042 74.3454C131.58 74.12 131.222 73.725 131.044 73.2427C130.463 73.3758 130.258 74.0898 130.27 74.6948C130.367 75.2868 130.256 75.8941 129.955 76.4131C129.411 77.0545 128.346 76.7883 127.632 76.3284C126.551 75.6001 125.711 74.5673 125.217 73.361C124.724 72.1546 124.6 70.829 124.861 69.552C125.454 66.8536 125.429 63.6227 126.966 61.2872C127.518 60.4991 128.222 59.8286 129.035 59.3148C129.749 58.7927 130.58 58.4559 131.456 58.3346C132.068 58.2987 132.683 58.3475 133.283 58.4798C135.848 58.9155 138.026 59.2906 138.038 62.2311C137.96 63.9782 137.604 65.7018 136.986 67.3376Z" fill="#FCBDBA"/>
<path d="M133.828 62.582C133.429 62.582 132.969 62.4852 132.618 62.7272C132.267 62.9692 132.243 63.5137 132.025 63.9373C131.601 64.7238 130.524 64.8327 129.714 65.2441C129.223 65.5069 128.814 65.9002 128.532 66.3806C128.25 66.861 128.106 67.4099 128.116 67.9668C128.132 67.6105 128.044 67.2574 127.862 66.9504C127.814 66.8776 127.751 66.8155 127.678 66.7679C127.605 66.7202 127.523 66.6881 127.436 66.6733C127.35 66.6586 127.262 66.6616 127.177 66.6822C127.092 66.7028 127.012 66.7405 126.943 66.793C126.834 66.9224 126.77 67.0839 126.761 67.2529C126.728 67.5984 126.784 67.9467 126.924 68.2644C127.064 68.5821 127.283 68.8588 127.56 69.068C127.309 69.5869 126.914 70.0231 126.423 70.3254C125.932 70.6277 125.365 70.7834 124.789 70.7742C124.425 70.7829 124.069 70.6629 123.784 70.4354C123.605 70.2513 123.473 70.0273 123.397 69.7819C122.707 67.8458 123.76 65.7766 124.014 63.7316C124.038 63.0094 124.156 62.2935 124.365 61.6018C124.59 61.1132 124.897 60.667 125.273 60.2828C126.402 58.9263 127.897 57.9226 129.581 57.3908C131.202 56.943 134.421 57.1729 135.692 58.4556C135.98 58.8227 136.162 59.2617 136.218 59.7251C136.275 60.1884 136.203 60.6583 136.011 61.0837C135.818 61.5091 135.513 61.8737 135.129 62.1378C134.744 62.402 134.294 62.5556 133.828 62.582Z" fill="#FF681C"/>
<path d="M133.114 246.284V223.643C136.091 217.181 141.959 221.586 141.959 221.586C142.876 222.546 144.058 223.21 145.355 223.492C146.652 223.773 148.004 223.66 149.236 223.167C150.468 222.673 151.524 221.822 152.268 220.723C153.011 219.624 153.409 218.327 153.409 217C153.409 215.673 153.011 214.376 152.268 213.277C151.524 212.177 150.468 211.326 149.236 210.833C148.004 210.339 146.652 210.226 145.355 210.508C144.058 210.79 142.876 211.453 141.959 212.414C136.417 216.044 133.114 210.356 133.114 210.356V187.704H155.754C155.754 187.704 161.49 184.4 157.811 178.858C156.851 177.942 156.187 176.759 155.906 175.462C155.624 174.165 155.737 172.814 156.231 171.582C156.724 170.35 157.575 169.294 158.674 168.55C159.774 167.806 161.07 167.409 162.398 167.409C163.725 167.409 165.022 167.806 166.121 168.55C167.22 169.294 168.071 170.35 168.565 171.582C169.058 172.814 169.171 174.165 168.889 175.462C168.608 176.759 167.944 177.942 166.984 178.858C166.984 178.858 162.579 184.727 169.041 187.704H191.681V246.284H133.114Z" fill="url(#paint6_linear_100_121)"/>
<path d="M89.7326 245.073H85.6426L127.511 134.521C127.652 134.164 127.897 133.858 128.214 133.642C128.531 133.426 128.906 133.311 129.29 133.311C129.6 133.31 129.905 133.385 130.179 133.529C130.454 133.672 130.689 133.881 130.866 134.135C131.042 134.39 131.153 134.684 131.191 134.991C131.228 135.299 131.191 135.611 131.081 135.9L89.7326 245.073Z" fill="#68E1FD"/>
<path d="M114.261 245.073H110.171L152.499 133.287H156.589L114.261 245.073Z" fill="#68E1FD"/>
<path d="M145.892 150.748H124.256L125.345 147.868H146.981L145.892 150.748Z" fill="#68E1FD"/>
<path d="M139.237 168.306H117.601L118.702 165.426H140.338L139.237 168.306Z" fill="#68E1FD"/>
<path d="M132.594 185.864H110.958L112.047 182.972H133.683L132.594 185.864Z" fill="#68E1FD"/>
<path d="M125.95 203.41H104.313L105.403 200.531H127.039L125.95 203.41Z" fill="#68E1FD"/>
<path d="M119.294 220.969H97.6582L98.7594 218.089H120.383L119.294 220.969Z" fill="#68E1FD"/>
<path d="M125.454 150.748L119.888 165.426H140.374L139.285 168.306H118.835L113.281 182.972H133.719L132.63 185.852H112.155L106.601 200.531H127.063L125.974 203.411H105.512L99.9457 218.089H120.396L119.295 220.969H98.8566L89.7326 245.073H85.6426L127.511 134.521C127.693 134.142 127.995 133.833 128.37 133.642C128.745 133.452 129.173 133.391 129.586 133.468C130 133.545 130.376 133.757 130.657 134.069C130.939 134.382 131.109 134.779 131.141 135.199C131.141 135.43 131.1 135.659 131.02 135.876L126.483 147.868H146.921L145.832 150.748H125.454Z" fill="url(#paint7_linear_100_121)"/>
<path d="M114.261 245.073H110.171L152.499 133.287H156.589L114.261 245.073Z" fill="url(#paint8_linear_100_121)"/>
<path d="M317.178 149.49C316.573 150.001 315.849 150.351 315.073 150.506C314.36 150.536 313.649 150.408 312.991 150.131L302.923 146.779C302.163 147.372 301.655 148.231 301.502 149.183C301.35 150.135 301.563 151.109 302.101 151.91C303.087 152.991 304.371 153.757 305.791 154.112L312.701 156.593C314.295 157.338 316.036 157.719 317.796 157.708C319.556 157.698 321.292 157.296 322.878 156.532C324.935 155.843 327.197 154.983 328.19 153.047C329.182 151.111 328.456 148.546 328.746 146.283C329.128 144.846 329.399 143.381 329.557 141.903C329.557 140.632 328.516 138.72 327.004 138.986C325.697 139.216 324.826 141.491 324.136 142.447C322.191 145.137 319.845 147.513 317.178 149.49Z" fill="white"/>
<path d="M301.665 146.21C301.56 145.938 301.399 145.691 301.193 145.484C301.091 145.381 300.961 145.309 300.819 145.279C300.677 145.249 300.529 145.261 300.394 145.315C300.262 145.396 300.156 145.513 300.087 145.652C300.019 145.791 299.991 145.947 300.007 146.101C300.017 146.156 300.015 146.212 300.003 146.266C299.99 146.32 299.967 146.371 299.934 146.416C299.862 146.489 299.729 146.416 299.62 146.416C298.482 146.198 297.321 146.029 296.159 145.908C296.034 145.883 295.905 145.892 295.786 145.935C295.666 145.978 295.56 146.052 295.479 146.15C295.398 146.248 295.346 146.366 295.327 146.492C295.308 146.618 295.324 146.746 295.372 146.864C295.499 147.249 295.691 147.609 295.941 147.929C296.534 148.897 296.752 150.167 297.696 150.797C298.273 151.134 298.944 151.274 299.608 151.196C300.273 151.196 300.927 151.039 301.592 151.075C302.032 151.169 302.491 151.118 302.899 150.93C303.052 150.816 303.173 150.665 303.251 150.491C303.329 150.318 303.362 150.127 303.347 149.937C303.277 149.34 303.065 148.767 302.73 148.267C302.355 147.614 302.004 146.912 301.665 146.21Z" fill="#FDB9A9"/>
<path d="M329.739 221.997C325.891 221.126 326.641 226.584 325.624 228.616C324.981 229.66 324.162 230.586 323.204 231.351C322.261 232.137 321.644 233.245 321.474 234.461C321.451 234.687 321.498 234.915 321.607 235.115C321.803 235.354 322.077 235.517 322.381 235.574C324.582 236.217 326.945 235.983 328.976 234.921C329.928 234.472 330.718 233.741 331.239 232.828C331.661 231.842 331.859 230.776 331.82 229.706C331.941 227.431 332.957 222.711 329.739 221.997Z" fill="#FDB9A9"/>
<path d="M326.326 233.251C326.326 233.251 315.363 233.723 320.01 237.16C324.656 240.596 331.59 236.325 332.268 235.538C332.945 234.751 332.389 233.408 332.389 233.408L326.326 233.251Z" fill="#68E1FD"/>
<path d="M331.784 234.764C330.816 235.974 325.661 237.559 323.374 237.389C321.087 237.22 319.042 236.179 319.272 234.691C319.502 233.203 323.519 229.778 324.281 229.79C325.044 229.802 325.637 231.557 327.161 231.92C327.843 232.033 328.541 231.97 329.192 231.737C329.842 231.504 330.422 231.109 330.876 230.589C331.012 230.407 331.206 230.276 331.425 230.217C331.644 230.158 331.877 230.174 332.086 230.262C332.405 230.981 332.544 231.766 332.492 232.55C332.439 233.335 332.196 234.094 331.784 234.764Z" fill="white"/>
<path d="M342.965 224.151C339.117 223.256 339.867 228.725 338.85 230.746C338.207 231.794 337.389 232.723 336.43 233.493C335.488 234.274 334.871 235.379 334.7 236.591C334.68 236.821 334.726 237.052 334.833 237.256C335.032 237.492 335.305 237.654 335.607 237.716C337.808 238.354 340.17 238.12 342.202 237.063C343.152 236.606 343.941 235.872 344.465 234.957C344.885 233.976 345.083 232.914 345.046 231.847C345.167 229.548 346.184 224.841 342.965 224.151Z" fill="#FDB9A9"/>
<path d="M339.552 235.357C339.552 235.357 328.589 235.816 333.236 239.277C337.882 242.738 344.816 238.43 345.494 237.644C346.171 236.857 345.615 235.514 345.615 235.514L339.552 235.357Z" fill="#68E1FD"/>
<path d="M345.01 236.845C344.042 238.055 338.887 239.652 336.6 239.483C334.313 239.313 332.268 238.273 332.498 236.784C332.728 235.296 336.745 231.871 337.507 231.944C338.27 232.017 338.863 233.711 340.387 234.062C341.068 234.177 341.766 234.117 342.417 233.886C343.067 233.655 343.647 233.261 344.102 232.743C344.237 232.559 344.43 232.427 344.65 232.367C344.87 232.308 345.104 232.325 345.312 232.416C345.619 233.125 345.751 233.897 345.699 234.667C345.646 235.438 345.41 236.184 345.01 236.845Z" fill="white"/>
<path d="M333.03 174.381L338.185 228.641L345.615 227.721C348.555 214.483 347.829 174.877 347.829 174.877L333.03 174.381Z" fill="#473F47"/>
<path d="M338.185 172.917L333.03 227.165L325.576 226.245C321.328 191.927 324.838 170.581 324.838 170.581L338.185 172.917Z" fill="#473F47"/>
<path d="M325.516 153.301C325.419 152.309 325.153 151.317 325.056 150.3C324.814 148.256 324.85 146.188 325.165 144.153C325.515 141.982 326.171 139.872 327.113 137.885C327.96 136.167 329.533 135.465 331.251 134.569C332.713 133.784 334.296 133.248 335.934 132.984C337.087 132.879 338.249 132.944 339.383 133.178C342.892 133.843 347.503 135.598 349.899 138.417C351.702 140.487 351.907 143.463 351.968 146.21C352.04 149.998 351.968 153.785 351.726 157.573C351.726 158.117 351.665 158.662 351.617 159.219C351.422 163.432 350.785 167.614 349.717 171.694C349.517 172.969 348.826 174.116 347.793 174.889C345.046 176.486 340.859 175.603 337.895 175.192C333.962 174.635 329.932 174.054 326.447 172.142C325.724 171.832 325.139 171.268 324.802 170.557C324.628 169.661 324.742 168.734 325.128 167.907C326.338 164.035 325.395 159.957 325.395 156C325.395 155.286 325.479 154.56 325.479 153.834C325.516 153.664 325.516 153.483 325.516 153.301Z" fill="white"/>
<path d="M337.859 160.308C338.791 160.888 339.82 161.298 340.896 161.518C344.103 162.45 347.394 162.946 350.577 163.938C350.793 163.98 350.994 164.08 351.157 164.228C351.288 164.429 351.347 164.668 351.327 164.906C351.342 165.838 351.203 166.766 350.915 167.653C350.822 168.096 350.568 168.488 350.201 168.754C349.736 168.923 349.226 168.923 348.761 168.754L336.77 166.213C335.912 165.994 335.029 165.888 334.144 165.898C333.095 166.02 332.066 166.277 331.082 166.661C329.243 167.25 327.35 167.655 325.431 167.871C325.533 165.582 325.812 163.304 326.266 161.058C326.442 160.394 326.694 159.752 327.016 159.146C327.403 158.547 327.858 157.995 328.372 157.5C330.308 155.48 331.651 152.95 333.611 150.93C334.64 149.865 335.923 149.187 336.83 148.05C337.193 147.59 340.339 143.633 340.037 143.209C340.642 143.96 342.142 143.209 342.687 143.984C343.026 144.468 342.687 145.121 342.372 145.617C340.054 149.5 338.436 153.76 337.592 158.202C337.35 159.231 336.987 159.594 337.859 160.308Z" fill="url(#paint9_linear_100_121)"/>
<path d="M328.081 110.634C329.193 111.349 330.067 112.379 330.591 113.594C331.114 114.808 331.263 116.151 331.019 117.451C330.775 118.75 330.148 119.947 329.219 120.889C328.291 121.83 327.102 122.473 325.806 122.735C325.806 122.735 318.933 125.324 322.793 131.302L341.888 143.463L329.787 162.558C323.809 166.419 321.22 159.545 321.22 159.545C320.96 158.248 320.317 157.058 319.375 156.128C318.433 155.199 317.234 154.572 315.933 154.33C314.632 154.087 313.288 154.24 312.075 154.767C310.861 155.295 309.833 156.174 309.122 157.29C308.412 158.407 308.052 159.711 308.089 161.034C308.126 162.357 308.558 163.638 309.33 164.714C310.101 165.789 311.177 166.609 312.418 167.068C313.659 167.527 315.009 167.605 316.295 167.29C322.95 167.157 322.66 173.776 322.66 173.776L310.559 192.871L261.14 161.409L273.18 142.483C279.158 138.635 281.747 145.496 281.747 145.496C282.004 146.799 282.644 147.995 283.587 148.93C284.529 149.864 285.73 150.496 287.034 150.742C288.339 150.988 289.687 150.837 290.905 150.31C292.123 149.782 293.156 148.902 293.869 147.782C294.582 146.663 294.943 145.355 294.906 144.028C294.869 142.701 294.435 141.416 293.661 140.338C292.887 139.259 291.807 138.438 290.561 137.979C289.315 137.521 287.961 137.446 286.672 137.764C280.017 137.897 280.319 131.278 280.319 131.278L292.589 111.989L311.697 124.163C311.697 124.163 318.316 124.453 318.183 117.798C317.971 116.924 317.937 116.016 318.083 115.128C318.228 114.241 318.55 113.392 319.03 112.631C319.983 111.187 321.461 110.17 323.151 109.798C324.84 109.425 326.609 109.725 328.081 110.634Z" fill="#68E1FD"/>
<path d="M357.546 149.756C358.042 150.62 358.447 151.532 358.756 152.479C359.147 154.138 359.188 155.86 358.877 157.537C358.731 159.18 358.141 160.752 357.171 162.087C355.126 164.507 351.472 164.737 348.301 164.434C344.702 164.102 341.149 163.388 337.701 162.304C337.38 162.232 337.079 162.092 336.818 161.893C336.538 161.577 336.346 161.193 336.261 160.78C335.997 159.777 335.823 158.752 335.741 157.718C339.371 156.677 343.388 157.525 347.176 156.968C347.434 156.967 347.688 156.904 347.917 156.785C348.146 156.666 348.343 156.494 348.492 156.283C348.642 156.073 348.738 155.829 348.775 155.574C348.811 155.318 348.785 155.058 348.701 154.814C348.519 152.684 347.2 150.821 346.583 148.764C345.978 146.784 346.029 144.662 346.728 142.713C346.936 142.027 347.291 141.393 347.767 140.856C348.243 140.319 348.83 139.892 349.487 139.603C351 139.107 351.581 140.293 352.416 141.406C354.338 144.054 356.053 146.845 357.546 149.756Z" fill="white"/>
<path d="M334.228 156.363C334.086 156.247 333.914 156.171 333.732 156.145C333.593 156.16 333.46 156.211 333.347 156.294C333.235 156.377 333.146 156.488 333.091 156.617C332.984 156.878 332.863 157.132 332.728 157.379C332.546 157.581 332.321 157.739 332.07 157.842C331.818 157.945 331.547 157.989 331.276 157.972C330.733 157.918 330.185 157.918 329.642 157.972C329.441 158.013 329.254 158.105 329.098 158.238C328.949 158.384 328.844 158.569 328.795 158.771C328.703 159.182 328.714 159.61 328.828 160.015C328.942 160.421 329.155 160.791 329.448 161.094C330.039 161.693 330.766 162.141 331.566 162.401C332.383 162.762 333.289 162.871 334.168 162.716C334.65 162.575 335.111 162.368 335.535 162.099L337.302 161.118C337.449 161.049 337.581 160.95 337.689 160.828C338.076 160.344 337.544 158.892 337.193 158.408C336.31 157.585 335.311 156.896 334.228 156.363Z" fill="#FDB9A9"/>
<path d="M333.042 127.49C333.042 126.45 333.127 125.397 333.236 124.381C333.345 123.364 333.478 122.565 333.647 121.67C333.658 121.405 333.727 121.146 333.848 120.909C333.969 120.673 334.14 120.466 334.349 120.303C335.748 119.467 337.355 119.048 338.983 119.093C339.599 119.049 340.218 119.134 340.799 119.343C341.38 119.551 341.911 119.878 342.36 120.303C342.906 120.998 343.231 121.841 343.291 122.723C343.348 125.013 343.12 127.301 342.614 129.535C342.358 131.29 342.265 133.064 342.335 134.836C341.478 135.406 340.493 135.755 339.467 135.852C338.991 135.848 338.517 135.77 338.064 135.622C337.811 135.565 337.588 135.419 337.435 135.211C337.38 135.017 337.38 134.812 337.435 134.618C337.447 134.432 337.447 134.247 337.435 134.061C337.505 133.025 337.485 131.984 337.374 130.951C337.376 130.906 337.369 130.862 337.352 130.82C337.335 130.778 337.31 130.74 337.277 130.709C337.211 130.685 337.138 130.685 337.072 130.709H336.781C336.266 130.764 335.747 130.764 335.232 130.709C334.613 130.649 334.036 130.365 333.611 129.911C333.119 129.206 332.916 128.34 333.042 127.49Z" fill="#FDB9A9"/>
<path d="M335.196 120.859C334.833 120.859 334.506 121.053 334.192 120.859C333.863 120.587 333.573 120.269 333.333 119.916C332.754 119.149 332.471 118.2 332.534 117.241C332.557 116.808 332.699 116.389 332.945 116.031C333.214 115.706 333.559 115.452 333.95 115.293C334.7 114.923 335.536 114.761 336.37 114.821C337.579 114.978 338.706 115.517 339.589 116.358C339.775 116.552 340.002 116.701 340.254 116.794C340.486 116.842 340.725 116.842 340.956 116.794C342.488 116.665 344.009 117.133 345.204 118.1C345.881 118.693 346.414 119.456 347.115 119.976C347.817 120.496 348.507 120.69 348.87 121.356C349.022 121.665 349.083 122.011 349.047 122.353C349.01 122.696 348.878 123.021 348.664 123.292C348.214 123.822 347.594 124.181 346.91 124.308C346.985 124.505 347.02 124.715 347.013 124.925C347.006 125.136 346.958 125.343 346.87 125.535C346.782 125.726 346.657 125.898 346.501 126.041C346.346 126.184 346.164 126.294 345.966 126.365C345.686 126.408 345.416 126.498 345.167 126.631C344.998 126.765 344.925 126.97 344.756 127.103C344.356 127.43 343.836 127.539 343.667 128.096C343.616 128.33 343.596 128.57 343.606 128.81C343.577 129.165 343.432 129.5 343.195 129.766C343.037 129.935 342.759 130.358 342.529 130.407C342.299 130.455 342.094 130.177 342.021 129.935C341.737 128.909 341.81 127.817 342.227 126.837C342.526 126.364 342.701 125.823 342.735 125.264C342.735 124.707 341.936 124.272 341.525 124.599C341.113 124.925 341.089 125.712 340.654 125.554C340.924 124.772 340.904 123.919 340.597 123.15C340.291 122.382 339.718 121.749 338.984 121.368C338.169 121.118 337.319 121 336.467 121.017C336.069 120.933 335.663 120.888 335.257 120.884L335.196 120.859Z" fill="#473F47"/>
<path d="M336.781 130.733C337.983 130.505 339.158 130.156 340.29 129.693C340.392 130.646 340.163 131.606 339.641 132.41C339.119 133.215 338.335 133.815 337.423 134.11C337.513 133.075 337.513 132.034 337.423 131C337.421 130.91 337.387 130.824 337.326 130.758C337.259 130.734 337.187 130.734 337.12 130.758H336.842L336.781 130.733Z" fill="#DE9F93"/>
<path d="M298.894 139.434C299.077 139.697 299.196 139.999 299.24 140.317C299.284 140.635 299.253 140.958 299.148 141.261C298.938 141.867 298.632 142.435 298.241 142.943L296.341 145.751C295.845 146.477 295.131 147.299 294.296 147.227C292.214 147.082 291.295 141.685 292.069 140.087C292.965 138.091 297.527 137.728 298.894 139.434Z" fill="#FDB9A9"/>
<path d="M308.696 187.704V246.284H250.128V223.631C250.128 223.631 253.431 217.895 258.974 221.574C259.89 222.534 261.073 223.198 262.37 223.48C263.666 223.761 265.018 223.648 266.25 223.155C267.482 222.661 268.538 221.81 269.282 220.711C270.026 219.612 270.423 218.315 270.423 216.988C270.423 215.66 270.026 214.364 269.282 213.265C268.538 212.165 267.482 211.314 266.25 210.821C265.018 210.327 263.666 210.214 262.37 210.496C261.073 210.778 259.89 211.441 258.974 212.401C258.974 212.401 253.105 216.806 250.128 210.344V187.704H272.768C279.23 184.727 274.826 178.858 274.826 178.858C273.865 177.942 273.202 176.759 272.92 175.462C272.638 174.165 272.751 172.814 273.245 171.582C273.738 170.35 274.589 169.294 275.689 168.55C276.788 167.806 278.085 167.409 279.412 167.409C280.739 167.409 282.036 167.806 283.135 168.55C284.234 169.294 285.085 170.35 285.579 171.582C286.072 172.814 286.185 174.165 285.904 175.462C285.622 176.759 284.958 177.942 283.998 178.858C280.368 184.4 286.055 187.704 286.055 187.704H308.696Z" fill="#68E1FD"/>
<path d="M308.696 187.704V246.284H250.128V223.631C250.128 223.631 253.431 217.895 258.974 221.574C259.89 222.534 261.073 223.198 262.37 223.48C263.666 223.761 265.018 223.648 266.25 223.155C267.482 222.661 268.538 221.81 269.282 220.711C270.026 219.612 270.423 218.315 270.423 216.988C270.423 215.66 270.026 214.364 269.282 213.265C268.538 212.165 267.482 211.314 266.25 210.821C265.018 210.327 263.666 210.214 262.37 210.496C261.073 210.778 259.89 211.441 258.974 212.401C258.974 212.401 253.105 216.806 250.128 210.344V187.704H272.768C279.23 184.727 274.826 178.858 274.826 178.858C273.865 177.942 273.202 176.759 272.92 175.462C272.638 174.165 272.751 172.814 273.245 171.582C273.738 170.35 274.589 169.294 275.689 168.55C276.788 167.806 278.085 167.409 279.412 167.409C280.739 167.409 282.036 167.806 283.135 168.55C284.234 169.294 285.085 170.35 285.579 171.582C286.072 172.814 286.185 174.165 285.904 175.462C285.622 176.759 284.958 177.942 283.998 178.858C280.368 184.4 286.055 187.704 286.055 187.704H308.696Z" fill="url(#paint10_linear_100_121)"/>
<path d="M211.865 158.408C211.861 159.734 211.461 161.03 210.716 162.127C209.97 163.224 208.914 164.074 207.683 164.567C206.451 165.06 205.1 165.174 203.804 164.893C202.507 164.613 201.324 163.952 200.406 162.994C194.864 159.364 191.56 165.051 191.56 165.051V187.704H250.128V129.124H191.56V151.765C194.537 158.226 200.406 153.822 200.406 153.822C201.324 152.864 202.507 152.203 203.804 151.923C205.1 151.642 206.451 151.756 207.683 152.249C208.914 152.742 209.97 153.591 210.716 154.689C211.461 155.786 211.861 157.081 211.865 158.408Z" fill="#68E1FD"/>
<path d="M216.258 196.549C215.298 197.466 214.634 198.648 214.352 199.945C214.07 201.242 214.183 202.594 214.677 203.826C215.17 205.058 216.022 206.114 217.121 206.858C218.22 207.601 219.517 207.999 220.844 207.999C222.171 207.999 223.468 207.601 224.567 206.858C225.666 206.114 226.517 205.058 227.011 203.826C227.504 202.594 227.618 201.242 227.336 199.945C227.054 198.648 226.39 197.466 225.43 196.549C225.43 196.549 221.025 190.681 227.487 187.704H214.188C214.188 187.704 219.936 191.007 216.258 196.549Z" fill="#68E1FD"/>
<path d="M191.56 129.124V151.765C194.537 158.226 200.406 153.822 200.406 153.822C201.322 152.862 202.505 152.198 203.802 151.916C205.099 151.634 206.45 151.747 207.682 152.241C208.914 152.734 209.97 153.586 210.714 154.685C211.458 155.784 211.855 157.081 211.855 158.408C211.855 159.735 211.458 161.032 210.714 162.131C209.97 163.23 208.914 164.081 207.682 164.575C206.45 165.068 205.099 165.182 203.802 164.9C202.505 164.618 201.322 163.954 200.406 162.994C194.864 159.364 191.56 165.051 191.56 165.051V187.704H214.188C214.188 187.704 219.924 191.007 216.246 196.55C215.285 197.466 214.622 198.649 214.34 199.945C214.058 201.242 214.171 202.594 214.665 203.826C215.158 205.058 216.009 206.114 217.109 206.858C218.208 207.602 219.505 207.999 220.832 207.999C222.159 207.999 223.456 207.602 224.555 206.858C225.654 206.114 226.505 205.058 226.999 203.826C227.492 202.594 227.605 201.242 227.324 199.945C227.042 198.649 226.378 197.466 225.418 196.55C225.418 196.55 221.013 190.681 227.475 187.704H250.128V129.124H191.56Z" fill="url(#paint11_linear_100_121)"/>
<path d="M191.56 187.704V246.283H250.128V223.631C250.128 223.631 253.431 217.895 258.973 221.574C259.89 222.534 261.072 223.198 262.369 223.479C263.666 223.761 265.018 223.648 266.25 223.155C267.482 222.661 268.538 221.81 269.282 220.711C270.025 219.612 270.423 218.315 270.423 216.988C270.423 215.66 270.025 214.364 269.282 213.264C268.538 212.165 267.482 211.314 266.25 210.821C265.018 210.327 263.666 210.214 262.369 210.496C261.072 210.777 259.89 211.441 258.973 212.401C258.973 212.401 253.104 216.806 250.128 210.344V187.704H227.499C221.037 190.681 225.442 196.549 225.442 196.549C226.402 197.466 227.066 198.648 227.348 199.945C227.63 201.242 227.516 202.594 227.023 203.826C226.529 205.058 225.678 206.114 224.579 206.858C223.48 207.601 222.183 207.999 220.856 207.999C219.529 207.999 218.232 207.601 217.133 206.858C216.034 206.114 215.182 205.058 214.689 203.826C214.195 202.594 214.082 201.242 214.364 199.945C214.646 198.648 215.31 197.466 216.27 196.549C219.9 191.007 214.213 187.704 214.213 187.704H191.56Z" fill="#68E1FD"/>
<path d="M133.114 246.284V223.643C136.091 217.181 141.959 221.586 141.959 221.586C142.876 222.546 144.058 223.21 145.355 223.492C146.652 223.773 148.004 223.66 149.236 223.167C150.468 222.673 151.524 221.822 152.268 220.723C153.011 219.624 153.409 218.327 153.409 217C153.409 215.673 153.011 214.376 152.268 213.277C151.524 212.177 150.468 211.326 149.236 210.833C148.004 210.339 146.652 210.226 145.355 210.508C144.058 210.79 142.876 211.453 141.959 212.414C136.417 216.044 133.114 210.356 133.114 210.356V187.704H155.754C155.754 187.704 161.49 184.4 157.811 178.858C156.851 177.942 156.187 176.759 155.906 175.462C155.624 174.165 155.737 172.814 156.231 171.582C156.724 170.35 157.575 169.294 158.674 168.55C159.774 167.806 161.07 167.409 162.398 167.409C163.725 167.409 165.022 167.806 166.121 168.55C167.22 169.294 168.071 170.35 168.565 171.582C169.058 172.814 169.171 174.165 168.889 175.462C168.608 176.759 167.944 177.942 166.984 178.858C166.984 178.858 162.579 184.727 169.041 187.704H191.681V246.284H133.114Z" fill="#68E1FD"/>
<path d="M133.114 246.284V223.643C136.091 217.181 141.959 221.586 141.959 221.586C142.876 222.546 144.058 223.21 145.355 223.492C146.652 223.773 148.004 223.66 149.236 223.167C150.468 222.673 151.524 221.822 152.268 220.723C153.011 219.624 153.409 218.327 153.409 217C153.409 215.673 153.011 214.376 152.268 213.277C151.524 212.177 150.468 211.326 149.236 210.833C148.004 210.339 146.652 210.226 145.355 210.508C144.058 210.79 142.876 211.453 141.959 212.414C136.417 216.044 133.114 210.356 133.114 210.356V187.704H155.754C155.754 187.704 161.49 184.4 157.811 178.858C156.851 177.942 156.187 176.759 155.906 175.462C155.624 174.165 155.737 172.814 156.231 171.582C156.724 170.35 157.575 169.294 158.674 168.55C159.774 167.806 161.07 167.409 162.398 167.409C163.725 167.409 165.022 167.806 166.121 168.55C167.22 169.294 168.071 170.35 168.565 171.582C169.058 172.814 169.171 174.165 168.889 175.462C168.608 176.759 167.944 177.942 166.984 178.858C166.984 178.858 162.579 184.727 169.041 187.704H191.681V246.284H133.114Z" fill="url(#paint12_linear_100_121)"/>
<path d="M211.938 158.42C211.934 159.747 211.534 161.042 210.789 162.139C210.043 163.237 208.987 164.086 207.756 164.579C206.524 165.072 205.173 165.186 203.877 164.905C202.58 164.625 201.397 163.964 200.479 163.006C200.479 163.006 194.61 158.602 191.633 165.063V187.704H168.992C162.531 184.727 166.935 178.858 166.935 178.858C167.896 177.942 168.559 176.759 168.841 175.462C169.123 174.165 169.01 172.814 168.516 171.582C168.023 170.35 167.171 169.294 166.072 168.55C164.973 167.806 163.676 167.409 162.349 167.409C161.022 167.409 159.725 167.806 158.626 168.55C157.527 169.294 156.676 170.35 156.182 171.582C155.689 172.814 155.576 174.165 155.857 175.462C156.139 176.759 156.803 177.942 157.763 178.858C161.393 184.4 155.706 187.704 155.706 187.704H133.114V129.124H155.536C161.998 132.101 157.594 137.97 157.594 137.97C156.633 138.886 155.97 140.069 155.688 141.366C155.406 142.663 155.519 144.014 156.013 145.246C156.506 146.478 157.357 147.534 158.457 148.278C159.556 149.022 160.853 149.419 162.18 149.419C163.507 149.419 164.804 149.022 165.903 148.278C167.002 147.534 167.853 146.478 168.347 145.246C168.84 144.014 168.953 142.663 168.672 141.366C168.39 140.069 167.726 138.886 166.766 137.97C163.136 132.428 168.823 129.124 168.823 129.124H191.681V151.777C191.681 151.777 194.985 157.512 200.527 153.834C201.445 152.876 202.628 152.215 203.925 151.935C205.222 151.654 206.572 151.768 207.804 152.261C209.036 152.754 210.092 153.604 210.837 154.701C211.582 155.798 211.982 157.094 211.986 158.42H211.938Z" fill="#68E1FD"/>
<path d="M226.289 270.981C226.311 272.31 225.933 273.614 225.205 274.725C224.477 275.837 223.433 276.705 222.207 277.217C220.981 277.729 219.63 277.861 218.328 277.598C217.026 277.334 215.833 276.686 214.903 275.737C214.903 275.737 208.973 271.417 206.093 277.915L206.42 300.556L183.78 300.882C177.269 298.002 181.589 292.073 181.589 292.073C182.532 291.144 183.175 289.953 183.435 288.655C183.696 287.358 183.562 286.012 183.051 284.79C182.539 283.569 181.675 282.529 180.567 281.804C179.46 281.079 178.161 280.701 176.837 280.72C175.514 280.74 174.226 281.154 173.14 281.912C172.055 282.669 171.22 283.734 170.745 284.969C170.269 286.204 170.175 287.554 170.473 288.844C170.771 290.133 171.448 291.304 172.417 292.206C176.18 297.688 170.493 301.076 170.493 301.076L147.852 301.403L147.005 242.823L169.428 242.508C175.938 245.388 171.618 251.318 171.618 251.318C170.676 252.247 170.033 253.437 169.772 254.735C169.512 256.033 169.646 257.379 170.157 258.6C170.668 259.821 171.533 260.861 172.64 261.587C173.748 262.312 175.047 262.689 176.37 262.67C177.694 262.651 178.981 262.236 180.067 261.479C181.153 260.722 181.987 259.657 182.463 258.421C182.938 257.186 183.033 255.837 182.735 254.547C182.437 253.257 181.76 252.086 180.791 251.184C177.027 245.703 182.715 242.315 182.715 242.315L205.573 241.988L205.9 264.641C205.9 264.641 209.288 270.328 214.77 266.565C215.391 265.902 216.14 265.371 216.972 265.005C217.804 264.639 218.701 264.445 219.61 264.435C221.362 264.422 223.049 265.103 224.3 266.33C225.552 267.557 226.267 269.229 226.289 270.981Z" fill="#68E1FD"/>
<path d="M155.209 243.041C154.399 243.936 153.769 245.908 155.052 246.743C155.511 246.991 156.02 247.131 156.541 247.155L163.39 247.99C163.184 247.99 166.766 288.346 168.169 296.925C168.339 297.942 168.762 299.212 169.791 299.345C170.099 299.327 170.399 299.236 170.666 299.081C170.933 298.925 171.16 298.709 171.328 298.45C172.316 296.901 172.88 295.119 172.961 293.283C174.663 280.11 175.471 266.838 175.381 253.556C175.381 250.93 175.285 248.183 173.978 245.896C173.175 244.652 172.123 243.588 170.888 242.771C169.652 241.955 168.261 241.404 166.802 241.153C162.893 240.269 158.053 239.87 155.209 243.041Z" fill="url(#paint13_linear_100_121)"/>
<path d="M171.691 326.802V326.959C171.981 327.697 172.901 327.939 173.675 328.036C174.406 328.117 175.142 328.149 175.877 328.133C176.23 328.146 176.582 328.097 176.918 327.988C177.226 327.852 177.515 327.677 177.777 327.467L179.895 325.894C180.49 325.484 181.034 325.005 181.516 324.466C181.993 323.913 182.244 323.2 182.218 322.47C182.193 322.109 182.057 321.765 181.83 321.484C181.603 321.202 181.295 320.997 180.948 320.897C180.506 320.843 180.059 320.843 179.617 320.897C179.125 320.96 178.626 320.879 178.179 320.664C177.732 320.45 177.357 320.11 177.1 319.687C177.012 319.292 176.8 318.935 176.495 318.67C176.187 318.52 175.837 318.478 175.502 318.549C174.768 318.586 174.042 318.729 173.348 318.973C172.999 319.098 172.681 319.3 172.419 319.564C172.158 319.828 171.958 320.147 171.836 320.497C171.762 320.823 171.729 321.156 171.739 321.49C171.781 322.179 171.781 322.87 171.739 323.559C171.642 324.419 171.594 325.283 171.594 326.149C171.601 326.369 171.633 326.589 171.691 326.802Z" fill="#262836"/>
<path d="M192.226 327.08C190.8 327.733 189.333 328.291 187.833 328.75C187.237 329.008 186.568 329.046 185.946 328.859C185.701 328.741 185.486 328.572 185.312 328.363C185.139 328.154 185.013 327.911 184.941 327.649C184.811 327.115 184.758 326.565 184.784 326.015C184.877 325.166 185.051 324.327 185.304 323.511C185.437 322.748 185.546 321.986 185.643 321.224C185.8 320.122 185.946 319.033 186.079 317.944L189.89 318.755C190.29 318.84 190.665 320.376 190.907 320.703C191.084 320.944 191.313 321.142 191.577 321.282C191.841 321.422 192.133 321.502 192.432 321.514C193.081 321.42 193.736 321.367 194.392 321.357C194.815 321.456 195.193 321.693 195.467 322.03C195.741 322.367 195.894 322.786 195.904 323.22C195.901 323.652 195.808 324.078 195.631 324.472C195.454 324.866 195.197 325.218 194.876 325.507C194.234 326.088 193.497 326.555 192.698 326.887L192.226 327.08Z" fill="#262836"/>
<path d="M192.286 322.821C191.286 323.389 190.247 323.887 189.176 324.309H189.08C187.313 324.999 185.34 322.228 185.34 322.228C185.34 322.228 182.848 306.836 182.92 300.446C183.005 296.066 181.964 289.822 180.403 278.496C180.016 290.064 178.056 295.146 178.552 299.297C179.314 305.601 178.407 321.26 178.407 321.26C178.407 321.26 176.737 324.309 174.91 323.898H174.801C173.701 323.648 172.621 323.316 171.57 322.905C171.57 322.905 169.44 301.342 169.44 295.655C169.44 289.967 169.682 284.873 169.682 284.873L168.569 266.867L173.312 259.969L173.7 259.812L174.063 259.449L179.326 255.589C179.326 255.589 179.326 256.484 179.23 258.009L183.32 260.199L183.707 260.49L184.106 260.587L190.955 261.797C190.955 261.797 192.746 289.423 193.375 295.074C194.005 300.725 192.286 322.821 192.286 322.821Z" fill="#68E1FD"/>
<path d="M192.286 322.821C191.286 323.389 190.247 323.887 189.176 324.309H189.08C187.313 324.999 185.34 322.228 185.34 322.228C185.34 322.228 182.848 306.836 182.92 300.446C183.005 296.066 181.964 289.822 180.403 278.496C180.016 290.064 178.056 295.146 178.552 299.297C179.314 305.601 178.407 321.26 178.407 321.26C178.407 321.26 176.737 324.309 174.91 323.898H174.801C173.701 323.648 172.621 323.316 171.57 322.905C171.57 322.905 169.44 301.342 169.44 295.655C169.44 289.967 169.682 284.873 169.682 284.873L168.569 266.867L173.312 259.969L173.7 259.812L174.063 259.449L179.326 255.589C179.326 255.589 179.326 256.484 179.23 258.009L183.32 260.199L183.707 260.49L184.106 260.587L190.955 261.797C190.955 261.797 192.746 289.423 193.375 295.074C194.005 300.725 192.286 322.821 192.286 322.821Z" fill="url(#paint14_linear_100_121)"/>
<path d="M224.523 226.523C224.608 226.462 224.709 226.429 224.814 226.426C225.092 226.426 225.104 226.874 225.007 227.14C224.754 227.882 224.387 228.581 223.918 229.209C223.766 229.366 223.676 229.572 223.664 229.79C223.664 230.008 223.858 230.165 224.003 230.323C224.448 230.839 224.765 231.454 224.926 232.117C225.088 232.779 225.091 233.471 224.935 234.134C224.599 235.46 223.909 236.669 222.938 237.631C222.704 237.929 222.414 238.177 222.084 238.362C221.753 238.547 221.39 238.665 221.014 238.708C219.707 238.708 218.073 237.099 217.553 235.986C217.364 235.43 217.322 234.834 217.432 234.257C217.543 233.68 217.801 233.141 218.182 232.694C219.726 230.123 221.911 227.997 224.523 226.523Z" fill="#A67C52"/>
<path d="M186.611 213.817C187.034 214.253 187.688 214.701 187.506 215.269C187.409 215.572 187.083 215.753 186.841 215.971C186.243 216.604 185.921 217.449 185.945 218.319C185.971 219.184 185.848 220.048 185.582 220.872C185.431 221.28 185.144 221.623 184.769 221.843C184.394 222.064 183.955 222.148 183.525 222.082C183.029 221.949 182.533 221.513 182.049 221.719C181.565 221.925 181.565 222.324 181.371 222.663C181.107 223.08 180.731 223.414 180.286 223.628C179.841 223.842 179.345 223.927 178.854 223.873C177.883 223.727 176.948 223.403 176.095 222.917C175.733 222.773 175.418 222.529 175.188 222.215C175.047 221.908 175.013 221.563 175.091 221.235C175.39 220.25 175.879 219.333 176.531 218.537C177.574 216.928 178.202 215.086 178.358 213.176C178.455 211.845 178.358 210.381 179.217 209.352C180.427 207.948 183.174 207.96 184.614 208.989C186.054 210.018 185.28 212.45 186.611 213.817Z" fill="#A67C52"/>
<path d="M184.893 207.791C184.724 208.123 184.469 208.403 184.155 208.602C183.514 208.977 182.945 209.413 182.364 209.812C181.778 210.198 181.366 210.797 181.214 211.482C180.96 212.692 181.638 214.071 181.214 215.294C181.057 215.548 180.658 215.39 180.501 215.148C180.343 214.906 180.246 214.604 180.004 214.459C179.581 214.217 179.073 214.628 178.891 215.076C178.704 215.596 178.725 216.169 178.95 216.675C179.176 217.18 179.588 217.578 180.101 217.786C180.041 218.174 179.545 218.331 179.145 218.282C178.751 218.174 178.344 218.121 177.935 218.125C177.028 218.295 176.725 219.589 175.781 219.722C175.469 219.702 175.165 219.609 174.894 219.452C174.624 219.294 174.393 219.076 174.22 218.815L173.119 217.605C172.942 217.369 172.747 217.147 172.538 216.939C172.284 216.746 171.873 216.734 171.667 216.504C171.461 216.274 171.667 215.729 171.449 215.439C171.346 215.331 171.217 215.252 171.074 215.209C170.757 215.049 170.505 214.785 170.36 214.461C170.214 214.137 170.185 213.773 170.275 213.43C170.305 213.344 170.305 213.25 170.275 213.164C170.275 213.043 170.106 212.994 169.985 212.934C169.651 212.718 169.405 212.389 169.292 212.007C169.179 211.626 169.206 211.216 169.368 210.853C169.552 210.435 169.815 210.057 170.142 209.739C170.258 209.562 170.422 209.42 170.614 209.333C170.807 209.245 171.021 209.214 171.231 209.243L171.413 207.658C171.408 207.39 171.464 207.123 171.575 206.879C171.686 206.634 171.849 206.417 172.054 206.244C172.259 206.07 172.5 205.944 172.759 205.875C173.019 205.805 173.291 205.795 173.555 205.843L173.192 204.536C173.125 204.369 173.125 204.183 173.192 204.016C173.291 203.9 173.428 203.823 173.579 203.798C174.001 203.677 174.435 203.604 174.874 203.58C174.716 203.213 174.595 202.833 174.511 202.443C174.483 202.386 174.473 202.323 174.481 202.261C174.489 202.199 174.516 202.141 174.558 202.095C174.599 202.048 174.654 202.014 174.714 201.999C174.775 201.983 174.839 201.986 174.898 202.007C175.058 202.031 175.221 202.031 175.382 202.007C175.382 202.007 175.14 200.894 175.128 200.797C175.054 200.447 175.119 200.083 175.309 199.78C175.442 199.63 175.609 199.515 175.797 199.445C175.985 199.375 176.188 199.353 176.386 199.381C176.779 199.451 177.156 199.59 177.5 199.793C177.5 199.369 178.02 199.151 178.443 199.115C179.259 199.069 180.073 199.23 180.809 199.584C181.545 199.937 182.18 200.471 182.654 201.136C182.733 201.253 182.822 201.362 182.921 201.462C183.114 201.586 183.327 201.676 183.55 201.729C183.893 201.881 184.198 202.107 184.443 202.392C184.688 202.677 184.867 203.012 184.966 203.374C185.147 204.094 185.22 204.836 185.184 205.577C185.211 206.146 185.158 206.716 185.026 207.271C185.002 207.449 184.958 207.623 184.893 207.791Z" fill="#2F3554"/>
<path d="M178.878 221.513C179.886 221.935 180.864 222.425 181.807 222.977C182.098 223.134 182.35 223.353 182.545 223.619C182.649 223.765 182.713 223.935 182.73 224.114C182.747 224.293 182.717 224.472 182.642 224.635C182.388 225.083 181.783 224.926 181.323 224.756C179.191 224.033 176.94 223.721 174.692 223.837C174.541 223.861 174.387 223.844 174.246 223.786C174.105 223.729 173.983 223.633 173.893 223.51C173.841 223.362 173.821 223.204 173.836 223.047C173.85 222.89 173.899 222.739 173.978 222.602C175.127 220.291 177.003 220.666 178.878 221.513Z" fill="white"/>
<path d="M220.299 239.35C219.862 240.436 219.217 241.427 218.399 242.266C217.613 243.15 216.802 243.997 215.979 244.819C213.991 246.741 211.894 248.547 209.699 250.228C208.208 251.546 206.431 252.499 204.508 253.012C203.728 253.194 202.912 253.144 202.16 252.866C201.549 252.562 200.996 252.152 200.527 251.656C199.97 251.1 193.508 243.658 193.399 243.658C193.033 243.854 192.749 244.177 192.601 244.565C191.667 246.499 191.089 248.586 190.894 250.725C190.816 251.679 190.816 252.638 190.894 253.592C191.149 256.848 192.286 260.199 191.161 263.273C190.936 263.923 190.563 264.511 190.072 264.991C189.598 265.406 189.053 265.73 188.462 265.947C187.419 266.374 186.331 266.683 185.219 266.867C184.584 266.984 183.941 267.053 183.295 267.073C180.875 267.17 178.576 266.71 176.204 266.819C174.195 266.927 172.199 267.448 170.154 267.375C169.865 267.431 169.568 267.424 169.283 267.355C168.997 267.285 168.73 267.154 168.5 266.971C168.27 266.788 168.083 266.558 167.95 266.295C167.818 266.033 167.744 265.745 167.734 265.451C166.95 261.143 166.545 256.774 166.524 252.394C166.524 250.87 166.439 249.333 166.342 247.808C166.257 246.514 166.608 243.222 165.132 242.968C161.381 242.242 157.484 243.162 153.697 242.629C153.802 240.151 154.855 237.808 156.637 236.083C157.512 235.345 158.461 234.7 159.469 234.159C160.63 233.328 161.672 232.342 162.567 231.23C165.14 228.053 168.4 225.5 172.102 223.764C172.692 223.475 173.313 223.256 173.953 223.111H174.111C174.203 223.1 174.297 223.1 174.389 223.111C175.199 223.043 176.014 223.092 176.809 223.256C182.208 224.152 187.55 225.364 192.806 226.886C193.5 227.042 194.157 227.33 194.743 227.733C195.151 228.102 195.502 228.531 195.783 229.004C197.259 231.23 198.699 233.481 200.188 235.708C201.471 237.619 202.729 240.015 204.617 241.419C208.726 239.749 212.605 237.561 216.161 234.909C216.657 234.534 217.298 234.122 217.867 234.376C218.056 234.461 218.225 234.585 218.363 234.74C219.755 235.95 220.977 237.281 220.299 239.35Z" fill="white"/>
<defs>
<linearGradient id="paint0_linear_100_121" x1="180.1" y1="291.734" x2="182.605" y2="339.883" gradientUnits="userSpaceOnUse">
<stop offset="0.01"/>
<stop offset="0.08" stop-opacity="0.69"/>
<stop offset="0.21" stop-opacity="0.32"/>
<stop offset="1" stop-opacity="0"/>
</linearGradient>
<linearGradient id="paint1_linear_100_121" x1="198.204" y1="111.554" x2="208.707" y2="283.747" gradientUnits="userSpaceOnUse">
<stop offset="0.01"/>
<stop offset="0.08" stop-opacity="0.69"/>
<stop offset="0.21" stop-opacity="0.32"/>
<stop offset="1" stop-opacity="0"/>
</linearGradient>
<linearGradient id="paint2_linear_100_121" x1="102.498" y1="84.7151" x2="130.206" y2="91.1391" gradientUnits="userSpaceOnUse">
<stop offset="0.01"/>
<stop offset="0.08" stop-opacity="0.69"/>
<stop offset="0.21" stop-opacity="0.32"/>
<stop offset="1" stop-opacity="0"/>
</linearGradient>
<linearGradient id="paint3_linear_100_121" x1="199.721" y1="170.958" x2="94.7984" y2="-42.0677" gradientUnits="userSpaceOnUse">
<stop offset="0.01"/>
<stop offset="0.08" stop-opacity="0.69"/>
<stop offset="0.21" stop-opacity="0.32"/>
<stop offset="1" stop-opacity="0"/>
</linearGradient>
<linearGradient id="paint4_linear_100_121" x1="2664.28" y1="5238.69" x2="2688.49" y2="5189.85" gradientUnits="userSpaceOnUse">
<stop offset="0.01"/>
<stop offset="0.08" stop-opacity="0.69"/>
<stop offset="0.21" stop-opacity="0.32"/>
<stop offset="1" stop-opacity="0"/>
</linearGradient>
<linearGradient id="paint5_linear_100_121" x1="140.906" y1="84.2712" x2="107.928" y2="110.365" gradientUnits="userSpaceOnUse">
<stop offset="0.01"/>
<stop offset="0.08" stop-opacity="0.69"/>
<stop offset="0.21" stop-opacity="0.32"/>
<stop offset="1" stop-opacity="0"/>
</linearGradient>
<linearGradient id="paint6_linear_100_121" x1="2675" y1="5187.98" x2="2809.27" y2="5018.47" gradientUnits="userSpaceOnUse">
<stop offset="0.01"/>
<stop offset="0.08" stop-opacity="0.69"/>
<stop offset="0.21" stop-opacity="0.32"/>
<stop offset="1" stop-opacity="0"/>
</linearGradient>
<linearGradient id="paint7_linear_100_121" x1="2703.53" y1="5163.78" x2="2804.09" y2="5178.03" gradientUnits="userSpaceOnUse">
<stop offset="0.01"/>
<stop offset="0.08" stop-opacity="0.69"/>
<stop offset="0.21" stop-opacity="0.32"/>
<stop offset="1" stop-opacity="0"/>
</linearGradient>
<linearGradient id="paint8_linear_100_121" x1="2766.8" y1="5229.59" x2="2943.09" y2="5254.58" gradientUnits="userSpaceOnUse">
<stop offset="0.01"/>
<stop offset="0.08" stop-opacity="0.69"/>
<stop offset="0.21" stop-opacity="0.32"/>
<stop offset="1" stop-opacity="0"/>
</linearGradient>
<linearGradient id="paint9_linear_100_121" x1="2539.74" y1="5130.13" x2="2591.3" y2="4935.35" gradientUnits="userSpaceOnUse">
<stop offset="0.01"/>
<stop offset="0.08" stop-opacity="0.69"/>
<stop offset="0.21" stop-opacity="0.32"/>
<stop offset="1" stop-opacity="0"/>
</linearGradient>
<linearGradient id="paint10_linear_100_121" x1="2680.57" y1="5181.65" x2="2577.63" y2="4846.33" gradientUnits="userSpaceOnUse">
<stop offset="0.01"/>
<stop offset="0.08" stop-opacity="0.69"/>
<stop offset="0.21" stop-opacity="0.32"/>
<stop offset="1" stop-opacity="0"/>
</linearGradient>
<linearGradient id="paint11_linear_100_121" x1="2740.09" y1="5046.51" x2="2518.4" y2="5243.1" gradientUnits="userSpaceOnUse">
<stop offset="0.01"/>
<stop offset="0.08" stop-opacity="0.69"/>
<stop offset="0.21" stop-opacity="0.32"/>
<stop offset="1" stop-opacity="0"/>
</linearGradient>
<linearGradient id="paint12_linear_100_121" x1="2643.88" y1="5224.07" x2="2871.35" y2="4945.19" gradientUnits="userSpaceOnUse">
<stop offset="0.01"/>
<stop offset="0.08" stop-opacity="0.69"/>
<stop offset="0.21" stop-opacity="0.32"/>
<stop offset="1" stop-opacity="0"/>
</linearGradient>
<linearGradient id="paint13_linear_100_121" x1="2762.88" y1="5124.41" x2="2750.01" y2="4968.44" gradientUnits="userSpaceOnUse">
<stop offset="0.01"/>
<stop offset="0.08" stop-opacity="0.69"/>
<stop offset="0.21" stop-opacity="0.32"/>
<stop offset="1" stop-opacity="0"/>
</linearGradient>
<linearGradient id="paint14_linear_100_121" x1="155.536" y1="256.351" x2="216.209" y2="341.286" gradientUnits="userSpaceOnUse">
<stop offset="0.01"/>
<stop offset="0.08" stop-opacity="0.69"/>
<stop offset="0.21" stop-opacity="0.32"/>
<stop offset="1" stop-opacity="0"/>
</linearGradient>
</defs>
</svg>
