<svg width="495" height="332" viewBox="0 0 495 332" fill="none" xmlns="http://www.w3.org/2000/svg">
<path opacity="0.24" d="M481.67 214.469C474.124 239.981 467.266 266.611 450.928 287.649C449.623 289.346 448.259 290.975 446.836 292.555C434.777 306.106 419.156 315.996 402.093 322.443C385.665 328.524 368.319 331.753 350.804 331.99C348.841 331.99 346.81 331.99 344.809 331.99C329.766 331.698 314.784 329.983 300.065 326.868C286.063 324.023 272.178 320.235 258.441 316.075C252.318 314.197 246.228 312.291 240.171 310.354C231.34 307.528 222.508 304.653 213.677 301.867C197.431 296.565 180.929 292.081 164.233 288.434C153.077 286.052 141.774 284.413 130.401 283.528C126.8 283.253 123.13 283.066 119.49 282.86C111.061 282.399 102.671 281.791 94.4879 279.73C82.0558 276.61 70.752 270.183 59.6544 263.756C38.921 251.697 17.2752 238.087 6.85456 216.441C-18.6573 163.396 31.7679 115.316 80.3877 105.494C93.5753 102.854 106.734 102.766 119.49 99.6751C123.77 98.6528 127.943 97.2235 131.951 95.4068C141.655 90.9716 150.261 84.7899 158.748 78.3629C172.574 67.8736 185.968 56.7759 202.904 51.6343C234.607 41.9594 267.409 57.031 300.045 64.3019C302.989 64.9691 305.932 65.5481 308.876 66.0583C320.755 67.9524 332.77 68.8648 344.799 68.7861C364.678 68.9725 384.715 67.7558 404.575 69.2767C436.435 71.7298 470.651 83.7596 486.086 111.744C503.129 142.604 491.639 180.646 481.67 214.469V214.469Z" fill="#68E1FD"/>
<path d="M439.624 39.0156L437.691 46.2963L429.478 77.2442L420.657 74.9383L425.956 54.8428L284.188 157.93L214.286 135.774L51.4414 260.635L45.8975 253.423L212.529 125.678L282.579 147.873L419.293 48.4452L398.952 48.7788L398.825 39.6829L438.653 39.0156H439.624Z" fill="#68E1FD"/>
<path d="M439.624 39.0156L437.691 46.2963L429.478 77.2442L420.657 74.9383L425.956 54.8428L284.188 157.93L214.286 135.774L51.4414 260.635L45.8975 253.423L212.529 125.678L282.579 147.873L419.293 48.4452L398.952 48.7788L398.825 39.6829L438.653 39.0156H439.624Z" fill="url(#paint0_linear_100_374)"/>
<path d="M174.536 154.84L174.566 166.35L154.794 181.215L159.357 166.507L174.536 154.84Z" fill="url(#paint1_linear_100_374)"/>
<path d="M353.728 96.1525L353.797 107.172L334.025 122.037L338.597 107.339L353.728 96.1525Z" fill="url(#paint2_linear_100_374)"/>
<path d="M164.262 74.1042V288.463C153.11 286.027 141.807 284.342 130.43 283.419C126.829 283.145 123.159 282.958 119.519 282.742V74.1042H164.262Z" fill="#68E1FD"/>
<path d="M258.441 155.075V316.104C252.318 314.227 246.228 312.32 240.171 310.384C231.34 307.558 222.509 304.683 213.678 301.896V155.075H258.441Z" fill="#68E1FD"/>
<path d="M344.808 23.8949V332C329.766 331.707 314.784 329.992 300.064 326.878V23.8949H344.808Z" fill="#68E1FD"/>
<path d="M446.837 109.222V292.555C434.777 306.105 419.156 315.996 402.093 322.443V109.222H446.837Z" fill="#68E1FD"/>
<path d="M155.373 25.6219C159.956 29.6743 160.387 35.8364 160.77 38.6525C161.329 42.1496 161.329 45.7134 160.77 49.2105C160.181 52.7192 158.546 55.9683 156.08 58.5322C155.891 58.7456 155.656 58.9133 155.393 59.0228C155.091 59.0671 154.784 59.0405 154.494 58.9451C154.204 58.8497 153.941 58.6882 153.725 58.4733C152.947 57.9845 152.303 57.3102 151.851 56.5109C150.869 54.4699 152.469 52.2425 153.381 50.182C155.344 45.8449 154.274 40.8211 152.901 36.2878C152.273 34.2174 150.291 23.8262 153.067 24.1402C153.99 24.2383 153.97 24.3855 155.373 25.6219V25.6219Z" fill="#68E1FD"/>
<path d="M154.273 29.3505C158.198 34.0702 157.619 40.2323 157.551 43.0876C157.541 46.626 156.968 50.1402 155.853 53.4984C154.72 56.8751 152.593 59.8303 149.75 61.9762C149.531 62.1578 149.272 62.2855 148.994 62.3491C148.69 62.3453 148.39 62.2706 148.119 62.131C147.849 61.9913 147.614 61.7905 147.434 61.5445C146.744 60.9375 146.215 60.1689 145.894 59.3073C145.276 57.1388 147.179 55.1764 148.406 53.2924C150.977 49.3184 150.761 44.1866 150.113 39.4963C149.819 37.3573 149.495 26.7404 152.183 27.5254C153.116 27.7609 153.076 27.8983 154.273 29.3505V29.3505Z" fill="url(#paint3_linear_100_374)"/>
<path d="M154.224 95.2203C154.156 96.5057 154.087 97.9187 154.872 98.949C156.903 97.7323 157.512 95.1026 157.816 92.7575C158.323 88.0973 158.191 83.3896 157.423 78.7652C157.342 78.0195 157.125 77.2947 156.785 76.6261C156.133 75.6673 155.206 74.9283 154.126 74.5066C153.481 74.1481 152.755 73.959 152.017 73.9572C151.649 73.9621 151.293 74.0809 150.996 74.297C150.699 74.5132 150.476 74.8161 150.358 75.1641C150.3 75.6175 150.351 76.0782 150.506 76.5083C150.843 78.0708 151.377 79.5842 152.095 81.0122C152.82 82.1636 153.36 83.4218 153.695 84.7408C154.425 88.1839 154.604 91.7211 154.224 95.2203V95.2203Z" fill="url(#paint4_linear_100_374)"/>
<path d="M126.475 78.2549C128.065 79.3255 129.936 79.9024 131.852 79.9131C132.549 79.9131 133.246 79.9818 133.952 80.0211C134.929 80.0639 135.855 80.4699 136.548 81.1596C137.242 81.8493 137.653 82.773 137.7 83.7497C137.759 85.202 137.789 86.6542 137.789 88.1064C137.789 91.5799 137.661 95.2105 139.192 98.3308C139.516 98.9784 140.026 99.675 140.752 99.6849C141.145 99.6704 141.521 99.5175 141.812 99.2531C142.745 98.4814 143.388 97.4159 143.637 96.2309C143.889 95.0513 143.994 93.8451 143.951 92.6396C143.951 88.0377 143.549 83.3376 141.753 79.0987C141.56 78.6155 141.327 78.1494 141.056 77.7054C139.878 76.0049 138.095 74.8186 136.072 74.3888C134.069 73.9669 132.014 73.8576 129.978 74.065C128.997 74.1337 128.016 74.2122 127.035 74.2613C126.495 74.2613 124.464 73.9865 124.091 74.2613C123.326 74.9285 125.906 77.8133 126.475 78.2549V78.2549Z" fill="url(#paint5_linear_100_374)"/>
<path d="M166.873 75.9393C167.079 80.5217 161.231 103.286 160.004 104.13C158.944 104.856 157.06 103.894 155.942 103.227L155.431 102.854C154.578 102.226 155.942 84.7311 155.942 84.7311C155.942 84.7311 156.373 78.7947 152.213 75.331C147.582 71.4846 142.273 67.9423 142.636 65.2145C142.668 64.8025 142.841 64.4141 143.127 64.1156C145.462 61.3289 158.738 63.4483 161.525 65.5089L161.672 65.607C161.678 65.6262 161.678 65.6467 161.672 65.6659C161.741 65.7248 161.829 65.8425 161.976 65.9995C162.123 66.1565 162.526 66.6667 162.889 67.1181C163.873 68.4773 164.755 69.9073 165.528 71.3962C166.26 72.8117 166.717 74.3535 166.873 75.9393V75.9393Z" fill="#606161"/>
<path d="M165.508 71.3962C165.508 72.5736 156.383 70.6014 155.264 72.5736C154.146 74.5459 156.628 73.7609 157.502 78.1274C158.375 82.4938 157.502 100.529 156.52 102.432C156.372 102.743 156.154 103.015 155.883 103.227L155.372 102.854C154.519 102.226 155.883 84.731 155.883 84.731C155.883 84.731 156.314 78.7946 152.154 75.3309C152.154 75.3309 152.792 71.406 149.917 69.1492C147.637 67.5505 145.173 66.2327 142.577 65.2243C146.048 64.1162 149.668 63.5438 153.312 63.5267C156.132 63.6382 158.903 64.3051 161.466 65.4892L161.613 65.5873C161.619 65.6065 161.619 65.627 161.613 65.6462C161.682 65.7051 161.77 65.8228 161.917 65.9798C162.064 66.1368 162.467 66.647 162.83 67.0984C164.037 68.6095 165.508 70.6897 165.508 71.3962V71.3962Z" fill="url(#paint6_linear_100_374)"/>
<path d="M148.739 102.403C148.27 103.78 147.483 105.026 146.443 106.043C145.91 106.538 145.238 106.859 144.517 106.962C143.797 107.065 143.062 106.947 142.41 106.622C140.978 105.739 140.713 103.855 140.556 102.226C140.075 96.5254 140.046 86.615 139.575 80.9141C139.526 80.2745 139.235 79.6777 138.76 79.246C138.034 78.6879 137.213 78.2657 136.337 77.9998C134.61 77.4209 132.412 77.0186 130.842 75.9098C130.265 75.5539 129.763 75.0909 129.36 74.5459C126.515 70.621 125.435 62.6927 127.82 58.9052C128.132 58.3275 128.578 57.8333 129.121 57.4644C129.664 57.0956 130.288 56.8628 130.94 56.7857C135.061 56.2657 142.489 58.9641 144.216 62.6731C144.606 63.9304 145.132 65.1413 145.786 66.284C147.16 68.1876 149.848 68.7665 151.183 70.7093C151.789 71.7274 152.164 72.8664 152.282 74.0455C153.772 83.6433 152.545 93.4667 148.739 102.403V102.403Z" fill="#606161"/>
<path d="M139.507 77.882C139.634 78.1592 139.695 78.4623 139.685 78.7672C139.675 79.072 139.593 79.3704 139.448 79.6384C139.202 79.5206 138.996 79.3637 138.751 79.2459C137.956 78.824 137.142 78.3922 136.327 77.9997C135.17 77.4895 133.963 77.0185 132.746 76.577C132.108 76.3611 131.47 76.1551 130.833 75.9097C130.256 75.5538 129.753 75.0908 129.351 74.5458C126.505 70.6209 125.426 62.6926 127.81 58.9051C130.139 59.2239 132.388 59.9725 134.443 61.1128C135.69 61.7212 136.926 62.3001 138.113 62.9968C138.898 63.4482 140.507 64.1154 139.261 64.9593C137.564 66.1367 134.355 64.0467 133.021 65.9405C132.781 66.3765 132.657 66.8659 132.658 67.3633C132.599 68.0894 132.53 68.8449 132.471 69.6103C132.395 70.2668 132.438 70.9316 132.599 71.5727C132.974 72.3883 133.586 73.072 134.355 73.5352C135.76 74.4023 137.116 75.3457 138.417 76.3611C138.881 76.7878 139.252 77.3055 139.507 77.882V77.882Z" fill="url(#paint7_linear_100_374)"/>
<path d="M142.215 113.373C142.726 113.863 143.296 114.288 143.912 114.639L146.561 116.287C147.543 116.886 148.779 117.465 149.672 116.797C150.565 116.13 150.418 114.962 150.104 114.011C149.63 112.591 148.802 111.314 147.7 110.302C147.467 110.121 147.27 109.898 147.121 109.644C147.022 109.368 146.982 109.074 147.003 108.781V106.053C147.003 103.296 143.206 103.786 142.009 105.425C140.546 107.436 140.488 111.528 142.215 113.373V113.373Z" fill="#606161"/>
<path d="M155.49 109.939C156.153 110.952 157.113 111.737 158.238 112.186C159.316 112.699 160.44 113.113 161.594 113.422C161.828 113.525 162.084 113.567 162.339 113.547C162.594 113.526 162.84 113.443 163.056 113.304C163.242 113.102 163.365 112.85 163.409 112.578C163.604 111.714 163.584 110.814 163.352 109.959C163.119 109.104 162.681 108.319 162.074 107.672C161.525 107.206 161.034 106.676 160.612 106.092C160.234 105.131 160.063 104.101 160.112 103.07C159.896 100.794 156.265 101.382 155.382 102.864C154.499 104.346 154.715 108.535 155.49 109.939V109.939Z" fill="#606161"/>
<path d="M126.937 56.6679C126.873 57.5987 127.095 58.5267 127.575 59.327C128.071 59.8876 128.688 60.3273 129.38 60.6124C132.756 62.31 136.19 64.0271 139.899 64.7238C143.608 65.4205 147.7 64.9887 150.693 62.7613C151.782 61.9883 152.608 60.899 153.057 59.641C153.538 58.1103 153.214 56.4619 153.136 54.8526C152.93 50.8591 154.264 47.0028 155.196 43.0779C156.129 39.153 156.619 34.9141 154.853 31.3032C153.46 28.4773 156.452 26.1027 153.813 24.3758C150.104 21.9423 145.747 20.7648 139.673 21.6676C137.318 22.0208 129.282 25.3275 128.419 27.5549C127.555 29.7823 130.087 32.0293 129.792 34.4235C128.89 41.665 126.937 49.2989 126.937 56.6679V56.6679Z" fill="#68E1FD"/>
<path d="M131.863 43.7354C131.863 42.6168 132.845 41.7729 133.59 40.9487C134.945 39.3581 135.631 37.3041 135.504 35.2183C135.435 34.0409 134.65 32.5789 133.541 32.8242C133.266 32.8996 133.009 33.0297 132.786 33.2068C130.137 35.0286 128.207 37.7183 127.33 40.8113C126.984 41.9084 126.903 43.072 127.095 44.2064C127.527 45.7091 128.398 47.0485 129.597 48.0528C131.839 50.1756 134.518 51.783 137.446 52.7627C138.222 53.0178 140.606 53.8028 140.076 52.3015C139.752 51.4576 131.824 44.8246 131.863 43.7354V43.7354Z" fill="url(#paint8_linear_100_374)"/>
<path d="M131.746 57.3449C131.818 57.2128 131.922 57.1013 132.05 57.0211C132.235 56.941 132.44 56.9171 132.638 56.9524C133.797 57.0603 134.963 57.0603 136.122 56.9524C136.489 56.9476 136.849 56.8533 137.172 56.6777C137.335 56.5799 137.459 56.4288 137.523 56.25C137.588 56.0712 137.588 55.8756 137.525 55.6964C137.368 55.353 136.946 55.2451 136.544 55.1568C135.261 54.8647 134.021 54.4096 132.854 53.8027C131.837 53.1902 130.766 52.6713 129.656 52.2523C128.772 51.9972 127.556 52.0953 127.251 52.9686C127.185 53.1712 127.152 53.3833 127.153 53.5966L127.026 56.2459C126.892 57.2227 127.017 58.2176 127.389 59.1307C128.145 60.2443 129.272 61.0542 130.568 61.417C130.936 61.6095 131.358 61.6718 131.765 61.5936C131.206 60.2493 130.843 58.7579 131.746 57.3449V57.3449Z" fill="url(#paint9_linear_100_374)"/>
<path d="M133.982 56.717L149.329 57.4431L150.094 57.6786C150.094 57.6786 148.603 62.8006 145.875 62.5847C143.147 62.3689 133.982 56.717 133.982 56.717V56.717Z" fill="url(#paint10_linear_100_374)"/>
<path d="M140.812 59.4643L148.298 59.5134C148.298 59.5134 146.709 62.1234 145.355 62.2706L140.812 59.4643Z" fill="#68E1FD"/>
<path d="M140.812 59.4643L148.298 59.5134C148.298 59.5134 146.709 62.1234 145.355 62.2706L140.812 59.4643Z" fill="url(#paint11_linear_100_374)"/>
<path d="M126.986 28.4968C124.465 31.282 122.257 34.3355 120.402 37.6026C119.087 39.9085 117.92 42.5087 118.322 45.1286C118.791 47.4194 120.127 49.4405 122.05 50.7707C123.959 52.0807 126.031 53.1362 128.213 53.9106L134.698 56.5403C135.176 56.7742 135.698 56.9014 136.229 56.9131C137.887 56.8248 138.574 54.5484 137.897 53.0373C137.22 51.5262 135.758 50.5548 134.61 49.3675C133.462 48.1802 130.106 46.2963 129.606 44.5399C129.5 44.2239 129.476 43.8862 129.537 43.5586C129.681 43.2284 129.907 42.9411 130.195 42.7246C133.806 39.4081 138.82 33.5403 137.799 28.5459C136.563 22.3543 129.822 25.3373 126.986 28.4968V28.4968Z" fill="#68E1FD"/>
<path d="M142.784 29.1739C143.48 29.5406 144.268 29.6978 145.051 29.6264C145.835 29.555 146.581 29.2581 147.199 28.7716C147.78 28.2644 148.165 27.5702 148.289 26.8091C148.612 24.6406 146.777 22.6193 146.944 20.4312C147.023 19.3322 147.592 18.2234 147.199 17.2029C146.876 16.3296 141.999 14.9068 141.822 15.8292C140.576 22.2759 137.466 26.5344 142.784 29.1739V29.1739Z" fill="#F4A982"/>
<path d="M142.519 16.1237C142.519 16.1237 142.009 25.6219 147.131 24.9547C147.131 24.9547 147.935 24.8468 147.69 23.6693C147.445 22.4918 146.463 21.2947 146.513 20.2546C146.562 19.2145 142.519 16.1237 142.519 16.1237Z" fill="url(#paint12_linear_100_374)"/>
<path d="M155.295 10.2265C154.991 12.9543 153.234 16.0452 152.135 17.9487C151.473 19.2253 150.555 20.3512 149.437 21.2555C148.865 21.6887 148.193 21.9714 147.483 22.0777C146.774 22.184 146.048 22.1105 145.375 21.8638C144.203 21.2182 143.301 20.1738 142.833 18.9201C141.93 17.0296 141.493 14.9503 141.558 12.8562C141.685 10.6778 142.715 6.52726 145.806 8.09722C146.444 8.43084 146.866 9.07845 147.474 9.43169C147.895 9.71511 148.384 9.87936 148.89 9.907C149.396 9.93464 149.901 9.82465 150.349 9.58869C150.683 9.40226 151.046 9.12751 151.409 9.25507C151.582 9.32466 151.738 9.42809 151.87 9.55925C152.247 9.83586 152.703 9.98501 153.17 9.98501C153.638 9.98501 154.093 9.83586 154.47 9.55925C154.551 9.72384 154.666 9.86886 154.809 9.98412C154.951 10.0994 155.117 10.1821 155.295 10.2265V10.2265Z" fill="#F4A982"/>
<path d="M146.258 55.5394C146.764 56.4674 146.947 57.5377 146.778 58.5812C146.771 58.7825 146.721 58.98 146.631 59.1601C146.481 59.3713 146.262 59.5239 146.012 59.5919C144.187 60.2199 142.352 58.6107 140.419 58.5027C139.939 58.5273 139.457 58.5273 138.977 58.5027C138.366 58.3795 137.787 58.1287 137.279 57.7668C136.72 57.4234 136.18 57.0603 135.651 56.6776C134.355 55.7455 134.915 54.0774 135.974 53.1845C136.357 52.8522 136.834 52.6472 137.339 52.598C137.843 52.5487 138.351 52.6577 138.791 52.9097C141.047 53.6849 144.796 53.3022 146.258 55.5394V55.5394Z" fill="#F4A982"/>
<path d="M157.767 55.8632C157.955 55.9806 158.107 56.1468 158.208 56.344C158.284 56.5479 158.301 56.7688 158.257 56.9818C158.118 58.2291 157.659 59.4191 156.923 60.4357C156.79 60.6678 156.61 60.8703 156.396 61.0306C156.182 61.1909 155.937 61.3057 155.677 61.3679C154.696 61.5052 154.048 60.524 153.165 60.161C152.282 59.7979 151.114 60.1021 150.29 59.5526C149.979 59.2969 149.729 58.9746 149.559 58.6094C149.389 58.2443 149.304 57.8456 149.309 57.443C149.201 55.8632 151.683 54.7937 153.027 54.4993C154.637 54.0577 156.521 54.9899 157.767 55.8632V55.8632Z" fill="#F4A982"/>
<path d="M153.793 51.0651C154.08 50.2379 154.655 49.5414 155.412 49.1026C155.746 48.9814 156.098 48.9184 156.453 48.9162C164.376 48.3183 172.341 48.5815 180.208 49.7012C180.238 49.9493 180.211 50.2011 180.13 50.4374C180.048 50.6737 179.914 50.8883 179.737 51.0651C176.082 56.0676 172.113 60.8329 167.854 65.3321C167.596 65.6215 167.287 65.8609 166.942 66.0386C166.466 66.2039 165.956 66.2445 165.46 66.1563C164.185 66.0288 162.929 65.8227 161.663 65.6265C156.67 64.8782 151.63 64.4913 146.581 64.4686C145.41 64.5305 144.236 64.4181 143.098 64.135C142.273 63.8581 141.482 63.486 140.743 63.0262C138.062 61.6178 135.539 59.927 133.217 57.9827C133.04 57.8257 132.844 57.6197 132.883 57.3842C132.923 57.1487 133.158 57.0113 133.374 56.923C135.857 55.9418 137.044 57.9533 139.34 59.2976C140.743 60.1316 143.098 61.8782 144.648 62.3394C146.199 62.8005 147.798 60.1905 148.622 59.1896C150.702 56.7248 152.441 53.9923 153.793 51.0651V51.0651Z" fill="#68E1FD"/>
<path d="M179.736 51.0651C179.305 51.6047 178.883 52.1837 178.461 52.7332C175.198 57.1487 171.655 61.3504 167.854 65.3125C167.592 65.6033 167.283 65.8486 166.941 66.0386C166.461 66.181 165.956 66.2211 165.46 66.1563C164.184 66.0386 162.908 65.7933 161.633 65.6167C156.909 64.8829 152.137 64.5024 147.356 64.4784C147.094 64.4637 146.832 64.4637 146.571 64.4784C146.09 64.4784 145.59 64.4784 145.148 64.4784C144.451 64.4708 143.758 64.3685 143.088 64.1743C142.26 63.8921 141.466 63.5168 140.723 63.0557C139.025 62.0744 137.298 61.0932 135.689 59.9648C134.815 59.3721 133.985 58.7162 133.207 58.0023C133.105 57.9368 133.021 57.8468 132.962 57.7406C132.904 57.6343 132.873 57.5152 132.873 57.394C132.873 57.1585 133.138 57.0309 133.354 56.9426C135.836 55.9614 136.572 57.5804 138.849 58.9051C140.242 59.7293 143.097 61.8487 144.638 62.3197C146.178 62.7907 147.788 60.1807 148.563 59.1798C150.65 56.7128 152.402 53.981 153.773 51.0553C154.05 50.2253 154.623 49.5265 155.382 49.0928C155.695 48.9652 156.027 48.8921 156.364 48.8769C164.291 48.3071 172.257 48.5735 180.129 49.6717C180.17 49.9186 180.156 50.1715 180.089 50.4123C180.021 50.6532 179.9 50.8761 179.736 51.0651V51.0651Z" fill="url(#paint13_linear_100_374)"/>
<path d="M179.737 51.0651C176.05 56.0368 172.086 60.7968 167.864 65.3223C167.602 65.6131 167.294 65.8585 166.952 66.0484C166.471 66.1909 165.967 66.231 165.47 66.1662C164.194 66.0484 162.919 65.8031 161.643 65.6265C156.916 64.8889 152.141 64.5052 147.356 64.4785C148.021 63.8993 148.611 63.2401 149.113 62.516C151.183 60.041 152.928 57.3105 154.304 54.3915C154.667 53.5967 156.354 51.0455 157.179 50.7119C157.512 50.6024 157.858 50.5397 158.209 50.5254C165.385 49.9876 172.597 50.1684 179.737 51.0651V51.0651Z" fill="url(#paint14_linear_100_374)"/>
<path d="M158.356 7.54772C159.779 7.06692 160.26 5.06522 159.504 3.76019C159.096 3.12504 158.535 2.60146 157.874 2.23661C157.213 1.87177 156.472 1.67712 155.716 1.67018C155.45 1.7061 155.18 1.63946 154.961 1.48374C154.812 1.34462 154.686 1.18226 154.588 1.00295C154.078 0.188528 152.959 0.0217197 151.988 0.0217197C151.054 -0.0619269 150.114 0.096918 149.26 0.48289C148.643 0.969153 147.987 1.40243 147.298 1.77811C146.521 1.94496 145.727 2.01744 144.933 1.99398C144.416 2.07641 143.925 2.27802 143.499 2.58286C143.073 2.88769 142.724 3.2874 142.48 3.75038C142.357 4.10194 142.182 4.4328 141.96 4.7316C141.757 4.9043 141.544 5.06484 141.322 5.2124C140.91 5.56445 140.581 6.00267 140.357 6.49607C140.133 6.98948 140.02 7.52602 140.027 8.06777C140.053 9.14792 140.235 10.2186 140.566 11.2469C140.609 11.4506 140.704 11.6398 140.841 11.7964C141.175 12.0712 142.313 12.9052 142.529 12.5422C142.951 11.7866 142.735 10.1283 143.608 9.70642C144.481 9.28449 144.383 10.04 145.05 10.462C145.399 10.6697 145.788 10.7992 146.191 10.8416C146.594 10.884 147.002 10.8381 147.386 10.7073C147.778 10.5503 148.151 10.3442 148.544 10.1872C148.924 10.0155 149.355 9.9945 149.751 10.1283C150.477 10.462 150.575 11.4923 151.213 11.9731C151.571 12.1872 151.999 12.2536 152.405 12.1584C152.811 12.0632 153.165 11.8138 153.391 11.4628C153.487 11.8452 153.699 12.1883 153.999 12.444C154.154 12.575 154.353 12.6419 154.556 12.6309C154.758 12.62 154.949 12.5321 155.088 12.3852C155.236 12.1987 155.275 11.8946 155.452 11.7179C155.64 11.5662 155.877 11.4894 156.119 11.5021C156.528 11.6051 156.956 11.6051 157.365 11.5021C157.805 11.3987 158.213 11.1903 158.555 10.8947C158.897 10.5991 159.162 10.225 159.327 9.80454C159.483 9.37535 159.468 8.90318 159.288 8.48398C159.108 8.06478 158.774 7.73001 158.356 7.54772V7.54772Z" fill="#606161"/>
<path d="M141.626 11.0802C141.499 11.0157 141.356 10.9885 141.214 11.0017C141.105 11.0212 141.002 11.0671 140.915 11.1356C140.828 11.204 140.759 11.2928 140.714 11.3942C140.623 11.6011 140.579 11.8257 140.586 12.0517C140.577 12.3811 140.607 12.7104 140.674 13.0329C140.715 13.3366 140.84 13.6231 141.034 13.8604C141.228 14.0977 141.484 14.2766 141.773 14.3772C142.038 14.4274 142.311 14.378 142.541 14.2385C142.772 14.099 142.942 13.8792 143.02 13.6216C143.075 13.1063 142.972 12.5863 142.723 12.1318C142.473 11.6773 142.091 11.3103 141.626 11.0802V11.0802Z" fill="#F4A982"/>
<path d="M141.911 12.7973C141.812 12.6207 141.911 12.4146 141.911 12.2184C141.911 12.0222 141.646 11.8455 141.371 11.7278C141.371 11.7278 141.312 11.7278 141.292 11.7867C141.18 11.9774 141.111 12.1902 141.089 12.4105C141.067 12.6307 141.093 12.853 141.165 13.0622C141.201 13.2184 141.275 13.3633 141.381 13.4842C141.436 13.5437 141.506 13.589 141.582 13.6164C141.659 13.6437 141.741 13.6522 141.822 13.6412C141.918 13.6104 142.005 13.5554 142.074 13.4815C142.142 13.4076 142.191 13.3173 142.215 13.2192C142.264 12.8856 142.038 13.0034 141.911 12.7973V12.7973Z" fill="url(#paint15_linear_100_374)"/>
<path d="M119.529 74.2908H124.121V282.86H119.529V74.2908Z" fill="url(#paint16_linear_100_374)"/>
<path d="M213.707 301.886L218.858 303.545V155.056H213.707V301.886Z" fill="url(#paint17_linear_100_374)"/>
<path d="M300.447 325.818L304.931 327.869V23.6006H300.447V325.818Z" fill="url(#paint18_linear_100_374)"/>
<path d="M402.112 322.443L406.606 320.726V109.379H402.112V322.443Z" fill="url(#paint19_linear_100_374)"/>
<path d="M413.966 62.1235C411.719 69.414 412.523 74.1337 412.151 76.9499C411.68 80.4528 407.539 85.3197 408.226 88.7933C408.912 92.2668 411.228 90.9029 413.74 93.3854C413.93 93.6022 414.169 93.7704 414.437 93.876C414.736 93.92 415.042 93.8941 415.329 93.8005C415.617 93.7069 415.879 93.548 416.095 93.3363C416.873 92.8479 417.517 92.1734 417.969 91.3739C418.95 89.3329 418.666 89.5488 417.753 87.449C415.791 83.112 419.294 79.4422 420.697 74.9089C421.325 72.8385 419.569 58.65 416.772 58.9542C415.781 59.0915 414.515 60.3279 413.966 62.1235V62.1235Z" fill="#68E1FD"/>
<path d="M414.102 86.0457C413.954 85.2625 413.937 84.4599 414.053 83.6712C414.161 83.0824 414.367 82.5231 414.495 81.9442C414.956 79.9818 414.593 77.9212 414.936 75.9391C415.333 73.7785 416.54 71.8512 418.312 70.5522C419.067 73.2015 419.813 76.0765 418.871 78.6669C418.587 79.4225 418.174 80.1289 417.89 80.8649C417.401 82.0029 417.144 83.2272 417.134 84.466C417.134 85.3294 417.664 86.7326 417.34 87.547C416.389 89.8725 414.338 87.547 414.102 86.0457V86.0457Z" fill="url(#paint20_linear_100_374)"/>
<path d="M415.496 130.113C415.727 131.389 415.502 132.705 414.858 133.831C412.827 132.625 412.209 129.995 411.915 127.64C411.404 122.98 411.533 118.272 412.297 113.648C412.382 112.901 412.602 112.177 412.945 111.509C413.598 110.553 414.525 109.818 415.604 109.399C416.247 109.042 416.968 108.85 417.704 108.84C418.072 108.845 418.43 108.965 418.727 109.183C419.024 109.401 419.246 109.707 419.362 110.056C419.431 110.506 419.38 110.967 419.215 111.391C418.88 112.957 418.346 114.474 417.625 115.904C416.899 117.051 416.363 118.306 416.036 119.623C415.303 123.069 415.121 126.61 415.496 130.113Z" fill="url(#paint21_linear_100_374)"/>
<path d="M443.284 113.118C441.698 114.189 439.831 114.766 437.917 114.776C437.22 114.776 436.514 114.845 435.817 114.874C434.838 114.915 433.91 115.32 433.215 116.01C432.52 116.7 432.107 117.625 432.059 118.603C432.059 120.055 431.981 121.547 431.981 122.96C431.981 126.433 432.098 130.064 430.568 133.184C430.254 133.841 429.734 134.538 429.008 134.548C428.62 134.523 428.251 134.371 427.958 134.116C427.027 133.337 426.381 132.27 426.123 131.084C425.869 129.908 425.767 128.705 425.819 127.503C425.819 122.901 426.221 118.201 428.007 113.962C428.207 113.477 428.443 113.008 428.713 112.559C429.888 110.86 431.668 109.673 433.688 109.242C435.686 108.836 437.735 108.74 439.762 108.958C440.743 109.016 441.724 109.095 442.705 109.144C443.255 109.144 445.276 108.869 445.649 109.144C446.434 109.782 443.863 112.667 443.284 113.118V113.118Z" fill="url(#paint22_linear_100_374)"/>
<path d="M402.897 110.802C402.681 115.375 408.529 138.139 409.766 138.993C410.825 139.719 412.709 138.747 413.828 138.08C414.044 137.933 414.191 137.805 414.348 137.717C415.192 137.079 413.828 119.594 413.828 119.594C413.828 119.594 413.406 113.648 417.556 110.194C422.198 106.347 427.496 102.795 427.133 100.067C427.104 99.6597 426.934 99.2748 426.652 98.9783C424.317 96.1916 411.041 98.311 408.254 100.372L408.097 100.46C408.091 100.479 408.091 100.5 408.097 100.519C408.004 100.637 407.902 100.748 407.793 100.852C407.587 101.127 407.254 101.52 406.891 101.981C405.9 103.332 405.017 104.759 404.251 106.249C403.511 107.666 403.051 109.212 402.897 110.802V110.802Z" fill="#606161"/>
<path d="M404.261 106.249C404.261 107.436 413.386 105.464 414.505 107.436C415.623 109.409 413.141 108.614 412.258 112.98C411.375 117.347 412.258 135.382 413.239 137.295C413.391 137.601 413.608 137.869 413.877 138.08C414.093 137.933 414.24 137.805 414.397 137.717C415.241 137.079 413.877 119.594 413.877 119.594C413.877 119.594 413.455 113.648 417.605 110.194C417.605 110.194 416.968 106.269 419.852 104.012C422.13 102.416 424.591 101.098 427.182 100.087C423.713 98.9849 420.097 98.4126 416.457 98.3895C413.637 98.5028 410.866 99.1696 408.303 100.352L408.146 100.44C408.14 100.459 408.14 100.48 408.146 100.499C408.053 100.617 407.951 100.729 407.842 100.833C407.636 101.108 407.303 101.5 406.939 101.961C405.772 103.462 404.261 105.523 404.261 106.249V106.249Z" fill="url(#paint23_linear_100_374)"/>
<path d="M421.02 137.266C421.497 138.638 422.287 139.881 423.326 140.896C423.86 141.391 424.532 141.712 425.252 141.815C425.973 141.919 426.707 141.8 427.359 141.475C428.782 140.592 428.262 138.532 428.154 136.903C427.827 130.241 427.981 123.565 428.615 116.925C428.674 116.228 430.577 114.531 431.029 114.099C431.767 113.55 432.598 113.138 433.482 112.882C435.209 112.303 437.358 111.901 438.967 110.783C439.545 110.429 440.049 109.966 440.448 109.419C443.304 105.494 444.373 97.5752 441.999 93.7779C441.684 93.2028 441.236 92.7107 440.694 92.3422C440.152 91.9738 439.529 91.7394 438.879 91.6584C434.757 91.1482 427.329 93.8466 425.603 97.5458C425.213 98.783 424.697 99.9767 424.062 101.108C422.698 103.021 420 103.59 418.665 105.533C418.059 106.55 417.687 107.69 417.576 108.869C416.043 118.471 417.237 128.309 421.02 137.266V137.266Z" fill="#606161"/>
<path d="M430.263 112.735C430.14 113.016 430.082 113.32 430.094 113.626C430.106 113.932 430.187 114.231 430.332 114.501C430.567 114.374 430.783 114.227 431.028 114.099C431.813 113.677 432.638 113.255 433.452 112.863C434.6 112.343 435.817 111.882 437.024 111.43C437.662 111.224 438.299 111.008 438.937 110.763C439.516 110.41 440.019 109.946 440.419 109.399C443.274 105.474 444.344 97.5556 441.969 93.7583C439.637 94.0805 437.384 94.8324 435.326 95.9759C434.09 96.5842 432.844 97.1533 431.666 97.85C430.871 98.3112 429.272 98.9784 430.508 99.8125C432.206 101 435.415 98.9097 436.759 100.794C436.995 101.231 437.119 101.72 437.122 102.216C437.181 102.952 437.24 103.708 437.299 104.463C437.378 105.119 437.338 105.784 437.181 106.426C436.801 107.239 436.19 107.922 435.424 108.388C434.018 109.25 432.662 110.19 431.362 111.205C430.894 111.633 430.519 112.154 430.263 112.735V112.735Z" fill="url(#paint24_linear_100_374)"/>
<path d="M427.545 148.207C427.04 148.707 426.469 149.137 425.848 149.482L423.198 151.131C422.217 151.719 420.991 152.308 420.088 151.641C419.185 150.974 419.352 149.806 419.666 148.844C420.147 147.429 420.985 146.161 422.099 145.165C422.33 144.981 422.523 144.754 422.669 144.497C422.775 144.223 422.819 143.928 422.796 143.634V140.916C422.796 138.149 426.593 138.649 427.791 140.278C429.213 142.319 429.272 146.381 427.545 148.207V148.207Z" fill="#606161"/>
<path d="M414.249 144.831C413.592 145.848 412.631 146.631 411.502 147.068C410.424 147.586 409.301 148.003 408.146 148.314C407.911 148.415 407.654 148.456 407.399 148.433C407.144 148.411 406.899 148.326 406.684 148.187C406.501 147.984 406.381 147.731 406.341 147.461C406.145 146.597 406.164 145.698 406.394 144.843C406.625 143.988 407.062 143.203 407.665 142.555C408.216 142.083 408.71 141.55 409.137 140.965C409.519 139.991 409.689 138.948 409.638 137.904C409.844 135.617 413.474 136.216 414.357 137.688C415.24 139.16 415.044 143.389 414.249 144.831V144.831Z" fill="#606161"/>
<path d="M442.823 91.531C442.892 92.459 442.669 93.3852 442.185 94.1803C441.693 94.7471 441.075 95.1906 440.38 95.4755C437.014 97.173 433.58 98.8803 429.871 99.5868C426.162 100.293 422.021 99.8518 419.077 97.5655C417.986 96.7965 417.157 95.7107 416.703 94.455C416.222 92.9145 416.546 91.266 416.634 89.6568C416.84 85.6632 421.54 83.7695 417.714 79.5109C415.035 76.5673 415.751 69.8753 417.498 66.284C418.891 63.4483 413.308 60.9167 415.947 59.1799C419.656 56.7563 424.013 55.569 430.097 56.4816C432.452 56.825 440.478 60.1317 441.351 62.3689C442.225 64.6061 439.683 66.8433 439.978 69.2375C440.88 76.5182 442.823 84.1521 442.823 91.531V91.531Z" fill="#68E1FD"/>
<path d="M437.907 78.5983C437.907 77.4797 436.926 76.6359 436.18 75.8117C434.809 74.2275 434.106 72.1734 434.218 70.0813C434.296 68.894 435.072 67.4418 436.229 67.6871C436.506 67.761 436.766 67.8876 436.995 68.06C439.641 69.8864 441.567 72.5794 442.441 75.6743C442.797 76.766 442.878 77.9289 442.676 79.0595C442.248 80.5646 441.38 81.9075 440.184 82.9157C437.94 85.0345 435.261 86.6384 432.334 87.6158C431.559 87.8709 429.184 88.6657 429.714 87.1546C430.018 86.3206 437.937 79.6875 437.907 78.5983V78.5983Z" fill="url(#paint25_linear_100_374)"/>
<path d="M438.015 92.1981C437.946 92.0637 437.841 91.9515 437.711 91.8743C437.525 91.7978 437.319 91.7807 437.122 91.8252C435.963 91.9235 434.798 91.9235 433.639 91.8252C433.27 91.8228 432.909 91.7248 432.589 91.5406C432.422 91.4472 432.294 91.2964 432.229 91.1161C432.164 90.9358 432.167 90.7381 432.236 90.5594C432.383 90.216 432.815 90.0982 433.217 90.0197C434.498 89.7216 435.737 89.2668 436.907 88.6657C437.916 88.0455 438.984 87.5262 440.096 87.1153C440.988 86.8504 442.195 86.9583 442.509 87.8316C442.568 88.0324 442.598 88.2406 442.598 88.4498L442.735 91.0991C442.864 92.0791 442.739 93.076 442.372 93.9937C441.764 95.181 440.41 95.7697 439.183 96.28C438.818 96.4681 438.4 96.5302 437.996 96.4566C438.555 95.1025 438.928 93.6208 438.015 92.1981V92.1981Z" fill="url(#paint26_linear_100_374)"/>
<path d="M435.837 91.58L420.431 92.2766L419.676 92.5219C419.676 92.5219 421.167 97.6439 423.885 97.4281C426.603 97.2122 435.837 91.58 435.837 91.58V91.58Z" fill="url(#paint27_linear_100_374)"/>
<path d="M428.968 94.3275H421.481C421.481 94.3275 423.061 96.9473 424.376 97.0847L428.968 94.3275Z" fill="#68E1FD"/>
<path d="M428.968 94.3275H421.481C421.481 94.3275 423.061 96.9473 424.376 97.0847L428.968 94.3275Z" fill="url(#paint28_linear_100_374)"/>
<path d="M441.057 61.8585C443.569 64.6354 445.237 68.9332 447.092 72.1908C448.407 74.4967 449.574 77.097 449.172 79.7267C448.819 82.0129 437.221 90.5201 435.062 91.3836C434.583 91.613 434.062 91.74 433.531 91.7565C431.883 91.6682 431.186 89.3917 431.873 87.8806C432.56 86.3696 434.002 85.3883 435.16 84.201C436.318 83.0138 439.654 81.1396 440.155 79.3734C440.273 79.0602 440.297 78.7189 440.223 78.3922C440.08 78.0591 439.854 77.7685 439.566 77.5483C435.955 74.2318 430.951 68.3739 431.971 63.3696C433.217 57.2173 438.222 58.7088 441.057 61.8585V61.8585Z" fill="#68E1FD"/>
<path d="M418.45 61.0637C417.875 60.8543 417.363 60.5035 416.96 60.044C416.557 59.5844 416.276 59.0307 416.144 58.4341C415.988 57.3259 415.945 56.2048 416.016 55.0881C415.918 52.5565 414.721 50.2899 413.671 48.0527C412.621 45.8155 411.709 43.3134 412.15 40.8407C412.571 38.8863 413.709 37.1604 415.339 36.0032C416.879 34.9673 418.571 34.1762 420.353 33.6581C422.045 32.9365 423.887 32.6368 425.72 32.7848C428.811 33.2852 431.294 36.327 432.079 39.7711C432.717 42.5676 432.403 45.6585 433.462 48.2685C434.287 49.9494 435.311 51.5243 436.514 52.9588C437.733 54.4494 438.405 56.3124 438.418 58.2378C438.401 59.0218 438.117 59.7766 437.613 60.3769C436.632 61.3581 435.14 61.2207 433.953 60.6222C432.84 59.8867 431.676 59.2309 430.47 58.6597C428.223 57.9336 425.985 59.0817 423.876 59.847C422.394 60.4063 419.98 61.5347 418.45 61.0637V61.0637Z" fill="#FFC709"/>
<path d="M432.108 54.99C431.394 53.9944 430.776 52.9332 430.263 51.8206C429.743 50.2801 430.106 48.5433 429.635 46.9832C428.991 45.3192 427.787 43.9315 426.23 43.0583C425.511 42.4715 424.607 42.1586 423.679 42.1752C423.148 42.2807 422.639 42.4801 422.178 42.7639L415.496 46.4337C415.321 46.5221 415.162 46.638 415.025 46.7771C414.593 47.3168 415.025 48.092 415.388 48.7396C416.369 50.4666 416.369 52.5369 416.595 54.4994C416.82 56.4618 417.35 58.5911 418.95 59.7391C419.532 60.187 420.254 60.4148 420.989 60.3825C421.723 60.3502 422.422 60.0598 422.963 59.5625C423.195 59.2454 423.444 58.9408 423.709 58.65C424.126 58.3808 424.596 58.2053 425.087 58.1359C425.579 58.0664 426.079 58.1046 426.554 58.2477C427.451 58.3603 428.337 58.5474 429.204 58.807C430.548 59.2387 432.726 60.9755 434.11 60.7105C433.698 58.7238 433.025 56.8002 432.108 54.99V54.99Z" fill="#EEB41E"/>
<path d="M427.006 64.0272C426.31 64.3928 425.523 64.5503 424.74 64.4807C423.957 64.4111 423.211 64.1174 422.59 63.6347C422.016 63.1239 421.635 62.4309 421.511 61.6722C421.177 59.4939 423.012 57.4726 422.855 55.2844C422.777 54.1953 422.208 53.0767 422.59 52.0562C422.973 51.0357 427.791 49.7699 427.967 50.6825C429.184 57.139 432.304 61.368 427.006 64.0272Z" fill="#F6CCBB"/>
<path d="M427.251 50.9866C427.251 50.9866 427.751 60.4751 422.639 59.8177C422.639 59.8177 421.835 59.7097 422.07 58.5421C422.306 57.3744 423.297 56.1675 423.248 55.1274C423.198 54.0873 427.251 50.9866 427.251 50.9866Z" fill="url(#paint29_linear_100_374)"/>
<path d="M414.475 45.0796C414.779 47.8074 416.536 50.8983 417.625 52.8117C418.293 54.0815 419.21 55.203 420.323 56.1086C420.894 56.5435 421.566 56.8272 422.276 56.9335C422.986 57.0399 423.712 56.9654 424.385 56.7169C425.564 56.0766 426.47 55.0308 426.937 53.7733C427.836 51.8816 428.269 49.8026 428.202 47.7093C428.085 45.5212 427.054 41.3706 423.964 42.9503C423.326 43.284 422.904 43.9316 422.295 44.2848C421.872 44.5666 421.381 44.7289 420.873 44.7548C420.366 44.7807 419.86 44.6692 419.411 44.432C419.077 44.2554 418.714 43.9806 418.351 44.0984C418.183 44.1718 418.031 44.2748 417.9 44.4026C417.523 44.6844 417.065 44.8368 416.595 44.8368C416.124 44.8368 415.666 44.6844 415.29 44.4026C415.215 44.5703 415.102 44.7186 414.961 44.836C414.82 44.9534 414.654 45.0368 414.475 45.0796V45.0796Z" fill="#F6CCBB"/>
<path d="M423.512 90.3928C422.996 91.321 422.813 92.3976 422.992 93.4444C422.997 93.646 423.047 93.8439 423.139 94.0233C423.286 94.2313 423.502 94.3807 423.748 94.4452C425.573 95.0732 427.418 93.464 429.341 93.3659H430.783C431.396 93.2385 431.977 92.9882 432.491 92.63C433.04 92.2767 433.59 91.9137 434.119 91.531C435.405 90.5988 434.855 88.9406 433.786 88.0476C433.406 87.7133 432.931 87.5061 432.428 87.4551C431.925 87.404 431.418 87.5117 430.979 87.7631C428.723 88.5481 424.974 88.1654 423.512 90.3928V90.3928Z" fill="#F6CCBB"/>
<path d="M411.993 90.7165C411.807 90.8365 411.655 91.002 411.552 91.1973C411.486 91.4032 411.469 91.6216 411.503 91.8351C411.646 93.0844 412.105 94.2764 412.837 95.2989C413.116 95.7633 413.568 96.0984 414.093 96.231C415.074 96.3586 415.722 95.3774 416.595 95.0241C417.468 94.6709 418.656 94.9652 419.48 94.4157C419.792 94.1585 420.042 93.8345 420.212 93.4677C420.382 93.1008 420.467 92.7005 420.461 92.2963C420.579 90.7165 418.087 89.647 416.742 89.3526C415.133 88.9209 413.269 89.7942 411.993 90.7165Z" fill="#F6CCBB"/>
<path d="M415.967 85.8986C415.682 85.0735 415.111 84.3775 414.358 83.9362C414.018 83.8251 413.665 83.7623 413.308 83.7497C405.387 83.162 397.427 83.4252 389.562 84.5347C389.526 84.7899 389.551 85.05 389.635 85.2938C389.718 85.5376 389.858 85.7583 390.043 85.9379C393.698 90.9154 397.667 95.6546 401.926 100.126C402.184 100.419 402.493 100.661 402.838 100.843C403.315 101.004 403.824 101.045 404.32 100.96C405.596 100.833 406.861 100.617 408.127 100.431C413.116 99.6771 418.153 99.2901 423.199 99.2727C424.373 99.3249 425.549 99.2126 426.692 98.9391C427.513 98.6546 428.299 98.2794 429.037 97.8205C431.72 96.4132 434.246 94.7259 436.573 92.7868C436.749 92.62 436.936 92.414 436.897 92.1785C436.857 91.943 436.622 91.8154 436.406 91.7271C433.933 90.7459 432.736 92.7083 430.45 94.1017C429.047 94.9259 426.692 96.6823 425.132 97.1435C423.729 97.5556 421.992 94.9946 421.207 93.9839C419.106 91.5361 417.343 88.8165 415.967 85.8986V85.8986Z" fill="#68E1FD"/>
<path d="M390.043 85.9084C390.465 86.4579 390.887 87.0369 391.319 87.5765C394.575 91.9886 398.118 96.181 401.926 100.126C402.185 100.42 402.494 100.666 402.838 100.853C403.317 101.003 403.823 101.047 404.32 100.98C405.596 100.853 406.861 100.617 408.137 100.431C412.862 99.7086 417.634 99.3347 422.414 99.312C422.679 99.2973 422.944 99.2973 423.209 99.312H424.631C425.329 99.2995 426.021 99.1973 426.692 99.0078C427.52 98.7202 428.313 98.3418 429.057 97.8794C430.789 96.9408 432.47 95.909 434.09 94.7885C434.965 94.1967 435.795 93.5408 436.573 92.8261C436.672 92.7576 436.754 92.6669 436.812 92.5613C436.87 92.4557 436.902 92.3381 436.907 92.2177C436.907 91.9724 436.632 91.8547 436.416 91.7565C433.933 90.7753 433.207 92.4042 430.931 93.7681C429.538 94.5825 426.682 96.7117 425.132 97.1827C423.582 97.6537 421.992 95.0338 421.207 94.033C419.113 91.5693 417.357 88.837 415.987 85.9084C415.711 85.078 415.138 84.3789 414.378 83.946C414.048 83.8211 413.7 83.7515 413.347 83.7399C405.42 83.1669 397.454 83.4301 389.582 84.5249C389.553 84.7752 389.58 85.0287 389.659 85.2677C389.739 85.5067 389.87 85.7254 390.043 85.9084V85.9084Z" fill="url(#paint30_linear_100_374)"/>
<path d="M390.043 85.8986C393.726 90.8666 397.693 95.6172 401.926 100.126C402.185 100.42 402.494 100.666 402.838 100.853C403.317 101.003 403.823 101.047 404.32 100.98C405.595 100.853 406.861 100.617 408.137 100.431C412.862 99.7086 417.634 99.3347 422.414 99.312C421.752 98.7299 421.163 98.0711 420.657 97.3495C418.585 94.8774 416.844 92.1463 415.476 89.225C415.113 88.44 413.416 85.879 412.601 85.5454C412.266 85.4455 411.92 85.3829 411.571 85.359C404.395 84.8267 397.184 85.0075 390.043 85.8986V85.8986Z" fill="url(#paint31_linear_100_374)"/>
<path d="M428.144 45.9333C428.271 45.8791 428.408 45.8524 428.546 45.8548C428.657 45.8744 428.761 45.9203 428.849 45.9886C428.938 46.0569 429.009 46.1457 429.056 46.2473C429.143 46.4556 429.186 46.6792 429.184 46.9047C429.19 47.2345 429.157 47.5639 429.086 47.886C429.043 48.1903 428.918 48.4773 428.725 48.716C428.531 48.9546 428.276 49.1358 427.987 49.2401C427.723 49.285 427.452 49.232 427.224 49.0911C426.996 48.9502 426.828 48.731 426.751 48.4747C426.692 47.9591 426.794 47.4379 427.044 46.9828C427.293 46.5277 427.678 46.1611 428.144 45.9333V45.9333Z" fill="#F6CCBB"/>
<path d="M427.859 47.6308C427.957 47.464 427.859 47.2481 427.859 47.0519C427.859 46.8556 428.114 46.6888 428.389 46.5613C428.389 46.5613 428.458 46.5613 428.477 46.63C428.588 46.8197 428.656 47.0308 428.678 47.2491C428.7 47.4674 428.675 47.6878 428.605 47.8957C428.568 48.0538 428.49 48.1993 428.379 48.3177C428.327 48.3793 428.26 48.4262 428.184 48.4538C428.109 48.4813 428.027 48.4885 427.948 48.4747C427.849 48.4462 427.76 48.3922 427.689 48.318C427.619 48.2439 427.569 48.1524 427.545 48.0527C427.496 47.7387 427.732 47.8663 427.859 47.6308V47.6308Z" fill="url(#paint32_linear_100_374)"/>
<path d="M423.395 43.7451C423.457 44.0693 423.5 44.397 423.522 44.7263C423.476 45.0827 423.332 45.4194 423.107 45.6997C422.882 45.98 422.585 46.1932 422.247 46.3159C421.562 46.5371 420.847 46.6464 420.127 46.6397C419.404 46.6349 418.692 46.8139 418.057 47.1598C417.792 47.3266 417.566 47.5326 417.321 47.7191C416.688 48.1397 415.916 48.299 415.168 48.1636C414.42 48.0283 413.754 47.6088 413.308 46.993C413.057 46.5594 412.9 46.0781 412.847 45.58C412.706 44.8733 412.762 44.1415 413.01 43.4648C413.257 42.788 413.686 42.1925 414.25 41.7434C415.339 40.9977 416.772 41.0762 418.096 41.086C419.271 41.0988 420.445 41.0234 421.609 40.8603C422.217 40.7818 424.268 40.3599 424.386 41.3019C424.445 41.7238 423.925 42.077 423.728 42.391C423.473 42.7942 423.356 43.2695 423.395 43.7451V43.7451Z" fill="#FFC709"/>
<defs>
<linearGradient id="paint0_linear_100_374" x1="220.369" y1="99.4886" x2="386.805" y2="446.853" gradientUnits="userSpaceOnUse">
<stop stop-color="#010101" stop-opacity="0"/>
<stop offset="0.95" stop-color="#010101"/>
</linearGradient>
<linearGradient id="paint1_linear_100_374" x1="159.151" y1="156.508" x2="201.432" y2="244.769" gradientUnits="userSpaceOnUse">
<stop stop-color="#010101" stop-opacity="0"/>
<stop offset="0.95" stop-color="#010101"/>
</linearGradient>
<linearGradient id="paint2_linear_100_374" x1="338.509" y1="97.8991" x2="379.622" y2="183.717" gradientUnits="userSpaceOnUse">
<stop stop-color="#010101" stop-opacity="0"/>
<stop offset="0.95" stop-color="#010101"/>
</linearGradient>
<linearGradient id="paint3_linear_100_374" x1="159.627" y1="41.877" x2="118.816" y2="55.2487" gradientUnits="userSpaceOnUse">
<stop stop-color="#010101" stop-opacity="0"/>
<stop offset="0.95" stop-color="#010101"/>
</linearGradient>
<linearGradient id="paint4_linear_100_374" x1="150.211" y1="87.7728" x2="172.73" y2="78.3825" gradientUnits="userSpaceOnUse">
<stop stop-color="#010101" stop-opacity="0"/>
<stop offset="0.95" stop-color="#010101"/>
</linearGradient>
<linearGradient id="paint5_linear_100_374" x1="130.008" y1="88.2536" x2="174.173" y2="66.5979" gradientUnits="userSpaceOnUse">
<stop stop-color="#010101" stop-opacity="0"/>
<stop offset="0.95" stop-color="#010101"/>
</linearGradient>
<linearGradient id="paint6_linear_100_374" x1="161.122" y1="85.7123" x2="127.417" y2="67.1475" gradientUnits="userSpaceOnUse">
<stop stop-color="#010101" stop-opacity="0"/>
<stop offset="0.95" stop-color="#010101"/>
</linearGradient>
<linearGradient id="paint7_linear_100_374" x1="136.17" y1="69.522" x2="108.539" y2="66.6371" gradientUnits="userSpaceOnUse">
<stop stop-color="#010101" stop-opacity="0"/>
<stop offset="0.95" stop-color="#010101"/>
</linearGradient>
<linearGradient id="paint8_linear_100_374" x1="137.908" y1="42.5677" x2="98.9333" y2="55.2256" gradientUnits="userSpaceOnUse">
<stop stop-color="#010101" stop-opacity="0"/>
<stop offset="0.95" stop-color="#010101"/>
</linearGradient>
<linearGradient id="paint9_linear_100_374" x1="134.218" y1="57.8748" x2="111.532" y2="52.6056" gradientUnits="userSpaceOnUse">
<stop stop-color="#010101" stop-opacity="0"/>
<stop offset="0.95" stop-color="#010101"/>
</linearGradient>
<linearGradient id="paint10_linear_100_374" x1="154.932" y1="53.057" x2="133.884" y2="62.516" gradientUnits="userSpaceOnUse">
<stop stop-color="#010101" stop-opacity="0"/>
<stop offset="0.95" stop-color="#010101"/>
</linearGradient>
<linearGradient id="paint11_linear_100_374" x1="144.599" y1="58.8559" x2="144.226" y2="64.4587" gradientUnits="userSpaceOnUse">
<stop stop-color="#010101" stop-opacity="0"/>
<stop offset="0.95" stop-color="#010101"/>
</linearGradient>
<linearGradient id="paint12_linear_100_374" x1="141.832" y1="24.3267" x2="169.189" y2="-9.0055" gradientUnits="userSpaceOnUse">
<stop stop-color="#010101" stop-opacity="0"/>
<stop offset="0.95" stop-color="#010101"/>
</linearGradient>
<linearGradient id="paint13_linear_100_374" x1="161.437" y1="68.3248" x2="138.554" y2="-0.547425" gradientUnits="userSpaceOnUse">
<stop stop-color="#010101" stop-opacity="0"/>
<stop offset="0.95" stop-color="#010101"/>
</linearGradient>
<linearGradient id="paint14_linear_100_374" x1="166.471" y1="66.6077" x2="146.061" y2="5.16332" gradientUnits="userSpaceOnUse">
<stop stop-color="#010101" stop-opacity="0"/>
<stop offset="0.95" stop-color="#010101"/>
</linearGradient>
<linearGradient id="paint15_linear_100_374" x1="141.371" y1="12.6894" x2="146.571" y2="11.9731" gradientUnits="userSpaceOnUse">
<stop stop-color="#010101" stop-opacity="0"/>
<stop offset="0.95" stop-color="#010101"/>
</linearGradient>
<linearGradient id="paint16_linear_100_374" x1="154.774" y1="166.438" x2="-269.41" y2="322.629" gradientUnits="userSpaceOnUse">
<stop stop-color="#010101" stop-opacity="0"/>
<stop offset="0.95" stop-color="#010101"/>
</linearGradient>
<linearGradient id="paint17_linear_100_374" x1="240.524" y1="220.376" x2="-68.0914" y2="334.012" gradientUnits="userSpaceOnUse">
<stop stop-color="#010101" stop-opacity="0"/>
<stop offset="0.95" stop-color="#010101"/>
</linearGradient>
<linearGradient id="paint18_linear_100_374" x1="349.891" y1="158.352" x2="-253.443" y2="380.51" gradientUnits="userSpaceOnUse">
<stop stop-color="#010101" stop-opacity="0"/>
<stop offset="0.95" stop-color="#010101"/>
</linearGradient>
<linearGradient id="paint19_linear_100_374" x1="437.671" y1="202.822" x2="5.41271" y2="361.976" gradientUnits="userSpaceOnUse">
<stop stop-color="#010101" stop-opacity="0"/>
<stop offset="0.95" stop-color="#010101"/>
</linearGradient>
<linearGradient id="paint20_linear_100_374" x1="412.895" y1="80.2663" x2="439.575" y2="75.8606" gradientUnits="userSpaceOnUse">
<stop stop-color="#010101" stop-opacity="0"/>
<stop offset="0.95" stop-color="#010101"/>
</linearGradient>
<linearGradient id="paint21_linear_100_374" x1="419.549" y1="122.626" x2="397.039" y2="113.245" gradientUnits="userSpaceOnUse">
<stop stop-color="#010101" stop-opacity="0"/>
<stop offset="0.95" stop-color="#010101"/>
</linearGradient>
<linearGradient id="paint22_linear_100_374" x1="439.762" y1="123.107" x2="395.597" y2="101.451" gradientUnits="userSpaceOnUse">
<stop stop-color="#010101" stop-opacity="0"/>
<stop offset="0.95" stop-color="#010101"/>
</linearGradient>
<linearGradient id="paint23_linear_100_374" x1="408.647" y1="120.565" x2="442.352" y2="102.01" gradientUnits="userSpaceOnUse">
<stop stop-color="#010101" stop-opacity="0"/>
<stop offset="0.95" stop-color="#010101"/>
</linearGradient>
<linearGradient id="paint24_linear_100_374" x1="433.599" y1="104.375" x2="461.231" y2="101.5" gradientUnits="userSpaceOnUse">
<stop stop-color="#010101" stop-opacity="0"/>
<stop offset="0.95" stop-color="#010101"/>
</linearGradient>
<linearGradient id="paint25_linear_100_374" x1="431.863" y1="77.4307" x2="470.837" y2="90.0885" gradientUnits="userSpaceOnUse">
<stop stop-color="#010101" stop-opacity="0"/>
<stop offset="0.95" stop-color="#010101"/>
</linearGradient>
<linearGradient id="paint26_linear_100_374" x1="435.552" y1="92.7279" x2="458.238" y2="87.4685" gradientUnits="userSpaceOnUse">
<stop stop-color="#010101" stop-opacity="0"/>
<stop offset="0.95" stop-color="#010101"/>
</linearGradient>
<linearGradient id="paint27_linear_100_374" x1="414.838" y1="87.9102" x2="435.886" y2="97.3692" gradientUnits="userSpaceOnUse">
<stop stop-color="#010101" stop-opacity="0"/>
<stop offset="0.95" stop-color="#010101"/>
</linearGradient>
<linearGradient id="paint28_linear_100_374" x1="425.171" y1="93.7093" x2="425.544" y2="99.3121" gradientUnits="userSpaceOnUse">
<stop stop-color="#010101" stop-opacity="0"/>
<stop offset="0.95" stop-color="#010101"/>
</linearGradient>
<linearGradient id="paint29_linear_100_374" x1="427.938" y1="59.1897" x2="400.581" y2="25.8476" gradientUnits="userSpaceOnUse">
<stop stop-color="#010101" stop-opacity="0"/>
<stop offset="0.95" stop-color="#010101"/>
</linearGradient>
<linearGradient id="paint30_linear_100_374" x1="408.333" y1="103.188" x2="431.215" y2="34.3156" gradientUnits="userSpaceOnUse">
<stop stop-color="#010101" stop-opacity="0"/>
<stop offset="0.95" stop-color="#010101"/>
</linearGradient>
<linearGradient id="paint31_linear_100_374" x1="403.299" y1="101.461" x2="423.709" y2="40.0263" gradientUnits="userSpaceOnUse">
<stop stop-color="#010101" stop-opacity="0"/>
<stop offset="0.95" stop-color="#010101"/>
</linearGradient>
<linearGradient id="paint32_linear_100_374" x1="428.399" y1="47.5523" x2="423.198" y2="46.8262" gradientUnits="userSpaceOnUse">
<stop stop-color="#010101" stop-opacity="0"/>
<stop offset="0.95" stop-color="#010101"/>
</linearGradient>
</defs>
</svg>
