<svg width="370" height="309" viewBox="0 0 370 309" fill="none" xmlns="http://www.w3.org/2000/svg">
<path d="M47.9248 140.161C47.9248 140.161 59.7512 80.2294 89.512 80.2294C119.273 80.2294 135.102 174.446 62.7143 184.694L47.9248 140.161Z" fill="#F4A28C"/>
<path opacity="0.1" d="M47.9248 140.161C47.9248 140.161 59.7512 80.2294 89.512 80.2294C119.273 80.2294 135.102 174.446 62.7143 184.694L47.9248 140.161Z" fill="black"/>
<path d="M72.9155 15.5374H258.07V262.882H72.9155V15.5374Z" fill="#24285B"/>
<path d="M90.8374 30.5449H239.486V242.148H90.8374V30.5449Z" fill="white"/>
<path d="M126.004 0.6698H206.97V37.6986H126.004V0.6698Z" fill="#FFD200"/>
<path opacity="0.21" d="M157.416 125.462H194.143V134.184H157.416V125.462Z" fill="#A8A8A8"/>
<path opacity="0.21" d="M157.416 142.793H215.599V151.515H157.416V142.793Z" fill="#A8A8A8"/>
<path opacity="0.21" d="M157.416 181.544H194.143V190.266H157.416V181.544Z" fill="#A8A8A8"/>
<path opacity="0.21" d="M157.416 198.89H215.599V207.611H157.416V198.89Z" fill="#A8A8A8"/>
<path d="M109.746 64.5078H142.925V100.249H109.746V64.5078Z" fill="#68E1FD"/>
<path d="M109.746 120.268H142.925V156.009H109.746V120.268Z" fill="#68E1FD"/>
<path d="M109.746 176.028H142.925V211.769H109.746V176.028Z" fill="#68E1FD"/>
<path d="M120.91 82.3292L124.822 88.475L132.931 77.1633" stroke="white" stroke-width="4.53982" stroke-linecap="round" stroke-linejoin="round"/>
<path d="M120.91 138.005L124.822 144.151L132.931 132.826" stroke="white" stroke-width="4.53982" stroke-linecap="round" stroke-linejoin="round"/>
<path opacity="0.1" d="M169.164 178.604L164.277 187.76L180.73 185.506L198.171 178.674C198.171 178.674 207.099 194.074 222.045 203.201C238.532 212.951 251.192 228.792 257.693 247.804L258.109 249.05V163.653L235.21 137.795L169.164 178.604Z" fill="black"/>
<path d="M120.91 194.088L124.822 200.234L132.931 188.922" stroke="white" stroke-width="4.53982" stroke-linecap="round" stroke-linejoin="round"/>
<path d="M255.588 133.162C255.588 133.162 236.899 115.116 209.231 127.562C187.567 137.362 197.82 148.883 209.465 148.393C221.109 147.903 240.655 139.349 239.291 160.181C238.056 178.534 216.925 152.145 204.812 153.181C192.7 154.217 194.091 169.043 209.01 177.176C223.929 185.31 244.879 202.921 261.189 189.09C277.499 175.258 272.833 150.689 255.588 133.162Z" fill="#F4A28C"/>
<path d="M279.536 110.395L285.29 123.29L180.736 177.421L174.983 164.526L279.536 110.395Z" fill="#68E1FD"/>
<path d="M250.701 194.242L316.136 308.996L369.524 259.9L275.628 160.475L250.701 194.242Z" fill="#68E1FD"/>
<path d="M174.973 164.535L161.016 180.046L180.731 177.428L174.973 164.535Z" fill="#24285B"/>
<path d="M71.2392 117.832C71.2392 117.832 94.2162 92.535 104.132 94.775C112.32 96.6369 112.333 114.178 94.4891 128.794C90.8666 131.728 87.8721 135.466 85.7083 139.756C83.5445 144.046 82.2621 148.787 81.9479 153.657C81.4411 161.819 78.9329 171.535 71.2392 178.856C55.0592 194.256 43.0509 180.844 44.6104 160.013C46.1699 139.182 47.2226 133.022 71.2392 117.832Z" fill="#F4A28C"/>
<path d="M80.1805 175.552L71.5382 304.278L0.709961 289.649L36.332 161.231L80.1805 175.552Z" fill="#68E1FD"/>
<path opacity="0.21" d="M157.416 68.4417H194.143V77.1634H157.416V68.4417Z" fill="#A8A8A8"/>
<path opacity="0.21" d="M157.416 85.7732H215.599V94.4949H157.416V85.7732Z" fill="#A8A8A8"/>
<path opacity="0.1" d="M43.8955 298.566L59.2438 168.721L80.1804 175.552L71.538 304.278L43.8955 298.566Z" fill="black"/>
<path opacity="0.1" d="M250.701 194.242L262.242 178.604L339.75 287.283L316.136 308.996L250.701 194.242Z" fill="black"/>
</svg>
