<svg width="335" height="245" viewBox="0 0 335 245" fill="none" xmlns="http://www.w3.org/2000/svg">
<path opacity="0.24" d="M108.331 9.30707C97.6509 14.1254 87.3951 20.4317 79.8305 29.3643C69.37 41.7273 64.7114 58.2944 53.7366 70.2029C39.706 85.4269 16.6378 91.6732 6.45193 109.678C2.57229 116.559 1.01444 124.503 0.345368 132.367C-2.20611 162.291 9.37789 195.005 35.1523 210.429C45.3881 216.551 57.1768 219.666 67.5325 225.588C76.7298 230.846 84.7337 238.286 94.6201 242.09C112.061 248.796 131.809 242.919 148.496 234.516C165.183 226.112 180.906 215.108 199.081 210.759C222.548 205.176 247.014 211.408 271.111 211.687C295.208 211.967 323.009 203.064 331.098 180.351C333.635 173.226 333.899 165.526 334.134 157.967C334.573 143.806 334.938 129.176 329.64 116.025C322.445 97.9945 305.419 84.9126 299.642 66.3632C296.596 56.5717 296.816 45.6069 291.463 36.859C284.423 25.3399 269.808 21.0309 256.357 19.8825C234.996 18.04 212.098 21.4553 193.224 11.2644C166.091 -3.39038 136.547 -3.43033 108.331 9.30707Z" fill="#68E1FD"/>
<path d="M187.871 151.246C187.885 150.911 187.856 150.575 187.786 150.247L197.897 148.635L195.211 126.665L181.994 128.727C179.487 124.298 176.245 120.327 172.407 116.983H172.382L179.168 106.967V101.265L161.323 93.8752L152.57 106.692C149.16 105.852 145.661 105.433 142.149 105.444C141.871 105.431 141.591 105.458 141.32 105.524L137.356 91.6433L115.886 91.2638V96.9409L119.88 111.221C114.92 113.953 110.506 117.575 106.858 121.906L95.6036 114.597L82.9012 127.034V132.721L97.2563 142.089C96.6536 145.104 96.3476 148.171 96.3426 151.246C96.3122 152.307 96.3689 153.369 96.5124 154.422L81.6279 152.424V158.101L86.1217 179.752L103.343 175.567C105.208 178.602 107.424 181.408 109.944 183.926L102.254 192.439V198.131L121.323 209.366L129.107 195.135C133.095 196.334 137.227 196.98 141.39 197.058L146.823 212.152L167.894 205.426V199.744L163.105 191.955C166.944 189.978 170.476 187.455 173.591 184.465L183.976 190.956L196.414 172.666V166.989L185.459 165.751C187.065 161.084 187.881 156.181 187.871 151.246ZM142.149 173.815C137.681 173.834 133.308 172.528 129.584 170.06C125.859 167.592 122.951 164.074 121.227 159.952C119.504 155.83 119.043 151.289 119.902 146.904C120.762 142.52 122.903 138.489 126.056 135.323C129.208 132.157 133.229 129.997 137.61 129.118C141.99 128.239 146.533 128.68 150.663 130.386C154.793 132.091 158.323 134.983 160.808 138.697C163.292 142.411 164.618 146.778 164.618 151.246C164.616 157.213 162.251 162.937 158.04 167.166C153.83 171.395 148.117 173.786 142.149 173.815Z" fill="url(#paint0_linear_131_155)"/>
<path d="M187.871 145.574C187.885 145.239 187.856 144.903 187.786 144.575L197.897 142.962L195.211 120.993L181.994 123.055C179.486 118.625 176.244 114.652 172.407 111.306H172.382L179.168 101.265L161.323 88.198L152.57 101.015C149.16 100.177 145.661 99.7583 142.149 99.7671C141.87 99.7532 141.591 99.7818 141.32 99.8519L137.356 85.9711L115.886 91.2638L119.88 105.544C114.925 108.281 110.517 111.908 106.878 116.244L95.6036 108.934L82.9012 127.044L97.2563 136.411C96.6533 139.428 96.3473 142.497 96.3426 145.574C96.3122 146.635 96.3689 147.697 96.5124 148.749L81.6279 152.424L86.1217 174.079L103.343 169.89C105.207 172.926 107.422 175.732 109.944 178.249L102.254 192.439L121.298 203.683L129.082 189.453C133.07 190.651 137.202 191.298 141.365 191.375L146.798 206.465L167.869 199.739L163.08 186.258C166.92 184.282 170.452 181.759 173.566 178.768L183.952 185.259L196.364 166.954L185.409 160.039C187.029 155.388 187.861 150.499 187.871 145.574ZM142.149 168.143C137.681 168.162 133.308 166.856 129.584 164.388C125.859 161.92 122.951 158.402 121.227 154.28C119.504 150.158 119.043 145.617 119.902 141.232C120.762 136.848 122.903 132.817 126.056 129.651C129.208 126.485 133.229 124.325 137.61 123.446C141.99 122.567 146.533 123.008 150.663 124.714C154.793 126.419 158.323 129.311 160.808 133.025C163.292 136.738 164.618 141.106 164.618 145.574C164.614 151.541 162.249 157.264 158.039 161.493C153.829 165.722 148.116 168.112 142.149 168.143Z" fill="#68E1FD"/>
<path d="M245.237 170.115C245.306 169.955 245.354 169.787 245.381 169.616L250.509 170.749L253.37 159.764L246.675 158.266C246.315 155.679 245.518 153.172 244.318 150.851L249.446 147.356L250.514 144.645L243.389 137.715L236.793 142.208C235.323 141.166 233.732 140.306 232.055 139.647C231.925 139.588 231.787 139.55 231.645 139.532L232.369 132.157L222.193 127.923L221.12 130.634L220.346 138.209C217.459 138.566 214.663 139.453 212.097 140.825L208.103 135.218L199.695 138.758L198.616 141.454L203.699 148.64C202.841 149.967 202.115 151.375 201.532 152.844C201.324 153.344 201.157 153.86 201.033 154.387L194.307 150.627L193.238 153.333L191.306 164.523L200.294 165.771C200.613 167.573 201.142 169.33 201.872 171.009L196.619 173.625L195.55 176.331L202.541 185.319L208.942 179.996C210.616 181.32 212.464 182.409 214.434 183.232L214.175 191.46L225.504 192.224L226.572 189.518L225.759 184.894C227.963 184.676 230.124 184.139 232.175 183.302L235.905 188.365L245.287 181.968L246.355 179.257L241.362 176.601C243.004 174.669 244.314 172.477 245.237 170.115ZM219.153 172.257C217.016 171.423 215.174 169.974 213.862 168.093C212.55 166.212 211.825 163.984 211.78 161.69C211.736 159.397 212.373 157.142 213.611 155.212C214.849 153.281 216.633 151.761 218.735 150.845C220.838 149.929 223.166 149.658 225.423 150.066C227.68 150.474 229.765 151.542 231.414 153.137C233.063 154.731 234.202 156.779 234.685 159.021C235.169 161.263 234.977 163.598 234.132 165.731C233.004 168.577 230.796 170.862 227.989 172.085C225.182 173.308 222.005 173.369 219.153 172.257Z" fill="url(#paint1_linear_131_155)"/>
<path d="M246.306 167.409C246.376 167.249 246.427 167.081 246.455 166.909L251.588 168.048L254.449 157.063L247.754 155.565C247.388 152.978 246.589 150.472 245.392 148.15L250.515 144.655L244.463 135.053L237.872 139.517C236.402 138.475 234.811 137.615 233.134 136.956C233.001 136.898 232.862 136.857 232.719 136.836L233.448 129.466L222.199 127.938L221.425 135.513C218.541 135.881 215.75 136.778 213.191 138.159L209.197 132.542L199.71 138.788L204.788 145.973C203.934 147.3 203.21 148.707 202.626 150.172C202.419 150.674 202.252 151.192 202.127 151.72L194.327 150.667L192.395 161.851L201.408 163.105C201.724 164.905 202.252 166.661 202.98 168.337L196.619 173.625L203.61 182.588L210.011 177.26C211.685 178.585 213.533 179.675 215.503 180.5L215.248 188.729L226.578 189.498L226.832 182.168C229.038 181.947 231.2 181.41 233.254 180.575L236.963 185.648L246.34 179.252L242.416 173.89C244.066 171.962 245.38 169.771 246.306 167.409ZM220.222 169.551C218.085 168.717 216.243 167.269 214.93 165.388C213.618 163.507 212.893 161.279 212.848 158.986C212.802 156.693 213.439 154.438 214.677 152.507C215.914 150.576 217.697 149.056 219.8 148.139C221.902 147.223 224.229 146.951 226.486 147.358C228.743 147.765 230.829 148.833 232.478 150.427C234.128 152.021 235.267 154.068 235.752 156.31C236.236 158.552 236.045 160.887 235.201 163.02C234.072 165.865 231.864 168.149 229.057 169.373C226.251 170.596 223.075 170.66 220.222 169.551Z" fill="#68E1FD"/>
<path d="M172.752 91.2788C170.744 90.8284 168.669 90.7606 166.636 91.079C166.387 91.0877 166.144 91.1481 165.92 91.2564C165.696 91.3648 165.498 91.5186 165.337 91.7082C165.225 91.9105 165.171 92.1403 165.183 92.3716C165.194 92.6028 165.27 92.8262 165.402 93.0164C165.664 93.3907 166.005 93.7027 166.401 93.9301C169.227 95.6977 172.607 96.3068 175.888 96.876C176.069 96.9234 176.26 96.9234 176.442 96.876C176.782 96.7512 176.906 96.3418 176.981 95.9823L178.01 91.129C178.047 90.9934 178.047 90.8502 178.01 90.7145C177.964 90.5972 177.888 90.4939 177.79 90.415C177.131 89.8008 175.398 88.7972 174.48 89.3764C173.561 89.9556 174.2 91.6033 172.752 91.2788Z" fill="#68E1FD"/>
<path d="M172.752 91.2788C170.744 90.8284 168.669 90.7606 166.636 91.079C166.387 91.0877 166.144 91.1481 165.92 91.2564C165.696 91.3648 165.498 91.5186 165.337 91.7082C165.225 91.9105 165.171 92.1403 165.183 92.3716C165.194 92.6028 165.27 92.8262 165.402 93.0164C165.664 93.3907 166.005 93.7027 166.401 93.9301C169.227 95.6977 172.607 96.3068 175.888 96.876C176.069 96.9234 176.26 96.9234 176.442 96.876C176.782 96.7512 176.906 96.3418 176.981 95.9823L178.01 91.129C178.047 90.9934 178.047 90.8502 178.01 90.7145C177.964 90.5972 177.888 90.4939 177.79 90.415C177.131 89.8008 175.398 88.7972 174.48 89.3764C173.561 89.9556 174.2 91.6033 172.752 91.2788Z" fill="url(#paint2_linear_131_155)"/>
<path d="M223.292 30.2431C223.292 30.2431 228.72 33.6035 229.319 34.2726C229.918 34.9416 223.083 69.434 222.718 71.1166C222.354 72.7993 212.732 69.5538 208.812 68.2007C204.893 66.8475 201.258 60.3815 201.258 60.3815C201.258 60.3815 205.657 30.6825 206.536 30.1633C207.414 29.644 215.443 28.3657 215.443 28.3657L223.292 30.2431Z" fill="#68E1FD"/>
<path d="M208.103 29.649C208.103 29.649 206.051 29.9286 204.888 30.9322C203.724 31.9358 193.728 44.6233 194.262 47.6691C194.797 50.7149 197.942 52.088 199.011 51.6635C200.079 51.2391 202.676 47.4843 203.18 46.3759C203.684 45.2674 210.555 36.5345 210.555 36.5345L208.103 29.649Z" fill="#68E1FD"/>
<path d="M224.046 26.8678C224.046 26.8678 222.993 30.5028 223.198 31.9358C223.402 33.3688 220.916 37.2135 218.09 37.0537C215.264 36.8939 215.523 32.0606 215.558 31.5164C215.593 30.9721 216.452 30.7175 216.247 29.2845C216.043 27.8514 223.862 25.1652 224.046 26.8678Z" fill="#F5E0CD"/>
<path d="M216.242 29.2845C216.301 29.6201 216.281 29.9648 216.184 30.2914C216.087 30.6181 215.915 30.9177 215.683 31.1669C216.27 31.821 217.08 32.2338 217.954 32.3252C219.657 32.4201 222.284 31.1469 223.557 28.6603L223.627 28.5255C223.841 27.5968 224.046 26.8778 224.046 26.8778C223.861 25.1651 216.042 27.8664 216.242 29.2845Z" fill="#EFD2BB"/>
<path d="M223.172 31.4115C223.172 31.4115 220.586 36.6293 218.614 37.0837C218.614 37.0837 218.069 37.3383 219.438 38.267C220.806 39.1958 225.005 35.1713 224.615 32.0207C224.577 31.6203 224.437 31.2366 224.206 30.9067C223.976 30.5769 223.665 30.3122 223.302 30.1383L223.172 31.4115Z" fill="white"/>
<path d="M216.212 29.8637C216.212 29.8637 215.363 33.7583 216.801 36.5544C216.801 36.5544 216.067 37.5281 215.503 37.4931C214.939 37.4582 213.711 33.9979 214.42 31.4714C214.834 29.9835 215.952 29.4293 216.212 29.8637Z" fill="white"/>
<path d="M222.433 71.1017L220.336 93.4258L217.59 127.639C217.59 127.639 216.092 128.977 212.432 128.487L211.054 92.0377L207.654 75.216L189.129 72.4498C188.476 72.2162 187.757 72.2411 187.122 72.5196C186.486 72.7981 185.981 73.3089 185.709 73.9477L178.144 91.7182C178.144 91.7182 175.174 90.3351 173.351 89.661L179.607 64.9152C179.741 64.3868 179.979 63.8906 180.308 63.4559C180.637 63.0212 181.049 62.6569 181.522 62.3845C181.994 62.1122 182.516 61.9373 183.056 61.8703C183.597 61.8032 184.146 61.8454 184.67 61.9942L202.431 60.5313L222.433 71.1017Z" fill="#606161"/>
<path d="M215.163 18.1448C215.163 18.1448 214.165 25.4747 214.639 27.4919C215.113 29.5091 216.701 31.2967 218.399 31.3915C220.097 31.4864 222.728 30.2132 224.001 27.7266C225.274 25.24 226.188 19.0436 225.953 18.1798C225.719 17.316 224.156 14.5398 219.612 14.6846C216.481 14.8095 215.223 17.0114 215.163 18.1448Z" fill="#F5E0CD"/>
<path d="M217.825 15.9179L217.26 17.1512C217.205 17.344 217.078 17.5082 216.905 17.6096C216.732 17.711 216.527 17.7417 216.332 17.6955C215.942 17.6955 215.553 17.6955 215.163 17.6555C215.018 17.6585 214.876 17.6185 214.754 17.5407C214.459 17.301 214.379 16.6319 214.21 16.2924C213.917 15.8652 213.754 15.3623 213.74 14.8444C213.783 14.5545 213.895 14.279 214.065 14.0405C214.34 13.6353 214.699 13.2946 215.118 13.0419C215.302 12.9475 215.478 12.8372 215.643 12.7124C215.856 12.4929 216.039 12.246 216.187 11.9784C216.714 11.1942 217.529 10.6495 218.456 10.4626C219.382 10.2756 220.345 10.4614 221.135 10.9797C221.604 11.2843 222.104 11.7287 222.633 11.5889C222.828 11.539 222.997 11.4191 223.187 11.3542C223.494 11.2805 223.814 11.2805 224.121 11.3542C224.889 11.4379 225.632 11.6793 226.303 12.0633C227.157 12.6375 227.626 13.6311 228.35 14.3601C228.899 14.9093 229.593 15.3088 230.093 15.898C230.592 16.4871 230.862 17.3959 230.412 18.035C230.028 18.5743 229.244 18.739 228.914 19.3132C228.754 19.5879 228.73 19.9224 228.575 20.202C228.392 20.4626 228.173 20.6962 227.926 20.896C227.68 21.2062 227.481 21.5511 227.336 21.9196C227.072 22.3673 226.777 22.796 226.453 23.2029C226.303 23.3926 226.108 23.6023 225.868 23.5723C225.629 23.5424 225.444 23.1679 225.399 22.8633C225.251 21.8826 225.163 20.8938 225.134 19.9024C225.148 19.5899 225.107 19.2774 225.015 18.9787C224.825 18.5692 224.522 18.2226 224.141 17.9801C222.967 17.1021 221.637 16.4548 220.221 16.0727C219.817 15.9629 219.407 15.878 218.998 15.7681C218.82 15.6941 218.629 15.656 218.436 15.656C218.243 15.656 218.053 15.6941 217.875 15.7681" fill="#606161"/>
<path d="M225.119 22.9632C225.119 22.9632 225.494 21.2805 226.617 21.9096C227.741 22.5388 226.118 25.5746 225.549 25.8242C225.285 25.9654 224.989 26.0327 224.69 26.019" fill="#F5E0CD"/>
<path d="M187.132 59.7823C187.061 60.0643 187.073 60.361 187.167 60.6361C187.287 60.8635 187.473 61.0484 187.702 61.1654C189.249 62.0941 191.327 61.5698 192.735 60.4464C194.143 59.3229 195.061 57.7102 196.025 56.1823C196.879 54.8342 197.793 53.521 198.766 52.2577C199.131 51.7584 199.525 51.1842 199.306 50.625C199.202 50.4067 199.054 50.2128 198.871 50.0558C195.676 46.9201 197.503 42.3664 194.712 45.8116C192.52 48.4979 187.667 56.362 187.132 59.7823Z" fill="#68E1FD"/>
<path d="M183.422 60.022C182.798 60.5005 182.374 61.1949 182.234 61.9693C182.159 62.7432 182.733 63.607 183.527 63.5621C183.864 63.5065 184.188 63.3933 184.486 63.2275C185.45 62.8231 186.528 62.868 187.567 62.7981C188.605 62.7282 189.729 62.4886 190.408 61.6996C190.67 61.3847 190.846 61.0068 190.918 60.6031C190.99 60.1994 190.955 59.784 190.817 59.3978C189.629 56.1274 185.09 58.519 183.422 60.022Z" fill="#F5E0CD"/>
<path d="M212.018 131.588C211.301 132.384 210.644 133.232 210.051 134.125C209.58 134.768 209.231 135.492 209.022 136.262C208.925 136.606 208.925 136.971 209.022 137.315C209.115 137.543 209.258 137.748 209.44 137.914C209.623 138.08 209.84 138.203 210.076 138.274C210.548 138.413 211.044 138.455 211.534 138.399C213.486 138.258 215.358 137.565 216.931 136.401C217.497 136.022 217.958 135.507 218.274 134.903C218.555 134.143 218.579 133.312 218.344 132.537C218.15 131.758 217.845 131.014 217.6 130.24C217.356 129.466 217.266 128.627 217.101 127.823C217.099 127.786 217.09 127.749 217.074 127.715C217.058 127.682 217.035 127.651 217.007 127.626C216.979 127.601 216.947 127.582 216.912 127.569C216.876 127.557 216.839 127.552 216.801 127.554C215.803 127.414 214.115 127.319 213.486 128.338C213.279 128.756 213.138 129.204 213.067 129.666C212.894 130.388 212.532 131.052 212.018 131.588Z" fill="#68E1FD"/>
<path d="M212.008 131.723C211.291 132.52 210.632 133.368 210.036 134.259C209.567 134.904 209.218 135.628 209.007 136.396C208.913 136.741 208.913 137.105 209.007 137.45C209.101 137.678 209.244 137.882 209.426 138.048C209.608 138.214 209.825 138.337 210.061 138.409C210.534 138.548 211.029 138.59 211.519 138.533C213.471 138.393 215.343 137.7 216.916 136.536C217.488 136.153 217.95 135.628 218.259 135.013C218.545 134.254 218.569 133.421 218.329 132.647C218.135 131.868 217.805 131.149 217.585 130.35C217.366 129.551 217.256 128.737 217.086 127.933C217.077 127.865 217.05 127.801 217.006 127.748C216.944 127.699 216.866 127.671 216.787 127.668C215.763 127.524 214.1 127.429 213.471 128.447C213.269 128.868 213.128 129.315 213.052 129.776C212.883 130.506 212.523 131.178 212.008 131.723Z" fill="url(#paint3_linear_131_155)"/>
<path d="M233.319 37.7528C235.416 40.2493 236.165 41.3628 238.142 43.9592C238.267 38.1921 239.68 33.8581 239.805 28.0911C239.785 27.9316 239.801 27.7696 239.851 27.6169C239.901 27.4641 239.984 27.3243 240.094 27.2073C240.301 27.0828 240.544 27.0334 240.783 27.0675C242.018 27.0987 243.245 27.2661 244.443 27.5668C244.674 27.6 244.887 27.711 245.047 27.8814C245.168 28.0968 245.21 28.3473 245.167 28.5904C244.811 33.9364 244.458 39.2823 244.109 44.6282C244.02 47.1704 243.699 49.6991 243.15 52.1828C242.85 53.3512 242.356 54.6045 241.273 55.1387C239.869 55.8278 238.217 54.9839 236.958 54.0552C232.934 51.0993 229.778 47.1448 226.673 43.2352C226.339 42.8695 226.079 42.4421 225.909 41.9769C225.777 41.3968 225.777 40.7944 225.909 40.2143C226.148 38.6465 226.069 34.1427 228.176 33.9181C230.038 33.7483 232.31 36.5444 233.319 37.7528Z" fill="#68E1FD"/>
<path d="M238.991 24.4761C238.901 23.3127 238.826 22.0744 239.37 21.0409C239.508 20.8142 239.632 20.579 239.74 20.3368C239.84 20.0307 239.891 19.7104 239.89 19.3881C239.954 17.9202 239.969 16.3923 240.579 15.0541C240.693 14.7995 240.883 14.5199 241.163 14.5149C241.442 14.5099 241.692 14.9243 241.772 15.2638C242.032 16.3794 242.176 17.5189 242.201 18.6641C242.182 18.8688 242.235 19.0737 242.351 19.2433C242.447 19.3374 242.566 19.4046 242.696 19.4381C243.213 19.5427 243.699 19.7629 244.119 20.0822C244.333 20.2969 244.463 20.5815 244.668 20.8062C244.901 21.0199 245.152 21.2136 245.417 21.3854C245.749 21.6705 246.02 22.0194 246.215 22.4114C246.41 22.8033 246.524 23.2304 246.55 23.6672C246.601 24.5445 246.453 25.422 246.116 26.2337C245.776 27.1225 245.242 28.0262 244.348 28.3557C243.732 28.5272 243.083 28.5495 242.456 28.4207C240.264 28.141 239.151 26.6331 238.991 24.4761Z" fill="#F5E0CD"/>
<path d="M145.854 65.5643C145.854 65.5643 147.208 68.1757 148.076 68.5602C148.945 68.9446 156.36 68.9746 157.064 68.655C157.768 68.3355 159.191 65.4345 159.191 65.4345L145.854 65.5643Z" fill="#68E1FD"/>
<path d="M145.854 65.5643C145.854 65.5643 147.208 68.1757 148.076 68.5602C148.945 68.9446 156.36 68.9746 157.064 68.655C157.768 68.3355 159.191 65.4345 159.191 65.4345L145.854 65.5643Z" fill="url(#paint4_linear_131_155)"/>
<path d="M162.037 52.8319C161.995 52.9797 161.987 53.1348 162.012 53.2863C162.466 55.628 148.865 67.0622 144.301 54.195C143.913 53.0846 143.618 51.9439 143.417 50.7847C143.417 50.7847 131.479 26.1038 139.763 15.3337C148.046 4.5636 166.536 5.89676 172.183 20.6114C176.372 31.4964 162.866 49.0421 162.037 52.8319Z" fill="#68E1FD"/>
<path d="M162.037 52.8319C161.995 52.9797 161.987 53.1348 162.012 53.2863C162.466 55.628 148.865 67.0622 144.301 54.195C143.913 53.0846 143.618 51.9439 143.417 50.7847C143.417 50.7847 131.479 26.1038 139.763 15.3337C148.046 4.5636 166.536 5.89676 172.183 20.6114C176.372 31.4964 162.866 49.0421 162.037 52.8319Z" fill="url(#paint5_linear_131_155)"/>
<path d="M162.012 53.2713C162.466 55.6131 148.865 67.0473 144.301 54.18C146.929 52.5402 149.915 51.561 153.003 51.3263C156.092 51.0915 159.191 51.6081 162.037 52.8319C161.997 52.9749 161.989 53.1247 162.012 53.2713Z" fill="url(#paint6_linear_131_155)"/>
<path d="M144.911 58.3243C145.004 58.5061 145.045 58.7099 145.03 58.9135C144.975 59.1006 144.876 59.2717 144.741 59.4128C144.43 59.8314 144.258 60.3366 144.249 60.8578C144.24 61.3789 144.395 61.8898 144.691 62.3188C143.722 62.5685 143.507 63.9765 144.092 64.7854C144.676 65.5943 145.709 65.9188 146.683 66.1385C150.528 67.0126 154.517 67.0484 158.377 66.2434C159.875 65.9338 161.508 65.3246 162.022 63.9016C161.771 63.4866 161.429 63.1333 161.023 62.868C161.468 62.3687 161.922 61.6248 161.498 61.1205C161.358 60.9507 161.143 60.8558 160.998 60.701C160.843 60.485 160.753 60.2288 160.74 59.9631C160.727 59.6974 160.791 59.4335 160.923 59.2031C161.192 58.7492 161.375 58.25 161.463 57.7301C161.465 57.3893 161.347 57.0586 161.128 56.7971C160.91 56.5355 160.605 56.3601 160.269 56.3021C156.749 57.7002 152.825 59.1082 149.285 57.8C147.632 57.1509 143.313 54.1052 144.911 58.3243Z" fill="#68E1FD"/>
<path d="M144.911 58.3243C145.004 58.5061 145.045 58.7099 145.03 58.9135C144.975 59.1006 144.876 59.2717 144.741 59.4128C144.43 59.8314 144.258 60.3366 144.249 60.8578C144.24 61.3789 144.395 61.8898 144.691 62.3188C143.722 62.5685 143.507 63.9765 144.092 64.7854C144.676 65.5943 145.709 65.9188 146.683 66.1385C150.528 67.0126 154.517 67.0484 158.377 66.2434C159.875 65.9338 161.508 65.3246 162.022 63.9016C161.771 63.4866 161.429 63.1333 161.023 62.868C161.468 62.3687 161.922 61.6248 161.498 61.1205C161.358 60.9507 161.143 60.8558 160.998 60.701C160.843 60.485 160.753 60.2288 160.74 59.9631C160.727 59.6974 160.791 59.4335 160.923 59.2031C161.192 58.7492 161.375 58.25 161.463 57.7301C161.465 57.3893 161.347 57.0586 161.128 56.7971C160.91 56.5355 160.605 56.3601 160.269 56.3021C156.749 57.7002 152.825 59.1082 149.285 57.8C147.632 57.1509 143.313 54.1052 144.911 58.3243Z" fill="url(#paint7_linear_131_155)"/>
<path d="M156.515 57.8849L155.312 57.5903L156.809 51.5986C159.601 40.2643 159.121 37.6479 158.587 37.1186C158.547 37.0787 158.497 37.0288 158.317 37.0687C158.083 37.111 157.862 37.2086 157.673 37.3533C158.028 37.9161 158.293 38.5311 158.457 39.1758C158.772 40.4341 158.557 41.4526 157.873 41.9769C157.672 42.1583 157.42 42.2722 157.151 42.3026C156.883 42.3331 156.611 42.2786 156.375 42.1467C155.526 41.6474 155.376 40.1495 155.551 38.9461C155.641 38.3751 155.834 37.8253 156.12 37.3234C155.828 36.9747 155.43 36.731 154.987 36.6293C154.418 36.5195 153.859 36.9039 153.329 37.7278C153.125 38.0504 152.939 38.3838 152.77 38.7264C153.948 39.8199 154.672 41.8171 154.138 42.8158C154.046 43.0409 153.884 43.2309 153.677 43.3583C153.47 43.4858 153.227 43.544 152.985 43.5248C152.647 43.5013 152.322 43.3886 152.042 43.1982C151.762 43.0079 151.538 42.7467 151.392 42.4413C151.137 41.9769 150.738 40.8934 151.252 39.2157C150.863 39.1009 150.348 39.1858 149.754 40.0146C147.972 42.4563 150.413 53.4011 151.502 57.4106L150.313 57.7351C149.894 56.2023 146.319 42.646 148.756 39.2607C149.849 37.7627 150.988 37.7627 151.727 38.0474C151.898 37.7035 152.09 37.3701 152.301 37.0487C153.299 35.4559 154.438 35.2662 155.197 35.396C155.866 35.5346 156.474 35.8847 156.929 36.3946C157.267 36.1217 157.664 35.9319 158.088 35.8404C158.338 35.7777 158.6 35.782 158.849 35.853C159.097 35.924 159.322 36.0592 159.501 36.2448C160.39 37.1636 161.024 39.77 158.033 51.9082L156.515 57.8849ZM152.286 40.0446C152.125 40.6422 152.182 41.2773 152.446 41.8371C152.625 42.1617 152.845 42.2765 152.945 42.2765C153.18 41.912 152.89 40.8485 152.286 40.0446ZM156.899 38.5467C156.829 38.7428 156.777 38.945 156.745 39.1508C156.565 40.2044 156.814 40.9683 156.974 41.0882C156.974 41.0882 157.024 41.0632 157.104 41.0033C157.369 40.8035 157.419 40.2094 157.239 39.5053C157.16 39.1667 157.046 38.837 156.899 38.5217V38.5467Z" fill="white"/>
<defs>
<linearGradient id="paint0_linear_131_155" x1="81.6279" y1="151.705" x2="197.897" y2="151.705" gradientUnits="userSpaceOnUse">
<stop stop-color="#010101" stop-opacity="0"/>
<stop offset="0.95" stop-color="#010101"/>
</linearGradient>
<linearGradient id="paint1_linear_131_155" x1="194.232" y1="150.618" x2="249.728" y2="172.697" gradientUnits="userSpaceOnUse">
<stop stop-color="#010101" stop-opacity="0"/>
<stop offset="0.95" stop-color="#010101"/>
</linearGradient>
<linearGradient id="paint2_linear_131_155" x1="167.533" y1="101.345" x2="184.171" y2="67.378" gradientUnits="userSpaceOnUse">
<stop stop-color="#010101" stop-opacity="0"/>
<stop offset="0.95" stop-color="#010101"/>
</linearGradient>
<linearGradient id="paint3_linear_131_155" x1="206.038" y1="124.298" x2="233.363" y2="157.076" gradientUnits="userSpaceOnUse">
<stop stop-color="#010101" stop-opacity="0"/>
<stop offset="0.95" stop-color="#010101"/>
</linearGradient>
<linearGradient id="paint4_linear_131_155" x1="145.854" y1="67.1571" x2="159.196" y2="67.1571" gradientUnits="userSpaceOnUse">
<stop stop-color="#010101" stop-opacity="0"/>
<stop offset="0.95" stop-color="#010101"/>
</linearGradient>
<linearGradient id="paint5_linear_131_155" x1="136.837" y1="34.2476" x2="172.987" y2="34.2476" gradientUnits="userSpaceOnUse">
<stop stop-color="white" stop-opacity="0"/>
<stop offset="0.95" stop-color="white"/>
</linearGradient>
<linearGradient id="paint6_linear_131_155" x1="152.665" y1="51.1293" x2="158.507" y2="78.6263" gradientUnits="userSpaceOnUse">
<stop stop-color="#010101" stop-opacity="0"/>
<stop offset="0.95" stop-color="#010101"/>
</linearGradient>
<linearGradient id="paint7_linear_131_155" x1="149.554" y1="64.7954" x2="169.576" y2="40.8185" gradientUnits="userSpaceOnUse">
<stop stop-color="#010101" stop-opacity="0"/>
<stop offset="0.95" stop-color="#010101"/>
</linearGradient>
</defs>
</svg>
