<svg width="495" height="556" viewBox="0 0 495 556" fill="none" xmlns="http://www.w3.org/2000/svg">
<path d="M168.242 192.37C168.242 192.37 87.7108 201.76 58.9721 223.762C30.2335 245.763 35.8128 279.47 129.44 261.764C223.067 244.058 168.242 192.37 168.242 192.37Z" fill="#68E1FD"/>
<path opacity="0.08" d="M168.242 192.37C168.242 192.37 87.7108 201.76 58.9721 223.762C30.2335 245.763 35.8128 279.47 129.44 261.764C223.067 244.058 168.242 192.37 168.242 192.37Z" fill="black"/>
<path d="M136.367 137.104C139.178 136.76 141.907 135.927 144.43 134.64C148.641 132.535 157.694 130.429 157.505 139.272C157.378 144.893 148.641 138.24 148.051 145.799C147.462 153.357 148.536 162.916 132.935 160.537C118.702 158.263 122.66 138.851 136.367 137.104Z" fill="#F4A28C"/>
<path d="M387.119 184.306C446.7 184.306 495 143.048 495 92.1532C495 41.2584 446.7 0 387.119 0C327.539 0 279.239 41.2584 279.239 92.1532C279.239 143.048 327.539 184.306 387.119 184.306Z" fill="#24285B"/>
<path opacity="0.45" d="M228.204 555.804C354.238 555.804 456.408 541.297 456.408 523.402C456.408 505.507 354.238 491 228.204 491C102.17 491 0 505.507 0 523.402C0 541.297 102.17 555.804 228.204 555.804Z" fill="#E6E6E6"/>
<path opacity="0.58" d="M322.821 486.852C322.821 486.852 301.472 481.125 296.756 461.335C296.756 461.335 329.768 454.513 330.842 488.705L322.821 486.852Z" fill="#68E1FD"/>
<path opacity="0.73" d="M325.431 484.726C325.431 484.726 310.441 461.25 323.452 439.165C323.452 439.165 348.717 455.018 337.601 484.726H325.431Z" fill="#68E1FD"/>
<path d="M329.263 484.725C329.263 484.725 337.032 459.819 360.844 455.018C360.844 455.018 365.371 471.146 345.559 484.725H329.263Z" fill="#68E1FD"/>
<path d="M313.809 484.241L318.252 513.78H345.475L349.349 484.241H313.809Z" fill="#24285B"/>
<path d="M180.012 506.074C180.012 506.074 177.001 514.959 169.042 515.759C161.084 516.559 159.105 524.412 166.326 526.286C173.548 528.16 191.865 518.643 191.865 518.643L191.086 506.011L180.012 506.074Z" fill="#68E1FD"/>
<path d="M263.722 496.158C263.722 496.158 266.059 505.253 259.827 510.285C253.595 515.317 256.269 522.918 263.343 520.602C270.417 518.286 280.544 500.221 280.544 500.221L273.638 491L263.722 496.158Z" fill="#68E1FD"/>
<path d="M195.255 131.419C195.255 131.419 202.918 144.872 204.834 155.294C205.016 156.304 204.997 157.339 204.777 158.341C204.558 159.343 204.143 160.291 203.556 161.133C202.969 161.974 202.222 162.691 201.358 163.242C200.493 163.794 199.528 164.17 198.518 164.347C193.275 165.232 185.886 164.916 180.917 158.2L171.085 147.841C169.333 145.556 168.332 142.786 168.219 139.909C168.106 137.033 168.886 134.192 170.453 131.777C175.78 122.366 191.002 122.976 195.255 131.419Z" fill="#F4A28C"/>
<path d="M174.685 150.115L174.895 200.876L202.855 198.749L191.76 163.589L174.685 150.115Z" fill="#F4A28C"/>
<path d="M199.655 140.156L205.971 143.778C206.344 143.979 206.66 144.272 206.886 144.631C207.113 144.989 207.243 145.4 207.264 145.824C207.285 146.247 207.196 146.669 207.007 147.048C206.817 147.427 206.533 147.751 206.182 147.988L201.276 151.483L199.655 140.156Z" fill="#F4A28C"/>
<path opacity="0.31" d="M192.075 164.579C188.65 164.239 185.382 162.972 182.622 160.915C182.622 160.915 181.654 171.99 195.254 174.643L192.075 164.579Z" fill="#CE8172"/>
<path d="M391.056 34.6338C402.299 35.2864 411.121 38.8446 417.521 45.1608C420.541 48.0883 422.879 51.6456 424.367 55.5794C425.855 59.5132 426.458 63.7268 426.132 67.9201C426.08 73.3343 424.63 78.6432 421.922 83.3316C419.269 87.374 417.921 89.8583 413.837 92.6375C410.77 94.8818 407.483 96.8076 404.026 98.3852C401.71 99.5853 400.152 100.259 399.541 100.68C393.225 104.07 389.667 107.312 389.33 113.165C389.12 116.913 387.856 117.902 384.256 117.692L378.256 117.334C374.655 117.123 373.519 116.007 373.729 112.26C374.487 99.501 380.045 93.6691 389.583 88.0477C389.435 88.0477 395.667 84.658 395.899 84.5106C397.843 83.3788 399.682 82.0753 401.394 80.6156C403.049 79.0065 404.466 77.1705 405.605 75.1627C406.597 72.745 407.208 70.1881 407.415 67.5832C407.942 58.4458 401.541 51.898 389.562 51.2032C378.003 50.5295 371.603 54.8035 366.844 64.004C364.971 67.6674 363.749 68.2148 360.212 66.7832L353.159 63.8146C349.77 62.5724 348.949 60.2564 350.38 57.1826C357.875 41.0131 371.434 33.4968 391.056 34.6338ZM381.519 125.692C388.719 126.113 390.972 128.661 390.551 135.84V137.209C390.13 144.536 387.604 146.662 380.403 146.241H379.203C372.003 145.82 369.75 143.441 370.171 136.093V134.745C370.592 127.545 373.118 125.292 380.319 125.713L381.519 125.692Z" fill="#FFD200"/>
<path d="M191.844 190.433H219.867C219.867 190.433 309.62 198.16 311.051 242.542C312.483 286.923 254.437 375.582 254.437 375.582H157.715C157.715 375.582 46.4451 190.433 191.844 190.433Z" fill="#68E1FD"/>
<path opacity="0.08" d="M248.332 231.636C248.332 231.636 228.078 260.522 236.541 283.007C245.005 305.493 248.774 341.516 183.549 306.63L174.074 276.396L148.599 267.638L138.346 309.346L155.905 315.304C159.942 316.611 163.305 319.449 165.273 323.208C167.242 326.967 167.658 331.348 166.432 335.411C164.095 342.569 158.326 349.643 144.809 351.012L157.8 375.498H254.522L267.343 354.633L302.588 277.218L248.332 231.636Z" fill="black"/>
<path d="M174.727 160.263C174.727 160.263 168.242 148.388 160.494 143.146C152.746 137.903 159.084 121.039 172.706 118.028C182.896 115.755 188.728 112.407 188.812 106.659C188.85 106.05 189.052 105.461 189.397 104.957C189.742 104.453 190.216 104.051 190.771 103.794C191.325 103.538 191.939 103.435 192.546 103.499C193.154 103.562 193.733 103.788 194.223 104.154C198.897 107.67 203.676 113.418 201.36 121.376C200.452 124.263 198.811 126.865 196.597 128.927C194.383 130.99 191.671 132.443 188.728 133.145L179.548 135.588C179.548 135.588 191.844 152.157 174.727 160.263Z" fill="#24285B"/>
<path d="M185.822 150.325C185.822 150.325 183.233 144.957 179.359 147.251C175.485 149.546 179.169 157.315 185.043 155.505L185.822 150.325Z" fill="#F4A28C"/>
<path d="M301.325 117.839L248.079 159.189L315.262 144.893L301.325 117.839Z" fill="#24285B"/>
<path d="M248.795 245.047C241.384 217.972 273.87 197.823 295.114 216.309C305.24 225.151 313.873 236.52 316.483 250.648C324 291.24 348.064 326.568 311.22 350.612C274.375 374.655 187.17 321.305 187.17 321.305L199.171 299.514C199.171 299.514 242.815 316.799 269.891 315.283C288.566 314.252 259.259 283.281 248.795 245.047Z" fill="#68E1FD"/>
<path d="M166.712 263.145L193.027 269.428L182.89 311.88L156.576 305.596L166.712 263.145Z" fill="#FFD200"/>
<path opacity="0.3" d="M248.795 245.047C241.384 217.972 273.87 197.823 295.114 216.309C305.24 225.151 313.873 236.52 316.483 250.648C324 291.24 348.064 326.568 311.22 350.612C274.375 374.655 187.17 321.305 187.17 321.305L199.171 299.514C199.171 299.514 242.815 316.799 269.891 315.283C288.566 314.252 259.259 283.281 248.795 245.047Z" fill="white"/>
<path d="M197.571 302.251C196.582 298.108 194.619 294.261 191.844 291.029C187.128 285.387 185.528 282.881 179.022 283.008C172.516 283.134 171.864 307.03 189.823 316.315L197.571 302.251Z" fill="#F4A28C"/>
<path d="M254.437 375.582C254.437 375.582 235.068 456.008 273.849 489.821L260.185 502.6C260.185 502.6 209.908 473.42 202.897 393.246L254.437 375.582Z" fill="#24285B"/>
<path d="M124.85 146.199L132.935 160.494L73.8152 253.658C64.6778 268.038 41.9184 262.08 41.7079 245.047C41.7079 237.194 44.087 227.741 51.098 216.582C76.489 176.032 124.85 146.199 124.85 146.199Z" fill="#68E1FD"/>
<path d="M118.269 122.962L118.827 118.788L140.759 121.723L140.201 125.896L118.269 122.962Z" fill="#C9C9C9"/>
<path d="M132.578 94.8663L135.817 92.1749L149.96 109.193L146.722 111.884L132.578 94.8663Z" fill="#C9C9C9"/>
<path d="M161.488 107.358L163.532 85.3247L167.725 85.7137L165.681 107.747L161.488 107.358Z" fill="#C9C9C9"/>
<path d="M157.715 375.582C157.715 375.582 137.84 450.66 177.022 506.011L192.854 505.253C192.854 505.253 169.905 430.364 203.992 402.973L254.521 375.603L157.715 375.582Z" fill="#24285B"/>
</svg>
