<svg width="384" height="372" viewBox="0 0 384 372" fill="none" xmlns="http://www.w3.org/2000/svg">
<path opacity="0.24" d="M368.3 243.291C357.271 259.109 341.8 271.281 329.565 286.24C311.599 308.171 299.976 336.645 275.651 351.274C264.146 358.183 250.832 361.271 237.783 364.269C216.811 369.093 195.081 373.918 173.945 369.843C157.743 366.727 143.041 358.557 128.639 350.498L117.244 344.101C114.731 342.676 112.191 341.277 109.65 339.852L102.249 335.703C80.5186 323.458 58.9256 310.684 40.6131 293.806C20.2081 275.073 3.98819 250.419 0.616287 222.886C-3.29476 191.068 11.6732 157.65 38.0088 139.365C52.4559 129.313 69.681 123.721 83.8722 113.294C106.269 96.8462 118.596 70.538 133.976 47.4281C162.477 4.58019 217.286 -15.9254 263.442 14.5314C281.38 26.3559 294.95 43.9191 304.92 62.9626C313.345 79.018 319.54 96.435 330.743 110.69C343.537 126.974 362.16 138.25 373.354 155.676C390.122 181.756 386.065 217.833 368.3 243.291Z" fill="#68E1FD"/>
<path opacity="0.42" d="M131.564 340.793C130.22 342.264 132.423 344.311 134.305 345.024C146.587 349.724 159.625 352.139 172.776 352.152L170.537 355.962C191.15 361.686 212.917 361.799 233.589 356.291L230.409 351.357L248.877 350.443C251.81 350.306 262.099 351.512 264.046 348.908C269.647 341.405 246.848 341.113 244.399 341.013C220.074 339.995 195.733 339.602 171.378 339.834C164.737 339.895 158.097 340.001 151.457 340.154C148.313 340.263 133.519 338.71 131.564 340.793Z" fill="#68E1FD"/>
<path d="M235.389 273.181C234.896 282.929 234.308 292.694 233.625 302.478C233.423 307.423 232.78 312.34 231.706 317.172C230.986 320.044 229.969 322.834 228.673 325.496C228.115 326.638 227.32 327.881 226.068 328.009C224.487 328.174 223.391 326.483 222.824 324.994C220.001 317.683 220.001 309.678 219.818 301.856C219.714 297.811 219.553 293.763 219.334 289.712C219.069 284.823 218.539 279.532 215.231 275.914C214.226 274.817 213.001 273.922 212.014 272.798C207.984 268.229 209.191 260.525 213.531 256.221C216.903 252.886 226.69 248.481 231.414 251.241C237.025 254.513 235.654 267.909 235.389 273.181Z" fill="#606161"/>
<path d="M207.097 256.45C208.51 258.689 209.173 261.32 208.989 263.961C208.76 271.902 204.045 278.929 201.679 286.523C198.133 297.991 200.107 310.282 200.463 322.316C200.628 323.974 200.422 325.647 199.86 327.214C199.562 327.991 199.034 328.659 198.347 329.129C197.659 329.6 196.846 329.849 196.013 329.846C194.807 329.622 193.721 328.974 192.952 328.018C187.14 321.805 187.332 312.329 186.372 303.885C185.294 294.482 182.379 285.399 179.894 276.27C178.77 272.149 177.719 267.927 177.984 263.669C178.249 259.411 180.04 255.034 183.558 252.621C189.945 248.253 202.537 249.916 207.097 256.45Z" fill="#606161"/>
<path opacity="0.52" d="M55.7732 170.827H155.615C161.741 170.827 166.708 165.86 166.708 159.734V47.3733C166.708 41.2465 161.741 36.2798 155.615 36.2798H55.7732C49.6464 36.2798 44.6797 41.2465 44.6797 47.3733V159.734C44.6797 165.86 49.6464 170.827 55.7732 170.827Z" fill="#68E1FD"/>
<path d="M55.7732 170.827H155.615C161.741 170.827 166.708 165.86 166.708 159.734V47.3733C166.708 41.2465 161.741 36.2798 155.615 36.2798H55.7732C49.6464 36.2798 44.6797 41.2465 44.6797 47.3733V159.734C44.6797 165.86 49.6464 170.827 55.7732 170.827Z" fill="url(#paint0_linear_100_235)"/>
<path opacity="0.52" d="M247.716 144.875H362.196C368.03 144.875 372.76 140.146 372.76 134.312V72.2741C372.76 66.4401 368.03 61.7107 362.196 61.7107H247.716C241.882 61.7107 237.152 66.4401 237.152 72.2741V134.312C237.152 140.146 241.882 144.875 247.716 144.875Z" fill="#68E1FD"/>
<path d="M247.716 144.875H362.196C368.03 144.875 372.76 140.146 372.76 134.312V72.2741C372.76 66.4401 368.03 61.7107 362.196 61.7107H247.716C241.882 61.7107 237.152 66.4401 237.152 72.2741V134.312C237.152 140.146 241.882 144.875 247.716 144.875Z" fill="url(#paint1_linear_100_235)"/>
<path opacity="0.52" d="M212.709 84.1262H284.633C288.297 84.1262 291.268 81.1559 291.268 77.492V38.5095C291.268 34.8455 288.297 31.8753 284.633 31.8753H212.709C209.045 31.8753 206.074 34.8455 206.074 38.5095V77.492C206.074 81.1559 209.045 84.1262 212.709 84.1262Z" fill="#68E1FD"/>
<path d="M212.709 84.1262H284.633C288.297 84.1262 291.268 81.1559 291.268 77.492V38.5095C291.268 34.8455 288.297 31.8753 284.633 31.8753H212.709C209.045 31.8753 206.074 34.8455 206.074 38.5095V77.492C206.074 81.1559 209.045 84.1262 212.709 84.1262Z" fill="url(#paint2_linear_100_235)"/>
<path opacity="0.52" d="M304.436 243.227H98.2009V233.34H304.436V243.227Z" fill="#68E1FD"/>
<path d="M138.453 220.62H273.357C279.695 220.62 284.834 215.481 284.834 209.143V115.561C284.834 109.222 279.695 104.083 273.357 104.083H138.453C132.114 104.083 126.976 109.222 126.976 115.561V209.143C126.976 215.481 132.114 220.62 138.453 220.62Z" fill="#68E1FD"/>
<path d="M138.453 220.62H273.357C279.695 220.62 284.834 215.481 284.834 209.143V115.561C284.834 109.222 279.695 104.083 273.357 104.083H138.453C132.114 104.083 126.976 109.222 126.976 115.561V209.143C126.976 215.481 132.114 220.62 138.453 220.62Z" fill="url(#paint3_linear_100_235)"/>
<path d="M146.385 122.332H177.865V124.644H146.385V122.332Z" fill="url(#paint4_linear_100_235)"/>
<path d="M146.385 126.8H165.602V128.966H146.385V126.8Z" fill="url(#paint5_linear_100_235)"/>
<path d="M173.351 126.8H233.817V128.984H173.351V126.8Z" fill="url(#paint6_linear_100_235)"/>
<path d="M239.474 126.8H273.503V128.984H239.474V126.8Z" fill="url(#paint7_linear_100_235)"/>
<path d="M156.382 131.287H182.8V133.572H156.382V131.287Z" fill="url(#paint8_linear_100_235)"/>
<path d="M164.862 135.746H196.342V138.058H164.862V135.746Z" fill="url(#paint9_linear_100_235)"/>
<path d="M198.398 135.746H224.789V138.314H198.398V135.746Z" fill="url(#paint10_linear_100_235)"/>
<path d="M164.816 140.215H189.123V142.381H164.816V140.215Z" fill="url(#paint11_linear_100_235)"/>
<path d="M191.454 140.215H241.621V142.618H191.454V140.215Z" fill="url(#paint12_linear_100_235)"/>
<path d="M146.385 146.264H177.865V148.576H146.385V146.264Z" fill="url(#paint13_linear_100_235)"/>
<path d="M146.385 150.733H165.602V152.898H146.385V150.733Z" fill="url(#paint14_linear_100_235)"/>
<path d="M173.351 150.733H233.817V152.917H173.351V150.733Z" fill="url(#paint15_linear_100_235)"/>
<path d="M239.474 150.733H273.503V152.917H239.474V150.733Z" fill="url(#paint16_linear_100_235)"/>
<path d="M156.382 155.201H182.8V157.486H156.382V155.201Z" fill="url(#paint17_linear_100_235)"/>
<path d="M164.862 159.679H196.342V161.991H164.862V159.679Z" fill="url(#paint18_linear_100_235)"/>
<path d="M198.398 159.679H224.789V162.246H198.398V159.679Z" fill="url(#paint19_linear_100_235)"/>
<path d="M164.816 164.147H189.123V166.313H164.816V164.147Z" fill="url(#paint20_linear_100_235)"/>
<path d="M191.454 164.147H241.621V166.551H191.454V164.147Z" fill="url(#paint21_linear_100_235)"/>
<path d="M146.385 170.187H177.865V172.499H146.385V170.187Z" fill="url(#paint22_linear_100_235)"/>
<path d="M146.385 174.656H165.602V176.822H146.385V174.656Z" fill="url(#paint23_linear_100_235)"/>
<path d="M173.351 174.656H233.817V176.84H173.351V174.656Z" fill="url(#paint24_linear_100_235)"/>
<path d="M239.474 174.656H273.503V176.84H239.474V174.656Z" fill="url(#paint25_linear_100_235)"/>
<path d="M156.382 179.124H182.8V181.409H156.382V179.124Z" fill="url(#paint26_linear_100_235)"/>
<path d="M164.862 183.593H196.342V185.905H164.862V183.593Z" fill="url(#paint27_linear_100_235)"/>
<path d="M198.398 183.593H224.789V186.161H198.398V183.593Z" fill="url(#paint28_linear_100_235)"/>
<path d="M164.816 188.071H189.123V190.236H164.816V188.071Z" fill="url(#paint29_linear_100_235)"/>
<path d="M191.454 188.071H241.621V190.474H191.454V188.071Z" fill="url(#paint30_linear_100_235)"/>
<g opacity="0.52">
<path d="M216.884 39.0211H232.547V40.1725H216.884V39.0211Z" fill="#68E1FD"/>
<path d="M216.884 41.2508H226.443V42.3291H216.884V41.2508Z" fill="#68E1FD"/>
<path d="M230.299 41.2508H260.381V42.3382H230.299V41.2508Z" fill="#68E1FD"/>
<path d="M263.186 41.2508H280.119V42.3382H263.186V41.2508Z" fill="#68E1FD"/>
<path d="M221.855 43.4714H234.995V44.6045H221.855V43.4714Z" fill="#68E1FD"/>
<path d="M226.077 45.7009H241.739V46.8523H226.077V45.7009Z" fill="#68E1FD"/>
<path d="M242.754 45.7009H255.876V46.9802H242.754V45.7009Z" fill="#68E1FD"/>
<path d="M226.049 47.9215H238.139V48.9998H226.049V47.9215Z" fill="#68E1FD"/>
<path d="M239.309 47.9215H264.264V49.1186H239.309V47.9215Z" fill="#68E1FD"/>
<path d="M216.884 50.9279H232.547V52.0792H216.884V50.9279Z" fill="#68E1FD"/>
<path d="M216.884 53.1484H226.443V54.2267H216.884V53.1484Z" fill="#68E1FD"/>
<path d="M230.299 53.1484H260.381V54.2359H230.299V53.1484Z" fill="#68E1FD"/>
<path d="M263.186 53.1484H280.119V54.2359H263.186V53.1484Z" fill="#68E1FD"/>
<path d="M221.855 55.369H234.995V56.5021H221.855V55.369Z" fill="#68E1FD"/>
<path d="M226.077 57.5986H241.739V58.75H226.077V57.5986Z" fill="#68E1FD"/>
<path d="M242.754 57.5986H255.876V58.8779H242.754V57.5986Z" fill="#68E1FD"/>
<path d="M226.049 59.8192H238.139V60.8974H226.049V59.8192Z" fill="#68E1FD"/>
<path d="M239.309 59.8192H264.264V61.0162H239.309V59.8192Z" fill="#68E1FD"/>
<path d="M216.884 62.8256H232.547V63.9769H216.884V62.8256Z" fill="#68E1FD"/>
<path d="M216.884 65.0552H226.443V66.1335H216.884V65.0552Z" fill="#68E1FD"/>
<path d="M230.299 65.0552H260.381V66.1426H230.299V65.0552Z" fill="#68E1FD"/>
<path d="M263.186 65.0552H280.119V66.1426H263.186V65.0552Z" fill="#68E1FD"/>
<path d="M221.855 67.2757H234.995V68.4088H221.855V67.2757Z" fill="#68E1FD"/>
<path d="M226.077 69.4963H241.739V70.6477H226.077V69.4963Z" fill="#68E1FD"/>
<path d="M242.754 69.4963H255.876V70.7756H242.754V69.4963Z" fill="#68E1FD"/>
<path d="M226.049 71.7259H238.139V72.8042H226.049V71.7259Z" fill="#68E1FD"/>
<path d="M239.309 71.7259H264.264V72.923H239.309V71.7259Z" fill="#68E1FD"/>
</g>
<path d="M243.896 226.934C244.545 228.762 245.157 230.681 244.755 232.563C244.609 233.215 244.346 233.834 243.978 234.391C242.15 237.223 237.819 237.662 234.84 235.962C231.861 234.263 230.18 231.01 229.357 227.738C229.033 226.643 228.924 225.494 229.037 224.357C229.302 222.374 230.618 220.702 231.989 219.24C233.817 217.339 237.17 214.854 239.628 217.138C241.84 219.185 242.918 224.202 243.896 226.934Z" fill="url(#paint31_linear_100_235)"/>
<path d="M169.157 226.386C168.757 227.141 168.57 227.991 168.618 228.844C168.728 229.393 168.946 229.914 169.257 230.379C170.026 231.759 171.053 232.978 172.282 233.97C173.522 234.964 175.093 235.451 176.677 235.332C179.017 235.076 180.872 233.221 182.114 231.22C183.406 229.318 184.085 227.067 184.061 224.768C183.989 223.557 183.651 222.377 183.069 221.312C182.488 220.247 181.678 219.324 180.698 218.609C178.934 217.33 175.261 216.17 173.269 217.632C171.277 219.094 170.153 224.028 169.157 226.386Z" fill="url(#paint32_linear_100_235)"/>
<path d="M223.125 159.268C223.45 159.174 223.792 159.155 224.124 159.214C224.457 159.272 224.772 159.406 225.044 159.606C225.426 160.04 225.648 160.591 225.675 161.168C225.908 162.332 225.954 163.526 225.812 164.705C225.659 165.876 225.084 166.952 224.195 167.729C223.502 168.239 222.721 168.617 221.892 168.844C221.269 169.127 220.56 169.153 219.918 168.917C219.638 168.727 219.404 168.476 219.234 168.184C219.063 167.891 218.96 167.564 218.931 167.227C218.209 163.69 219.315 159.962 223.125 159.268Z" fill="url(#paint33_linear_100_235)"/>
<path d="M189.854 158.043C189.491 157.952 189.111 157.952 188.748 158.043C188.352 158.23 188.017 158.526 187.784 158.897C187.551 159.268 187.429 159.698 187.432 160.136C187.373 160.995 187.428 161.859 187.597 162.704C187.754 164.118 188.334 165.452 189.26 166.532C189.726 167.052 190.354 167.4 191.042 167.519C191.73 167.639 192.438 167.523 193.052 167.19C196.936 164.504 193.28 158.793 189.854 158.043Z" fill="url(#paint34_linear_100_235)"/>
<path d="M214.453 183.584C214.634 184.412 214.683 185.263 214.6 186.106C214.261 188.445 211.931 190.081 209.592 190.373C207.253 190.666 204.913 189.88 202.729 189.012C202.059 188.786 201.438 188.432 200.902 187.97C200.366 187.411 200.002 186.71 199.851 185.951C199.589 184.634 199.509 183.287 199.613 181.948L199.759 177.233C199.715 176.311 199.897 175.391 200.289 174.555C201.203 172.993 203.296 172.728 205.114 172.609C207.499 172.509 211.091 172.609 212.662 174.784C214.234 176.959 214.051 181.053 214.453 183.584Z" fill="url(#paint35_linear_100_235)"/>
<path d="M221.8 145.095C222.51 147.084 222.76 149.208 222.531 151.308C222.328 156.157 221.821 160.988 221.014 165.774C220.411 169.365 219.461 173.221 216.619 175.487C215.806 176.034 215.039 176.645 214.325 177.315C213.832 177.845 213.484 178.503 213.028 179.079C210.716 181.975 206.055 181.975 202.875 180.047C199.695 178.119 197.658 174.811 195.793 171.595C193.737 168.049 191.7 164.339 191.334 160.254C191.032 157.02 191.791 153.611 190.557 150.605C189.644 148.393 187.752 146.621 187.332 144.272C187.169 142.69 187.363 141.091 187.898 139.594C188.638 136.934 189.771 133.864 192.467 133.142C194.432 132.612 196.46 133.617 198.498 133.681C201.093 133.773 203.734 132.32 206.202 133.142C209.372 134.202 210.77 137.857 213.932 139.045C217.094 140.233 220.329 141.732 221.8 145.095Z" fill="#606161"/>
<path d="M232.291 191.927C223.025 184.242 209.656 184.434 197.731 186.06C192.806 186.727 187.789 187.614 183.457 190.063C176.202 194.175 171.907 202.125 169.65 210.166C168.453 214.433 167.822 219.304 170.217 223.051C172.729 226.925 177.737 228.259 182.324 228.771C183.027 228.787 183.714 228.985 184.316 229.347C184.948 229.932 185.345 230.728 185.431 231.585C186.711 238.256 184.115 245.749 187.542 251.607C190.859 257.263 198.27 258.753 204.804 259.255C213.256 259.904 222.422 259.666 229.284 254.686C230.423 253.921 231.39 252.929 232.126 251.771C233.259 249.834 233.323 247.476 233.351 245.238C233.424 240.358 231.642 230.544 234.018 226.24C236.01 222.658 241.684 222.639 243.677 218.546C247.451 210.76 237.965 196.624 232.291 191.927Z" fill="white"/>
<path d="M198.754 254.111L198.818 264.5C198.863 264.9 198.787 265.305 198.599 265.661C198.295 266.036 197.855 266.276 197.374 266.328C194.56 266.986 191.617 266.611 188.73 266.62C185.842 266.63 182.726 267.141 180.652 269.161C183.804 271.491 187.871 272.131 191.773 272.587C197.548 273.276 203.335 273.733 209.135 273.958C212.894 274.235 216.673 274.039 220.384 273.373C223.646 272.718 226.704 271.293 229.302 269.216C226.753 266.474 222.531 266.529 218.803 266.529C215.175 266.528 211.551 266.32 207.947 265.908C207.54 265.913 207.136 265.835 206.76 265.678C206.384 265.521 206.045 265.288 205.763 264.994C205.459 264.452 205.338 263.828 205.416 263.212C205.485 260.905 205.776 258.61 206.284 256.358C206.392 255.616 206.691 254.913 207.152 254.321C207.966 253.625 208.988 253.22 210.058 253.169C214.289 252.464 218.438 251.331 222.44 249.788C224.088 249.242 225.622 248.396 226.963 247.294C230.563 244.022 230.408 238.384 229.576 233.587C222.951 237.433 215.468 239.563 207.81 239.782C202.574 239.928 191.215 237.68 187.533 242.725C185.705 245.274 187.652 247.632 189.671 249.395C190.548 250.145 198.754 254.01 198.754 254.111Z" fill="url(#paint36_linear_100_235)"/>
<path d="M217.515 206.895H195.766C187.293 206.895 180.424 213.764 180.424 222.237V228.716C180.424 237.19 187.293 244.059 195.766 244.059H217.515C225.988 244.059 232.857 237.19 232.857 228.716V222.237C232.857 213.764 225.988 206.895 217.515 206.895Z" fill="#68E1FD"/>
<path d="M217.515 206.895H195.766C187.293 206.895 180.424 213.764 180.424 222.237V228.716C180.424 237.19 187.293 244.059 195.766 244.059H217.515C225.988 244.059 232.857 237.19 232.857 228.716V222.237C232.857 213.764 225.988 206.895 217.515 206.895Z" fill="url(#paint37_linear_100_235)"/>
<path d="M217.515 210.312H195.766C187.293 210.312 180.424 217.181 180.424 225.655V232.134C180.424 240.607 187.293 247.476 195.766 247.476H217.515C225.988 247.476 232.857 240.607 232.857 232.134V225.655C232.857 217.181 225.988 210.312 217.515 210.312Z" fill="#68E1FD"/>
<path d="M214.71 230.827C213.14 231.523 211.488 232.014 209.794 232.289C205.225 233.13 199.888 232.947 196.598 229.63C196.083 229.126 195.665 228.531 195.365 227.875C194.451 225.655 195.648 222.978 197.613 221.57C199.577 220.163 202.072 219.788 204.475 219.67C207.418 219.523 213.01 219.021 215.578 221.004C218.648 223.38 218.173 229.2 214.71 230.827Z" fill="url(#paint38_linear_100_235)"/>
<path d="M205.763 284.193H205.772C207.746 284.193 209.345 282.593 209.345 280.62V228.698C209.345 226.725 207.746 225.125 205.772 225.125H205.763C203.79 225.125 202.19 226.725 202.19 228.698V280.62C202.19 282.593 203.79 284.193 205.763 284.193Z" fill="white"/>
<path d="M227.777 325.35C229.604 326.858 230.061 329.471 230.865 331.746C231.98 334.853 234.045 337.677 234.319 340.967C234.439 341.942 234.277 342.931 233.853 343.818C233.445 344.503 232.863 345.07 232.168 345.461C231.472 345.852 230.686 346.055 229.887 346.047C228.288 346.014 226.729 345.54 225.382 344.677C223.001 343.258 221.034 341.238 219.68 338.819C218.989 337.636 218.548 336.323 218.383 334.963C218.008 330.842 222.285 320.964 227.777 325.35Z" fill="#68E1FD"/>
<path d="M231.185 342.785C231.314 343.026 231.382 343.294 231.382 343.566C231.382 343.839 231.314 344.108 231.185 344.348C230.974 344.574 230.695 344.725 230.39 344.777C229.131 345.021 227.827 344.783 226.735 344.11C225.658 343.45 224.669 342.654 223.793 341.743C222.436 340.553 221.236 339.196 220.22 337.705C219.202 336.189 218.788 334.347 219.059 332.542C220.028 327.589 224.396 332.03 226.004 333.857C228.3 336.465 230.06 339.498 231.185 342.785Z" fill="#606161"/>
<path d="M192.002 325.451C190.174 326.958 189.717 329.572 188.913 331.847C187.798 334.954 185.733 337.787 185.459 341.067C185.34 342.046 185.501 343.038 185.925 343.927C186.335 344.611 186.917 345.176 187.612 345.566C188.308 345.955 189.094 346.156 189.891 346.148C191.491 346.12 193.051 345.645 194.396 344.777C196.78 343.362 198.747 341.341 200.098 338.92C200.79 337.737 201.232 336.424 201.396 335.064C201.761 330.942 197.485 321.028 192.002 325.451Z" fill="#68E1FD"/>
<path d="M188.127 343.142C188.001 343.383 187.935 343.651 187.935 343.923C187.935 344.195 188.001 344.463 188.127 344.704C188.342 344.93 188.624 345.081 188.931 345.134C190.19 345.367 191.491 345.13 192.586 344.467C193.659 343.802 194.644 343.007 195.52 342.1C196.881 340.909 198.085 339.548 199.102 338.052C200.118 336.539 200.531 334.7 200.262 332.898C199.285 327.936 194.926 332.377 193.308 334.214C191.015 336.823 189.255 339.856 188.127 343.142Z" fill="#606161"/>
<path d="M211.585 303.602C210.113 304.301 208.487 304.615 206.86 304.515C205.06 304.619 203.254 304.487 201.487 304.122C200.892 304.005 200.334 303.745 199.861 303.364C199.466 303.002 199.154 302.56 198.947 302.066C197.457 298.777 195.776 291.96 198.088 289.191C200.729 286.011 211.21 285.454 214.536 288.789C217.762 291.914 215.423 301.345 211.585 303.602Z" fill="#68E1FD"/>
<path d="M211.585 303.602C210.113 304.301 208.487 304.615 206.86 304.515C205.06 304.619 203.254 304.487 201.487 304.122C200.892 304.005 200.334 303.745 199.861 303.364C199.466 303.002 199.154 302.56 198.947 302.066C197.457 298.777 195.776 291.96 198.088 289.191C200.729 286.011 211.21 285.454 214.536 288.789C217.762 291.914 215.423 301.345 211.585 303.602Z" fill="url(#paint39_linear_100_235)"/>
<path d="M209.081 334.515H204.311V303.739H209.081V334.515Z" fill="white"/>
<path d="M225.556 337.074C226.616 337.942 227.649 339.03 229.01 339.194C229.997 339.304 230.984 338.883 231.989 338.883C233.312 338.976 234.559 339.537 235.508 340.464C236.403 341.173 237.076 342.125 237.445 343.206C238.185 345.728 235.937 348.487 233.314 348.743C230.692 348.999 228.17 347.208 227.018 344.85C226.77 344.204 226.445 343.591 226.05 343.023C225.671 342.615 225.23 342.27 224.743 341.999C220.862 339.593 216.582 337.9 212.105 337.001C211.328 336.846 210.378 336.772 209.885 337.385C209.646 337.735 209.515 338.148 209.51 338.573C209.308 340.393 209.225 342.224 209.263 344.055C209.239 344.407 209.305 344.76 209.455 345.079C209.692 345.408 209.983 345.695 210.314 345.929C210.842 346.49 211.174 347.208 211.26 347.974C211.345 348.74 211.18 349.513 210.789 350.178C209.963 351.488 208.696 352.46 207.216 352.919C205.462 353.568 203.251 353.678 201.944 352.334C201.482 351.815 201.174 351.178 201.053 350.494C200.932 349.81 201.003 349.106 201.258 348.46C201.785 347.17 202.758 346.113 204 345.481C204.432 345.317 204.806 345.032 205.078 344.658C205.229 344.314 205.286 343.936 205.243 343.562L205.115 339.486C205.153 339.175 205.117 338.86 205.009 338.566C204.901 338.272 204.724 338.008 204.493 337.796C204.128 337.606 203.71 337.545 203.305 337.622C196.589 338.141 190.157 340.552 184.755 344.576C185.742 345.344 185.569 347.007 184.682 347.884C183.706 348.689 182.452 349.077 181.192 348.962C179.806 348.977 178.448 348.579 177.29 347.82C176.71 347.441 176.237 346.919 175.917 346.305C175.597 345.69 175.44 345.004 175.462 344.311C175.555 343.61 175.829 342.944 176.257 342.38C176.684 341.817 177.251 341.374 177.902 341.095C179.209 340.547 180.647 340.392 182.041 340.647C182.759 340.8 183.493 340.858 184.225 340.821C185.047 340.65 185.828 340.324 186.528 339.861C192.857 336.287 199.876 334.107 207.116 333.464C213.184 332.925 220.649 333.053 225.556 337.074Z" fill="white"/>
<path d="M283.582 214.05H341.307C346.868 214.05 351.377 209.541 351.377 203.98V166.377C351.377 160.815 346.868 156.307 341.307 156.307H283.582C278.021 156.307 273.512 160.815 273.512 166.377V203.98C273.512 209.541 278.021 214.05 283.582 214.05Z" fill="white"/>
<path d="M57.7378 218.829H127.762C133.147 218.829 137.512 214.463 137.512 209.079V195.737C137.512 190.352 133.147 185.987 127.762 185.987H57.7378C52.3529 185.987 47.9876 190.352 47.9876 195.737V209.079C47.9876 214.463 52.3529 218.829 57.7378 218.829Z" fill="white"/>
<path d="M63.7231 74.0104L86.5041 62.2772V65.6765L67.3144 75.244V75.3536L86.5041 84.9668V88.3661L63.7231 76.633V74.0104Z" fill="#68E1FD"/>
<path d="M89.6567 90.3765L103.364 54.7385H106.699L92.9921 90.3765H89.6567Z" fill="#68E1FD"/>
<path d="M132.605 76.8066L109.815 88.494V85.0125L129.151 75.3993V75.244L109.815 65.6309V62.2772L132.605 73.9647V76.8066Z" fill="#68E1FD"/>
<path d="M178.167 292.316H231.505C237.839 292.316 242.973 287.182 242.973 280.848V280.126C242.973 273.792 237.839 268.658 231.505 268.658H178.167C171.833 268.658 166.699 273.792 166.699 280.126V280.848C166.699 287.182 171.833 292.316 178.167 292.316Z" fill="#68E1FD"/>
<path d="M178.167 292.316H231.505C237.839 292.316 242.973 287.182 242.973 280.848V280.126C242.973 273.792 237.839 268.658 231.505 268.658H178.167C171.833 268.658 166.699 273.792 166.699 280.126V280.848C166.699 287.182 171.833 292.316 178.167 292.316Z" fill="url(#paint40_linear_100_235)"/>
<g opacity="0.52">
<path d="M282.157 171.247H302.991V172.773H282.157V171.247Z" fill="#68E1FD"/>
<path d="M282.157 174.199H294.877V175.634H282.157V174.199Z" fill="#68E1FD"/>
<path d="M300.003 174.199H340.019V175.643H300.003V174.199Z" fill="#68E1FD"/>
<path d="M288.773 177.169H306.263V178.686H288.773V177.169Z" fill="#68E1FD"/>
<path d="M294.383 180.12H315.218V181.646H294.383V180.12Z" fill="#68E1FD"/>
<path d="M316.57 180.12H334.033V181.82H316.57V180.12Z" fill="#68E1FD"/>
<path d="M294.347 183.081H310.439V184.516H294.347V183.081Z" fill="#68E1FD"/>
<path d="M311.983 183.081H345.182V184.671H311.983V183.081Z" fill="#68E1FD"/>
<path d="M282.157 187.083H302.991V188.61H282.157V187.083Z" fill="#68E1FD"/>
<path d="M282.157 190.035H294.877V191.47H282.157V190.035Z" fill="#68E1FD"/>
<path d="M300.003 190.035H340.019V191.479H300.003V190.035Z" fill="#68E1FD"/>
<path d="M288.773 192.996H306.263V194.513H288.773V192.996Z" fill="#68E1FD"/>
<path d="M294.383 195.956H315.218V197.482H294.383V195.956Z" fill="#68E1FD"/>
<path d="M316.57 195.956H334.033V197.656H316.57V195.956Z" fill="#68E1FD"/>
<path d="M294.347 198.917H310.439V200.352H294.347V198.917Z" fill="#68E1FD"/>
<path d="M311.983 198.917H345.182V200.507H311.983V198.917Z" fill="#68E1FD"/>
</g>
<g opacity="0.52">
<path d="M61.8037 193.224H82.6383V194.75H61.8037V193.224Z" fill="#68E1FD"/>
<path d="M61.8037 196.185H74.5238V197.62H61.8037V196.185Z" fill="#68E1FD"/>
<path d="M79.6504 196.185H119.666V197.629H79.6504V196.185Z" fill="#68E1FD"/>
<path d="M68.4199 199.146H85.91V200.663H68.4199V199.146Z" fill="#68E1FD"/>
<path d="M74.0303 202.106H94.8648V203.632H74.0303V202.106Z" fill="#68E1FD"/>
<path d="M96.2266 202.106H113.689V203.806H96.2266V202.106Z" fill="#68E1FD"/>
<path d="M74.0029 205.058H90.0949V206.493H74.0029V205.058Z" fill="#68E1FD"/>
<path d="M91.6304 205.058H124.829V206.648H91.6304V205.058Z" fill="#68E1FD"/>
<path d="M61.8037 209.06H82.6383V210.586H61.8037V209.06Z" fill="#68E1FD"/>
<path d="M61.8037 212.021H74.5238V213.456H61.8037V212.021Z" fill="#68E1FD"/>
<path d="M79.6504 212.021H119.666V213.465H79.6504V212.021Z" fill="#68E1FD"/>
</g>
<path d="M102.724 298.896C99.6994 292.919 95.9985 286.715 96.7113 280.053C97.1408 276.023 99.1785 272.368 101.171 268.832L110.144 252.922C112.885 256.486 117.4 258.652 119.209 262.764C122.115 269.371 116.468 276.681 116.769 283.891C116.97 289.438 120.653 294.491 120.424 300.038C120.278 304.068 113.9 317.272 108.737 316.769C106.005 316.504 104.442 302.277 102.724 298.896Z" fill="#68E1FD"/>
<path d="M102.724 298.896C99.6994 292.919 95.9985 286.715 96.7113 280.053C97.1408 276.023 99.1785 272.368 101.171 268.832L110.144 252.922C112.885 256.486 117.4 258.652 119.209 262.764C122.115 269.371 116.468 276.681 116.769 283.891C116.97 289.438 120.653 294.491 120.424 300.038C120.278 304.068 113.9 317.272 108.737 316.769C106.005 316.504 104.442 302.277 102.724 298.896Z" fill="url(#paint41_linear_100_235)"/>
<path d="M133.619 296.346C135.657 296.346 138.188 296.757 138.773 298.722C139.248 300.44 137.74 302.021 136.306 303.081C131.307 306.736 125.048 309.541 122.599 315.234C118.532 324.683 107.018 318.625 112.976 310.446C115.444 307.065 117.545 302.523 120.616 299.7C124.143 296.438 129.077 296.291 133.619 296.346Z" fill="#68E1FD"/>
<path d="M133.619 296.346C135.657 296.346 138.188 296.757 138.773 298.722C139.248 300.44 137.74 302.021 136.306 303.081C131.307 306.736 125.048 309.541 122.599 315.234C118.532 324.683 107.018 318.625 112.976 310.446C115.444 307.065 117.545 302.523 120.616 299.7C124.143 296.438 129.077 296.291 133.619 296.346Z" fill="url(#paint42_linear_100_235)"/>
<path d="M103.765 300.714C101.472 298.101 98.0634 296.812 94.8103 295.606C93.2659 295.039 91.283 294.573 90.2413 295.816C89.8978 296.301 89.7134 296.881 89.7134 297.475C89.7134 298.069 89.8978 298.648 90.2413 299.133C90.9579 300.083 91.8327 300.902 92.8273 301.555C94.8287 303.021 96.4694 304.924 97.6248 307.12C98.7853 309.487 99.096 312.182 100.129 314.613C101.161 317.044 103.318 319.337 105.949 319.228C106.981 319.124 107.958 318.717 108.758 318.058C109.558 317.4 110.145 316.519 110.445 315.527C111.469 312.374 110.107 310.958 108.417 308.728C106.543 306.252 105.858 303.081 103.765 300.714Z" fill="#68E1FD"/>
<path d="M103.765 300.714C101.472 298.101 98.0634 296.812 94.8103 295.606C93.2659 295.039 91.283 294.573 90.2413 295.816C89.8978 296.301 89.7134 296.881 89.7134 297.475C89.7134 298.069 89.8978 298.648 90.2413 299.133C90.9579 300.083 91.8327 300.902 92.8273 301.555C94.8287 303.021 96.4694 304.924 97.6248 307.12C98.7853 309.487 99.096 312.182 100.129 314.613C101.161 317.044 103.318 319.337 105.949 319.228C106.981 319.124 107.958 318.717 108.758 318.058C109.558 317.4 110.145 316.519 110.445 315.527C111.469 312.374 110.107 310.958 108.417 308.728C106.543 306.252 105.858 303.081 103.765 300.714Z" fill="url(#paint43_linear_100_235)"/>
<path d="M123.604 315.317L120.525 344.129H117.263C114.75 342.703 112.209 341.305 109.669 339.879L102.267 335.731L99.6445 315.317H123.604Z" fill="#68E1FD"/>
<path d="M123.604 315.317L120.525 344.129H117.263C114.75 342.703 112.209 341.305 109.669 339.879L102.267 335.731L99.6445 315.317H123.604Z" fill="url(#paint44_linear_100_235)"/>
<defs>
<linearGradient id="paint0_linear_100_235" x1="107.384" y1="141.028" x2="100.951" y2="-1.31373" gradientUnits="userSpaceOnUse">
<stop stop-color="white" stop-opacity="0"/>
<stop offset="0.95" stop-color="white"/>
</linearGradient>
<linearGradient id="paint1_linear_100_235" x1="308.767" y1="103.864" x2="397.761" y2="117.269" gradientUnits="userSpaceOnUse">
<stop stop-color="white" stop-opacity="0"/>
<stop offset="0.95" stop-color="white"/>
</linearGradient>
<linearGradient id="paint2_linear_100_235" x1="247.734" y1="-18.7399" x2="249.343" y2="112.609" gradientUnits="userSpaceOnUse">
<stop stop-color="white" stop-opacity="0"/>
<stop offset="0.95" stop-color="white"/>
</linearGradient>
<linearGradient id="paint3_linear_100_235" x1="209.29" y1="236.109" x2="200.71" y2="48.9998" gradientUnits="userSpaceOnUse">
<stop stop-color="white" stop-opacity="0"/>
<stop offset="0.95" stop-color="white"/>
</linearGradient>
<linearGradient id="paint4_linear_100_235" x1="163.327" y1="59.7188" x2="161.59" y2="152.305" gradientUnits="userSpaceOnUse">
<stop stop-color="white" stop-opacity="0"/>
<stop offset="0.99" stop-color="white"/>
</linearGradient>
<linearGradient id="paint5_linear_100_235" x1="157.277" y1="59.6183" x2="155.541" y2="152.195" gradientUnits="userSpaceOnUse">
<stop stop-color="white" stop-opacity="0"/>
<stop offset="0.99" stop-color="white"/>
</linearGradient>
<linearGradient id="paint6_linear_100_235" x1="204.859" y1="60.4954" x2="203.123" y2="153.081" gradientUnits="userSpaceOnUse">
<stop stop-color="white" stop-opacity="0"/>
<stop offset="0.99" stop-color="white"/>
</linearGradient>
<linearGradient id="paint7_linear_100_235" x1="257.731" y1="61.5006" x2="256.004" y2="154.068" gradientUnits="userSpaceOnUse">
<stop stop-color="white" stop-opacity="0"/>
<stop offset="0.99" stop-color="white"/>
</linearGradient>
<linearGradient id="paint8_linear_100_235" x1="170.957" y1="59.8741" x2="169.221" y2="152.451" gradientUnits="userSpaceOnUse">
<stop stop-color="white" stop-opacity="0"/>
<stop offset="0.99" stop-color="white"/>
</linearGradient>
<linearGradient id="paint9_linear_100_235" x1="182.05" y1="60.0659" x2="180.305" y2="152.652" gradientUnits="userSpaceOnUse">
<stop stop-color="white" stop-opacity="0"/>
<stop offset="0.99" stop-color="white"/>
</linearGradient>
<linearGradient id="paint10_linear_100_235" x1="213.019" y1="60.6508" x2="211.292" y2="153.237" gradientUnits="userSpaceOnUse">
<stop stop-color="white" stop-opacity="0"/>
<stop offset="0.99" stop-color="white"/>
</linearGradient>
<linearGradient id="paint11_linear_100_235" x1="178.496" y1="60.0106" x2="176.76" y2="152.588" gradientUnits="userSpaceOnUse">
<stop stop-color="white" stop-opacity="0"/>
<stop offset="0.99" stop-color="white"/>
</linearGradient>
<linearGradient id="paint12_linear_100_235" x1="218.045" y1="60.751" x2="216.318" y2="153.328" gradientUnits="userSpaceOnUse">
<stop stop-color="white" stop-opacity="0"/>
<stop offset="0.99" stop-color="white"/>
</linearGradient>
<linearGradient id="paint13_linear_100_235" x1="163.327" y1="83.651" x2="161.59" y2="176.237" gradientUnits="userSpaceOnUse">
<stop stop-color="white" stop-opacity="0"/>
<stop offset="0.99" stop-color="white"/>
</linearGradient>
<linearGradient id="paint14_linear_100_235" x1="157.277" y1="83.5324" x2="155.541" y2="176.118" gradientUnits="userSpaceOnUse">
<stop stop-color="white" stop-opacity="0"/>
<stop offset="0.99" stop-color="white"/>
</linearGradient>
<linearGradient id="paint15_linear_100_235" x1="204.859" y1="84.4278" x2="203.123" y2="177.014" gradientUnits="userSpaceOnUse">
<stop stop-color="white" stop-opacity="0"/>
<stop offset="0.99" stop-color="white"/>
</linearGradient>
<linearGradient id="paint16_linear_100_235" x1="257.731" y1="85.4147" x2="256.004" y2="178" gradientUnits="userSpaceOnUse">
<stop stop-color="white" stop-opacity="0"/>
<stop offset="0.99" stop-color="white"/>
</linearGradient>
<linearGradient id="paint17_linear_100_235" x1="170.957" y1="83.7881" x2="169.221" y2="176.374" gradientUnits="userSpaceOnUse">
<stop stop-color="white" stop-opacity="0"/>
<stop offset="0.99" stop-color="white"/>
</linearGradient>
<linearGradient id="paint18_linear_100_235" x1="182.05" y1="83.9982" x2="180.305" y2="176.584" gradientUnits="userSpaceOnUse">
<stop stop-color="white" stop-opacity="0"/>
<stop offset="0.99" stop-color="white"/>
</linearGradient>
<linearGradient id="paint19_linear_100_235" x1="213.019" y1="84.5739" x2="211.292" y2="177.16" gradientUnits="userSpaceOnUse">
<stop stop-color="white" stop-opacity="0"/>
<stop offset="0.99" stop-color="white"/>
</linearGradient>
<linearGradient id="paint20_linear_100_235" x1="178.496" y1="83.9344" x2="176.76" y2="176.511" gradientUnits="userSpaceOnUse">
<stop stop-color="white" stop-opacity="0"/>
<stop offset="0.99" stop-color="white"/>
</linearGradient>
<linearGradient id="paint21_linear_100_235" x1="218.045" y1="84.6651" x2="216.318" y2="177.251" gradientUnits="userSpaceOnUse">
<stop stop-color="white" stop-opacity="0"/>
<stop offset="0.99" stop-color="white"/>
</linearGradient>
<linearGradient id="paint22_linear_100_235" x1="163.327" y1="107.574" x2="161.59" y2="200.151" gradientUnits="userSpaceOnUse">
<stop stop-color="white" stop-opacity="0"/>
<stop offset="0.99" stop-color="white"/>
</linearGradient>
<linearGradient id="paint23_linear_100_235" x1="157.277" y1="107.455" x2="155.541" y2="200.041" gradientUnits="userSpaceOnUse">
<stop stop-color="white" stop-opacity="0"/>
<stop offset="0.99" stop-color="white"/>
</linearGradient>
<linearGradient id="paint24_linear_100_235" x1="204.859" y1="108.351" x2="203.123" y2="200.928" gradientUnits="userSpaceOnUse">
<stop stop-color="white" stop-opacity="0"/>
<stop offset="0.99" stop-color="white"/>
</linearGradient>
<linearGradient id="paint25_linear_100_235" x1="257.731" y1="109.338" x2="256.004" y2="201.924" gradientUnits="userSpaceOnUse">
<stop stop-color="white" stop-opacity="0"/>
<stop offset="0.99" stop-color="white"/>
</linearGradient>
<linearGradient id="paint26_linear_100_235" x1="170.957" y1="107.711" x2="169.221" y2="200.297" gradientUnits="userSpaceOnUse">
<stop stop-color="white" stop-opacity="0"/>
<stop offset="0.99" stop-color="white"/>
</linearGradient>
<linearGradient id="paint27_linear_100_235" x1="182.05" y1="107.921" x2="180.305" y2="200.507" gradientUnits="userSpaceOnUse">
<stop stop-color="white" stop-opacity="0"/>
<stop offset="0.99" stop-color="white"/>
</linearGradient>
<linearGradient id="paint28_linear_100_235" x1="213.019" y1="108.506" x2="211.292" y2="201.092" gradientUnits="userSpaceOnUse">
<stop stop-color="white" stop-opacity="0"/>
<stop offset="0.99" stop-color="white"/>
</linearGradient>
<linearGradient id="paint29_linear_100_235" x1="178.496" y1="107.858" x2="176.76" y2="200.443" gradientUnits="userSpaceOnUse">
<stop stop-color="white" stop-opacity="0"/>
<stop offset="0.99" stop-color="white"/>
</linearGradient>
<linearGradient id="paint30_linear_100_235" x1="218.045" y1="108.598" x2="216.318" y2="201.183" gradientUnits="userSpaceOnUse">
<stop stop-color="white" stop-opacity="0"/>
<stop offset="0.99" stop-color="white"/>
</linearGradient>
<linearGradient id="paint31_linear_100_235" x1="229.019" y1="226.605" x2="244.883" y2="226.605" gradientUnits="userSpaceOnUse">
<stop stop-color="#E5C6D6"/>
<stop offset="0.42" stop-color="#EAD4D0"/>
<stop offset="1" stop-color="#F0E9CB"/>
</linearGradient>
<linearGradient id="paint32_linear_100_235" x1="168.59" y1="226.157" x2="184.07" y2="226.157" gradientUnits="userSpaceOnUse">
<stop stop-color="#E5C6D6"/>
<stop offset="0.42" stop-color="#EAD4D0"/>
<stop offset="1" stop-color="#F0E9CB"/>
</linearGradient>
<linearGradient id="paint33_linear_100_235" x1="218.703" y1="164.12" x2="225.876" y2="164.12" gradientUnits="userSpaceOnUse">
<stop stop-color="#E5C6D6"/>
<stop offset="0.42" stop-color="#EAD4D0"/>
<stop offset="1" stop-color="#F0E9CB"/>
</linearGradient>
<linearGradient id="paint34_linear_100_235" x1="187.377" y1="162.749" x2="194.706" y2="162.749" gradientUnits="userSpaceOnUse">
<stop stop-color="#E5C6D6"/>
<stop offset="0.42" stop-color="#EAD4D0"/>
<stop offset="1" stop-color="#F0E9CB"/>
</linearGradient>
<linearGradient id="paint35_linear_100_235" x1="199.568" y1="181.509" x2="214.654" y2="181.509" gradientUnits="userSpaceOnUse">
<stop stop-color="#E5C6D6"/>
<stop offset="0.42" stop-color="#EAD4D0"/>
<stop offset="1" stop-color="#F0E9CB"/>
</linearGradient>
<linearGradient id="paint36_linear_100_235" x1="180.652" y1="253.836" x2="230.107" y2="253.836" gradientUnits="userSpaceOnUse">
<stop stop-color="#010101" stop-opacity="0"/>
<stop offset="0.95" stop-color="#010101"/>
</linearGradient>
<linearGradient id="paint37_linear_100_235" x1="180.424" y1="225.472" x2="232.857" y2="225.472" gradientUnits="userSpaceOnUse">
<stop stop-color="#010101" stop-opacity="0"/>
<stop offset="0.95" stop-color="#010101"/>
</linearGradient>
<linearGradient id="paint38_linear_100_235" x1="206.55" y1="214.461" x2="205.544" y2="267.735" gradientUnits="userSpaceOnUse">
<stop stop-color="#010101" stop-opacity="0"/>
<stop offset="0.95" stop-color="#010101"/>
</linearGradient>
<linearGradient id="paint39_linear_100_235" x1="205.417" y1="302.962" x2="208.231" y2="278.838" gradientUnits="userSpaceOnUse">
<stop stop-color="#010101" stop-opacity="0"/>
<stop offset="0.95" stop-color="#010101"/>
</linearGradient>
<linearGradient id="paint40_linear_100_235" x1="204.448" y1="264.436" x2="205.252" y2="297.004" gradientUnits="userSpaceOnUse">
<stop stop-color="#010101" stop-opacity="0"/>
<stop offset="0.95" stop-color="#010101"/>
</linearGradient>
<linearGradient id="paint41_linear_100_235" x1="108.545" y1="292.673" x2="108.81" y2="359.955" gradientUnits="userSpaceOnUse">
<stop stop-color="#010101" stop-opacity="0"/>
<stop offset="0.95" stop-color="#010101"/>
</linearGradient>
<linearGradient id="paint42_linear_100_235" x1="123.851" y1="302.606" x2="132.422" y2="335.585" gradientUnits="userSpaceOnUse">
<stop stop-color="#010101" stop-opacity="0"/>
<stop offset="0.95" stop-color="#010101"/>
</linearGradient>
<linearGradient id="paint43_linear_100_235" x1="102.285" y1="300.796" x2="87.8106" y2="335.904" gradientUnits="userSpaceOnUse">
<stop stop-color="#010101" stop-opacity="0"/>
<stop offset="0.95" stop-color="#010101"/>
</linearGradient>
<linearGradient id="paint44_linear_100_235" x1="114.083" y1="318.094" x2="97.1956" y2="367.147" gradientUnits="userSpaceOnUse">
<stop stop-color="#010101" stop-opacity="0"/>
<stop offset="0.95" stop-color="#010101"/>
</linearGradient>
</defs>
</svg>
