<svg width="385" height="291" viewBox="0 0 385 291" fill="none" xmlns="http://www.w3.org/2000/svg">
<path opacity="0.3" d="M303.493 39.963C343.843 53.0039 375.139 89.6733 383.259 135.543C390.113 174.213 378.752 221.71 312.454 243.765C244.782 266.286 55.5551 277.1 20.4325 214.429C-14.6901 151.758 -7.39619 71.3919 64.8091 42.8832C115.333 22.9084 224.688 14.4811 303.493 39.963Z" fill="#E6E6E6"/>
<path d="M274.251 228.07L289.145 159.878C289.296 159.204 289.672 158.601 290.212 158.169C290.751 157.737 291.421 157.502 292.112 157.502C292.803 157.502 293.474 157.737 294.013 158.169C294.552 158.601 294.928 159.204 295.079 159.878L311.254 229.217L274.251 228.07Z" fill="#68E1FD"/>
<path d="M311.294 221.483H273.798C271.309 221.483 269.291 223.501 269.291 225.99V228.403C269.291 230.893 271.309 232.91 273.798 232.91H311.294C313.783 232.91 315.801 230.893 315.801 228.403V225.99C315.801 223.501 313.783 221.483 311.294 221.483Z" fill="#68E1FD"/>
<path opacity="0.46" d="M311.294 221.483H273.798C271.309 221.483 269.291 223.501 269.291 225.99V228.403C269.291 230.893 271.309 232.91 273.798 232.91H311.294C313.783 232.91 315.801 230.893 315.801 228.403V225.99C315.801 223.501 313.783 221.483 311.294 221.483Z" fill="white"/>
<path opacity="0.08" d="M283.625 185.16L299.493 178.8L304.133 198.655L279.158 205.562L283.625 185.16Z" fill="black"/>
<path d="M257.757 252.712H334.629V272.953H257.757V252.712Z" fill="#E6E6E6"/>
<path opacity="0.43" d="M240.956 232.91H330.256V253.152H240.956V232.91Z" fill="#E6E6E6"/>
<path d="M107.919 0H260.103V272.94H107.919V0Z" fill="#C9C9C9"/>
<path d="M120.508 31.1221H246.477V223.203H120.508V31.1221Z" fill="white"/>
<path opacity="0.56" d="M184.471 262.699C192.697 262.699 199.366 256.031 199.366 247.805C199.366 239.579 192.697 232.91 184.471 232.91C176.245 232.91 169.577 239.579 169.577 247.805C169.577 256.031 176.245 262.699 184.471 262.699Z" fill="white"/>
<path opacity="0.12" d="M171.136 10.6675H213.806V16.8946H171.136V10.6675Z" fill="black"/>
<path d="M155.682 21.4149C159.519 21.4149 162.629 18.3045 162.629 14.4677C162.629 10.6309 159.519 7.52051 155.682 7.52051C151.845 7.52051 148.735 10.6309 148.735 14.4677C148.735 18.3045 151.845 21.4149 155.682 21.4149Z" fill="white"/>
<path opacity="0.12" d="M168.55 31.1224L155.683 65.0583L171.137 69.4853L159.35 136.424L186.245 65.0583L171.137 60.2979C171.137 60.2979 183.791 31.0691 183.485 31.0691L168.55 31.1224Z" fill="black"/>
<path opacity="0.06" d="M190.418 94.1536C190.418 94.1536 225.874 114.155 204.459 154.078C197.992 166.079 179.124 166.466 166.51 175.76C156.656 183 176.031 202.695 159.51 223.203C154.296 229.684 135.868 228.95 130.081 234.657C118.947 245.591 116.346 252.299 107.919 262.833L107.692 221.163L146.429 156.105L163.483 157.732L182.298 151.064L192.965 134.143V111.728L190.418 94.1536Z" fill="black"/>
<path d="M35.6332 253.472L98.7312 202.695L122.906 221.95L81.8632 284.741L35.6332 253.472Z" fill="#F4A28C"/>
<path d="M29.6732 249.392L84.5973 287.048L120.547 234.471L82.5304 207.615L29.6732 249.392Z" fill="#68E1FD"/>
<path opacity="0.06" d="M107.333 225.136L61.7025 271.567L84.5975 287.048L120.547 234.47L107.333 225.136Z" fill="black"/>
<path d="M141.495 149.486L152.374 153.435L138.544 191.539L127.664 187.59L141.495 149.486Z" fill="#24285B"/>
<path opacity="0.18" d="M141.495 149.486L152.374 153.435L138.544 191.539L127.664 187.59L141.495 149.486Z" fill="white"/>
<path d="M143.408 171.659L137.166 169.393C133.947 168.225 130.391 169.887 129.222 173.106L117.971 204.103C116.803 207.322 118.465 210.878 121.684 212.047L127.926 214.313C131.145 215.481 134.701 213.819 135.87 210.6L147.121 179.603C148.289 176.384 146.627 172.827 143.408 171.659Z" fill="#24285B"/>
<path d="M172.497 81.4725C164.782 78.6735 156.41 78.2251 148.44 80.184C140.47 82.1428 133.26 86.421 127.722 92.4775C122.183 98.534 118.565 106.097 117.325 114.21C116.085 122.322 117.278 130.621 120.754 138.056C124.23 145.49 129.832 151.727 136.852 155.978C143.873 160.229 151.996 162.302 160.195 161.936C168.394 161.57 176.3 158.781 182.914 153.922C189.528 149.063 194.552 142.351 197.352 134.636C201.103 124.29 200.592 112.878 195.931 102.909C191.27 92.9395 182.841 85.229 172.497 81.4725ZM147.762 149.611C142.003 147.517 136.994 143.763 133.368 138.822C129.743 133.882 127.663 127.978 127.393 121.856C127.122 115.734 128.672 109.67 131.848 104.429C135.023 99.1881 139.681 95.0063 145.233 92.4122C150.784 89.8181 156.98 88.9281 163.038 89.8548C169.095 90.7815 174.741 93.4832 179.264 97.6184C183.786 101.754 186.98 107.137 188.444 113.087C189.907 119.038 189.573 125.289 187.485 131.049C186.097 134.878 183.968 138.395 181.22 141.4C178.472 144.405 175.159 146.839 171.47 148.562C167.781 150.286 163.788 151.266 159.72 151.446C155.652 151.626 151.589 151.002 147.762 149.611Z" fill="#FFD200"/>
<path d="M98.7322 202.695C98.7322 202.695 110.853 189.521 120.547 180.106C130.241 170.692 133.108 187.694 145.256 185.12C157.403 182.547 166.817 227.79 122.907 221.95L98.7322 202.695Z" fill="#F4A28C"/>
<path d="M220.26 72.512H299.919V134.116H220.26V72.512Z" fill="#E6E6E6"/>
<path d="M220.26 60.5776H299.919V72.5118H220.26V60.5776Z" fill="#24285B"/>
<path opacity="0.12" d="M257.023 120.569C254.458 120.099 252.022 119.09 249.876 117.609C249.183 118.329 248.542 119.049 247.796 119.796C247.449 120.182 247.209 120.142 246.862 119.796C245.729 118.635 244.569 117.489 243.395 116.355C243.049 116.035 243.102 115.822 243.395 115.515C244.129 114.808 244.822 114.075 245.489 113.382C244.889 112.222 244.222 111.075 243.715 109.875C243.324 108.877 243.008 107.852 242.769 106.808C242.675 106.421 242.529 106.328 242.155 106.341C241.275 106.341 240.395 106.341 239.488 106.341C239.062 106.341 238.915 106.181 238.928 105.754C238.928 104.114 238.928 102.461 238.928 100.821C238.928 100.394 239.088 100.247 239.502 100.261H242.169C242.267 100.25 242.361 100.217 242.445 100.164C242.528 100.111 242.598 100.039 242.649 99.9541C243.154 97.5594 244.138 95.2916 245.542 93.2869C244.809 92.5668 244.089 91.8201 243.329 91.1267C242.995 90.8201 242.995 90.6067 243.329 90.3C244.502 89.1533 245.676 87.9932 246.836 86.8198C247.156 86.4997 247.382 86.4997 247.676 86.8198C248.369 87.5665 249.076 88.2865 249.783 89.0199L251.236 88.1399C252.851 87.213 254.608 86.5597 256.436 86.2064C256.823 86.1264 256.97 85.993 256.956 85.5663C256.956 84.7129 256.956 83.8462 256.956 82.9928C256.956 82.5661 257.09 82.4194 257.516 82.4194C259.188 82.4194 260.854 82.4194 262.517 82.4194C262.984 82.4194 263.117 82.5928 263.117 83.0328V86.0864C265.681 86.5449 268.115 87.5549 270.251 89.0466C270.971 88.2999 271.678 87.5798 272.358 86.8331C272.691 86.4731 272.931 86.4997 273.251 86.8331C274.398 87.9932 275.544 89.1399 276.731 90.2734C277.078 90.6067 277.051 90.8201 276.731 91.1534C276.011 91.8335 275.331 92.4868 274.584 93.3136L275.171 94.2336C276.233 95.9251 276.979 97.7957 277.371 99.754C277.465 100.234 277.665 100.327 278.091 100.314H280.558C281.025 100.314 281.212 100.447 281.212 100.941V105.768C281.212 106.235 281.065 106.421 280.585 106.408C279.678 106.408 278.785 106.408 277.918 106.408C277.823 106.424 277.734 106.463 277.657 106.521C277.581 106.579 277.519 106.654 277.478 106.741C276.987 109.136 276.012 111.405 274.611 113.408C275.331 114.142 276.025 114.875 276.758 115.555C277.118 115.902 277.145 116.129 276.758 116.475C275.584 117.609 274.438 118.755 273.291 119.916C272.971 120.222 272.758 120.262 272.438 119.916C271.758 119.169 271.104 118.449 270.317 117.689C268.176 119.176 265.737 120.181 263.17 120.636V123.662C263.17 124.116 263.05 124.316 262.557 124.316C260.903 124.316 259.263 124.316 257.61 124.316C257.103 124.316 256.996 124.116 257.01 123.662C257.036 122.596 257.023 121.596 257.023 120.569ZM260.143 93.0602C258.115 93.0708 256.136 93.6815 254.455 94.8155C252.774 95.9495 251.466 97.556 250.697 99.4322C249.928 101.308 249.731 103.371 250.132 105.358C250.533 107.346 251.514 109.171 252.951 110.602C254.387 112.033 256.216 113.007 258.205 113.4C260.194 113.793 262.256 113.589 264.129 112.812C266.002 112.036 267.603 110.722 268.731 109.036C269.858 107.35 270.461 105.369 270.464 103.341C270.457 100.61 269.366 97.9927 267.431 96.0651C265.496 94.1374 262.875 93.0567 260.143 93.0602Z" fill="black"/>
<path d="M249.183 288.701C249.183 288.701 256.597 278.034 245.543 275.114C234.489 272.193 248.21 257.779 237.916 255.926C227.622 254.072 229.342 269.26 229.342 269.26C229.342 269.26 222.235 263.139 217.341 268.273C212.447 273.407 219.301 279.061 219.301 279.061C219.301 279.061 209.394 282.488 215.568 288.728L249.183 288.701Z" fill="#E6E6E6"/>
<path d="M234.315 290.128C234.315 290.128 239.022 282.127 245.969 283.061C252.916 283.994 252.156 290.128 252.156 290.128H234.315Z" fill="#C9C9C9"/>
</svg>
