<svg width="266" height="250" viewBox="0 0 266 250" fill="none" xmlns="http://www.w3.org/2000/svg">
<path opacity="0.18" d="M265.967 105.012C265.73 97.3596 264.018 89.4501 259.201 83.4961C253.179 76.0535 243.49 72.9277 235.148 68.2456C221.627 60.5831 211.215 48.4303 205.716 33.8948C204.132 29.6525 202.935 25.1599 200.303 21.4928C193.05 11.5062 177.908 11.4385 166.365 15.8229C154.822 20.2072 144.558 27.934 132.535 30.6268C118.692 33.7189 104.361 29.7878 90.2003 29.0639C76.0391 28.3399 59.5708 32.3995 53.4814 45.2346C49.6383 53.3537 50.9645 63.1847 47.3041 71.4053C39.0496 89.9847 10.301 91.9536 2.06006 110.513C-4.1308 124.437 4.59729 140.567 15.4228 151.291C26.2484 162.015 39.7803 170.743 46.6072 184.343C54.0497 199.113 53.9483 219.566 68.3801 227.645C82.8119 235.724 102.616 225.155 116.96 233.457C121.865 236.299 125.404 241.008 129.998 244.33C146.168 256.021 169.565 246.901 183.767 232.882C201.643 215.229 220.689 194.566 236.311 175.033C252.198 155.168 266.792 131.379 265.967 105.012Z" fill="#68E1FD"/>
<path opacity="0.18" d="M133.218 228.241C133.788 227.671 134.182 226.95 134.355 226.164C134.375 225.171 134.05 224.203 133.435 223.423C131.163 219.8 128.516 216.426 125.539 213.356C124.876 212.753 124.318 212.044 123.888 211.258C123.252 209.905 123.387 208.132 122.291 207.097C116.994 208.126 111.54 210.04 108.083 214.208C107.427 214.919 106.98 215.797 106.79 216.745C106.621 218.024 107.23 219.269 107.839 220.413C108.859 222.339 109.912 224.251 110.999 226.15C111.807 227.729 112.842 229.181 114.071 230.46C114.977 231.254 115.928 231.995 116.919 232.679C118.347 233.769 119.524 235.494 121.019 236.441C122.515 237.388 123.665 236.326 124.95 235.494C128.05 233.498 130.836 231.054 133.218 228.241Z" fill="#68E1FD"/>
<path d="M126.107 11.8716L124.666 11.2491L98.1909 20.6877L86.8376 55.7219L87.9337 55.7489L126.107 11.8716Z" fill="#68E1FD"/>
<path d="M95.5589 157.942C95.1135 157.623 94.5687 157.475 94.0231 157.523C93.6591 157.63 93.3285 157.828 93.0623 158.098C88.272 162.2 83.8003 166.66 79.686 171.44C79.4576 171.669 79.2841 171.947 79.1785 172.252C79.1398 172.586 79.1976 172.924 79.3451 173.226C79.4926 173.529 79.7236 173.782 80.0107 173.957C82.0405 175.486 84.9228 174.925 87.2842 174.005C89.3263 173.248 91.2424 172.187 92.9676 170.858C93.8471 170.182 94.6523 169.37 95.4574 168.585C97.1828 166.9 99.0231 165.094 99.923 162.8C100.383 161.623 100.512 161.19 99.6456 160.371C98.5901 159.363 96.8377 158.659 95.5589 157.942Z" fill="#3E3E54"/>
<path d="M99.578 181.555C98.7972 182.676 98.1989 183.914 97.8053 185.222C97.6777 185.623 97.6777 186.053 97.8053 186.454C97.944 186.75 98.1559 187.006 98.421 187.198C100.146 188.551 102.636 188.66 104.707 187.875C106.739 187.002 108.555 185.692 110.025 184.038C111.801 182.222 113.419 180.257 114.862 178.166C115 178.013 115.106 177.834 115.173 177.64C115.24 177.446 115.268 177.241 115.255 177.036C115.18 176.771 115.027 176.535 114.815 176.359C112.785 174.424 108.82 173.971 106.182 174.559C103.286 175.243 101.094 179.221 99.578 181.555Z" fill="#3E3E54"/>
<path d="M174.464 128.504C174.464 128.504 181.23 183.112 172.075 186.102C162.921 189.093 138.787 182.117 136.798 181.921C134.808 181.725 115.052 178.328 115.052 178.328L116.446 168.362C116.446 168.362 156.108 173.145 158.902 170.162C161.696 167.178 156.507 144.248 156.507 144.248L157.102 132.292L174.464 128.504Z" fill="#3E3E54"/>
<path d="M174.464 128.504C174.464 128.504 181.23 183.112 172.075 186.102C162.921 189.093 138.787 182.117 136.798 181.921C134.808 181.725 115.052 178.328 115.052 178.328L116.446 168.362C116.446 168.362 156.108 173.145 158.902 170.162C161.696 167.178 156.507 144.248 156.507 144.248L157.102 132.292L174.464 128.504Z" fill="url(#paint0_linear_131_255)"/>
<path d="M136.195 140.459C136.195 140.459 130.018 169.16 126.046 168.565C122.075 167.969 100.931 159.992 100.931 159.992C100.931 159.992 96.946 163.977 97.1489 167.766C97.3519 171.555 125.85 190.486 132.427 187.3C139.003 184.113 148.956 162.611 158.354 140.662L161.148 134.978L136.195 140.459Z" fill="#3E3E54"/>
<path d="M136.195 140.459C136.195 140.459 130.018 169.16 126.046 168.565C122.075 167.969 100.931 159.992 100.931 159.992C100.931 159.992 96.946 163.977 97.1489 167.766C97.3519 171.555 125.85 190.486 132.427 187.3C139.003 184.113 148.956 162.611 158.354 140.662L161.148 134.978L136.195 140.459Z" fill="url(#paint1_linear_131_255)"/>
<path d="M99.5711 21.378L87.9337 55.7491L105.539 54.741L124.233 35.3836L126.107 11.8718L99.5711 21.378Z" fill="#68E1FD"/>
<path d="M99.5711 21.378L87.9337 55.7491L105.539 54.741L124.233 35.3836L126.107 11.8718L99.5711 21.378Z" fill="url(#paint2_linear_131_255)"/>
<path d="M172.786 33.7392C175.312 30.545 177.575 27.1509 179.552 23.5902C183.018 28.6066 185.31 34.3395 186.257 40.363C186.435 41.1911 186.451 42.0458 186.304 42.88C186.076 43.6779 185.705 44.4276 185.208 45.0925C181.821 50.1564 177.703 54.6914 172.989 58.55C171.169 60.0452 169.213 61.4864 168.036 63.5229C165.688 67.5825 167.021 72.6502 168.266 77.1564C172.813 93.5977 183.577 142.468 184.065 159.546C169.477 167.854 139.788 160.824 123.009 161.393C130.783 145.486 126.033 112.576 123.313 98.4692C111.628 104.464 99.5712 110.567 86.4858 111.751L79.4019 97.7723C85.9513 92.4948 94.4967 90.3771 101.547 85.783C107.575 81.8519 112.298 76.2497 117.866 71.6827C124.524 66.2293 132.109 62.799 140.262 60.2482C148.799 57.685 156.503 52.9035 162.589 46.3915C166.223 42.3688 169.627 38.1446 172.786 33.7392Z" fill="#68E1FD"/>
<path d="M186.311 42.8529C186.086 43.6519 185.714 44.4021 185.215 45.0654C181.828 50.1377 177.711 54.6816 172.995 58.55C171.175 60.0385 169.213 61.4864 168.036 63.5229C165.688 67.5825 167.021 72.6502 168.266 77.1564C172.813 93.5977 183.577 142.468 184.065 159.546C175.945 164.16 163.205 164.045 150.58 163.125C140.478 162.394 130.471 161.142 123.009 161.393C130.776 145.486 126.033 112.583 123.313 98.4692C111.621 104.464 99.5712 110.567 86.4858 111.751L79.4019 97.7723C85.9513 92.4948 94.4967 90.3771 101.547 85.783C107.575 81.852 112.298 76.243 117.86 71.6895C124.524 66.2293 132.116 62.799 140.262 60.2482C148.787 57.6773 156.477 52.8912 162.549 46.378C166.198 42.3623 169.616 38.1426 172.786 33.7392C175.311 30.5441 177.574 27.1501 179.552 23.5902C183.018 28.604 185.31 34.3347 186.257 40.3563C186.434 41.1774 186.453 42.0249 186.311 42.8529Z" fill="url(#paint3_linear_131_255)"/>
<path d="M146.953 57.6502L149.044 56.6826C149.044 56.6826 148.171 66.155 147.562 67.2578C146.953 68.3607 140.661 76.0062 140.661 76.0062C137.541 76.9569 134.357 77.6872 131.134 78.1916C126.331 78.8682 117.941 81.4258 114.707 81.5137C111.875 81.6808 109.054 81.9969 106.256 82.461C106.256 82.461 112.548 75.6476 113.333 75.2078C114.118 74.768 146.953 57.6502 146.953 57.6502Z" fill="url(#paint4_linear_131_255)"/>
<path d="M105.41 76.3581C108.629 78.3346 112.352 79.3336 116.128 79.2336C119.686 79.1321 123.13 78.0563 126.527 76.9873C131.737 75.3432 134.876 78.2187 139.984 76.3107C140.891 75.9656 143.909 71.0739 144.531 70.3364C144.983 69.7312 145.307 69.0407 145.485 68.3066C146.919 63.3396 147.341 58.1349 146.723 53.002C146.852 54.0642 135.898 58.6921 134.626 59.2875C131.481 60.7249 128.253 61.9699 124.957 63.0156C117.248 65.3969 110.436 70.0467 105.41 76.3581Z" fill="#68E1FD"/>
<path d="M105.41 76.3581C108.629 78.3346 112.352 79.3336 116.128 79.2336C119.686 79.1321 123.13 78.0563 126.527 76.9873C131.737 75.3432 134.876 78.2187 139.984 76.3107C140.891 75.9656 143.909 71.0739 144.531 70.3364C144.983 69.7312 145.307 69.0407 145.485 68.3066C146.919 63.3396 147.341 58.1349 146.723 53.002C146.852 54.0642 135.898 58.6921 134.626 59.2875C131.481 60.7249 128.253 61.9699 124.957 63.0156C117.248 65.3969 110.436 70.0467 105.41 76.3581Z" fill="url(#paint5_linear_131_255)"/>
<path d="M129.504 60.8642C130.082 62.0618 130.282 63.4067 130.079 64.7208C129.758 65.8905 129.287 67.0138 128.678 68.0632C128.07 69.1237 127.857 70.3653 128.076 71.568C128.25 72.1059 128.534 72.6016 128.91 73.0234C129.287 73.4451 129.747 73.7836 130.262 74.0173C131.294 74.4743 132.393 74.7621 133.516 74.8698C133.981 74.9495 134.452 74.9857 134.923 74.978C136.036 74.8687 137.107 74.4977 138.049 73.8955C139.725 73.0567 141.165 71.8124 142.237 70.2757C142.764 69.5023 143.084 68.6066 143.166 67.6742C143.248 66.7419 143.089 65.8042 142.704 64.9509C142.258 64.1087 141.544 63.4395 140.674 63.0496C139.829 62.664 138.834 62.5557 138.13 61.9535C137.709 61.5407 137.369 61.0517 137.129 60.5124L134.876 56.1754C134.746 55.8756 134.549 55.6095 134.301 55.3973C134.034 55.2209 133.721 55.1246 133.401 55.1199C131.608 54.9778 129.944 55.8642 128.502 56.8182C127.603 57.4068 127.494 57.6166 128.11 58.5097C128.647 59.2496 129.113 60.0378 129.504 60.8642Z" fill="url(#paint6_linear_131_255)"/>
<path d="M135.566 45.5594C136.858 48.0425 137.359 51.1007 136.243 53.6785C135.587 55.0318 134.577 56.1822 133.32 57.0074C132.745 57.4288 132.095 57.7365 131.405 57.914C130.561 58.0561 129.699 58.0561 128.854 57.914C127.204 57.8119 125.575 57.4794 124.017 56.9262C123.147 56.5477 122.321 56.0758 121.554 55.5189C121.245 55.2554 120.867 55.0863 120.465 55.0317C120.234 55.0462 120.006 55.0917 119.788 55.167C119.2 55.3218 118.585 55.3426 117.988 55.2279C117.618 55.1857 117.265 55.0499 116.962 54.8332C116.659 54.6166 116.416 54.3263 116.256 53.9897C115.999 53.3131 116.52 52.3389 117.257 52.4065C115.661 51.5675 114.727 49.876 113.874 48.286C113.582 47.8036 113.374 47.2751 113.259 46.7231C113.198 45.8952 113.352 45.0656 113.705 44.3144C114.061 43.3033 114.536 42.338 115.119 41.4389C116.473 39.5241 118.617 38.3265 120.823 37.5484C123.151 36.7365 125.952 36.2697 128.266 37.3319C129.043 37.8076 129.73 38.4169 130.295 39.1317C131.222 40.0654 132.149 40.9991 133.002 41.9937C133.992 43.0788 134.853 44.2754 135.566 45.5594Z" fill="url(#paint7_linear_131_255)"/>
<path d="M121.033 40.7487C119.455 41.4392 118.091 42.5395 117.082 43.9355C116.605 44.7859 116.243 45.696 116.006 46.6418C115.681 47.4136 115.65 48.2776 115.918 49.0708C116.142 49.4596 116.441 49.8 116.797 50.0722L120.221 53.0763C118.611 51.6622 116.107 52.4606 114.017 52.014C113.193 51.8133 112.424 51.4341 111.764 50.9033C111.103 50.3725 110.567 49.703 110.194 48.9423C109.446 47.4014 109.252 45.6498 109.646 43.9828C109.76 43.5704 109.841 43.1496 109.889 42.7243C109.937 42.0477 109.713 41.3238 109.707 40.6134C109.707 38.9557 110.904 37.5551 112.142 36.4523C113.381 35.3494 114.788 34.3007 115.437 32.7716C115.64 32.0775 115.929 31.4115 116.297 30.7892C116.696 30.2817 119.348 30.1532 119.923 29.8555C121.276 29.1789 120.505 28.3264 121.831 27.6498C122.061 27.5055 122.325 27.4239 122.596 27.413C122.943 27.4575 123.264 27.6228 123.502 27.8798C125.079 29.233 127.88 32.3454 127.623 34.6458C127.23 37.9273 123.563 39.4699 121.033 40.7487Z" fill="#3E3E54"/>
<path d="M113.902 51.7029C112.86 52.2239 111.655 51.5338 110.701 50.8707L105.864 47.4877C105.449 47.2364 105.087 46.9053 104.801 46.5134C104.594 46.1197 104.463 45.6905 104.416 45.2482C103.846 42.204 104.062 39.0647 105.045 36.1277C105.546 34.6668 106.357 33.3315 107.422 32.2128C108.487 31.0942 109.781 30.2186 111.215 29.6459C111.642 29.497 113.496 28.0017 113.922 28.0559C114.348 28.11 116.892 29.3211 119.903 29.8489C120.512 29.9571 115.289 33.2318 113.421 40.1467C111.615 46.9126 113.36 47.4674 113.902 51.7029Z" fill="#68E1FD"/>
<path d="M113.902 51.7029C112.86 52.2239 111.655 51.5338 110.701 50.8707L105.864 47.4877C105.449 47.2364 105.087 46.9053 104.801 46.5134C104.594 46.1197 104.463 45.6905 104.416 45.2482C103.846 42.204 104.062 39.0647 105.045 36.1277C105.546 34.6668 106.357 33.3315 107.422 32.2128C108.487 31.0942 109.781 30.2186 111.215 29.6459C111.642 29.497 113.496 28.0017 113.922 28.0559C115.958 28.5017 117.957 29.101 119.903 29.8489C120.478 30.0721 115.289 33.2318 113.421 40.1467C111.615 46.9126 113.36 47.4674 113.902 51.7029Z" fill="url(#paint8_linear_131_255)"/>
<path d="M90.8837 47.1089C90.586 49.4906 89.9703 51.8451 89.9906 54.2267C90.038 60.3635 92.149 66.2837 92.9135 72.3731C93.1066 73.5038 93.1066 74.6591 92.9135 75.7899C92.6361 77.0822 91.9257 78.2324 91.4588 79.4706C90.6266 81.683 90.5928 84.1053 90.5657 86.4666L92.0069 83.6519L92.1625 84.8698C92.2099 84.6533 92.6158 84.9172 92.4331 85.0457C92.7407 84.4495 92.8766 83.7796 92.8256 83.1107C92.9788 83.9589 93.0107 84.8245 92.9203 85.6817C93.81 82.9117 94.3642 80.0451 94.5712 77.1431C94.6727 75.7899 94.5374 74.166 93.3465 73.53C93.1928 71.1532 92.8443 68.793 92.3046 66.4731C91.5603 63.8953 90.2071 57.5624 90.5116 52.6232C90.6825 49.7209 91.1819 46.8473 92.0001 44.0575C92.0001 44.0575 91.2626 44.0846 90.8837 47.1089Z" fill="#68E1FD"/>
<path d="M67.9065 106.541C66.7766 106.271 65.6061 105.865 64.4829 106.155C63.3598 106.446 62.4531 107.901 63.2177 108.801C63.7996 109.478 65.1866 109.802 64.9565 110.682C64.8757 110.91 64.7299 111.11 64.537 111.257C63.1094 112.488 61.1541 112.786 59.3814 113.517C57.6087 114.248 55.9307 115.885 56.3164 117.732C57.6979 119.099 59.2988 120.224 61.0526 121.061C62.2425 121.529 63.5211 121.729 64.7971 121.646C66.0731 121.563 67.315 121.199 68.4342 120.581C71.4789 118.869 73.1704 115.506 75.8768 113.28C78.0284 111.507 80.7348 110.526 83.0014 108.902C83.2043 108.754 84.3546 108.442 84.4493 108.226C84.4954 108 84.4766 107.765 84.3952 107.549C83.9689 106.027 82.6969 103.009 81.4926 102.069C77.6766 105.513 73.2516 107.806 67.9065 106.541Z" fill="url(#paint9_linear_131_255)"/>
<path d="M184.01 31.8989C186.669 26.8448 184.964 20.3968 187.278 15.2005C188.09 13.3669 189.362 11.7837 190.235 9.98396C191.108 8.18421 191.548 5.98527 190.621 4.21259C190.299 3.65925 189.915 3.14404 189.477 2.67672L187.63 0.498075C187.474 0.255158 187.233 0.0791035 186.954 0.00415914C186.554 -0.0432026 186.23 0.32216 186.033 0.680756C185.296 2.03395 185.357 3.67131 185.147 5.20719C184.937 6.74306 184.288 8.43455 182.833 8.97583C182.377 7.50377 181.362 6.26953 180.005 5.53872C179.782 8.54281 182.19 11.1815 182.353 14.1856C182.364 15.4862 182.135 16.7777 181.676 17.9949C181.056 19.9317 180.315 21.8276 179.457 23.6715C180.134 25.3698 180.925 27.2169 181.588 28.9151C181.855 29.7067 182.233 30.4562 182.711 31.1411C183.077 31.608 183.496 31.608 184.01 31.8989Z" fill="url(#paint10_linear_131_255)"/>
<path opacity="0.18" d="M223.185 132.928C225.269 126.681 228.074 120.698 231.541 115.1C233.104 112.576 234.877 109.816 234.403 106.886C225.148 102.628 215.975 98.1986 206.886 93.5978C206.494 93.3948 199.39 104.823 198.869 105.979C197.326 109.41 197.59 112.157 199.944 115.1C205.716 122.319 215.432 128.037 223.185 132.928Z" fill="#68E1FD"/>
<path d="M225.371 130.743C227.457 124.497 230.261 118.514 233.727 112.915C235.29 110.391 237.062 107.63 236.589 104.701C227.328 100.456 218.165 96.0177 209.099 91.3852C208.706 91.1823 201.602 102.61 201.081 103.767C199.538 107.197 199.802 109.944 202.157 112.887C207.928 120.134 217.617 125.851 225.371 130.743Z" fill="white"/>
<path opacity="0.18" d="M62.9538 139.965C60.8766 138.51 50.0984 155.168 48.9753 156.833C47.0267 155.27 45.7006 152.529 43.779 150.669C41.6951 148.639 39.8818 147.462 39.9563 144.282C40.0645 139.241 46.2351 132.319 49.4692 128.95C54.0498 132.461 58.1499 136.623 62.9538 139.965Z" fill="#68E1FD"/>
<path d="M61.9862 137.78C59.9091 136.332 49.1309 152.983 48.0078 154.647C46.0592 153.084 44.733 150.344 42.8115 148.483C40.7276 146.454 38.9143 145.283 38.9887 142.103C39.097 137.056 45.2675 130.141 48.5017 126.765C53.089 130.276 57.1892 134.437 61.9862 137.78Z" fill="white"/>
<path d="M130.221 225.297C130.226 226.074 129.963 226.829 129.477 227.435C129.005 228.043 128.469 228.598 127.88 229.093L111.127 243.904C109.483 245.358 107.744 246.854 105.647 247.456C101.066 248.762 96.5333 245.521 92.8661 242.476C89.7335 239.885 86.5332 237.205 84.023 234.046C82.8198 232.555 81.802 230.924 80.9918 229.188C80.2747 227.632 95.0718 219.14 96.4724 218.362L116.276 206.921L128.753 222.415C129.456 223.247 130.18 224.181 130.221 225.297Z" fill="white"/>
<path d="M129.477 227.435C129.005 228.043 128.469 228.598 127.88 229.093L111.128 243.904C109.483 245.358 107.745 246.853 105.647 247.456C101.067 248.761 96.5333 245.521 92.8662 242.476C89.7335 239.885 86.5332 237.205 84.023 234.046C85.1394 231.529 88.1232 229.702 90.789 227.807C97.1896 223.227 103.644 218.606 110.803 215.351C110.914 215.27 111.042 215.213 111.176 215.183C111.311 215.154 111.451 215.154 111.586 215.182C111.721 215.21 111.849 215.266 111.961 215.346C112.073 215.427 112.167 215.53 112.237 215.649C114.876 218.464 117.582 221.213 120.356 223.897C121.323 224.916 122.427 225.795 123.638 226.508C124.246 226.86 124.919 227.085 125.617 227.17C126.315 227.255 127.022 227.198 127.697 227.002C128.3 226.799 129.125 226.529 129.416 227.09C129.468 227.197 129.489 227.317 129.477 227.435Z" fill="#68E1FD"/>
<path d="M129.477 227.435C129.005 228.043 128.469 228.598 127.88 229.093L111.128 243.904C109.483 245.358 107.745 246.853 105.647 247.456C101.067 248.761 96.5333 245.521 92.8662 242.476C89.7335 239.885 86.5332 237.205 84.023 234.046C85.1394 231.529 88.1232 229.702 90.789 227.807C97.1896 223.227 103.644 218.606 110.803 215.351C110.914 215.27 111.042 215.213 111.176 215.183C111.311 215.154 111.451 215.154 111.586 215.182C111.721 215.21 111.849 215.266 111.961 215.346C112.073 215.427 112.167 215.53 112.237 215.649C114.876 218.464 117.582 221.213 120.356 223.897C121.323 224.916 122.427 225.795 123.638 226.508C124.246 226.86 124.919 227.085 125.617 227.17C126.315 227.255 127.022 227.198 127.697 227.002C128.3 226.799 129.125 226.529 129.416 227.09C129.468 227.197 129.489 227.317 129.477 227.435Z" fill="url(#paint11_linear_131_255)"/>
<path d="M110.444 212.591L112.142 211.995C112.243 211.946 112.357 211.93 112.467 211.948C112.567 211.995 112.652 212.07 112.711 212.164C114.859 214.992 117.319 217.568 120.045 219.844C120.273 219.995 120.45 220.212 120.552 220.466" stroke="#68E1FD" stroke-width="0.958539" stroke-miterlimit="10"/>
<path d="M115.938 211.671C117.363 213.725 118.968 215.647 120.735 217.415L126.554 223.504" stroke="#68E1FD" stroke-width="0.958539" stroke-miterlimit="10"/>
<path d="M150.58 163.125C140.478 162.394 130.471 161.142 123.009 161.393C130.776 145.486 126.033 112.583 123.313 98.4693L127.555 95.0525C127.555 95.0525 132.711 125.547 133.929 131.839C135.147 138.131 138.827 155.784 144.078 158.578C148.442 160.892 150.14 162.611 150.58 163.125Z" fill="url(#paint12_linear_131_255)"/>
<defs>
<linearGradient id="paint0_linear_131_255" x1="172.941" y1="162.807" x2="161.405" y2="158.964" gradientUnits="userSpaceOnUse">
<stop stop-opacity="0"/>
<stop offset="0.99"/>
</linearGradient>
<linearGradient id="paint1_linear_131_255" x1="151.324" y1="164.153" x2="104.842" y2="144.931" gradientUnits="userSpaceOnUse">
<stop stop-opacity="0"/>
<stop offset="0.99"/>
</linearGradient>
<linearGradient id="paint2_linear_131_255" x1="97.176" y1="17.6364" x2="126.534" y2="65.8642" gradientUnits="userSpaceOnUse">
<stop stop-opacity="0"/>
<stop offset="0.99"/>
</linearGradient>
<linearGradient id="paint3_linear_131_255" x1="186.115" y1="58.4417" x2="49.2865" y2="235.108" gradientUnits="userSpaceOnUse">
<stop stop-opacity="0"/>
<stop offset="0.99"/>
</linearGradient>
<linearGradient id="paint4_linear_131_255" x1="123.983" y1="63.5095" x2="152.731" y2="111.21" gradientUnits="userSpaceOnUse">
<stop stop-opacity="0"/>
<stop offset="0.99"/>
</linearGradient>
<linearGradient id="paint5_linear_131_255" x1="128.313" y1="82.0415" x2="124.03" y2="48.9221" gradientUnits="userSpaceOnUse">
<stop offset="0.02" stop-color="white" stop-opacity="0"/>
<stop offset="0.58" stop-color="white" stop-opacity="0.39"/>
<stop offset="0.68" stop-color="white" stop-opacity="0.68"/>
<stop offset="1" stop-color="white"/>
</linearGradient>
<linearGradient id="paint6_linear_131_255" x1="127.724" y1="65.0456" x2="143.198" y2="65.0456" gradientUnits="userSpaceOnUse">
<stop stop-color="#E5C5D5"/>
<stop offset="0.42" stop-color="#EAD4D1"/>
<stop offset="1" stop-color="#F0E9CB"/>
</linearGradient>
<linearGradient id="paint7_linear_131_255" x1="113.232" y1="47.3659" x2="136.852" y2="47.3659" gradientUnits="userSpaceOnUse">
<stop stop-color="#E5C5D5"/>
<stop offset="0.42" stop-color="#EAD4D1"/>
<stop offset="1" stop-color="#F0E9CB"/>
</linearGradient>
<linearGradient id="paint8_linear_131_255" x1="114.247" y1="25.6337" x2="107.366" y2="54.0169" gradientUnits="userSpaceOnUse">
<stop stop-opacity="0"/>
<stop offset="0.99"/>
</linearGradient>
<linearGradient id="paint9_linear_131_255" x1="56.2623" y1="111.859" x2="84.5102" y2="111.859" gradientUnits="userSpaceOnUse">
<stop stop-color="#E5C5D5"/>
<stop offset="0.42" stop-color="#EAD4D1"/>
<stop offset="1" stop-color="#F0E9CB"/>
</linearGradient>
<linearGradient id="paint10_linear_131_255" x1="179.464" y1="15.9448" x2="191.142" y2="15.9448" gradientUnits="userSpaceOnUse">
<stop stop-color="#E5C5D5"/>
<stop offset="0.42" stop-color="#EAD4D1"/>
<stop offset="1" stop-color="#F0E9CB"/>
</linearGradient>
<linearGradient id="paint11_linear_131_255" x1="104.152" y1="226.806" x2="119.355" y2="249.086" gradientUnits="userSpaceOnUse">
<stop stop-opacity="0"/>
<stop offset="0.99"/>
</linearGradient>
<linearGradient id="paint12_linear_131_255" x1="100.16" y1="86.5274" x2="236.616" y2="312.991" gradientUnits="userSpaceOnUse">
<stop stop-opacity="0"/>
<stop offset="0.99"/>
</linearGradient>
</defs>
</svg>
