<svg width="788" height="751" viewBox="0 0 788 751" fill="none" xmlns="http://www.w3.org/2000/svg">
<path d="M302.344 216.833C302.344 216.833 346.981 208.553 355.211 253.788C363.441 299.022 338.472 405.121 428.138 404.366C517.803 403.61 495.819 400.647 495.819 400.647L499.418 427.346C499.418 427.346 340.537 489.053 310.881 389.578C281.225 290.103 302.344 216.833 302.344 216.833Z" fill="#68E1FD"/>
<path opacity="0.46" d="M302.344 216.833C302.344 216.833 346.981 208.553 355.211 253.788C363.441 299.022 338.472 405.121 428.138 404.366C517.803 403.61 495.819 400.647 495.819 400.647L499.418 427.346C499.418 427.346 340.537 489.053 310.881 389.578C281.225 290.103 302.344 216.833 302.344 216.833Z" fill="white"/>
<path d="M328.959 543.09L252.573 690.037L242.027 687.48L287.864 533.067L328.959 543.09Z" fill="#F4A28C"/>
<path d="M253.633 687.771C253.633 687.771 255.474 697.736 262.505 701.077C269.535 704.418 265.49 715.051 255 708.078C251.728 705.926 248.639 703.486 245.766 700.786C243.068 698.38 239.803 696.766 236.308 696.109C235.662 695.934 235.08 695.566 234.633 695.049C234.187 694.532 233.896 693.891 233.797 693.203C232.57 687.713 244.65 683.035 244.65 683.035L253.633 687.771Z" fill="#68E1FD"/>
<path d="M342.908 529.029L355.211 695.673L345.028 699.45L303.153 543.817L342.908 529.029Z" fill="#F4A28C"/>
<path d="M354.821 693.232C354.821 693.232 361.544 700.554 369.188 699.421C376.833 698.288 378.981 709.444 366.538 709.502C362.661 709.551 358.787 709.25 354.96 708.601C351.441 708.114 347.86 708.605 344.582 710.025C343.934 710.241 343.238 710.249 342.586 710.047C341.934 709.845 341.356 709.442 340.927 708.892C337.021 704.97 344.749 694.22 344.749 694.22L354.821 693.232Z" fill="#68E1FD"/>
<path opacity="0.3" d="M237.48 120.06C123.375 149.432 33.2352 242.167 6.73172 361.426C-12.7972 450.181 4.33244 541.696 136.711 574.961C422.921 646.923 732.064 623.187 769.113 479.291C806.162 335.395 737.42 88.5092 573.824 73.2277C480.587 64.5411 340.676 93.5062 237.48 120.06Z" fill="#E6E6E6"/>
<path opacity="0.45" d="M403.364 750.901C615.793 750.901 788 733.68 788 712.436C788 691.192 615.793 673.971 403.364 673.971C190.935 673.971 18.728 691.192 18.728 712.436C18.728 733.68 190.935 750.901 403.364 750.901Z" fill="#E6E6E6"/>
<path opacity="0.58" d="M144.076 672.605C144.076 672.605 121.143 666.184 116.177 643.988C116.177 643.988 151.664 636.348 152.836 674.522L144.076 672.605Z" fill="#68E1FD"/>
<path opacity="0.73" d="M146.894 670.223C146.894 670.223 130.768 643.901 144.773 619.207C144.773 619.207 171.835 636.929 159.978 670.223H146.894Z" fill="#68E1FD"/>
<path d="M151.023 670.223C151.023 670.223 159.392 642.332 184.947 636.929C184.947 636.929 189.801 654.999 168.487 670.223H151.023Z" fill="#68E1FD"/>
<path d="M134.395 669.671L139.166 702.762H168.431L172.616 669.671H134.395Z" fill="#24285B"/>
<path opacity="0.58" d="M144.076 672.605C144.076 672.605 121.143 666.185 116.177 643.989C116.177 643.989 151.664 636.348 152.836 674.523L144.076 672.605Z" fill="#68E1FD"/>
<path opacity="0.73" d="M146.894 670.223C146.894 670.223 130.768 643.901 144.773 619.207C144.773 619.207 171.835 636.929 159.978 670.223H146.894Z" fill="#68E1FD"/>
<path d="M151.023 670.223C151.023 670.223 159.392 642.333 184.947 636.929C184.947 636.929 189.801 655 168.487 670.223H151.023Z" fill="#68E1FD"/>
<path d="M134.395 669.671L139.166 702.762H168.431L172.616 669.671H134.395Z" fill="#24285B"/>
<path d="M521.347 0.538879L402.164 248.5H464.796V636.929H578.678V248.5H640.529L521.347 0.538879Z" fill="#FFD200"/>
<path d="M284.014 136.562C284.014 136.562 267.443 122.035 254.414 132.146C241.386 142.256 250.229 183.539 221.885 174.068C221.885 174.068 252.573 200.68 274.25 157.218L284.014 136.562Z" fill="#24285B"/>
<path d="M270.791 164.83C270.791 164.83 259.631 163.144 264.179 147.166C268.726 131.187 281.532 131.797 285.214 136.097L270.791 164.83Z" fill="#68E1FD"/>
<path d="M348.153 427.346L375.438 664.732H304.52L298.633 451.111L348.153 427.346Z" fill="#24285B"/>
<path opacity="0.08" d="M348.153 427.346L375.438 664.732H304.52L298.633 451.111L348.153 427.346Z" fill="black"/>
<path d="M304.436 156.143C303.65 163.878 301.877 171.47 299.163 178.717C298.784 179.553 298.249 180.304 297.59 180.925C296.931 181.546 296.161 182.025 295.324 182.336C294.487 182.646 293.599 182.781 292.711 182.733C291.824 182.686 290.954 182.456 290.152 182.058C287.492 180.946 285.198 179.057 283.545 176.619C281.892 174.181 280.95 171.298 280.834 168.316L279.104 155.533C279.019 152.938 279.708 150.38 281.077 148.21C282.446 146.04 284.427 144.366 286.748 143.418C295.202 139.351 305.692 147.718 304.436 156.143Z" fill="#F4A28C"/>
<path d="M276.37 162.651L267.61 207.536L291.714 210.79L288.478 177.671L276.37 162.651Z" fill="#F4A28C"/>
<path d="M303.125 164.859L305.915 170.902C306.064 171.242 306.129 171.617 306.104 171.99C306.078 172.364 305.963 172.725 305.768 173.04C305.574 173.355 305.307 173.615 304.991 173.794C304.675 173.974 304.322 174.068 303.962 174.068H298.717L303.125 164.859Z" fill="#F4A28C"/>
<path opacity="0.31" d="M288.562 178.629C285.718 177.687 283.173 175.96 281.197 173.632C281.197 173.632 278.407 183.249 289.566 188.158L288.562 178.629Z" fill="#CE8172"/>
<path d="M277.263 162.883C277.263 162.883 278.128 157.567 274.25 157.073C270.372 156.579 269.033 164.365 274.083 166.137L277.263 162.883Z" fill="#F4A28C"/>
<path d="M301.786 154.952C297.465 155.19 293.136 154.669 288.98 153.412C288.98 153.412 284.572 168.519 272.409 170.989C272.409 170.989 263.788 146.643 278.435 139.351C290.682 133.221 299.917 127.73 308.37 137.608C309.599 139.054 310.419 140.826 310.74 142.728C311.061 144.63 310.87 146.588 310.189 148.384C309.507 150.179 308.361 151.744 306.878 152.903C305.395 154.062 303.632 154.772 301.786 154.952Z" fill="#24285B"/>
<path d="M261.277 210.529C261.277 210.529 188.602 218.663 185.756 262.184C182.91 305.704 234.104 427.346 234.104 427.346H348.069L358.727 360.787C361.311 345.477 366.387 330.739 373.736 317.209C382.468 300.823 390.056 273.63 365.896 247.483C357.86 238.968 348.1 232.428 337.328 228.338L294.7 211.778L261.277 210.529Z" fill="#68E1FD"/>
<path d="M288.339 161.547C288.339 161.547 288.339 155.3 283.568 155.736C278.797 156.172 277.988 163.377 283.568 166.921L288.339 161.547Z" fill="#F4A28C"/>
<path d="M258.18 209.512C258.18 209.512 254.833 198.704 274.083 196.438C293.333 194.172 308.649 202.685 302.344 216.775C302.344 216.833 287.837 228.861 258.18 209.512Z" fill="#68E1FD"/>
<path opacity="0.46" d="M258.18 209.512C258.18 209.512 254.833 198.704 274.083 196.438C293.333 194.172 308.649 202.685 302.344 216.775C302.344 216.833 287.837 228.861 258.18 209.512Z" fill="white"/>
<path d="M234.104 427.346L250.843 484.405C261.705 521.547 261.021 561.314 248.89 598.028L234.104 642.449L304.52 664.848L321.566 591.898C328.561 561.957 327.811 530.621 319.39 501.081L319.083 500.035C315.338 486.897 315.874 472.839 320.608 460.052C325.342 447.265 334.007 436.47 345.252 429.351L348.041 427.491L234.104 427.346Z" fill="#24285B"/>
<path opacity="0.08" d="M252.936 249.11C252.936 249.11 270.763 278.744 252.936 318.836C235.108 358.928 247.356 374.732 302.065 374.035L325.332 326.477L366.315 333.42C366.315 333.42 360.094 348.469 359.759 355.645L348.153 427.317H234.104L232.012 419.357L207.963 373.541L196.804 315.698L252.936 249.11Z" fill="black"/>
<path d="M283.161 307.119L353.911 316.401L341.86 416.018L271.111 406.737L283.161 307.119Z" fill="#FFD200"/>
<path opacity="0.08" d="M337.049 377.696C337.049 377.696 346.005 394.226 328.68 397.684C311.355 401.141 310.909 411.919 310.909 411.919L274.306 406.835L337.049 377.696Z" fill="black"/>
<path d="M304.708 303.538L333.329 307.293L331.453 322.8L302.833 319.046L304.708 303.538Z" fill="#24285B"/>
<path d="M253.075 267.035C260.691 237.983 229.333 214.509 205.285 231.185C176.801 250.882 136.459 291.933 153.199 359.973C178.14 461.656 254.749 428.101 310.909 389.636L302.093 374.064C302.093 374.064 219.736 400.211 210.586 354.541C209.515 348.642 209.817 342.561 211.467 336.809C213.118 331.056 216.068 325.8 220.071 321.479C230.449 309.887 247.412 288.563 253.075 267.035Z" fill="#68E1FD"/>
<path opacity="0.46" d="M253.075 267.035C260.691 237.983 229.333 214.509 205.285 231.185C176.801 250.882 136.459 291.933 153.199 359.973C178.14 461.656 254.749 428.101 310.909 389.636L302.093 374.064C302.093 374.064 219.736 400.211 210.586 354.541C209.515 348.642 209.817 342.561 211.467 336.809C213.118 331.056 216.068 325.8 220.071 321.479C230.449 309.887 247.412 288.563 253.075 267.035Z" fill="white"/>
<path d="M302.065 374.064C302.065 374.064 326.281 359.364 335.543 374.064C344.805 388.765 310.881 389.636 310.881 389.636L302.065 374.064Z" fill="#F4A28C"/>
</svg>
