<svg width="242" height="145" viewBox="0 0 242 145" fill="none" xmlns="http://www.w3.org/2000/svg">
<path d="M51.533 7.7H53.433V21H51.533V7.7ZM43.895 21H41.995V7.7H43.895V21ZM51.704 15.072H43.705V13.419H51.704V15.072ZM60.6249 21V9.353H56.0649V7.7H67.0659V9.353H62.5059V21H60.6249ZM69.7053 21V7.7H71.2633L77.2293 17.751H76.3933L82.2833 7.7H83.8413L83.8603 21H82.0363L82.0173 10.569H82.4543L77.2103 19.385H76.3363L71.0543 10.569H71.5293V21H69.7053ZM88.4218 21V7.7H90.3218V19.347H97.5228V21H88.4218Z" fill="black"/>
<path d="M40 15.11H97.7128V16.06H40V15.11Z" fill="black"/>
<path d="M45.942 60.152C44.9287 60.152 43.9913 59.9873 43.13 59.658C42.2813 59.316 41.5403 58.841 40.907 58.233C40.2863 57.6123 39.7987 56.8903 39.444 56.067C39.0893 55.2437 38.912 54.338 38.912 53.35C38.912 52.362 39.0893 51.4563 39.444 50.633C39.7987 49.8097 40.2927 49.094 40.926 48.486C41.5593 47.8653 42.3003 47.3903 43.149 47.061C44.0103 46.719 44.9477 46.548 45.961 46.548C46.987 46.548 47.9307 46.7253 48.792 47.08C49.666 47.422 50.407 47.935 51.015 48.619L49.78 49.816C49.2733 49.284 48.7033 48.8913 48.07 48.638C47.4367 48.372 46.759 48.239 46.037 48.239C45.2897 48.239 44.593 48.3657 43.947 48.619C43.3137 48.8723 42.7627 49.227 42.294 49.683C41.8253 50.139 41.458 50.6837 41.192 51.317C40.9387 51.9377 40.812 52.6153 40.812 53.35C40.812 54.0847 40.9387 54.7687 41.192 55.402C41.458 56.0227 41.8253 56.561 42.294 57.017C42.7627 57.473 43.3137 57.8277 43.947 58.081C44.593 58.3343 45.2897 58.461 46.037 58.461C46.759 58.461 47.4367 58.3343 48.07 58.081C48.7033 57.815 49.2733 57.4097 49.78 56.865L51.015 58.062C50.407 58.746 49.666 59.2653 48.792 59.62C47.9307 59.9747 46.9807 60.152 45.942 60.152ZM58.1529 60.152C57.1396 60.152 56.1706 60 55.2459 59.696C54.3212 59.3793 53.5929 58.974 53.0609 58.48L53.7639 56.998C54.2706 57.4413 54.9166 57.8087 55.7019 58.1C56.4872 58.3913 57.3042 58.537 58.1529 58.537C58.9256 58.537 59.5526 58.4483 60.0339 58.271C60.5152 58.0937 60.8699 57.853 61.0979 57.549C61.3259 57.2323 61.4399 56.8777 61.4399 56.485C61.4399 56.029 61.2879 55.6617 60.9839 55.383C60.6926 55.1043 60.3062 54.8827 59.8249 54.718C59.3562 54.5407 58.8369 54.3887 58.2669 54.262C57.6969 54.1353 57.1206 53.9897 56.5379 53.825C55.9679 53.6477 55.4422 53.426 54.9609 53.16C54.4922 52.894 54.1122 52.5393 53.8209 52.096C53.5296 51.64 53.3839 51.0573 53.3839 50.348C53.3839 49.664 53.5612 49.037 53.9159 48.467C54.2832 47.8843 54.8406 47.422 55.5879 47.08C56.3479 46.7253 57.3106 46.548 58.4759 46.548C59.2486 46.548 60.0149 46.6493 60.7749 46.852C61.5349 47.0547 62.1936 47.346 62.7509 47.726L62.1239 49.246C61.5539 48.866 60.9522 48.5937 60.3189 48.429C59.6856 48.2517 59.0712 48.163 58.4759 48.163C57.7286 48.163 57.1142 48.258 56.6329 48.448C56.1516 48.638 55.7969 48.8913 55.5689 49.208C55.3536 49.5247 55.2459 49.8793 55.2459 50.272C55.2459 50.7407 55.3916 51.1143 55.6829 51.393C55.9869 51.6717 56.3732 51.8933 56.8419 52.058C57.3232 52.2227 57.8489 52.3747 58.4189 52.514C58.9889 52.6407 59.5589 52.7863 60.1289 52.951C60.7116 53.1157 61.2372 53.331 61.7059 53.597C62.1872 53.863 62.5736 54.2177 62.8649 54.661C63.1562 55.1043 63.3019 55.6743 63.3019 56.371C63.3019 57.0423 63.1182 57.6693 62.7509 58.252C62.3836 58.822 61.8136 59.2843 61.0409 59.639C60.2809 59.981 59.3182 60.152 58.1529 60.152ZM70.5237 60.152C69.5104 60.152 68.5414 60 67.6167 59.696C66.692 59.3793 65.9637 58.974 65.4317 58.48L66.1347 56.998C66.6414 57.4413 67.2874 57.8087 68.0727 58.1C68.858 58.3913 69.675 58.537 70.5237 58.537C71.2964 58.537 71.9234 58.4483 72.4047 58.271C72.886 58.0937 73.2407 57.853 73.4687 57.549C73.6967 57.2323 73.8107 56.8777 73.8107 56.485C73.8107 56.029 73.6587 55.6617 73.3547 55.383C73.0634 55.1043 72.677 54.8827 72.1957 54.718C71.727 54.5407 71.2077 54.3887 70.6377 54.262C70.0677 54.1353 69.4914 53.9897 68.9087 53.825C68.3387 53.6477 67.813 53.426 67.3317 53.16C66.863 52.894 66.483 52.5393 66.1917 52.096C65.9004 51.64 65.7547 51.0573 65.7547 50.348C65.7547 49.664 65.932 49.037 66.2867 48.467C66.654 47.8843 67.2114 47.422 67.9587 47.08C68.7187 46.7253 69.6814 46.548 70.8467 46.548C71.6194 46.548 72.3857 46.6493 73.1457 46.852C73.9057 47.0547 74.5644 47.346 75.1217 47.726L74.4947 49.246C73.9247 48.866 73.323 48.5937 72.6897 48.429C72.0564 48.2517 71.442 48.163 70.8467 48.163C70.0994 48.163 69.485 48.258 69.0037 48.448C68.5224 48.638 68.1677 48.8913 67.9397 49.208C67.7244 49.5247 67.6167 49.8793 67.6167 50.272C67.6167 50.7407 67.7624 51.1143 68.0537 51.393C68.3577 51.6717 68.744 51.8933 69.2127 52.058C69.694 52.2227 70.2197 52.3747 70.7897 52.514C71.3597 52.6407 71.9297 52.7863 72.4997 52.951C73.0824 53.1157 73.608 53.331 74.0767 53.597C74.558 53.863 74.9444 54.2177 75.2357 54.661C75.527 55.1043 75.6727 55.6743 75.6727 56.371C75.6727 57.0423 75.489 57.6693 75.1217 58.252C74.7544 58.822 74.1844 59.2843 73.4117 59.639C72.6517 59.981 71.689 60.152 70.5237 60.152ZM86.401 52.989H93.26V54.623H86.401V52.989ZM86.591 60H84.691V46.7H94.077V48.353H86.591V60ZM97.0556 60V45.902H98.8796V60H97.0556ZM107.245 60.114C106.232 60.114 105.333 59.8923 104.547 59.449C103.762 59.0057 103.141 58.3977 102.685 57.625C102.229 56.8397 102.001 55.953 102.001 54.965C102.001 53.9643 102.229 53.0777 102.685 52.305C103.141 51.5323 103.762 50.9307 104.547 50.5C105.333 50.0567 106.232 49.835 107.245 49.835C108.246 49.835 109.139 50.0567 109.924 50.5C110.722 50.9307 111.343 51.5323 111.786 52.305C112.242 53.065 112.47 53.9517 112.47 54.965C112.47 55.9657 112.242 56.8523 111.786 57.625C111.343 58.3977 110.722 59.0057 109.924 59.449C109.139 59.8923 108.246 60.114 107.245 60.114ZM107.245 58.518C107.891 58.518 108.468 58.3723 108.974 58.081C109.494 57.7897 109.899 57.378 110.19 56.846C110.482 56.3013 110.627 55.6743 110.627 54.965C110.627 54.243 110.482 53.6223 110.19 53.103C109.899 52.571 109.494 52.1593 108.974 51.868C108.468 51.5767 107.891 51.431 107.245 51.431C106.599 51.431 106.023 51.5767 105.516 51.868C105.01 52.1593 104.604 52.571 104.3 53.103C103.996 53.6223 103.844 54.243 103.844 54.965C103.844 55.6743 103.996 56.3013 104.3 56.846C104.604 57.378 105.01 57.7897 105.516 58.081C106.023 58.3723 106.599 58.518 107.245 58.518ZM121.721 60V57.872L121.626 57.473V53.844C121.626 53.0713 121.398 52.476 120.942 52.058C120.499 51.6273 119.827 51.412 118.928 51.412C118.333 51.412 117.75 51.5133 117.18 51.716C116.61 51.906 116.129 52.1657 115.736 52.495L114.976 51.127C115.495 50.709 116.116 50.3923 116.838 50.177C117.573 49.949 118.339 49.835 119.137 49.835C120.518 49.835 121.582 50.1707 122.329 50.842C123.076 51.5133 123.45 52.5393 123.45 53.92V60H121.721ZM118.415 60.114C117.668 60.114 117.009 59.9873 116.439 59.734C115.882 59.4807 115.451 59.1323 115.147 58.689C114.843 58.233 114.691 57.72 114.691 57.15C114.691 56.6053 114.818 56.1113 115.071 55.668C115.337 55.2247 115.761 54.87 116.344 54.604C116.939 54.338 117.737 54.205 118.738 54.205H121.93V55.516H118.814C117.902 55.516 117.288 55.668 116.971 55.972C116.654 56.276 116.496 56.6433 116.496 57.074C116.496 57.568 116.692 57.967 117.085 58.271C117.478 58.5623 118.022 58.708 118.719 58.708C119.403 58.708 119.998 58.556 120.505 58.252C121.024 57.948 121.398 57.5047 121.626 56.922L121.987 58.176C121.746 58.7713 121.322 59.2463 120.714 59.601C120.106 59.943 119.34 60.114 118.415 60.114ZM130.853 60.114C129.84 60.114 129.055 59.8417 128.497 59.297C127.94 58.7523 127.661 57.9733 127.661 56.96V47.726H129.485V56.884C129.485 57.4287 129.618 57.8467 129.884 58.138C130.163 58.4293 130.556 58.575 131.062 58.575C131.632 58.575 132.107 58.4167 132.487 58.1L133.057 59.411C132.779 59.6517 132.443 59.829 132.05 59.943C131.67 60.057 131.271 60.114 130.853 60.114ZM125.951 51.431V49.93H132.373V51.431H125.951Z" fill="black"/>
<path d="M38 54.11H133.532V55.06H38V54.11Z" fill="black"/>
<path d="M45.942 99.152C44.9287 99.152 43.9913 98.9873 43.13 98.658C42.2813 98.316 41.5403 97.841 40.907 97.233C40.2863 96.6123 39.7987 95.8903 39.444 95.067C39.0893 94.2437 38.912 93.338 38.912 92.35C38.912 91.362 39.0893 90.4563 39.444 89.633C39.7987 88.8097 40.2927 88.094 40.926 87.486C41.5593 86.8653 42.3003 86.3903 43.149 86.061C44.0103 85.719 44.9477 85.548 45.961 85.548C46.987 85.548 47.9307 85.7253 48.792 86.08C49.666 86.422 50.407 86.935 51.015 87.619L49.78 88.816C49.2733 88.284 48.7033 87.8913 48.07 87.638C47.4367 87.372 46.759 87.239 46.037 87.239C45.2897 87.239 44.593 87.3657 43.947 87.619C43.3137 87.8723 42.7627 88.227 42.294 88.683C41.8253 89.139 41.458 89.6837 41.192 90.317C40.9387 90.9377 40.812 91.6153 40.812 92.35C40.812 93.0847 40.9387 93.7687 41.192 94.402C41.458 95.0227 41.8253 95.561 42.294 96.017C42.7627 96.473 43.3137 96.8277 43.947 97.081C44.593 97.3343 45.2897 97.461 46.037 97.461C46.759 97.461 47.4367 97.3343 48.07 97.081C48.7033 96.815 49.2733 96.4097 49.78 95.865L51.015 97.062C50.407 97.746 49.666 98.2653 48.792 98.62C47.9307 98.9747 46.9807 99.152 45.942 99.152ZM58.1529 99.152C57.1396 99.152 56.1706 99 55.2459 98.696C54.3212 98.3793 53.5929 97.974 53.0609 97.48L53.7639 95.998C54.2706 96.4413 54.9166 96.8087 55.7019 97.1C56.4872 97.3913 57.3042 97.537 58.1529 97.537C58.9256 97.537 59.5526 97.4483 60.0339 97.271C60.5152 97.0937 60.8699 96.853 61.0979 96.549C61.3259 96.2323 61.4399 95.8777 61.4399 95.485C61.4399 95.029 61.2879 94.6617 60.9839 94.383C60.6926 94.1043 60.3062 93.8827 59.8249 93.718C59.3562 93.5407 58.8369 93.3887 58.2669 93.262C57.6969 93.1353 57.1206 92.9897 56.5379 92.825C55.9679 92.6477 55.4422 92.426 54.9609 92.16C54.4922 91.894 54.1122 91.5393 53.8209 91.096C53.5296 90.64 53.3839 90.0573 53.3839 89.348C53.3839 88.664 53.5612 88.037 53.9159 87.467C54.2832 86.8843 54.8406 86.422 55.5879 86.08C56.3479 85.7253 57.3106 85.548 58.4759 85.548C59.2486 85.548 60.0149 85.6493 60.7749 85.852C61.5349 86.0547 62.1936 86.346 62.7509 86.726L62.1239 88.246C61.5539 87.866 60.9522 87.5937 60.3189 87.429C59.6856 87.2517 59.0712 87.163 58.4759 87.163C57.7286 87.163 57.1142 87.258 56.6329 87.448C56.1516 87.638 55.7969 87.8913 55.5689 88.208C55.3536 88.5247 55.2459 88.8793 55.2459 89.272C55.2459 89.7407 55.3916 90.1143 55.6829 90.393C55.9869 90.6717 56.3732 90.8933 56.8419 91.058C57.3232 91.2227 57.8489 91.3747 58.4189 91.514C58.9889 91.6407 59.5589 91.7863 60.1289 91.951C60.7116 92.1157 61.2372 92.331 61.7059 92.597C62.1872 92.863 62.5736 93.2177 62.8649 93.661C63.1562 94.1043 63.3019 94.6743 63.3019 95.371C63.3019 96.0423 63.1182 96.6693 62.7509 97.252C62.3836 97.822 61.8136 98.2843 61.0409 98.639C60.2809 98.981 59.3182 99.152 58.1529 99.152ZM70.5237 99.152C69.5104 99.152 68.5414 99 67.6167 98.696C66.692 98.3793 65.9637 97.974 65.4317 97.48L66.1347 95.998C66.6414 96.4413 67.2874 96.8087 68.0727 97.1C68.858 97.3913 69.675 97.537 70.5237 97.537C71.2964 97.537 71.9234 97.4483 72.4047 97.271C72.886 97.0937 73.2407 96.853 73.4687 96.549C73.6967 96.2323 73.8107 95.8777 73.8107 95.485C73.8107 95.029 73.6587 94.6617 73.3547 94.383C73.0634 94.1043 72.677 93.8827 72.1957 93.718C71.727 93.5407 71.2077 93.3887 70.6377 93.262C70.0677 93.1353 69.4914 92.9897 68.9087 92.825C68.3387 92.6477 67.813 92.426 67.3317 92.16C66.863 91.894 66.483 91.5393 66.1917 91.096C65.9004 90.64 65.7547 90.0573 65.7547 89.348C65.7547 88.664 65.932 88.037 66.2867 87.467C66.654 86.8843 67.2114 86.422 67.9587 86.08C68.7187 85.7253 69.6814 85.548 70.8467 85.548C71.6194 85.548 72.3857 85.6493 73.1457 85.852C73.9057 86.0547 74.5644 86.346 75.1217 86.726L74.4947 88.246C73.9247 87.866 73.323 87.5937 72.6897 87.429C72.0564 87.2517 71.442 87.163 70.8467 87.163C70.0994 87.163 69.485 87.258 69.0037 87.448C68.5224 87.638 68.1677 87.8913 67.9397 88.208C67.7244 88.5247 67.6167 88.8793 67.6167 89.272C67.6167 89.7407 67.7624 90.1143 68.0537 90.393C68.3577 90.6717 68.744 90.8933 69.2127 91.058C69.694 91.2227 70.2197 91.3747 70.7897 91.514C71.3597 91.6407 71.9297 91.7863 72.4997 91.951C73.0824 92.1157 73.608 92.331 74.0767 92.597C74.558 92.863 74.9444 93.2177 75.2357 93.661C75.527 94.1043 75.6727 94.6743 75.6727 95.371C75.6727 96.0423 75.489 96.6693 75.1217 97.252C74.7544 97.822 74.1844 98.2843 73.4117 98.639C72.6517 98.981 71.689 99.152 70.5237 99.152ZM86.401 91.989H93.26V93.623H86.401V91.989ZM86.591 99H84.691V85.7H94.077V87.353H86.591V99ZM97.0556 99V84.902H98.8796V99H97.0556ZM107.416 99.114C106.34 99.114 105.39 98.8923 104.566 98.449C103.756 98.0057 103.122 97.3977 102.666 96.625C102.223 95.8523 102.001 94.9657 102.001 93.965C102.001 92.9643 102.217 92.0777 102.647 91.305C103.091 90.5323 103.692 89.9307 104.452 89.5C105.225 89.0567 106.093 88.835 107.055 88.835C108.031 88.835 108.892 89.0503 109.639 89.481C110.387 89.9117 110.969 90.5197 111.387 91.305C111.818 92.0777 112.033 92.9833 112.033 94.022C112.033 94.098 112.027 94.1867 112.014 94.288C112.014 94.3893 112.008 94.4843 111.995 94.573H103.426V93.262H111.045L110.304 93.718C110.317 93.072 110.184 92.4957 109.905 91.989C109.627 91.4823 109.24 91.0897 108.746 90.811C108.265 90.5197 107.701 90.374 107.055 90.374C106.422 90.374 105.858 90.5197 105.364 90.811C104.87 91.0897 104.484 91.4887 104.205 92.008C103.927 92.5147 103.787 93.0973 103.787 93.756V94.06C103.787 94.7313 103.939 95.333 104.243 95.865C104.56 96.3843 104.997 96.7897 105.554 97.081C106.112 97.3723 106.751 97.518 107.473 97.518C108.069 97.518 108.607 97.4167 109.088 97.214C109.582 97.0113 110.013 96.7073 110.38 96.302L111.387 97.48C110.931 98.012 110.361 98.4173 109.677 98.696C109.006 98.9747 108.252 99.114 107.416 99.114ZM113.395 99L117.727 93.376L117.708 94.307L113.585 88.93H115.618L118.772 93.072H117.993L121.147 88.93H123.142L118.962 94.345L118.981 93.376L123.351 99H121.28L117.955 94.592L118.696 94.706L115.428 99H113.395ZM131.25 99.114C130.389 99.114 129.61 98.924 128.913 98.544C128.229 98.1513 127.684 97.575 127.279 96.815C126.886 96.055 126.69 95.105 126.69 93.965C126.69 92.825 126.893 91.875 127.298 91.115C127.716 90.355 128.267 89.785 128.951 89.405C129.648 89.025 130.414 88.835 131.25 88.835C132.238 88.835 133.112 89.0503 133.872 89.481C134.632 89.9117 135.234 90.5133 135.677 91.286C136.12 92.046 136.342 92.939 136.342 93.965C136.342 94.991 136.12 95.8903 135.677 96.663C135.234 97.4357 134.632 98.0373 133.872 98.468C133.112 98.8987 132.238 99.114 131.25 99.114ZM125.911 99V84.902H127.735V91.609L127.545 93.946L127.659 96.283V99H125.911ZM131.098 97.518C131.744 97.518 132.32 97.3723 132.827 97.081C133.346 96.7897 133.752 96.378 134.043 95.846C134.347 95.3013 134.499 94.6743 134.499 93.965C134.499 93.243 134.347 92.6223 134.043 92.103C133.752 91.571 133.346 91.1593 132.827 90.868C132.32 90.5767 131.744 90.431 131.098 90.431C130.465 90.431 129.888 90.5767 129.369 90.868C128.862 91.1593 128.457 91.571 128.153 92.103C127.862 92.6223 127.716 93.243 127.716 93.965C127.716 94.6743 127.862 95.3013 128.153 95.846C128.457 96.378 128.862 96.7897 129.369 97.081C129.888 97.3723 130.465 97.518 131.098 97.518ZM143.745 99.114C142.732 99.114 141.833 98.8923 141.047 98.449C140.262 98.0057 139.641 97.3977 139.185 96.625C138.729 95.8397 138.501 94.953 138.501 93.965C138.501 92.9643 138.729 92.0777 139.185 91.305C139.641 90.5323 140.262 89.9307 141.047 89.5C141.833 89.0567 142.732 88.835 143.745 88.835C144.746 88.835 145.639 89.0567 146.424 89.5C147.222 89.9307 147.843 90.5323 148.286 91.305C148.742 92.065 148.97 92.9517 148.97 93.965C148.97 94.9657 148.742 95.8523 148.286 96.625C147.843 97.3977 147.222 98.0057 146.424 98.449C145.639 98.8923 144.746 99.114 143.745 99.114ZM143.745 97.518C144.391 97.518 144.968 97.3723 145.474 97.081C145.994 96.7897 146.399 96.378 146.69 95.846C146.982 95.3013 147.127 94.6743 147.127 93.965C147.127 93.243 146.982 92.6223 146.69 92.103C146.399 91.571 145.994 91.1593 145.474 90.868C144.968 90.5767 144.391 90.431 143.745 90.431C143.099 90.431 142.523 90.5767 142.016 90.868C141.51 91.1593 141.104 91.571 140.8 92.103C140.496 92.6223 140.344 93.243 140.344 93.965C140.344 94.6743 140.496 95.3013 140.8 95.846C141.104 96.378 141.51 96.7897 142.016 97.081C142.523 97.3723 143.099 97.518 143.745 97.518ZM150.266 99L154.598 93.376L154.579 94.307L150.456 88.93H152.489L155.643 93.072H154.864L158.018 88.93H160.013L155.833 94.345L155.852 93.376L160.222 99H158.151L154.826 94.592L155.567 94.706L152.299 99H150.266Z" fill="black"/>
<rect x="0.5" y="8.5" width="19.9693" height="17.5024" fill="#703E94" stroke="#703E94"/>
<rect x="0.5" y="47.5" width="19.9693" height="17.5024" fill="#703E94" stroke="#703E94"/>
<rect x="0.5" y="86.5" width="19.9693" height="17.5024" fill="white" stroke="#703E94"/>
<path d="M39.995 138V124.7H45.961C47.4937 124.7 48.6717 125.01 49.495 125.631C50.3183 126.239 50.73 127.075 50.73 128.139C50.73 128.861 50.5653 129.469 50.236 129.963C49.9193 130.457 49.4887 130.837 48.944 131.103C48.3993 131.369 47.8103 131.502 47.177 131.502L47.519 130.932C48.279 130.932 48.9503 131.065 49.533 131.331C50.1157 131.597 50.578 131.99 50.92 132.509C51.262 133.016 51.433 133.649 51.433 134.409C51.433 135.549 51.0023 136.436 50.141 137.069C49.2923 137.69 48.0257 138 46.341 138H39.995ZM41.895 136.461H46.265C47.3163 136.461 48.1207 136.284 48.678 135.929C49.2353 135.574 49.514 135.017 49.514 134.257C49.514 133.484 49.2353 132.921 48.678 132.566C48.1207 132.211 47.3163 132.034 46.265 132.034H41.724V130.495H45.79C46.7527 130.495 47.5 130.318 48.032 129.963C48.564 129.608 48.83 129.076 48.83 128.367C48.83 127.658 48.564 127.126 48.032 126.771C47.5 126.416 46.7527 126.239 45.79 126.239H41.895V136.461ZM60.9299 138V135.872L60.8349 135.473V131.844C60.8349 131.071 60.6069 130.476 60.1509 130.058C59.7075 129.627 59.0362 129.412 58.1369 129.412C57.5415 129.412 56.9589 129.513 56.3889 129.716C55.8189 129.906 55.3375 130.166 54.9449 130.495L54.1849 129.127C54.7042 128.709 55.3249 128.392 56.0469 128.177C56.7815 127.949 57.5479 127.835 58.3459 127.835C59.7265 127.835 60.7905 128.171 61.5379 128.842C62.2852 129.513 62.6589 130.539 62.6589 131.92V138H60.9299ZM57.6239 138.114C56.8765 138.114 56.2179 137.987 55.6479 137.734C55.0905 137.481 54.6599 137.132 54.3559 136.689C54.0519 136.233 53.8999 135.72 53.8999 135.15C53.8999 134.605 54.0265 134.111 54.2799 133.668C54.5459 133.225 54.9702 132.87 55.5529 132.604C56.1482 132.338 56.9462 132.205 57.9469 132.205H61.1389V133.516H58.0229C57.1109 133.516 56.4965 133.668 56.1799 133.972C55.8632 134.276 55.7049 134.643 55.7049 135.074C55.7049 135.568 55.9012 135.967 56.2939 136.271C56.6865 136.562 57.2312 136.708 57.9279 136.708C58.6119 136.708 59.2072 136.556 59.7139 136.252C60.2332 135.948 60.6069 135.505 60.8349 134.922L61.1959 136.176C60.9552 136.771 60.5309 137.246 59.9229 137.601C59.3149 137.943 58.5485 138.114 57.6239 138.114ZM69.4924 138.114C68.6564 138.114 67.8584 138 67.0984 137.772C66.351 137.544 65.762 137.265 65.3314 136.936L66.0914 135.492C66.522 135.783 67.054 136.03 67.6874 136.233C68.3207 136.436 68.9667 136.537 69.6254 136.537C70.474 136.537 71.082 136.417 71.4494 136.176C71.8294 135.935 72.0194 135.6 72.0194 135.169C72.0194 134.852 71.9054 134.605 71.6774 134.428C71.4494 134.251 71.1454 134.118 70.7654 134.029C70.398 133.94 69.9864 133.864 69.5304 133.801C69.0744 133.725 68.6184 133.636 68.1624 133.535C67.7064 133.421 67.2884 133.269 66.9084 133.079C66.5284 132.876 66.2244 132.604 65.9964 132.262C65.7684 131.907 65.6544 131.439 65.6544 130.856C65.6544 130.248 65.8254 129.716 66.1674 129.26C66.5094 128.804 66.9907 128.456 67.6114 128.215C68.2447 127.962 68.992 127.835 69.8534 127.835C70.512 127.835 71.177 127.917 71.8484 128.082C72.5324 128.234 73.0897 128.456 73.5204 128.747L72.7414 130.191C72.2854 129.887 71.8104 129.678 71.3164 129.564C70.8224 129.45 70.3284 129.393 69.8344 129.393C69.0364 129.393 68.441 129.526 68.0484 129.792C67.6557 130.045 67.4594 130.375 67.4594 130.78C67.4594 131.122 67.5734 131.388 67.8014 131.578C68.042 131.755 68.346 131.895 68.7134 131.996C69.0934 132.097 69.5114 132.186 69.9674 132.262C70.4234 132.325 70.8794 132.414 71.3354 132.528C71.7914 132.629 72.203 132.775 72.5704 132.965C72.9504 133.155 73.2544 133.421 73.4824 133.763C73.723 134.105 73.8434 134.561 73.8434 135.131C73.8434 135.739 73.666 136.265 73.3114 136.708C72.9567 137.151 72.4564 137.5 71.8104 137.753C71.1644 137.994 70.3917 138.114 69.4924 138.114ZM76.6929 138V127.93H78.5169V138H76.6929ZM77.6049 125.992C77.2502 125.992 76.9526 125.878 76.7119 125.65C76.4839 125.422 76.3699 125.143 76.3699 124.814C76.3699 124.472 76.4839 124.187 76.7119 123.959C76.9526 123.731 77.2502 123.617 77.6049 123.617C77.9596 123.617 78.2509 123.731 78.4789 123.959C78.7196 124.174 78.8399 124.447 78.8399 124.776C78.8399 125.118 78.7259 125.409 78.4979 125.65C78.2699 125.878 77.9722 125.992 77.6049 125.992ZM86.9585 138.114C85.9325 138.114 85.0142 137.892 84.2035 137.449C83.4055 137.006 82.7785 136.398 82.3225 135.625C81.8665 134.852 81.6385 133.966 81.6385 132.965C81.6385 131.964 81.8665 131.078 82.3225 130.305C82.7785 129.532 83.4055 128.931 84.2035 128.5C85.0142 128.057 85.9325 127.835 86.9585 127.835C87.8705 127.835 88.6812 128.019 89.3905 128.386C90.1125 128.741 90.6699 129.273 91.0625 129.982L89.6755 130.875C89.3462 130.381 88.9409 130.02 88.4595 129.792C87.9909 129.551 87.4842 129.431 86.9395 129.431C86.2809 129.431 85.6919 129.577 85.1725 129.868C84.6532 130.159 84.2415 130.571 83.9375 131.103C83.6335 131.622 83.4815 132.243 83.4815 132.965C83.4815 133.687 83.6335 134.314 83.9375 134.846C84.2415 135.378 84.6532 135.79 85.1725 136.081C85.6919 136.372 86.2809 136.518 86.9395 136.518C87.4842 136.518 87.9909 136.404 88.4595 136.176C88.9409 135.935 89.3462 135.568 89.6755 135.074L91.0625 135.948C90.6699 136.645 90.1125 137.183 89.3905 137.563C88.6812 137.93 87.8705 138.114 86.9585 138.114ZM101.643 138.152C100.857 138.152 100.123 137.987 99.4386 137.658C98.7546 137.329 98.1972 136.854 97.7666 136.233L98.8686 134.941C99.2359 135.448 99.6476 135.84 100.104 136.119C100.572 136.385 101.085 136.518 101.643 136.518C103.163 136.518 103.923 135.619 103.923 133.82V126.353H99.1156V124.7H105.804V133.725C105.804 135.207 105.449 136.315 104.74 137.05C104.043 137.785 103.011 138.152 101.643 138.152ZM116.229 138V135.872L116.134 135.473V131.844C116.134 131.071 115.906 130.476 115.45 130.058C115.006 129.627 114.335 129.412 113.436 129.412C112.84 129.412 112.258 129.513 111.688 129.716C111.118 129.906 110.636 130.166 110.244 130.495L109.484 129.127C110.003 128.709 110.624 128.392 111.346 128.177C112.08 127.949 112.847 127.835 113.645 127.835C115.025 127.835 116.089 128.171 116.837 128.842C117.584 129.513 117.958 130.539 117.958 131.92V138H116.229ZM112.923 138.114C112.175 138.114 111.517 137.987 110.947 137.734C110.389 137.481 109.959 137.132 109.655 136.689C109.351 136.233 109.199 135.72 109.199 135.15C109.199 134.605 109.325 134.111 109.579 133.668C109.845 133.225 110.269 132.87 110.852 132.604C111.447 132.338 112.245 132.205 113.246 132.205H116.438V133.516H113.322C112.41 133.516 111.795 133.668 111.479 133.972C111.162 134.276 111.004 134.643 111.004 135.074C111.004 135.568 111.2 135.967 111.593 136.271C111.985 136.562 112.53 136.708 113.227 136.708C113.911 136.708 114.506 136.556 115.013 136.252C115.532 135.948 115.906 135.505 116.134 134.922L116.495 136.176C116.254 136.771 115.83 137.246 115.222 137.601C114.614 137.943 113.847 138.114 112.923 138.114ZM124.359 138L119.951 127.93H121.851L125.765 137.05H124.853L128.843 127.93H130.629L126.221 138H124.359ZM138.837 138V135.872L138.742 135.473V131.844C138.742 131.071 138.514 130.476 138.058 130.058C137.614 129.627 136.943 129.412 136.044 129.412C135.448 129.412 134.866 129.513 134.296 129.716C133.726 129.906 133.244 130.166 132.852 130.495L132.092 129.127C132.611 128.709 133.232 128.392 133.954 128.177C134.688 127.949 135.455 127.835 136.253 127.835C137.633 127.835 138.697 128.171 139.445 128.842C140.192 129.513 140.566 130.539 140.566 131.92V138H138.837ZM135.531 138.114C134.783 138.114 134.125 137.987 133.555 137.734C132.997 137.481 132.567 137.132 132.263 136.689C131.959 136.233 131.807 135.72 131.807 135.15C131.807 134.605 131.933 134.111 132.187 133.668C132.453 133.225 132.877 132.87 133.46 132.604C134.055 132.338 134.853 132.205 135.854 132.205H139.046V133.516H135.93C135.018 133.516 134.403 133.668 134.087 133.972C133.77 134.276 133.612 134.643 133.612 135.074C133.612 135.568 133.808 135.967 134.201 136.271C134.593 136.562 135.138 136.708 135.835 136.708C136.519 136.708 137.114 136.556 137.621 136.252C138.14 135.948 138.514 135.505 138.742 134.922L139.103 136.176C138.862 136.771 138.438 137.246 137.83 137.601C137.222 137.943 136.455 138.114 135.531 138.114ZM148.653 138.152C147.64 138.152 146.671 138 145.746 137.696C144.821 137.379 144.093 136.974 143.561 136.48L144.264 134.998C144.771 135.441 145.417 135.809 146.202 136.1C146.987 136.391 147.804 136.537 148.653 136.537C149.426 136.537 150.053 136.448 150.534 136.271C151.015 136.094 151.37 135.853 151.598 135.549C151.826 135.232 151.94 134.878 151.94 134.485C151.94 134.029 151.788 133.662 151.484 133.383C151.193 133.104 150.806 132.883 150.325 132.718C149.856 132.541 149.337 132.389 148.767 132.262C148.197 132.135 147.621 131.99 147.038 131.825C146.468 131.648 145.942 131.426 145.461 131.16C144.992 130.894 144.612 130.539 144.321 130.096C144.03 129.64 143.884 129.057 143.884 128.348C143.884 127.664 144.061 127.037 144.416 126.467C144.783 125.884 145.341 125.422 146.088 125.08C146.848 124.725 147.811 124.548 148.976 124.548C149.749 124.548 150.515 124.649 151.275 124.852C152.035 125.055 152.694 125.346 153.251 125.726L152.624 127.246C152.054 126.866 151.452 126.594 150.819 126.429C150.186 126.252 149.571 126.163 148.976 126.163C148.229 126.163 147.614 126.258 147.133 126.448C146.652 126.638 146.297 126.891 146.069 127.208C145.854 127.525 145.746 127.879 145.746 128.272C145.746 128.741 145.892 129.114 146.183 129.393C146.487 129.672 146.873 129.893 147.342 130.058C147.823 130.223 148.349 130.375 148.919 130.514C149.489 130.641 150.059 130.786 150.629 130.951C151.212 131.116 151.737 131.331 152.206 131.597C152.687 131.863 153.074 132.218 153.365 132.661C153.656 133.104 153.802 133.674 153.802 134.371C153.802 135.042 153.618 135.669 153.251 136.252C152.884 136.822 152.314 137.284 151.541 137.639C150.781 137.981 149.818 138.152 148.653 138.152ZM161.271 138.114C160.245 138.114 159.326 137.892 158.516 137.449C157.718 137.006 157.091 136.398 156.635 135.625C156.179 134.852 155.951 133.966 155.951 132.965C155.951 131.964 156.179 131.078 156.635 130.305C157.091 129.532 157.718 128.931 158.516 128.5C159.326 128.057 160.245 127.835 161.271 127.835C162.183 127.835 162.993 128.019 163.703 128.386C164.425 128.741 164.982 129.273 165.375 129.982L163.988 130.875C163.658 130.381 163.253 130.02 162.772 129.792C162.303 129.551 161.796 129.431 161.252 129.431C160.593 129.431 160.004 129.577 159.485 129.868C158.965 130.159 158.554 130.571 158.25 131.103C157.946 131.622 157.794 132.243 157.794 132.965C157.794 133.687 157.946 134.314 158.25 134.846C158.554 135.378 158.965 135.79 159.485 136.081C160.004 136.372 160.593 136.518 161.252 136.518C161.796 136.518 162.303 136.404 162.772 136.176C163.253 135.935 163.658 135.568 163.988 135.074L165.375 135.948C164.982 136.645 164.425 137.183 163.703 137.563C162.993 137.93 162.183 138.114 161.271 138.114ZM168.306 138V127.93H170.054V130.666L169.883 129.982C170.162 129.285 170.631 128.753 171.289 128.386C171.948 128.019 172.759 127.835 173.721 127.835V129.602C173.645 129.589 173.569 129.583 173.493 129.583C173.43 129.583 173.367 129.583 173.303 129.583C172.328 129.583 171.555 129.874 170.985 130.457C170.415 131.04 170.13 131.882 170.13 132.984V138H168.306ZM176.539 138V127.93H178.363V138H176.539ZM177.451 125.992C177.097 125.992 176.799 125.878 176.558 125.65C176.33 125.422 176.216 125.143 176.216 124.814C176.216 124.472 176.33 124.187 176.558 123.959C176.799 123.731 177.097 123.617 177.451 123.617C177.806 123.617 178.097 123.731 178.325 123.959C178.566 124.174 178.686 124.447 178.686 124.776C178.686 125.118 178.572 125.409 178.344 125.65C178.116 125.878 177.819 125.992 177.451 125.992ZM187.755 138.114C186.919 138.114 186.153 137.924 185.456 137.544C184.772 137.151 184.221 136.575 183.803 135.815C183.398 135.055 183.195 134.105 183.195 132.965C183.195 131.825 183.391 130.875 183.784 130.115C184.189 129.355 184.734 128.785 185.418 128.405C186.115 128.025 186.894 127.835 187.755 127.835C188.743 127.835 189.617 128.05 190.377 128.481C191.137 128.912 191.739 129.513 192.182 130.286C192.625 131.046 192.847 131.939 192.847 132.965C192.847 133.991 192.625 134.89 192.182 135.663C191.739 136.436 191.137 137.037 190.377 137.468C189.617 137.899 188.743 138.114 187.755 138.114ZM182.416 141.686V127.93H184.164V130.647L184.05 132.984L184.24 135.321V141.686H182.416ZM187.603 136.518C188.249 136.518 188.825 136.372 189.332 136.081C189.851 135.79 190.257 135.378 190.548 134.846C190.852 134.301 191.004 133.674 191.004 132.965C191.004 132.243 190.852 131.622 190.548 131.103C190.257 130.571 189.851 130.159 189.332 129.868C188.825 129.577 188.249 129.431 187.603 129.431C186.97 129.431 186.393 129.577 185.874 129.868C185.367 130.159 184.962 130.571 184.658 131.103C184.367 131.622 184.221 132.243 184.221 132.965C184.221 133.674 184.367 134.301 184.658 134.846C184.962 135.378 185.367 135.79 185.874 136.081C186.393 136.372 186.97 136.518 187.603 136.518ZM199.395 138.114C198.382 138.114 197.597 137.842 197.039 137.297C196.482 136.752 196.203 135.973 196.203 134.96V125.726H198.027V134.884C198.027 135.429 198.16 135.847 198.426 136.138C198.705 136.429 199.098 136.575 199.604 136.575C200.174 136.575 200.649 136.417 201.029 136.1L201.599 137.411C201.321 137.652 200.985 137.829 200.592 137.943C200.212 138.057 199.813 138.114 199.395 138.114ZM194.493 129.431V127.93H200.915V129.431H194.493Z" fill="black"/>
<rect x="0.5" y="125.5" width="19.9693" height="17.5024" fill="white" stroke="#703E94"/>
</svg>
