<svg width="249" height="248" viewBox="0 0 249 248" fill="none" xmlns="http://www.w3.org/2000/svg">
<path opacity="0.45" d="M124.5 247.825C193.259 247.825 249 239.812 249 229.927C249 220.042 193.259 212.029 124.5 212.029C55.7406 212.029 0 220.042 0 229.927C0 239.812 55.7406 247.825 124.5 247.825Z" fill="#E6E6E6"/>
<path d="M45.5038 220.582C45.5038 220.582 43.22 223.831 39.8851 223.219C36.5502 222.608 34.8207 225.56 37.5249 227.194C40.2291 228.828 48.8292 227.118 48.8292 227.118L49.8994 222.34L45.5038 220.582Z" fill="#68E1FD"/>
<path d="M86.6885 35.6616H199.225V229.937H86.6885V35.6616Z" fill="#E6E6E6"/>
<path d="M42.9143 75.4033C42.9143 75.4033 29.3549 80.0665 25.2937 98.9388C21.2326 117.811 16.2159 131.667 25.2937 136.922C34.3716 142.178 46.3161 122.503 46.3161 122.503L42.9143 75.4033Z" fill="#68E1FD"/>
<path opacity="0.2" d="M46.3543 122.503L42.9142 75.4033C42.9142 75.4033 29.3548 80.0665 25.2937 98.9388" fill="white"/>
<path opacity="0.58" d="M170.759 22.79C170.759 22.79 160.553 20.0476 158.336 10.5684C158.336 10.5684 174.113 7.31952 174.581 23.6118L170.759 22.79Z" fill="#68E1FD"/>
<path opacity="0.73" d="M172.001 21.7677C172.001 21.7677 164.834 10.5494 171.045 0C171.045 0 183.085 7.56804 177.811 21.7677H172.001Z" fill="#68E1FD"/>
<path d="M173.836 21.7676C173.836 21.7676 177.553 9.87089 188.914 7.56799C188.914 7.56799 191.074 15.2794 181.604 21.7676H173.836Z" fill="#68E1FD"/>
<path d="M166.449 21.5383L168.57 35.6615H181.585L183.439 21.5383H166.449Z" fill="#24285B"/>
<path d="M99.2236 166.66L106.392 163.496L118 189.791L110.832 192.955L99.2236 166.66Z" fill="white"/>
<path opacity="0.4" d="M99.1108 48.9342H186.239V91.4471H99.1108V48.9342Z" fill="#A5A5A5"/>
<path d="M118.251 113.167H125.628V141.91H118.251V113.167Z" fill="white"/>
<path opacity="0.4" d="M104.366 79.2256C104.366 79.2256 116.569 79.2256 120.391 104.443C124.213 129.66 118.251 178.68 86.6885 216.559V141.901L104.366 79.2256Z" fill="#A5A5A5"/>
<path opacity="0.4" d="M99.1108 99.3879H186.239V141.901H99.1108V99.3879Z" fill="#A5A5A5"/>
<path d="M68.4946 66.1248C68.4946 66.1248 102.895 66.1248 106.994 85.236C111.093 104.347 89.0773 161.442 89.0773 161.442L50.1956 159.77C50.1956 159.77 51.82 138.508 45.9624 121.308C40.1048 104.108 18.2894 73.2915 68.4946 66.1248Z" fill="#68E1FD"/>
<path opacity="0.08" d="M86.6884 87.5581C86.6884 87.5581 75.7664 98.5662 81.28 116.005C86.7935 133.444 48.7909 132.966 48.7909 132.966C48.7909 132.966 49.8325 139.12 50.0713 143.984C50.0713 143.984 66.5452 156.406 92.0587 153.243L93.5876 148.876L100.124 132.813L86.6884 87.5581Z" fill="black"/>
<path d="M45.1025 47.0806C45.1025 47.0806 47.415 54.1135 50.4345 58.0982C50.7307 58.4861 51.1006 58.8116 51.5229 59.0563C51.9453 59.3009 52.4117 59.4597 52.8956 59.5236C53.3794 59.5875 53.8711 59.5553 54.3425 59.4287C54.8138 59.3022 55.2556 59.0838 55.6423 58.7862C57.6394 57.2191 59.885 54.5244 59.1206 50.6161L58.6237 43.8317C58.3823 42.4843 57.7288 41.245 56.7532 40.2848C55.7776 39.3246 54.528 38.6909 53.177 38.471C48.1794 37.3434 43.4972 42.8857 45.1025 47.0806Z" fill="#F4A28C"/>
<path d="M60.0952 47.6061L68.4946 66.1248L57.563 74.2376L55.3748 56.8272L60.0952 47.6061Z" fill="#F4A28C"/>
<path d="M46.9085 46.6504C49.0369 45.8339 51.066 44.7793 52.9572 43.5066C52.7423 44.685 52.8776 45.9005 53.3464 47.0027C53.8151 48.105 54.5968 49.0456 55.5946 49.7082C56.549 50.3701 57.7038 50.6796 58.8613 50.5837C60.0188 50.4878 61.107 49.9925 61.9395 49.1826L58.1173 40.5157C57.6142 39.2576 56.7801 38.1591 55.7035 37.3365C54.6268 36.5139 53.3477 35.9978 52.0017 35.843C50.8344 35.7098 49.66 35.6492 48.4852 35.6615C45.5516 35.7188 42.5894 38.9581 39.6176 38.2224C39.3185 38.1493 39.0055 38.1553 38.7093 38.2396C38.4132 38.3239 38.144 38.4837 37.9282 38.7034C37.7124 38.923 37.5574 39.195 37.4783 39.4926C37.3992 39.7902 37.3988 40.1032 37.4772 40.401C38.2129 43.2677 40.4585 47.1855 44.663 47.09C45.4305 47.0672 46.1891 46.9187 46.9085 46.6504Z" fill="#24285B"/>
<path d="M54.7824 49.823C54.7824 49.823 53.7217 47.1856 55.7379 46.555C57.7541 45.9243 59.3404 49.7179 56.8273 51.199L54.7824 49.823Z" fill="#F4A28C"/>
<path d="M46.7747 51.4187L45.9912 54.8396C45.9472 55.0352 45.9535 55.2388 46.0097 55.4313C46.0658 55.6238 46.1699 55.7989 46.3122 55.9403C46.4544 56.0816 46.6302 56.1845 46.8231 56.2393C47.016 56.2942 47.2196 56.2991 47.4149 56.2538L50.2147 55.6423L46.7747 51.4187Z" fill="#F4A28C"/>
<path opacity="0.31" d="M55.6423 58.786C55.6423 58.786 58.1459 55.346 58.1555 53.1387C58.1555 53.1387 61.519 59.56 56.4163 65.131L55.6423 58.786Z" fill="#CE8172"/>
<path d="M15.8146 90.9789L24.4146 125.379L45.9625 133.654L65.5037 119.006L61.9395 82.6942L40.6592 98.9387L15.8146 90.9789Z" fill="#FFD200"/>
<path d="M40.6591 98.9387L20.9172 83.9651L22.6181 93.1576L40.6591 98.9387Z" fill="#FFD200"/>
<path opacity="0.37" d="M40.6591 98.9387L20.9172 83.9651L22.6181 93.1576L40.6591 98.9387Z" fill="white"/>
<path opacity="0.08" d="M63.8602 102.226C63.8602 102.226 56.9706 118.872 44.2616 122.503C31.5526 126.134 23.2393 120.592 23.2393 120.592L24.4337 125.37L45.9816 133.645L65.5228 118.996L63.8602 102.226Z" fill="black"/>
<path d="M89.8418 81.6527C90.9415 80.4021 92.3408 79.4513 93.9085 78.8895C95.4762 78.3277 97.1609 78.1733 98.8046 78.4407C100.448 78.7081 101.997 79.3887 103.306 80.4184C104.615 81.4482 105.64 82.7936 106.287 84.3282C110.931 95.2694 116.263 114.686 108.303 135.757C96.1198 168.007 48.1029 132.412 48.1029 132.412L55.3174 124.529C55.3174 124.529 80.6111 136.473 90.6731 130.262C99.0152 125.064 77.3717 96.1581 89.8418 81.6527Z" fill="#68E1FD"/>
<path opacity="0.2" d="M89.8418 81.6527C90.9415 80.4021 92.3408 79.4513 93.9085 78.8895C95.4762 78.3277 97.1609 78.1733 98.8046 78.4407C100.448 78.7081 101.997 79.3887 103.306 80.4184C104.615 81.4482 105.64 82.7936 106.287 84.3282C110.931 95.2694 116.263 114.686 108.303 135.757C96.1198 168.007 48.1029 132.412 48.1029 132.412L55.3174 124.529C55.3174 124.529 80.6111 136.473 90.6731 130.262C99.0152 125.064 77.3717 96.1581 89.8418 81.6527Z" fill="white"/>
<path d="M49.0681 131.323C49.0681 131.323 40.6591 129.679 40.0189 122.99C39.3787 116.301 49.2592 126.172 51.0078 122.99C52.7565 119.808 56.0819 119.694 55.2983 124.529L49.0681 131.323Z" fill="#F4A28C"/>
<path d="M38.576 97.3621C38.576 97.3621 41.3854 86.3541 45.9625 85.3985C48.705 84.8252 48.2941 86.8319 47.5297 88.5328C46.8018 90.1082 46.5303 91.8562 46.7461 93.5781L46.8321 94.2279L40.6592 98.9388L38.576 97.3621Z" fill="#F4A28C"/>
<path d="M40.6591 98.9388L55.8716 75.4033L57.6107 86.0005L40.6591 98.9388Z" fill="#FFD200"/>
<path opacity="0.37" d="M40.6591 98.9388L55.8716 75.4033L57.6107 86.0005L40.6591 98.9388Z" fill="white"/>
<path d="M79.6842 206.745C79.6842 206.745 82.6369 209.411 81.5953 212.65C80.5538 215.89 83.3058 217.963 85.2551 215.517C87.2045 213.071 86.5929 204.251 86.5929 204.251L81.9967 202.598L79.6842 206.745Z" fill="#68E1FD"/>
<path d="M46.8894 101.06L47.7016 108.179L59.2448 100.458L58.251 92.8423L46.8894 101.06Z" fill="#E6E6E6"/>
<path d="M49.9089 222.359L43.3442 220.582L61.9395 168.542L54.5052 159.942L89.0774 161.432C88.9052 164.559 88.0738 167.615 86.6377 170.398C85.2017 173.181 83.1935 175.629 80.7449 177.581C77.5203 180.086 74.6131 182.974 72.0875 186.181C63.4464 197.43 56.0127 209.555 49.9089 222.359Z" fill="#24285B"/>
<path d="M178.527 62.4502L186.245 63.8041L181.278 92.115L173.56 90.7611L178.527 62.4502Z" fill="#A5A5A5"/>
<path d="M131.348 62.5161L138.661 63.799L133.695 92.11L126.382 90.827L131.348 62.5161Z" fill="#A5A5A5"/>
<path opacity="0.44" d="M140.315 62.0382L147.722 63.3376L142.755 91.6486L135.348 90.3491L140.315 62.0382Z" fill="#A5A5A5"/>
<path d="M132.718 112.266L140.031 113.549L135.064 141.86L127.751 140.577L132.718 112.266Z" fill="white"/>
<path opacity="0.44" d="M140.317 112.413L147.724 113.712L142.758 142.023L135.351 140.724L140.317 112.413Z" fill="#A5A5A5"/>
<path opacity="0.44" d="M122.654 62.0431L130.061 63.3425L125.095 91.6534L117.688 90.354L122.654 62.0431Z" fill="#A5A5A5"/>
<path d="M147.787 62.7135H156.186V91.4568H147.787V62.7135Z" fill="#A5A5A5"/>
<path d="M157.362 62.7135H164.739V91.4568H157.362V62.7135Z" fill="white"/>
<path opacity="0.4" d="M99.1108 150.539H186.239V193.052H99.1108V150.539Z" fill="#A5A5A5"/>
<path d="M178.527 163.378L186.245 164.732L181.278 193.043L173.56 191.689L178.527 163.378Z" fill="#A5A5A5"/>
<path d="M156.263 164.309H164.662V193.052H156.263V164.309Z" fill="#A5A5A5"/>
<path d="M165.847 164.309H173.224V193.052H165.847V164.309Z" fill="white"/>
<path d="M178.235 112.228L185.952 113.582L180.986 141.893L173.268 140.539L178.235 112.228Z" fill="#A5A5A5"/>
<path d="M147.605 113.167H156.005V141.91H147.605V113.167Z" fill="#A5A5A5"/>
<path d="M157.19 113.167H164.567V141.91H157.19V113.167Z" fill="white"/>
<path d="M99.1108 202.923H186.239V221.145H99.1108V202.923Z" fill="#F2F2F2"/>
<path d="M142.675 213.816C144.258 213.816 145.541 212.533 145.541 210.95C145.541 209.366 144.258 208.083 142.675 208.083C141.092 208.083 139.808 209.366 139.808 210.95C139.808 212.533 141.092 213.816 142.675 213.816Z" fill="#A5A5A5"/>
<path d="M141.27 163.344L148.583 164.626L143.616 192.937L136.303 191.654L141.27 163.344Z" fill="white"/>
<path opacity="0.44" d="M148.869 163.488L156.276 164.787L151.31 193.098L143.903 191.799L148.869 163.488Z" fill="#A5A5A5"/>
<path d="M126.302 163.338L133.615 164.621L128.648 192.932L121.335 191.649L126.302 163.338Z" fill="#A5A5A5"/>
<path opacity="0.44" d="M133.901 163.483L141.308 164.782L136.342 193.093L128.934 191.793L133.901 163.483Z" fill="#A5A5A5"/>
<path d="M50.1956 159.779L49.154 185.14C49.0591 187.496 49.6588 189.829 50.8786 191.847C52.0985 193.865 53.8846 195.48 56.015 196.492L80.2671 208.102L82.6464 202.244L68.5424 192.001C66.7213 190.674 65.3694 188.803 64.6823 186.657C63.9952 184.512 64.0084 182.203 64.7201 180.066L71.1702 160.697L50.1956 159.779Z" fill="#24285B"/>
</svg>
