<svg width="117" height="112" viewBox="0 0 117 112" fill="none" xmlns="http://www.w3.org/2000/svg">
<path d="M58.5 107C52.1309 107 45.8241 105.746 39.9399 103.308C34.0556 100.871 28.709 97.2983 24.2053 92.7947C19.7017 88.291 16.1292 82.9444 13.6918 77.0601C11.2545 71.1758 10 64.8691 10 58.5C10 52.1309 11.2545 45.8241 13.6918 39.9398C16.1292 34.0556 19.7017 28.709 24.2053 24.2053C28.709 19.7017 34.0556 16.1292 39.9399 13.6918C45.8242 11.2545 52.1309 10 58.5 10C64.8691 10 71.1759 11.2545 77.0602 13.6918C82.9444 16.1292 88.291 19.7017 92.7947 24.2053C97.2983 28.709 100.871 34.0556 103.308 39.9399C105.746 45.8241 107 52.1309 107 58.5C107 64.8691 105.746 71.1759 103.308 77.0601C100.871 82.9444 97.2983 88.291 92.7947 92.7947C88.291 97.2983 82.9444 100.871 77.0601 103.308C71.1758 105.746 64.8691 107 58.5 107L58.5 107Z" stroke="#C2CAF2" stroke-width="10"/>
<path d="M26.4047 94.8613C19.2131 88.5135 14.0654 80.1756 11.6125 70.9021C9.15959 61.6286 9.51168 51.836 12.6243 42.7626C15.7368 33.6892 21.4701 25.7426 29.099 19.9276C36.728 14.1126 45.9099 10.6905 55.4838 10.0939C65.0576 9.49734 74.5934 11.7532 82.8852 16.5761C91.1769 21.3991 97.8524 28.5725 102.067 37.1893C106.282 45.8061 107.847 55.4793 106.564 64.9855C105.282 74.4918 101.209 83.4042 94.8609 90.5957" stroke="#703E94" stroke-width="20" stroke-linecap="round"/>
<path d="M32.5 62.95V50.59L34.52 52.51H30.1V48.95H37.22V62.95H32.5ZM45.1394 63.27C43.8994 63.27 42.806 63.09 41.8594 62.73C40.926 62.3567 40.1927 61.8367 39.6594 61.17C39.126 60.49 38.8594 59.6967 38.8594 58.79C38.8594 57.8833 39.1327 57.11 39.6794 56.47C40.226 55.83 40.9727 55.3433 41.9194 55.01C42.866 54.6767 43.9394 54.51 45.1394 54.51C46.3394 54.51 47.4127 54.6767 48.3594 55.01C49.306 55.3433 50.0527 55.83 50.5994 56.47C51.146 57.11 51.4194 57.8833 51.4194 58.79C51.4194 59.6967 51.1527 60.49 50.6194 61.17C50.086 61.8367 49.346 62.3567 48.3994 62.73C47.466 63.09 46.3794 63.27 45.1394 63.27ZM45.1394 60.09C45.5927 60.09 45.9594 59.9633 46.2394 59.71C46.5327 59.4433 46.6794 59.0833 46.6794 58.63C46.6794 58.1767 46.5327 57.8233 46.2394 57.57C45.9594 57.3033 45.5927 57.17 45.1394 57.17C44.686 57.17 44.3127 57.3033 44.0194 57.57C43.7394 57.8233 43.5994 58.1767 43.5994 58.63C43.5994 59.0833 43.7394 59.4433 44.0194 59.71C44.3127 59.9633 44.686 60.09 45.1394 60.09ZM45.1394 56.79C44.046 56.79 43.0594 56.6367 42.1794 56.33C41.3127 56.01 40.626 55.5567 40.1194 54.97C39.6127 54.37 39.3594 53.65 39.3594 52.81C39.3594 51.9567 39.606 51.2233 40.0994 50.61C40.5927 49.9833 41.2727 49.4967 42.1394 49.15C43.006 48.8033 44.006 48.63 45.1394 48.63C46.2727 48.63 47.2727 48.8033 48.1394 49.15C49.006 49.4967 49.686 49.9833 50.1794 50.61C50.6727 51.2233 50.9194 51.9567 50.9194 52.81C50.9194 53.65 50.666 54.37 50.1594 54.97C49.6527 55.5567 48.966 56.01 48.0994 56.33C47.2327 56.6367 46.246 56.79 45.1394 56.79ZM45.1394 54.21C45.4594 54.21 45.726 54.1033 45.9394 53.89C46.1527 53.6767 46.2594 53.3833 46.2594 53.01C46.2594 52.6233 46.1527 52.33 45.9394 52.13C45.726 51.9167 45.4594 51.81 45.1394 51.81C44.8194 51.81 44.5527 51.9167 44.3394 52.13C44.126 52.33 44.0194 52.6233 44.0194 53.01C44.0194 53.3833 44.126 53.6767 44.3394 53.89C44.5527 54.1033 44.8194 54.21 45.1394 54.21ZM51.1141 64.95L57.7141 46.11H61.7141L55.1141 64.95H51.1141ZM61.2827 62.95V60.05L66.3427 55.37C66.6627 55.0633 66.896 54.7967 67.0427 54.57C67.2027 54.3433 67.3093 54.1433 67.3627 53.97C67.416 53.7833 67.4427 53.61 67.4427 53.45C67.4427 53.1033 67.3293 52.8367 67.1027 52.65C66.876 52.45 66.536 52.35 66.0827 52.35C65.6693 52.35 65.276 52.4633 64.9027 52.69C64.5293 52.9033 64.236 53.2233 64.0227 53.65L60.4627 51.87C60.9693 50.91 61.7293 50.13 62.7427 49.53C63.756 48.93 65.016 48.63 66.5227 48.63C67.6293 48.63 68.6093 48.81 69.4627 49.17C70.316 49.53 70.9827 50.0367 71.4627 50.69C71.9427 51.3433 72.1827 52.1167 72.1827 53.01C72.1827 53.4633 72.1227 53.9167 72.0027 54.37C71.896 54.8233 71.6693 55.3033 71.3227 55.81C70.976 56.3033 70.4627 56.8567 69.7827 57.47L65.9827 60.93L65.2427 59.29H72.5027V62.95H61.2827ZM79.8106 63.27C78.5706 63.27 77.4706 62.9833 76.5106 62.41C75.564 61.8367 74.8173 61.0033 74.2706 59.91C73.7373 58.8167 73.4706 57.4967 73.4706 55.95C73.4706 54.4033 73.7373 53.0833 74.2706 51.99C74.8173 50.8967 75.564 50.0633 76.5106 49.49C77.4706 48.9167 78.5706 48.63 79.8106 48.63C81.0506 48.63 82.144 48.9167 83.0906 49.49C84.0506 50.0633 84.7973 50.8967 85.3306 51.99C85.8773 53.0833 86.1506 54.4033 86.1506 55.95C86.1506 57.4967 85.8773 58.8167 85.3306 59.91C84.7973 61.0033 84.0506 61.8367 83.0906 62.41C82.144 62.9833 81.0506 63.27 79.8106 63.27ZM79.8106 59.49C80.1173 59.49 80.3906 59.3833 80.6306 59.17C80.8706 58.9567 81.0573 58.59 81.1906 58.07C81.3373 57.55 81.4106 56.8433 81.4106 55.95C81.4106 55.0433 81.3373 54.3367 81.1906 53.83C81.0573 53.31 80.8706 52.9433 80.6306 52.73C80.3906 52.5167 80.1173 52.41 79.8106 52.41C79.504 52.41 79.2306 52.5167 78.9906 52.73C78.7506 52.9433 78.5573 53.31 78.4106 53.83C78.2773 54.3367 78.2106 55.0433 78.2106 55.95C78.2106 56.8433 78.2773 57.55 78.4106 58.07C78.5573 58.59 78.7506 58.9567 78.9906 59.17C79.2306 59.3833 79.504 59.49 79.8106 59.49Z" fill="#383D54"/>
</svg>
