<svg width="941" height="750" viewBox="0 0 941 750" fill="none" xmlns="http://www.w3.org/2000/svg">
<g clip-path="url(#clip0_290_2)">
<path d="M6.19438 119.033C13.9042 130.866 22.6924 141.868 32.2934 152.239C34.7052 154.829 40.2552 150.699 40.5556 147.992C41.7975 137.298 42.934 126.586 44.1232 115.883L35.815 120.144C39.0271 126.21 42.2431 132.373 46.7541 137.593C48.6068 139.726 50.5123 141.869 53.5993 141.667C56.6863 141.465 60.0183 139.214 61.6523 136.541C63.1818 134.021 63.3843 130.897 63.7959 128.058C64.3061 124.623 64.7271 121.138 65.0331 117.688C65.6508 110.636 65.9943 103.416 65.4529 96.3298C65.1788 92.775 56.9655 96.9341 56.9864 99.9689C57.0129 110.814 56.8341 121.472 55.1876 132.233C55.0038 133.473 54.8335 134.758 54.5212 135.986C54.1505 137.354 53.5609 137.303 56.0303 136.192C59.0873 134.787 57.9045 135.772 57.0433 134.885C55.2914 133.093 53.6611 131.291 52.1842 129.246C49.0147 124.849 46.4749 120.047 43.9418 115.268C43.1362 113.721 40.2095 114.891 39.2116 115.402C37.5868 116.244 35.8595 117.584 35.6337 119.529C34.4445 130.232 33.2255 140.919 32.1121 151.624L40.3742 147.377C30.6227 137.173 21.9323 125.995 14.1669 114.227C12.3667 111.509 4.4537 116.348 6.19438 119.033Z" fill="white"/>
<path d="M88.8733 89.3724C83.0106 96.9298 78.7314 107.316 79.6137 116.999C80.0184 121.505 81.8688 126.086 85.9487 128.489C90.0285 130.892 94.7281 130.569 98.9423 129.447C108.328 126.976 116.912 119.841 121.562 111.474C125.423 104.496 128.872 91.8033 120.46 86.6503C116.013 83.9336 110.234 84.322 105.526 86.0566C99.2712 88.3876 94.2084 93.0681 89.8512 97.9396C88.8602 99.0672 88.0256 101.064 90.0793 101.508C92.1329 101.951 94.6319 100.263 96.0102 98.9244C100.488 94.4628 105.82 88.4931 112.723 92.2538C119.239 95.8051 117.103 105.67 114.485 111.101C113.102 113.949 111.024 116.726 108.768 118.814C106.511 120.901 104.245 122.448 101.491 123.27C98.5231 124.13 95.4082 124.068 92.7742 122.334C89.6742 120.29 88.4606 116.513 88.177 113.011C87.5048 104.38 91.1804 95.5027 96.4057 88.748C97.6411 87.1787 96.3983 85.7588 94.6343 85.8742C92.2846 86.0357 90.2227 87.5971 88.8436 89.3563L88.8733 89.3724Z" fill="white"/>
<path d="M131.139 85.2628C137.387 94.8497 144.173 104.058 151.497 112.889C153.622 115.438 159.365 111.623 160.003 109.214C162.471 99.9694 164 90.503 164.637 80.9737L156.516 85.8723C164.309 90.3641 173.388 109.465 183.55 97.3493C192.823 86.2825 187.664 71.411 191.162 58.63C191.726 56.563 189.48 56.3978 188.01 56.7494C185.959 57.2447 183.653 58.8272 182.871 60.8337C180.397 67.2614 180.944 74.1981 180.831 80.9304C180.719 86.6488 180.138 93.1461 175.982 97.5144L182.222 94.7922C178.188 94.1559 175.422 91.1254 172.893 88.2237C170.211 85.1438 167.572 81.9527 163.965 79.8827C161.227 78.3026 156.036 81.957 155.845 84.7812C155.242 93.831 153.756 102.766 151.42 111.527L159.926 107.851C152.609 99.0438 145.823 89.8351 139.568 80.2254C137.698 77.3555 129.289 82.4612 131.13 85.315L131.139 85.2628Z" fill="white"/>
<path d="M206.746 41.7796L209.507 67.2345C210.408 75.6261 210.758 84.3505 212.446 92.6133C213.191 96.3281 220.998 91.8912 220.935 88.9675C220.758 80.4898 219.243 71.8803 218.328 63.4431L215.567 37.9882C215.167 34.3462 206.408 38.5153 206.746 41.7796Z" fill="white"/>
<path d="M219.911 119.202C221.042 118.801 222.062 118.11 223.006 117.416C223.599 116.972 224.149 116.467 224.61 115.913C225.46 114.9 226.224 113.764 226.51 112.446C226.712 111.522 226.831 110.572 226.586 109.655C226.431 109.131 226.293 108.577 226.03 108.11C225.767 107.642 225.327 107.25 224.917 106.875L224.198 106.638C223.7 106.56 223.229 106.572 222.746 106.712C221.723 106.885 220.791 107.279 219.898 107.809C216.555 109.767 213.516 113.267 213.553 117.287C213.554 118.053 214.251 118.469 214.914 118.598C215.381 118.66 215.852 118.648 216.319 118.537C216.875 118.475 217.427 118.315 217.93 118.071C219.033 117.578 220.158 116.906 220.936 115.988L221.574 115.186C221.887 114.724 222.065 114.227 222.072 113.657C222.094 113.477 222.116 113.298 222.138 113.119L222.027 113.843C222.138 113.119 222.378 112.406 222.706 111.743L222.319 112.547C222.517 112.119 222.775 111.723 223.07 111.365L222.416 112.198C222.655 111.906 222.893 111.614 223.191 111.355L222.31 112.179C222.546 111.962 222.789 111.768 223.054 111.568L221.979 112.324C222.143 112.202 222.313 112.104 222.507 111.998L216.998 112.457C217.452 112.894 217.758 113.423 217.932 114.015L217.738 113.355C217.912 113.947 217.949 114.579 217.85 115.176L217.978 114.423C217.908 114.863 217.762 115.301 217.587 115.722L217.99 114.889C217.867 115.147 217.713 115.389 217.553 115.609L218.223 114.747C218.096 114.908 217.945 115.075 217.788 115.219L218.669 114.395C218.551 114.504 218.433 114.612 218.285 114.704L219.384 113.941C219.259 114.027 219.151 114.083 219.026 114.168L220.218 113.551C220.064 113.621 219.909 113.69 219.755 113.759C219.131 114.014 218.557 114.354 218.026 114.755C217.497 115.081 217.019 115.491 216.584 115.963C216.191 116.325 215.917 116.75 215.709 117.231C215.49 117.591 215.384 117.992 215.383 118.413L215.578 119.073C215.88 119.505 216.296 119.73 216.817 119.802C217.911 119.955 218.956 119.603 219.971 119.235L219.911 119.202Z" fill="white"/>
</g>
<path opacity="0.18" d="M718.534 40.6545C697.483 33.0051 678.288 20.9292 657.339 13.0962C628.903 2.48909 598.183 -0.0403138 567.749 0.000482957C469.612 0.000482957 369.497 27.3547 292.799 88.5703C262.242 112.906 234.786 142.871 198.212 156.436C169.267 167.206 135.242 167.471 111.825 187.604C85.6333 210.043 82.3899 249.187 84.7357 283.66C87.0816 318.134 92.6911 354.545 77.9635 385.795C69.3146 404.154 54.4849 418.657 42.3275 434.894C25.8511 456.934 14.2905 482.25 8.4249 509.136C2.55926 536.022 2.52484 563.852 8.32395 590.753C14.1231 617.653 25.621 642.997 42.0428 665.078C58.4646 687.159 79.4289 705.464 103.523 718.758C151.683 745.276 208.778 750.09 263.793 749.172C314.014 748.335 366.539 742.44 408.213 714.393C435.057 696.299 456.149 669.781 485.299 655.706C520.445 638.776 561.446 642.488 600.468 642.243C646.691 641.917 694.056 635.063 734.383 612.462C774.711 589.86 807.002 549.41 810.673 503.351C813.468 468 799.903 431.141 811.754 397.748C816.262 385.04 824.197 373.842 832.703 363.398C863.995 324.824 905.424 292.88 925.19 247.188C935.899 222.465 939.469 195.233 940.733 168.328C942.284 134.446 937.714 95.4037 909.911 75.9437C884.699 58.2991 853.653 66.4584 825.238 62.3787C790.316 57.2995 751.804 52.6895 718.534 40.6545Z" fill="#E6E6E6"/>
<path d="M347.385 390.793C347.385 390.793 257.143 368.66 196.682 418.881C136.221 469.102 205.208 447.847 227.279 454.66C249.35 461.473 282.62 474.242 282.62 474.242C282.62 474.242 374.637 430.773 347.385 390.793Z" fill="#3E3E54"/>
<path d="M347.385 390.793C347.385 390.793 257.143 368.66 196.682 418.881C136.221 469.102 205.208 447.847 227.279 454.66C249.35 461.473 282.62 474.242 282.62 474.242C282.62 474.242 374.637 430.773 347.385 390.793Z" fill="url(#paint0_linear_290_2)"/>
<path d="M315.768 534.071C315.768 534.071 372.536 496.619 407.724 507.961L437.24 517.038C437.24 517.038 419.085 631.718 318.032 641.937C318.032 641.937 296.471 644.202 320.316 604.466C344.162 564.73 315.768 534.071 315.768 534.071Z" fill="#3E3E54"/>
<path d="M315.768 534.071C315.768 534.071 372.536 496.619 407.724 507.961L437.24 517.038C437.24 517.038 419.085 631.718 318.032 641.937C318.032 641.937 296.471 644.202 320.316 604.466C344.162 564.73 315.768 534.071 315.768 534.071Z" fill="url(#paint1_linear_290_2)"/>
<path d="M473.876 160.413C477.938 162.574 482.306 164.101 486.829 164.942C493.499 165.819 500.129 163.697 506.595 161.882C514.125 159.777 521.757 158.055 529.462 156.721C533.704 156.007 538.661 155.62 541.701 158.761C544.74 161.902 544.128 167.328 541.476 170.817C538.824 174.305 534.724 176.304 530.767 178.201L507.554 189.277C503.582 191.325 499.43 193.005 495.151 194.295C477.466 199.068 459.108 190.215 443.707 180.363C437.771 176.528 431.345 171.469 431.101 164.411C431.177 161.611 431.757 158.847 432.814 156.252C433.641 153.033 435.317 150.095 437.669 147.746C444.686 141.688 466.798 157.088 473.876 160.413Z" fill="#68E1FD"/>
<path d="M473.386 160.658C477.448 162.819 481.816 164.346 486.339 165.187C493.009 166.064 499.639 163.942 506.105 162.127C513.66 160.016 521.32 158.3 529.053 156.986C533.276 156.252 538.253 155.864 541.292 159.026C544.332 162.188 543.72 167.573 541.068 171.061C538.416 174.549 534.316 176.548 530.359 178.446L507.145 189.522C503.174 191.57 499.022 193.25 494.743 194.54C477.058 199.313 458.699 190.46 443.299 180.608C437.363 176.793 430.937 171.714 430.692 164.656C430.754 161.854 431.335 159.087 432.406 156.497C433.199 153.318 434.817 150.405 437.097 148.052C444.196 141.932 466.226 157.354 473.386 160.658Z" fill="url(#paint2_linear_290_2)"/>
<path d="M520.016 246.556C513.427 256.755 504.962 265.751 496.558 274.583C488.154 283.416 479.75 292.105 468.571 296.246C463.064 298.286 456.536 298.98 451.518 295.879C446.072 292.534 443.828 285.374 444.848 279.05C446.213 272.749 449.348 266.967 453.885 262.385C457.364 258.091 461.228 254.124 465.43 250.533C470.04 247.025 474.936 247.208 480.953 246.78C493.955 245.839 507.005 245.764 520.016 246.556Z" fill="#3E3E54"/>
<path d="M520.016 246.556C513.427 256.755 504.962 265.751 496.558 274.583C488.154 283.416 479.75 292.105 468.571 296.246C463.064 298.286 456.536 298.98 451.518 295.879C446.072 292.534 443.828 285.374 444.848 279.05C446.213 272.749 449.348 266.967 453.885 262.385C457.364 258.091 461.228 254.124 465.43 250.533C470.04 247.025 474.936 247.208 480.953 246.78C493.955 245.839 507.005 245.764 520.016 246.556Z" fill="url(#paint3_linear_290_2)"/>
<path d="M867.013 155.191C866.202 160.121 865.126 165.003 863.79 169.817C856.724 195.048 846.714 219.359 833.968 242.252C805.573 294.329 753.557 362.602 659.235 425.837C511.143 525.504 381.165 542.108 333.208 544.617C320.52 545.331 313.564 545.066 313.564 545.066L270.136 477.751C270.136 477.751 319.092 404.868 407.458 328.435C448.211 292.967 492.434 261.694 539.456 235.092C567.597 219.237 596.732 205.214 626.68 193.112C667.779 176.259 710.659 164.125 754.496 156.946C825.503 145.89 867.013 155.191 867.013 155.191Z" fill="#68E1FD"/>
<path d="M518.956 264.567C516.916 268.341 523.26 280.376 526.727 282.926C530.195 285.476 534.438 287.006 536.927 290.555C537.427 291.173 537.783 291.894 537.97 292.667C538.157 293.44 538.17 294.244 538.008 295.022C537.355 297.307 534.744 298.327 532.48 299.102L471.611 317.828C469.925 318.184 468.363 318.979 467.083 320.133C464.635 322.744 465.859 327.313 468.653 329.495C471.681 331.44 475.267 332.329 478.852 332.025C498.537 332.025 520.159 323.865 536.641 334.554C541.328 337.904 545.394 342.045 548.656 346.793C560.279 362.214 569.179 379.51 574.97 397.932C576.744 403.603 578.213 409.783 576.173 415.373C566.541 411.436 558.262 404.78 552.348 396.219C544.964 385.448 541.169 371.618 530.42 364.234C522.566 358.828 512.408 358.114 502.902 358.91C493.397 359.705 484.034 362.092 474.508 362.214C453.293 362.48 433.711 352.015 415.026 341.816C411.13 339.776 406.703 336.737 406.622 332.29C406.613 331.068 406.907 329.862 407.479 328.782C448.231 293.313 492.454 262.041 539.476 235.439C567.617 219.583 596.753 205.561 626.7 193.459C634.778 204.943 519.833 262.997 518.956 264.567Z" fill="url(#paint4_linear_290_2)"/>
<path d="M866.259 155.926C866.259 155.926 861.22 191.623 833.213 242.986C824.206 240.164 815.355 236.869 806.695 233.113C771.161 217.896 756.515 168.144 753.823 157.823C824.748 146.644 866.259 155.926 866.259 155.926Z" fill="url(#paint5_linear_290_2)"/>
<path opacity="0.31" d="M697.238 287.291C715.939 287.291 731.1 272.131 731.1 253.43C731.1 234.729 715.939 219.569 697.238 219.569C678.537 219.569 663.377 234.729 663.377 253.43C663.377 272.131 678.537 287.291 697.238 287.291Z" fill="#3E3E54"/>
<path opacity="0.31" d="M607.832 339.226C626.533 339.226 641.693 324.065 641.693 305.364C641.693 286.663 626.533 271.503 607.832 271.503C589.131 271.503 573.971 286.663 573.971 305.364C573.971 324.065 589.131 339.226 607.832 339.226Z" fill="#3E3E54"/>
<path opacity="0.31" d="M509.92 405.643C528.621 405.643 543.781 390.482 543.781 371.781C543.781 353.08 528.621 337.92 509.92 337.92C491.219 337.92 476.059 353.08 476.059 371.781C476.059 390.482 491.219 405.643 509.92 405.643Z" fill="#3E3E54"/>
<path d="M277.521 455.435L334.29 546.249L303.631 557.611L257.082 479.281L277.521 455.435Z" fill="#3E3E54"/>
<path d="M443.788 347.12C470.611 353.606 498.598 346.61 525.667 341.204C528.448 340.408 531.39 340.366 534.193 341.082C537.396 342.204 539.538 345.161 541.414 347.997C550.767 362.203 558.557 377.38 564.648 393.261C568.32 402.828 571.767 413.231 579.926 419.432C588.086 425.633 602.65 424.246 605.608 414.434C591.676 375.249 574.521 337.308 557.386 299.408C555.836 295.981 554.122 292.35 550.94 290.331C548.154 288.86 545.054 288.083 541.904 288.066L445.297 279.723C423.593 277.847 390.956 274.971 398.238 305.16C403.256 326.211 423.389 342.183 443.788 347.12Z" fill="#3E3E54"/>
<path d="M443.788 347.12C470.611 353.606 498.598 346.61 525.667 341.204C528.448 340.408 531.39 340.366 534.193 341.082C537.396 342.204 539.538 345.161 541.414 347.997C550.767 362.203 558.557 377.38 564.648 393.261C568.32 402.828 571.767 413.231 579.926 419.432C588.086 425.633 602.65 424.246 605.608 414.434C591.676 375.249 574.521 337.308 557.386 299.408C555.836 295.981 554.122 292.35 550.94 290.331C548.154 288.86 545.054 288.083 541.904 288.066L445.297 279.723C423.593 277.847 390.956 274.971 398.238 305.16C403.256 326.211 423.389 342.183 443.788 347.12Z" fill="url(#paint6_linear_290_2)"/>
<path d="M468.022 263.609C468.022 270.197 468.022 277.01 465.064 282.926C461.29 290.677 453.151 295.553 444.665 297.531C441.979 298.135 439.252 298.537 436.506 298.735C430.65 298.993 424.782 298.863 418.943 298.347C407.744 297.613 395.036 296.083 388.346 287.067C383.654 280.723 383.246 272.278 383.062 264.384C382.573 242.802 382.471 221.221 382.308 199.639C382.308 187.298 377.31 170.653 379.064 158.843C379.657 153.967 381.556 149.341 384.562 145.456C387.567 141.571 391.567 138.57 396.138 136.772C412.681 129.693 436.71 134.895 448.439 148.378C457.843 159.149 461.474 173.734 463.677 187.87C467.695 212.817 468.001 238.274 468.022 263.609Z" fill="#68E1FD"/>
<path d="M431.222 222.486C432.283 238.804 432.854 255.123 432.935 271.442C432.806 275.939 433.024 280.441 433.588 284.905C434.139 288.311 436.321 291.453 436.709 294.675C436.877 296.034 436.836 297.409 436.587 298.755C430.73 299.013 424.863 298.884 419.024 298.368C407.825 297.633 395.117 296.103 388.426 287.087C383.734 280.743 383.326 272.298 383.143 264.404C382.653 242.823 382.551 221.241 382.388 199.66C382.388 187.319 377.391 170.674 379.145 158.863C379.737 153.987 381.637 149.362 384.642 145.477C387.648 141.591 391.647 138.591 396.218 136.792C397.529 137.222 398.799 137.768 400.012 138.424C407.172 142.218 412.578 148.623 417.514 155.069C420.09 158.276 422.281 161.775 424.042 165.493C425.909 170.367 427.063 175.485 427.469 180.689C428.733 191.398 429.753 202.148 430.59 212.919C431.038 218.671 429.508 222.302 435.71 223.404C440.983 224.325 446.312 224.89 451.661 225.097C457.107 225.341 463.553 224.709 466.429 220.079C467.387 218.29 467.81 216.264 467.647 214.242C467.484 212.22 466.743 210.288 465.512 208.676C462.98 205.492 459.546 203.146 455.659 201.944C451.865 200.557 447.867 199.782 444.032 198.497C440.137 197.307 436.541 195.297 433.486 192.602C430.41 189.881 428.472 186.101 428.06 182.015" fill="url(#paint7_linear_290_2)"/>
<path d="M406.785 133.345C406.569 135.304 406.652 137.285 407.03 139.219C408.233 144.013 412.803 147.154 417.331 149.133C420.126 150.357 423.859 151.173 425.878 148.827C427.449 147.012 427.061 144.278 426.572 141.912L423.879 129.041C423.385 126.16 422.599 123.337 421.533 120.616C420.35 117.862 412.538 106.643 408.58 109.499C406.928 110.682 407.622 118.76 407.52 120.779L406.785 133.345Z" fill="url(#paint8_linear_290_2)"/>
<path d="M407.193 109.866C408.308 115.186 410.734 120.143 414.251 124.288C417.818 128.443 422.854 131.06 428.305 131.59C430.292 131.822 432.303 131.43 434.057 130.469C436.212 128.781 437.788 126.463 438.565 123.839C443.196 112.6 447.888 100.238 444.379 88.5703C443.498 84.9381 441.227 81.7963 438.056 79.8194C434.659 78.3686 430.861 78.1591 427.326 79.2278C421.206 80.6149 412.027 83.7971 408.07 89.0191C404.113 94.241 405.846 104.134 407.193 109.866Z" fill="url(#paint9_linear_290_2)"/>
<path d="M429.651 59.217C425.168 57.2037 420.232 56.4094 415.343 56.9144C410.454 57.4194 405.785 59.2058 401.808 62.0931C396.667 65.9484 392.995 71.4968 387.753 75.1889C382.817 78.677 376.84 80.2681 371.312 82.7159C370.639 83.0015 369.884 83.4298 369.762 84.1438C369.558 85.2453 370.843 85.9592 371.353 86.9588C372.128 88.4886 370.884 90.2429 369.721 91.528L363.071 98.7898C362.255 99.4988 361.702 100.462 361.5 101.523C361.276 104.318 365.233 105.113 368.028 104.869L377.248 104.053C371.827 107.699 367.137 112.328 363.418 117.699C365.458 119.861 369.231 118.841 371.74 117.189C374.249 115.537 376.636 113.109 379.614 113.273C375.147 120.473 389.14 120.188 393.322 120.086C396.875 119.865 400.346 118.921 403.521 117.312C405.045 116.719 406.433 115.824 407.601 114.68C408.187 114.11 408.625 113.404 408.874 112.625C409.123 111.846 409.176 111.018 409.029 110.213C408.796 109.509 408.502 108.826 408.151 108.173C407.568 106.889 407.276 105.491 407.297 104.08C407.318 102.669 407.652 101.28 408.274 100.014C408.478 99.6262 408.743 99.1978 409.192 99.1366C409.556 99.124 409.913 99.2476 410.191 99.4834L413.271 101.523C413.105 97.3837 414.581 93.3462 417.378 90.2898C420.174 87.2334 424.065 85.4056 428.203 85.2045C434.567 84.8577 446.215 87.9991 444.685 77.6163C443.461 69.8241 436.607 62.3787 429.651 59.217Z" fill="#3E3E54"/>
<path d="M439.85 85.1026C441.055 84.5502 442.074 83.6603 442.784 82.5406C443.493 81.4209 443.863 80.1194 443.848 78.7939C443.833 77.4684 443.434 76.1757 442.699 75.0724C441.964 73.9692 440.925 73.1027 439.708 72.578C436.768 71.0083 433.444 70.3012 430.12 70.5381C424.536 70.4134 418.996 71.5646 413.924 73.9039C406.989 77.3716 401.971 83.7563 395.565 88.1827C390.134 91.6 384.17 94.0887 377.921 95.5465C375.046 96.0307 372.323 97.1759 369.965 98.8919C369.598 99.2387 369.231 99.7078 369.394 100.177C369.512 100.391 369.68 100.573 369.884 100.707C370.668 101.244 371.559 101.603 372.496 101.762C373.433 101.92 374.393 101.874 375.31 101.625C376.371 101.34 377.35 100.769 378.329 100.401C381.39 99.6469 384.589 99.6469 387.651 100.401C391.943 101.226 396.362 101.108 400.604 100.055C404.165 98.6985 407.582 96.9901 410.803 94.955C412.071 94.3371 413.473 94.0427 414.883 94.0983C413.805 96.3866 413.267 98.8922 413.312 101.421L410.232 99.3814C410.074 99.2603 409.893 99.1725 409.7 99.1234C409.507 99.0744 409.307 99.065 409.11 99.0959C408.682 99.0959 408.396 99.5854 408.192 99.973C407.575 101.241 407.245 102.629 407.224 104.039C407.203 105.449 407.491 106.846 408.07 108.132C408.423 108.782 408.709 109.465 408.926 110.172C409.09 110.973 409.049 111.803 408.806 112.584C408.564 113.365 408.128 114.072 407.539 114.639C406.355 115.768 404.972 116.667 403.46 117.291C400.279 118.884 396.81 119.82 393.26 120.045C389.181 120.045 375.126 120.433 379.573 113.232C376.595 113.232 374.066 115.619 371.699 117.148C369.333 118.678 365.58 119.8 363.377 117.658C367.09 112.282 371.782 107.653 377.207 104.012L367.987 104.828C365.172 105.073 361.235 104.277 361.459 101.482C361.662 100.426 362.207 99.4651 363.01 98.7491L369.68 91.4873C370.843 90.2022 372.087 88.4479 371.312 86.918C370.802 85.9185 369.517 85.1842 369.721 84.1031C369.843 83.3687 370.598 82.9607 371.271 82.6548C376.779 80.2274 382.776 78.5751 387.712 75.1686C392.975 71.4765 396.647 65.8873 401.767 62.0728C405.739 59.1745 410.407 57.3797 415.298 56.8709C420.189 56.3621 425.127 57.1575 429.61 59.1762C436.546 62.4196 443.42 69.7834 444.562 77.5348C445.317 82.5732 443.094 84.4498 439.85 85.1026Z" fill="url(#paint10_linear_290_2)"/>
<path d="M555.142 147.236C560.915 145.91 567.646 147.236 571.298 151.928C571.76 152.452 572.046 153.109 572.113 153.804C572.133 153.963 572.121 154.124 572.076 154.278C572.032 154.431 571.957 154.574 571.856 154.698C571.755 154.822 571.63 154.924 571.489 154.999C571.347 155.073 571.192 155.118 571.032 155.13H566.769C563.871 156.91 561.188 159.018 558.773 161.413C555.258 164.281 551.089 166.236 546.636 167.104C540.72 168.267 533.377 164.248 537.967 157.823C541.557 152.784 549.226 148.603 555.142 147.236Z" fill="url(#paint11_linear_290_2)"/>
<path d="M544.901 199.803C545.848 200.258 546.675 200.929 547.316 201.761C547.958 202.594 548.395 203.565 548.594 204.596C548.625 204.94 548.562 205.286 548.41 205.596C547.859 206.534 546.493 206.31 545.411 206.126C538.374 204.861 531.683 210.349 524.523 210.206C521.247 210.121 518.132 208.768 515.834 206.432C513.794 204.25 511.754 200.129 512.896 197.069C514.1 193.561 518.18 193.5 521.362 193.398C529.677 193.09 537.889 195.324 544.901 199.803Z" fill="url(#paint12_linear_290_2)"/>
<path d="M591.472 123.329L619.214 102.339C619.214 102.339 626.027 100.055 628.312 102.91C630.596 105.766 628.026 192.786 628.026 192.786L593.675 208.961L591.472 123.329Z" fill="#68E1FD"/>
<path d="M591.88 123.574L619.683 102.584C619.683 102.584 626.496 100.299 628.781 103.155C631.065 106.011 628.087 192.908 628.087 192.908L594.144 209.227L591.88 123.574Z" fill="url(#paint13_linear_290_2)"/>
<path d="M600.1 123.166L628.781 103.176C628.781 103.176 623.661 99.4834 619.683 102.604C615.705 105.725 591.88 123.574 591.88 123.574L600.1 123.166Z" fill="url(#paint14_linear_290_2)"/>
<path d="M590.411 432.528C590.635 433.08 590.96 433.585 591.369 434.017C591.884 434.444 592.492 434.745 593.144 434.894C594.816 435.359 596.569 435.454 598.281 435.172C599.993 434.89 601.623 434.238 603.058 433.262C604.249 432.504 605.181 431.401 605.73 430.1C606.246 428.07 606.111 425.929 605.342 423.981L603.649 418.106C603.637 418.023 603.601 417.945 603.547 417.882C603.404 417.882 603.221 417.882 603.078 417.882C598.162 420.819 592.369 417.882 587.677 419.921C583.72 421.839 588.962 429.55 590.411 432.528Z" fill="url(#paint15_linear_290_2)"/>
<path d="M596.122 432.12C594.469 432.221 592.826 432.446 591.206 432.793C590.401 432.99 589.66 433.389 589.053 433.953C588.446 434.517 587.994 435.227 587.739 436.016C587.6 437.569 588.012 439.121 588.901 440.402C590.085 442.584 591.268 444.767 592.532 446.909C593.213 448.344 594.298 449.549 595.653 450.376C597.028 450.924 598.537 451.038 599.978 450.703C604.313 449.871 608.528 448.501 612.523 446.623C620.682 443.183 628.78 439.504 636.817 435.588C638.143 434.935 639.612 434.099 639.877 432.65C639.945 432.145 639.889 431.63 639.715 431.151C639.541 430.671 639.254 430.241 638.877 429.896C638.112 429.221 637.226 428.695 636.266 428.346C630.539 426.152 624.517 424.825 618.397 424.409C616.235 424.185 612.604 423.165 610.585 424.144C608.565 425.123 606.628 427.53 604.465 428.836C601.948 430.508 599.104 431.628 596.122 432.12Z" fill="#3E3E54"/>
<path d="M513.53 208.859C509.977 211.007 506.019 212.396 501.903 212.939L479.771 217.406C474.912 218.63 469.908 219.179 464.9 219.038C460.354 218.542 455.894 217.437 451.641 215.754C434.466 209.635 407.234 202.434 394.057 189.093C384.082 178.894 386.53 158.7 399.421 153.641C401.875 152.691 404.509 152.301 407.132 152.499C418.066 153.192 425.491 163.249 433.895 170.327C451.927 185.707 477.098 188.38 500.801 190.134H501.291H502.882C509.002 190.583 516.549 192.174 518.222 198.028C519.262 202.169 516.936 206.473 513.53 208.859Z" fill="#68E1FD"/>
<path d="M533.684 242.374L594.144 209.247L600.101 123.248C600.101 123.248 590.922 119.453 590.167 128.164C589.412 136.874 582.987 202.332 582.987 202.332L530.767 229.951C530.767 229.951 522.995 237.805 533.684 242.374Z" fill="#68E1FD"/>
<path d="M302.202 553.755C286.534 577.88 263.049 595.885 235.683 604.751L246.086 582.435C233.032 598.591 219.875 614.828 204.413 628.719C188.951 642.611 170.898 654.136 150.785 659.317C148.745 656.359 150.928 652.402 153.09 649.526C167.405 630.471 183.297 612.655 200.598 596.266C160.76 619.458 120.759 642.733 77.9019 659.704C105.456 621.471 138.441 587.463 175.814 558.753L149.541 565.525C180.442 529.623 217.683 499.71 259.407 477.282C276.521 500.719 290.167 527.462 302.202 553.755Z" fill="#68E1FD"/>
<path d="M302.202 553.755C286.534 577.88 263.049 595.885 235.683 604.751L246.086 582.435C233.032 598.591 219.875 614.828 204.413 628.719C188.951 642.611 170.898 654.136 150.785 659.317C148.745 656.359 150.928 652.402 153.09 649.526C167.405 630.471 183.297 612.655 200.598 596.266C160.76 619.458 120.759 642.733 77.9019 659.704C105.456 621.471 138.441 587.463 175.814 558.753L149.541 565.525C180.442 529.623 217.683 499.71 259.407 477.282C276.521 500.719 290.167 527.462 302.202 553.755Z" fill="url(#paint16_linear_290_2)"/>
<path d="M219.405 531.807C218.446 533.133 217.487 534.907 218.324 536.315C218.967 537.117 219.868 537.672 220.874 537.885L228.727 540.476C218.612 549.374 209.288 559.134 200.863 569.646C199.455 571.4 198.089 574.072 199.7 575.643C200.464 576.27 201.424 576.609 202.413 576.601C213.326 577.581 223.505 571.543 232.807 565.75C231.117 571.894 228.187 577.628 224.199 582.599C234.724 580.559 244.25 575.112 252.756 568.768C261.262 562.425 269.279 555.163 278.05 549.023L275.154 556.57C280.522 553.037 285.15 548.492 288.78 543.189C289.655 542.239 290.206 541.037 290.357 539.755C290.507 538.473 290.248 537.176 289.616 536.049C285.241 524.196 278.979 513.126 271.074 503.269C269.716 501.365 267.98 499.761 265.974 498.557C259.569 495.192 246.208 506.145 241.068 509.919C232.744 516.034 225.433 523.42 219.405 531.807Z" fill="#68E1FD"/>
<path d="M219.405 531.807C218.446 533.133 217.487 534.907 218.324 536.315C218.967 537.117 219.868 537.672 220.874 537.885L228.727 540.476C218.612 549.374 209.288 559.134 200.863 569.646C199.455 571.4 198.089 574.072 199.7 575.643C200.464 576.27 201.424 576.609 202.413 576.601C213.326 577.581 223.505 571.543 232.807 565.75C231.117 571.894 228.187 577.628 224.199 582.599C234.724 580.559 244.25 575.112 252.756 568.768C261.262 562.425 269.279 555.163 278.05 549.023L275.154 556.57C280.522 553.037 285.15 548.492 288.78 543.189C289.655 542.239 290.206 541.037 290.357 539.755C290.507 538.473 290.248 537.176 289.616 536.049C285.241 524.196 278.979 513.126 271.074 503.269C269.716 501.365 267.98 499.761 265.974 498.557C259.569 495.192 246.208 506.145 241.068 509.919C232.744 516.034 225.433 523.42 219.405 531.807Z" fill="url(#paint17_linear_290_2)"/>
<path d="M509.878 197.926C508.653 198.405 507.334 198.594 506.023 198.477C492.397 198.477 478.669 198.273 465.226 195.886C451.784 193.5 438.525 188.726 427.918 180.179C420.432 174.06 414.516 166.492 407.009 160.536C404.97 158.843 399.666 156.721 399.401 153.641C401.854 152.691 404.488 152.301 407.111 152.499C418.045 153.192 425.47 163.249 433.874 170.327C451.906 185.707 477.078 188.38 500.781 190.134H501.27C504.27 190.383 507.183 191.266 509.817 192.724C510.634 193.121 511.268 193.814 511.592 194.662C511.726 195.32 511.628 196.004 511.316 196.599C511.004 197.194 510.496 197.662 509.878 197.926Z" fill="url(#paint18_linear_290_2)"/>
<path d="M866.278 155.905L863.769 169.817C856.73 195.054 846.726 219.368 833.967 242.252C805.552 294.329 753.556 362.5 659.255 425.837C511.142 525.504 381.163 542.108 333.207 544.637L316.888 521.975C691.974 411.232 780.584 234.011 790.906 232.542C801.227 231.073 832.274 155.762 832.274 155.762L866.278 155.905Z" fill="url(#paint19_linear_290_2)"/>
<defs>
<linearGradient id="paint0_linear_290_2" x1="172.449" y1="430.039" x2="352.444" y2="430.039" gradientUnits="userSpaceOnUse">
<stop stop-opacity="0"/>
<stop offset="0.99"/>
</linearGradient>
<linearGradient id="paint1_linear_290_2" x1="309.097" y1="573.888" x2="437.24" y2="573.888" gradientUnits="userSpaceOnUse">
<stop stop-opacity="0"/>
<stop offset="0.99"/>
</linearGradient>
<linearGradient id="paint2_linear_290_2" x1="518.956" y1="121.881" x2="382.348" y2="293.186" gradientUnits="userSpaceOnUse">
<stop stop-opacity="0"/>
<stop offset="0.99"/>
</linearGradient>
<linearGradient id="paint3_linear_290_2" x1="459.719" y1="244.088" x2="496.15" y2="282.477" gradientUnits="userSpaceOnUse">
<stop stop-opacity="0"/>
<stop offset="0.99"/>
</linearGradient>
<linearGradient id="paint4_linear_290_2" x1="432.711" y1="188.747" x2="667.721" y2="400.094" gradientUnits="userSpaceOnUse">
<stop stop-opacity="0"/>
<stop offset="0.99"/>
</linearGradient>
<linearGradient id="paint5_linear_290_2" x1="803.921" y1="169.083" x2="879.722" y2="232.093" gradientUnits="userSpaceOnUse">
<stop stop-opacity="0"/>
<stop offset="0.99"/>
</linearGradient>
<linearGradient id="paint6_linear_290_2" x1="397.157" y1="350.914" x2="605.567" y2="350.914" gradientUnits="userSpaceOnUse">
<stop stop-opacity="0"/>
<stop offset="0.99"/>
</linearGradient>
<linearGradient id="paint7_linear_290_2" x1="551.491" y1="203.046" x2="49.6293" y2="257.571" gradientUnits="userSpaceOnUse">
<stop stop-opacity="0"/>
<stop offset="0.99"/>
</linearGradient>
<linearGradient id="paint8_linear_290_2" x1="406.683" y1="129.673" x2="427" y2="129.673" gradientUnits="userSpaceOnUse">
<stop stop-color="#E5C5D5"/>
<stop offset="0.42" stop-color="#EAD4D1"/>
<stop offset="1" stop-color="#F0E9CB"/>
</linearGradient>
<linearGradient id="paint9_linear_290_2" x1="405.683" y1="105.113" x2="445.603" y2="105.113" gradientUnits="userSpaceOnUse">
<stop stop-color="#E5C5D5"/>
<stop offset="0.42" stop-color="#EAD4D1"/>
<stop offset="1" stop-color="#F0E9CB"/>
</linearGradient>
<linearGradient id="paint10_linear_290_2" x1="406.397" y1="55.2801" x2="400.726" y2="116.536" gradientUnits="userSpaceOnUse">
<stop stop-opacity="0"/>
<stop offset="0.99"/>
</linearGradient>
<linearGradient id="paint11_linear_290_2" x1="536.539" y1="157.027" x2="572.113" y2="157.027" gradientUnits="userSpaceOnUse">
<stop stop-color="#E5C5D5"/>
<stop offset="0.42" stop-color="#EAD4D1"/>
<stop offset="1" stop-color="#F0E9CB"/>
</linearGradient>
<linearGradient id="paint12_linear_290_2" x1="514.137" y1="194.586" x2="545.334" y2="211.342" gradientUnits="userSpaceOnUse">
<stop stop-color="#E5C5D5"/>
<stop offset="0.42" stop-color="#EAD4D1"/>
<stop offset="1" stop-color="#F0E9CB"/>
</linearGradient>
<linearGradient id="paint13_linear_290_2" x1="611.32" y1="97.1171" x2="608.362" y2="254.633" gradientUnits="userSpaceOnUse">
<stop stop-opacity="0"/>
<stop offset="0.99"/>
</linearGradient>
<linearGradient id="paint14_linear_290_2" x1="605.73" y1="108.071" x2="618.602" y2="122.778" gradientUnits="userSpaceOnUse">
<stop stop-opacity="0"/>
<stop offset="0.99"/>
</linearGradient>
<linearGradient id="paint15_linear_290_2" x1="586.229" y1="426.592" x2="606.077" y2="426.592" gradientUnits="userSpaceOnUse">
<stop stop-color="#E5C5D5"/>
<stop offset="0.42" stop-color="#EAD4D1"/>
<stop offset="1" stop-color="#F0E9CB"/>
</linearGradient>
<linearGradient id="paint16_linear_290_2" x1="383.878" y1="562.119" x2="70.8032" y2="572.95" gradientUnits="userSpaceOnUse">
<stop offset="0.02" stop-color="white" stop-opacity="0"/>
<stop offset="0.58" stop-color="white" stop-opacity="0.39"/>
<stop offset="0.68" stop-color="white" stop-opacity="0.68"/>
<stop offset="1" stop-color="white"/>
</linearGradient>
<linearGradient id="paint17_linear_290_2" x1="423.021" y1="474.304" x2="147.358" y2="575.704" gradientUnits="userSpaceOnUse">
<stop offset="0.02" stop-color="white" stop-opacity="0"/>
<stop offset="0.58" stop-color="white" stop-opacity="0.39"/>
<stop offset="0.68" stop-color="white" stop-opacity="0.68"/>
<stop offset="1" stop-color="white"/>
</linearGradient>
<linearGradient id="paint18_linear_290_2" x1="469.265" y1="141.994" x2="410.192" y2="283.008" gradientUnits="userSpaceOnUse">
<stop offset="0.02" stop-color="white" stop-opacity="0"/>
<stop offset="0.58" stop-color="white" stop-opacity="0.39"/>
<stop offset="0.68" stop-color="white" stop-opacity="0.68"/>
<stop offset="1" stop-color="white"/>
</linearGradient>
<linearGradient id="paint19_linear_290_2" x1="586.249" y1="300.04" x2="627.596" y2="601.284" gradientUnits="userSpaceOnUse">
<stop stop-opacity="0"/>
<stop offset="0.99"/>
</linearGradient>
<clipPath id="clip0_290_2">
<rect width="223.844" height="81.3304" fill="white" transform="matrix(0.960514 -0.278232 0.282836 0.959168 0 98.2807)"/>
</clipPath>
</defs>
</svg>
