<svg width="327" height="248" viewBox="0 0 327 248" fill="none" xmlns="http://www.w3.org/2000/svg">
<path opacity="0.18" d="M302.539 70.1671C301.52 89.3105 297.133 108.315 297.823 127.464C279.034 127.958 260.473 127.382 241.811 131.218C220.806 135.523 199.188 135.447 177.746 135.314C119.746 134.938 61.7466 134.251 3.7467 133.25C6.06848 122.803 9.04763 112.512 12.6663 102.44C20.5478 80.144 9.04532 53.2711 22.1621 33.0769C44.8822 -1.97501 100.502 5.22275 135.155 7.38777C154.621 8.61588 174.283 9.83767 193.528 6.68509C205.923 4.65301 233.967 -0.0252195 235.657 0.000102386C254.75 0.348279 305.59 13.4967 302.539 70.1671Z" fill="#68E1FD"/>
<path d="M156.495 50.8021V62.9249H158.071V57.9745H167.25L164.383 54.1762L167.611 50.5172L156.495 50.8021Z" fill="#68E1FD"/>
<path d="M156.495 50.7452V62.8681H158.071V57.9176H167.25L164.383 54.1193L167.611 50.4603L156.495 50.7452Z" fill="url(#paint0_linear_3_222)"/>
<path d="M316.15 230.442C312.009 234.627 306.73 237.691 301.222 240.096C277.35 250.497 249.73 248.914 223.864 245.053C197.998 241.191 172.024 235.266 145.904 237.697C130.711 239.115 115.841 243.337 100.679 244.116C98.8559 244.209 97.0264 244.249 95.1905 244.236C86.0683 244.154 77.079 242.559 68.2987 240.197C63.747 238.982 59.2461 237.551 54.8021 236.026C41.4194 231.43 27.9355 225.555 18.8449 215.281C13.5084 209.248 -8.73062 190.687 3.74676 133.25C61.7424 134.255 119.742 134.943 177.746 135.314C199.188 135.447 220.794 135.523 241.811 131.212C260.492 127.414 279.034 127.958 297.823 127.471C297.88 128.977 297.962 130.49 298.089 132.003C298.956 142.809 301.805 148.298 307.546 157.274C312.896 165.631 318.308 174.044 321.942 183.312C328.076 198.866 328.26 218.193 316.15 230.442Z" fill="#68E1FD"/>
<path d="M256.181 131.079C256.453 130.034 256.865 129.028 257.149 127.983C257.296 127.589 257.307 127.157 257.181 126.755C257.018 126.443 256.767 126.186 256.459 126.015C254.673 124.827 252.514 124.334 250.389 124.628C249.829 124.687 249.291 124.871 248.812 125.166C248.183 125.646 247.751 126.34 247.597 127.116C247.448 127.886 247.365 128.668 247.35 129.452C247.206 130.502 247.206 131.567 247.35 132.617C247.432 133.137 247.651 133.626 247.985 134.034C248.319 134.441 248.755 134.752 249.249 134.934C249.356 134.957 249.462 134.987 249.566 135.023C250.199 135.27 250.268 136.118 250.794 136.498C251.086 136.679 251.425 136.769 251.769 136.757C252.516 136.829 253.268 136.688 253.94 136.352C254.612 136.017 255.175 135.499 255.567 134.858C255.765 134.438 255.856 133.974 255.833 133.51C255.858 132.689 255.975 131.874 256.181 131.079Z" fill="url(#paint1_linear_3_222)"/>
<path d="M124.127 147.601L116.828 162.535L111.492 157.085L115.79 145.588L123.026 146.5L124.127 147.601Z" fill="url(#paint2_linear_3_222)"/>
<path d="M123.026 146.5L115.727 161.434L110.384 155.983L114.688 144.487L123.026 146.5Z" fill="#68E1FD"/>
<path d="M123.026 146.462L115.727 161.389L110.384 155.945L114.688 144.443L123.026 146.462Z" fill="url(#paint3_linear_3_222)"/>
<path d="M108.124 218.832C107.332 221.32 106.579 223.808 105.857 226.315C104.427 231.27 103.125 236.264 101.952 241.299C101.813 242.123 101.521 242.913 101.091 243.629C100.971 243.805 100.833 243.968 100.679 244.116C98.8559 244.209 97.0264 244.249 95.1906 244.236C86.0684 244.154 77.0791 242.559 68.2987 240.198L68.3747 240.128C69.2592 238.842 70.2966 237.669 71.4639 236.634C75.2622 232.994 82.9348 230.784 86.8597 227.271C88.4112 225.752 90.1694 224.461 92.0823 223.434C95.3425 221.871 95.3109 220.541 98.9256 220.605C99.3393 220.57 99.7541 220.66 100.116 220.864C100.882 221.415 100.578 222.605 100.185 223.472C99.5776 224.827 98.9657 226.184 98.3495 227.543C98.9288 227.511 99.4951 227.358 100.012 227.094C100.529 226.831 100.985 226.462 101.35 226.011C102.077 225.111 102.67 224.111 103.11 223.042L105.427 218.111C105.804 217.154 106.368 216.283 107.086 215.547C110.074 212.812 108.516 217.61 108.124 218.832Z" fill="url(#paint4_linear_3_222)"/>
<path d="M108.972 202.917C108.466 204.576 107.813 206.19 107.408 207.874C106.943 209.554 106.943 211.328 107.408 213.008C107.607 213.412 107.661 213.873 107.56 214.312C107.478 214.499 107.344 214.659 107.173 214.771C107.002 214.883 106.802 214.944 106.598 214.945C106.186 214.941 105.789 214.796 105.471 214.534C105.035 214.16 104.682 213.698 104.436 213.179C104.189 212.66 104.055 212.095 104.041 211.52C104.018 210.373 104.088 209.225 104.249 208.089C104.515 205 104.003 201.904 103.996 198.809C103.996 197.663 104.053 196.517 104.123 195.378C104.287 192.786 104.482 190.201 104.705 187.623C104.661 186.904 104.661 186.183 104.705 185.464C104.851 185.179 105.623 185.375 105.895 185.217C107.048 184.527 108.136 185.274 109.466 185.496C110.896 185.736 110.656 186.825 110.65 188.028C110.679 191.244 110.493 194.459 110.092 197.65C109.855 199.432 109.481 201.193 108.972 202.917Z" fill="url(#paint5_linear_3_222)"/>
<path d="M97.9189 191.383C97.748 192.769 97.4695 194.137 97.3302 195.523C96.9187 199.568 97.672 203.626 97.9632 207.678C97.944 208.131 98.0803 208.578 98.3494 208.944C98.5343 209.124 98.7713 209.242 99.0268 209.279C99.4866 209.323 99.9492 209.231 100.357 209.015C100.766 208.799 101.102 208.469 101.325 208.064C101.754 207.243 101.996 206.337 102.034 205.411C102.287 202.987 102.35 200.55 102.407 198.112C102.442 197.608 102.41 197.102 102.312 196.606C102.205 196.182 101.996 195.789 101.901 195.34C101.635 194.105 102.344 192.902 102.876 191.757C103.509 190.371 103.909 188.891 104.059 187.376C104.211 185.806 104.414 184.268 102.591 183.856C100.432 183.362 98.7925 184.306 98.3367 186.471C98.0075 188.066 98.1278 189.762 97.9189 191.383Z" fill="url(#paint6_linear_3_222)"/>
<path d="M116.98 144.177C118.195 145.633 118.582 147.589 118.879 149.456C119.335 152.212 119.715 154.976 120.019 157.749C120.139 158.863 120.221 160.098 119.563 161.003C119.412 161.237 119.19 161.417 118.93 161.516C118.64 161.564 118.343 161.533 118.069 161.427C117.795 161.321 117.555 161.144 117.373 160.914C115.473 159.085 114.904 156.344 114.043 153.862C113.41 152.09 112.625 150.374 112.144 148.564C111.783 147.241 111.067 144.063 112.226 142.955C113.505 141.72 116.1 143.113 116.98 144.177Z" fill="url(#paint7_linear_3_222)"/>
<path d="M90.7909 89.3169H224.636V135.219H90.7909V89.3169Z" fill="#68E1FD"/>
<path d="M90.7909 89.3169H224.636V135.219H90.7909V89.3169Z" fill="url(#paint8_linear_3_222)"/>
<path d="M92.5127 75.1176L84.0931 90.6082H230.802L221.623 75.6936L92.5127 75.1176Z" fill="#68E1FD"/>
<path d="M92.5127 75.1176L84.0931 90.6082H230.802L221.623 75.6936L92.5127 75.1176Z" fill="url(#paint9_linear_3_222)"/>
<path d="M176.67 135.371H137.649V83.5307L157.349 65.0774L176.67 83.5307V135.371Z" fill="#68E1FD"/>
<path d="M176.67 135.371H137.649V83.5307L157.349 65.0774L176.67 83.5307V135.371Z" fill="url(#paint10_linear_3_222)"/>
<path d="M133.11 84.2967L134.832 86.3098L157.35 65.0773L179.304 86.1642L181.31 84.4423L157.21 60.1965L133.11 84.2967Z" fill="#68E1FD"/>
<path d="M146.645 105.719H167.301V135.365H146.645V105.719Z" fill="white"/>
<path d="M148.246 95.3435H166.535V101.44H148.246V95.3435Z" fill="#68E1FD"/>
<path d="M157.463 89.2472C161.404 89.2472 164.598 86.053 164.598 82.1127C164.598 78.1725 161.404 74.9783 157.463 74.9783C153.523 74.9783 150.329 78.1725 150.329 82.1127C150.329 86.053 153.523 89.2472 157.463 89.2472Z" fill="#68E1FD"/>
<path d="M96.2415 94.913H111.447V99.2873H96.2415V94.913Z" fill="#68E1FD"/>
<path d="M116.328 94.913H131.534V99.2873H116.328V94.913Z" fill="#68E1FD"/>
<path d="M183.748 94.913H198.953V99.2873H183.748V94.913Z" fill="#68E1FD"/>
<path d="M203.834 94.913H219.04V99.2873H203.834V94.913Z" fill="#68E1FD"/>
<path d="M96.387 101.516H111.162V110.695H96.387V101.516Z" fill="#68E1FD"/>
<path d="M100.882 101.585H106.617V111.005H100.882V101.585Z" fill="#68E1FD"/>
<path d="M116.543 101.516H131.319V110.695H116.543V101.516Z" fill="#68E1FD"/>
<path d="M121.038 101.585H126.773V111.005H121.038V101.585Z" fill="#68E1FD"/>
<path d="M116.543 116.721H131.319V125.901H116.543V116.721Z" fill="#68E1FD"/>
<path d="M121.038 116.791H126.773V126.211H121.038V116.791Z" fill="#68E1FD"/>
<path d="M96.1718 116.721H110.947V125.901H96.1718V116.721Z" fill="#68E1FD"/>
<path d="M100.666 116.791H106.402V126.211H100.666V116.791Z" fill="#68E1FD"/>
<path d="M204.334 116.721H219.11V125.901H204.334V116.721Z" fill="#68E1FD"/>
<path d="M208.829 116.791H214.564V126.211H208.829V116.791Z" fill="#68E1FD"/>
<path d="M183.963 116.721H198.738V125.901H183.963V116.721Z" fill="#68E1FD"/>
<path d="M188.458 116.791H194.193V126.211H188.458V116.791Z" fill="#68E1FD"/>
<path d="M204.334 101.224H219.11V110.404H204.334V101.224Z" fill="#68E1FD"/>
<path d="M208.829 101.3H214.564V110.72H208.829V101.3Z" fill="#68E1FD"/>
<path d="M183.963 101.224H198.738V110.404H183.963V101.224Z" fill="#68E1FD"/>
<path d="M188.458 101.3H194.193V110.72H188.458V101.3Z" fill="#68E1FD"/>
<path d="M113.03 137.574C112.84 138.156 112.511 138.802 111.909 138.91C111.522 138.926 111.135 138.851 110.783 138.688C110.606 138.61 110.411 138.581 110.219 138.605C110.027 138.63 109.845 138.707 109.694 138.827C109.566 139.014 109.458 139.214 109.371 139.423C109.054 139.935 107.978 141.955 107.377 141.91C106.851 141.884 106.337 141.743 105.87 141.499C105.638 141.376 105.437 141.203 105.279 140.993C105.122 140.783 105.012 140.54 104.959 140.283C104.87 139.745 105.459 137.251 105.592 136.726C105.711 136.158 105.87 135.6 106.066 135.054C106.346 134.502 106.723 134.004 107.181 133.586C108.371 132.408 109.865 131.345 111.542 131.345C111.871 131.331 112.199 131.403 112.492 131.554C112.767 131.727 112.999 131.961 113.169 132.237C113.431 132.573 113.644 132.944 113.802 133.339C113.855 133.753 113.818 134.174 113.695 134.573C113.549 135.589 113.326 136.592 113.03 137.574Z" fill="url(#paint11_linear_3_222)"/>
<path d="M102.034 139.948C106.323 139.266 110.717 140.03 114.524 142.119C114.777 142.239 114.995 142.422 115.157 142.651C115.269 142.864 115.33 143.1 115.334 143.341C115.518 145.57 114.701 147.735 114.214 149.925C113.866 151.796 113.655 153.689 113.581 155.591L113.023 163.871C113.049 164.917 112.777 165.949 112.239 166.846C111.517 167.815 110.238 168.195 109.035 168.315C106.982 168.476 104.918 168.214 102.971 167.543C101.638 167.179 100.407 166.516 99.3687 165.606C98.0706 164.237 97.3399 162.427 97.3239 160.541C97.3069 158.682 97.5651 156.83 98.0899 155.046C98.9319 151.685 99.989 148.323 100.021 144.861C100.027 142.879 99.5586 140.347 102.034 139.948Z" fill="#68E1FD"/>
<path d="M102.034 139.948C106.323 139.266 110.717 140.03 114.524 142.119C114.777 142.239 114.995 142.422 115.157 142.651C115.269 142.864 115.33 143.1 115.334 143.341C115.518 145.57 114.701 147.735 114.214 149.925C113.866 151.796 113.655 153.689 113.581 155.591L113.023 163.871C113.049 164.917 112.777 165.949 112.239 166.846C111.517 167.815 110.238 168.195 109.035 168.315C106.982 168.476 104.918 168.214 102.971 167.543C101.638 167.179 100.407 166.516 99.3687 165.606C98.0706 164.237 97.3399 162.427 97.3239 160.541C97.3069 158.682 97.5651 156.83 98.0899 155.046C98.9319 151.685 99.989 148.323 100.021 144.861C100.027 142.879 99.5586 140.347 102.034 139.948Z" fill="url(#paint12_linear_3_222)"/>
<path d="M95.9756 144.468C95.1653 145.241 94.4626 146.114 93.665 146.899C92.5192 148.02 91.1961 148.937 89.9933 149.995C88.7365 150.997 87.7578 152.305 87.1509 153.793C86.8281 154.717 86.7774 155.857 87.4548 156.572C88.1321 157.287 89.2146 157.306 90.1769 157.262C90.7644 157.265 91.3476 157.162 91.8988 156.958C92.2914 156.764 92.6557 156.517 92.9813 156.224C95.4775 154.179 97.8315 151.967 100.027 149.602C100.503 149.142 100.896 148.605 101.192 148.013C101.464 147.315 101.581 146.565 101.534 145.817C101.534 144.911 101.489 141.132 100.141 141.107C99.508 141.107 98.6344 142.234 98.1659 142.613C97.4253 143.227 96.6656 143.803 95.9756 144.468Z" fill="url(#paint13_linear_3_222)"/>
<path d="M112.821 171.043C114.043 176.457 114.257 182.049 113.454 187.541C111.897 185.914 109.396 185.641 107.123 185.844C104.851 186.047 102.641 186.654 100.407 186.395C98.3241 186.148 96.2856 185.16 94.2219 185.527C93.6395 185.635 93.0761 185.844 92.4873 185.939C90.6642 186.236 88.8663 185.401 87.2014 184.584C86.9545 184.464 86.6696 184.299 86.6317 184.021C86.6241 183.837 86.68 183.656 86.7899 183.508C87.6889 181.94 88.9286 180.595 90.4173 179.57C91.0533 179.204 91.6333 178.748 92.1392 178.216C92.4449 177.806 92.698 177.359 92.8925 176.886C93.361 175.91 93.7567 174.901 94.0763 173.867C94.5258 172.227 94.5764 170.505 94.9436 168.853C95.3107 167.201 96.102 165.511 97.5707 164.662C99.0394 163.814 100.736 163.966 102.293 164.314C104.927 164.896 107.415 165.998 110.016 166.688C112.314 167.283 112.34 168.897 112.821 171.043Z" fill="#68E1FD"/>
<path d="M112.821 171.043C114.043 176.457 114.257 182.049 113.454 187.541C111.897 185.914 109.396 185.641 107.123 185.844C104.851 186.047 102.641 186.654 100.407 186.395C98.3241 186.148 96.2856 185.16 94.2219 185.527C93.6395 185.635 93.0761 185.844 92.4873 185.939C90.6642 186.236 88.8663 185.401 87.2014 184.584C86.9545 184.464 86.6696 184.299 86.6317 184.021C86.6241 183.837 86.68 183.656 86.7899 183.508C87.6889 181.94 88.9286 180.595 90.4173 179.57C91.0533 179.204 91.6333 178.748 92.1392 178.216C92.4449 177.806 92.698 177.359 92.8925 176.886C93.361 175.91 93.7567 174.901 94.0763 173.867C94.5258 172.227 94.5764 170.505 94.9436 168.853C95.3107 167.201 96.102 165.511 97.5707 164.662C99.0394 163.814 100.736 163.966 102.293 164.314C104.927 164.896 107.415 165.998 110.016 166.688C112.314 167.283 112.34 168.897 112.821 171.043Z" fill="url(#paint14_linear_3_222)"/>
<path d="M98.5456 206.697C98.9888 206.416 99.5196 206.307 100.037 206.391C100.555 206.475 101.025 206.746 101.356 207.152C101.995 207.995 102.336 209.026 102.325 210.083C102.325 210.82 102.403 211.554 102.559 212.274C102.9 213.299 103.474 214.231 104.237 214.996C104.87 215.724 105.598 216.566 105.465 217.528C105.332 218.49 104.363 219.13 103.407 219.313C102.648 219.453 101.866 219.388 101.14 219.127C100.414 218.866 99.7698 218.417 99.2736 217.826C97.9316 216.18 98.0075 213.958 98.1848 211.97C98.2924 210.375 97.0073 207.918 98.5456 206.697Z" fill="#3F3D56"/>
<path d="M99.1598 212.103C99.094 211.567 99.1772 211.024 99.4004 210.533C99.5173 210.291 99.7135 210.096 99.9566 209.981C100.2 209.865 100.475 209.837 100.736 209.9C100.983 210.022 101.189 210.215 101.327 210.454C101.466 210.692 101.531 210.966 101.515 211.242C101.471 211.791 101.458 212.343 101.477 212.894C101.7 213.78 102.215 214.565 102.939 215.122C103.455 215.535 103.885 216.045 104.205 216.623C104.357 216.914 104.413 217.246 104.365 217.571C104.317 217.896 104.168 218.198 103.939 218.433C103.769 218.561 103.574 218.65 103.366 218.694C103.159 218.739 102.944 218.739 102.737 218.693C102.322 218.594 101.932 218.411 101.591 218.155C100.638 217.535 99.9171 216.618 99.5397 215.547C99.4325 215.086 99.3878 214.614 99.4067 214.141C99.3941 213.458 99.1978 212.787 99.1598 212.103Z" fill="url(#paint15_linear_3_222)"/>
<path d="M107.959 216.11C107.434 216.259 106.876 216.246 106.358 216.072C105.884 215.891 105.431 215.658 105.009 215.376C104.713 215.181 104.475 214.91 104.319 214.591C103.987 214.125 103.84 213.552 103.908 212.983C103.908 212.597 103.819 211.495 104.288 211.318C104.756 211.141 105.68 212.192 106.016 212.458C106.351 212.723 106.75 212.945 107.041 212.692C107.333 212.439 107.117 211.913 107.212 211.508C107.926 211.424 108.649 211.472 109.346 211.647C109.609 211.694 109.856 211.81 110.061 211.983C110.224 212.157 110.326 212.379 110.352 212.616C110.385 213.392 110.115 214.15 109.599 214.73C109.243 215.315 108.727 215.786 108.111 216.085L107.959 216.11Z" fill="#3F3D56"/>
<path d="M107.434 129.281C107.666 129.432 107.849 129.647 107.961 129.9C108.074 130.152 108.11 130.432 108.067 130.706C108.049 130.831 107.994 130.948 107.909 131.041C107.809 131.113 107.688 131.149 107.565 131.14C107.442 131.132 107.327 131.082 107.238 130.997C107.066 130.823 106.925 130.622 106.82 130.402C106.668 130.142 105.883 129.459 106.003 129.25C106.225 128.863 107.162 129.104 107.434 129.281V129.281Z" stroke="#3CB6D5" stroke-width="0.944283" stroke-miterlimit="10"/>
<path d="M104.287 126.812C104.753 126.294 105.308 125.865 105.927 125.546C106.222 125.372 106.536 125.234 106.864 125.135C107.245 125.043 107.638 125.011 108.029 125.04C109.449 125.115 110.808 125.64 111.909 126.54C113.01 127.441 113.782 128.681 114.106 130.066C114.205 130.468 114.247 130.881 114.233 131.294C114.158 132.239 113.768 133.131 113.125 133.827C112.9 134.052 112.689 134.291 112.492 134.542C112.246 134.991 112.053 135.467 111.916 135.96C111.774 136.404 111.529 136.807 111.2 137.137C111.038 137.305 110.839 137.433 110.62 137.513C110.401 137.593 110.166 137.623 109.934 137.599C109.82 137.574 109.701 137.574 109.586 137.599C109.47 137.654 109.365 137.729 109.276 137.821C109.104 137.947 108.906 138.032 108.697 138.07C108.487 138.109 108.272 138.099 108.067 138.043C107.657 137.926 107.263 137.758 106.896 137.543C106.798 137.482 106.687 137.446 106.573 137.435C106.294 137.435 106.098 137.726 105.832 137.808C105.696 137.835 105.555 137.829 105.422 137.79C105.289 137.752 105.167 137.682 105.066 137.587C104.873 137.398 104.661 137.23 104.433 137.087C104.289 137.042 104.152 136.976 104.028 136.89C103.94 136.802 103.875 136.693 103.838 136.574C103.205 134.928 103.92 133.029 103.395 131.351C103.211 130.954 103.11 130.523 103.097 130.085C103.135 129.699 103.338 129.338 103.407 128.958C103.49 128.174 103.795 127.429 104.287 126.812Z" fill="#3F3D56"/>
<path d="M104.287 126.812C104.753 126.294 105.308 125.865 105.927 125.546C106.222 125.372 106.536 125.234 106.864 125.135C107.245 125.043 107.638 125.011 108.029 125.04C109.449 125.115 110.808 125.64 111.909 126.54C113.01 127.441 113.782 128.681 114.106 130.066C114.205 130.468 114.247 130.881 114.233 131.294C114.158 132.239 113.768 133.131 113.125 133.827C112.9 134.052 112.689 134.291 112.492 134.542C112.246 134.991 112.053 135.467 111.916 135.96C111.774 136.404 111.529 136.807 111.2 137.137C111.038 137.305 110.839 137.433 110.62 137.513C110.401 137.593 110.166 137.623 109.934 137.599C109.82 137.574 109.701 137.574 109.586 137.599C109.47 137.654 109.365 137.729 109.276 137.821C109.104 137.947 108.906 138.032 108.697 138.07C108.487 138.109 108.272 138.099 108.067 138.043C107.657 137.926 107.263 137.758 106.896 137.543C106.798 137.482 106.687 137.446 106.573 137.435C106.294 137.435 106.098 137.726 105.832 137.808C105.696 137.835 105.555 137.829 105.422 137.79C105.289 137.752 105.167 137.682 105.066 137.587C104.873 137.398 104.661 137.23 104.433 137.087C104.289 137.042 104.152 136.976 104.028 136.89C103.94 136.802 103.875 136.693 103.838 136.574C103.205 134.928 103.92 133.029 103.395 131.351C103.211 130.954 103.11 130.523 103.097 130.085C103.135 129.699 103.338 129.338 103.407 128.958C103.49 128.174 103.795 127.429 104.287 126.812Z" fill="url(#paint16_linear_3_222)"/>
<path d="M243.634 140.98L245.533 139.207C246.554 138.146 247.757 137.276 249.085 136.637C250.442 136.16 251.884 135.966 253.32 136.067C255.415 136.118 257.498 136.359 259.58 136.599C262.284 136.909 264.752 138.226 267.069 139.657C266.549 145.925 266.444 152.221 266.753 158.503C267.025 163.884 267.601 169.265 267.272 174.652C267.305 174.891 267.277 175.135 267.192 175.361C267.106 175.588 266.966 175.789 266.783 175.947C266.6 176.105 266.38 176.214 266.144 176.266C265.907 176.317 265.662 176.308 265.43 176.241C262.106 176.241 258.802 175.608 255.478 175.608C252.333 175.606 249.215 176.203 246.293 177.368C246.113 177.466 245.904 177.495 245.704 177.45C245.53 177.361 245.392 177.216 245.312 177.038C244.621 175.963 244.098 174.789 243.761 173.557C243.545 172.236 243.545 170.889 243.761 169.568L244.052 166.808C244.102 166.068 244.236 165.335 244.451 164.624C244.821 163.755 245.243 162.91 245.717 162.092C246.503 160.293 246.933 158.358 246.983 156.395C247.224 153.205 247.26 150.004 247.09 146.81C247.008 145.342 246.85 143.784 245.938 142.639C245.319 141.904 244.527 141.334 243.634 140.98Z" fill="#68E1FD"/>
<path d="M274.913 149.539C274.978 149.674 275.005 149.826 274.989 149.976C274.921 150.153 274.791 150.3 274.622 150.387C273.376 151.225 272.056 151.945 270.678 152.539C270.311 152.748 269.881 152.814 269.469 152.723C269.188 152.588 268.947 152.38 268.772 152.122C267.696 150.811 266.626 149.494 265.55 148.178C265.226 147.815 264.956 147.408 264.746 146.969C264.599 146.561 264.509 146.135 264.48 145.702C264.341 144.373 263.784 141.461 264.917 140.436C266.05 139.41 267.905 140.936 268.867 141.664C271.553 143.698 273.642 146.418 274.913 149.539Z" fill="#68E1FD"/>
<path d="M242.836 141.771C242.05 142.765 241.41 143.868 240.937 145.044C240.336 146.392 239.766 147.76 239.241 149.14C238.646 150.71 238.088 152.375 238.335 154.033C239.127 153.97 239.677 153.248 240.159 152.615C240.64 151.982 241.311 151.318 242.096 151.444C242.881 151.571 243.279 152.349 243.539 153.058C243.685 153.451 243.982 153.938 244.375 153.805C244.54 153.728 244.674 153.596 244.754 153.432L246.692 150.343C247.08 149.793 247.381 149.187 247.584 148.545C248.072 146.69 246.951 144.86 246.318 143.037C246.122 142.436 246.09 140.201 245.539 139.999C244.799 139.72 243.254 141.277 242.836 141.771Z" fill="#68E1FD"/>
<path d="M243.634 140.98L245.533 139.207C246.554 138.146 247.757 137.276 249.085 136.637C250.442 136.16 251.884 135.966 253.32 136.067C255.415 136.118 257.498 136.359 259.58 136.599C262.284 136.909 264.752 138.226 267.069 139.657C266.549 145.925 266.444 152.221 266.753 158.503C267.025 163.884 267.601 169.265 267.272 174.652C267.305 174.891 267.277 175.135 267.192 175.361C267.106 175.588 266.966 175.789 266.783 175.947C266.6 176.105 266.38 176.214 266.144 176.266C265.907 176.317 265.662 176.308 265.43 176.241C262.106 176.241 258.802 175.608 255.478 175.608C252.333 175.606 249.215 176.203 246.293 177.368C246.113 177.466 245.904 177.495 245.704 177.45C245.53 177.361 245.392 177.216 245.312 177.038C244.621 175.963 244.098 174.789 243.761 173.557C243.545 172.236 243.545 170.889 243.761 169.568L244.052 166.808C244.102 166.068 244.236 165.335 244.451 164.624C244.821 163.755 245.243 162.91 245.717 162.092C246.503 160.293 246.933 158.358 246.983 156.395C247.224 153.205 247.26 150.004 247.09 146.81C247.008 145.342 246.85 143.784 245.938 142.639C245.319 141.904 244.527 141.334 243.634 140.98Z" fill="url(#paint17_linear_3_222)"/>
<path d="M274.913 149.539C274.978 149.674 275.005 149.826 274.989 149.976C274.921 150.153 274.791 150.3 274.622 150.387C273.376 151.225 272.056 151.945 270.678 152.539C270.311 152.748 269.881 152.814 269.469 152.723C269.188 152.588 268.947 152.38 268.772 152.122C267.696 150.811 266.626 149.494 265.55 148.178C265.226 147.815 264.956 147.408 264.746 146.969C264.599 146.561 264.509 146.135 264.48 145.702C264.341 144.373 263.784 141.461 264.917 140.436C266.05 139.41 267.905 140.936 268.867 141.664C271.553 143.698 273.642 146.418 274.913 149.539Z" fill="url(#paint18_linear_3_222)"/>
<path d="M242.836 141.771C242.05 142.765 241.41 143.868 240.937 145.044C240.336 146.392 239.766 147.76 239.241 149.14C238.646 150.71 238.088 152.375 238.335 154.033C239.127 153.97 239.677 153.248 240.159 152.615C240.64 151.982 241.311 151.318 242.096 151.444C242.881 151.571 243.279 152.349 243.539 153.058C243.685 153.451 243.982 153.938 244.375 153.805C244.54 153.728 244.674 153.596 244.754 153.432L246.692 150.343C247.08 149.793 247.381 149.187 247.584 148.545C248.072 146.69 246.951 144.86 246.318 143.037C246.122 142.436 246.09 140.201 245.539 139.999C244.799 139.72 243.254 141.277 242.836 141.771Z" fill="url(#paint19_linear_3_222)"/>
<path d="M249.939 137.663C250.173 138.473 249.559 139.252 249.167 139.992C248.834 140.656 248.592 141.36 248.445 142.088C247.07 147.93 247.351 154.039 249.255 159.731C249.7 161.232 250.419 162.638 251.376 163.877C252.114 164.745 253.03 165.444 254.063 165.926C255.095 166.407 256.219 166.661 257.358 166.669C258.261 166.635 259.162 166.551 260.055 166.416C261.965 166.199 263.894 166.227 265.797 166.498C266.746 166.637 267.772 166.821 268.633 166.39C269.087 166.127 269.489 165.781 269.817 165.371C270.798 164.289 271.786 163.13 272.102 161.706C272.249 160.833 272.259 159.942 272.134 159.066C271.796 155.483 271.355 151.913 270.811 148.355C270.56 146.259 270.054 144.201 269.304 142.227C268.549 140.237 267.155 138.554 265.341 137.441C264.075 136.719 262.575 136.384 261.429 135.485C261.062 135.133 260.649 134.833 260.201 134.592C259.974 134.478 259.714 134.446 259.466 134.504C259.218 134.562 258.999 134.705 258.846 134.909C258.41 134.527 257.896 134.243 257.34 134.078C256.785 133.913 256.2 133.87 255.626 133.952C255.052 134.033 254.502 134.238 254.014 134.552C253.527 134.866 253.113 135.281 252.8 135.77C251.962 135.634 251.117 135.552 250.268 135.523C249.528 135.605 248.369 135.801 247.863 136.359C248.629 136.618 249.667 136.719 249.939 137.663Z" fill="#68E1FD"/>
<path d="M249.939 137.663C250.173 138.473 249.559 139.252 249.167 139.992C248.834 140.656 248.592 141.36 248.445 142.088C247.07 147.93 247.351 154.039 249.255 159.731C249.7 161.232 250.419 162.638 251.376 163.877C252.114 164.745 253.03 165.444 254.063 165.926C255.095 166.407 256.219 166.661 257.358 166.669C258.261 166.635 259.162 166.551 260.055 166.416C261.965 166.199 263.894 166.227 265.797 166.498C266.746 166.637 267.772 166.821 268.633 166.39C269.087 166.127 269.489 165.781 269.817 165.371C270.798 164.289 271.786 163.13 272.102 161.706C272.249 160.833 272.259 159.942 272.134 159.066C271.796 155.483 271.355 151.913 270.811 148.355C270.56 146.259 270.054 144.201 269.304 142.227C268.549 140.237 267.155 138.554 265.341 137.441C264.075 136.719 262.575 136.384 261.429 135.485C261.062 135.133 260.649 134.833 260.201 134.592C259.974 134.478 259.714 134.446 259.466 134.504C259.218 134.562 258.999 134.705 258.846 134.909C258.41 134.527 257.896 134.243 257.34 134.078C256.785 133.913 256.2 133.87 255.626 133.952C255.052 134.033 254.502 134.238 254.014 134.552C253.527 134.866 253.113 135.281 252.8 135.77C251.962 135.634 251.117 135.552 250.268 135.523C249.528 135.605 248.369 135.801 247.863 136.359C248.629 136.618 249.667 136.719 249.939 137.663Z" fill="url(#paint20_linear_3_222)"/>
<path d="M252.053 149.551C251.883 147.083 252.053 144.373 253.699 142.493C254.918 141.189 256.57 140.375 258.346 140.201C260.108 140.034 261.885 140.128 263.619 140.48C264.683 140.554 265.697 140.959 266.519 141.638C267.119 142.365 267.513 143.239 267.658 144.17C268.62 148.121 269.49 152.092 270.266 156.084C270.542 156.982 270.542 157.941 270.266 158.838C269.791 159.946 268.57 160.503 267.456 160.965C263.86 162.459 258.998 163.928 255.573 161.092C252.769 158.813 252.281 152.85 252.053 149.551Z" fill="#68E1FD"/>
<path d="M252.053 149.551C251.883 147.083 252.053 144.373 253.699 142.493C254.918 141.189 256.57 140.375 258.346 140.201C260.108 140.034 261.885 140.128 263.619 140.48C264.683 140.554 265.697 140.959 266.519 141.638C267.119 142.365 267.513 143.239 267.658 144.17C268.62 148.121 269.49 152.092 270.266 156.084C270.542 156.982 270.542 157.941 270.266 158.838C269.791 159.946 268.57 160.503 267.456 160.965C263.86 162.459 258.998 163.928 255.573 161.092C252.769 158.813 252.281 152.85 252.053 149.551Z" fill="url(#paint21_linear_3_222)"/>
<path d="M244.773 191.219C244.565 192.434 244.235 193.751 244.735 194.846C245.369 196.289 247.103 196.853 248.66 197.106C250.378 197.385 252.12 197.479 253.858 197.385C254.104 197.395 254.348 197.334 254.56 197.207C254.695 197.073 254.8 196.912 254.868 196.734C254.935 196.556 254.964 196.365 254.953 196.175L255.162 193.371L255.117 194.124C256.488 192.449 258.443 191.357 260.588 191.069C262.733 190.781 264.907 191.319 266.671 192.573C266.405 189.902 266.139 187.199 266.538 184.546C266.765 183.474 266.917 182.386 266.993 181.293C266.942 179.801 266.584 178.336 265.943 176.988C265.838 176.677 265.652 176.399 265.404 176.184C265.173 176.042 264.914 175.951 264.645 175.918C261.476 175.328 258.25 175.096 255.029 175.228C252.611 175.323 248.825 175.228 246.749 176.633C245.223 177.684 245.242 179.64 245.166 181.311C244.995 184.61 245.343 187.952 244.773 191.219Z" fill="#68E1FD"/>
<path d="M244.773 191.219C244.565 192.434 244.235 193.751 244.735 194.846C245.369 196.289 247.103 196.853 248.66 197.106C250.378 197.385 252.12 197.479 253.858 197.385C254.104 197.395 254.348 197.334 254.56 197.207C254.695 197.073 254.8 196.912 254.868 196.734C254.935 196.556 254.964 196.365 254.953 196.175L255.162 193.371C255.162 193.624 256.472 195.701 256.46 195.954C259.068 192.51 263.246 189.94 266.671 192.573C266.405 189.902 266.139 187.199 266.538 184.546C266.765 183.474 266.917 182.386 266.993 181.293C266.942 179.801 266.584 178.336 265.943 176.988C265.838 176.677 265.652 176.399 265.404 176.184C265.173 176.042 264.914 175.951 264.645 175.918C261.476 175.328 258.25 175.096 255.029 175.228C252.611 175.323 248.825 175.228 246.749 176.633C245.223 177.684 245.242 179.64 245.166 181.311C244.995 184.61 245.343 187.952 244.773 191.219Z" fill="url(#paint22_linear_3_222)"/>
<path d="M256.643 195.815C256.613 195.852 256.597 195.899 256.599 195.947C256.599 196.023 256.713 196.049 256.795 196.061C259.327 196.34 261.859 195.289 264.183 194.213L266.082 193.32C266.373 193.181 266.715 192.966 266.683 192.643C266.662 192.517 266.608 192.399 266.525 192.301C266.033 191.663 265.335 191.215 264.55 191.035C263.771 190.858 262.968 190.819 262.176 190.921C261.602 190.944 261.038 191.08 260.517 191.321C259.995 191.562 259.527 191.904 259.137 192.326C258.224 193.428 257.391 194.594 256.643 195.815Z" fill="#3F3D56"/>
<path d="M261.689 208.26C261.72 209.336 261.632 210.419 261.689 211.489C261.669 211.573 261.673 211.661 261.699 211.743C261.726 211.825 261.774 211.898 261.839 211.955C261.904 212.011 261.984 212.049 262.069 212.064C262.154 212.079 262.241 212.071 262.322 212.04C263.544 211.796 264.685 211.247 265.639 210.444C265.949 210.257 266.2 209.985 266.36 209.659C266.438 209.368 266.449 209.063 266.392 208.767C266.253 207.71 266.114 206.646 266.076 205.601C266.044 204.715 266.076 203.829 266.126 202.943L266.354 198.011C266.449 195.922 266.512 193.688 265.405 191.921C265.157 191.478 264.785 191.117 264.335 190.883C263.858 190.706 263.347 190.641 262.841 190.693C261.816 190.647 260.803 190.921 259.941 191.478C257.612 193.295 258.903 196.625 259.536 198.916C260.385 201.974 261.587 205.025 261.689 208.26Z" fill="url(#paint23_linear_3_222)"/>
<path d="M261.923 209.381C261.429 212.02 263.1 214.692 262.663 217.332C262.543 218.053 262.265 218.743 262.201 219.471C262.118 220.248 262.331 221.028 262.796 221.655C263.03 221.963 263.338 222.207 263.691 222.364C264.044 222.521 264.431 222.586 264.816 222.554C265.208 222.497 265.585 222.361 265.924 222.156C268.494 220.725 269.722 217.484 269.31 214.559C269.17 213.735 268.976 212.92 268.728 212.122C268.331 210.763 267.937 209.402 267.544 208.039C267.291 207.159 267.107 205.823 266.107 205.462C264.183 204.766 262.208 207.842 261.923 209.381Z" fill="#3F3D56"/>
<path d="M264.537 215.857C264.288 216.553 263.954 217.217 263.543 217.832C263.088 218.682 262.88 219.642 262.942 220.605C262.927 220.967 263.029 221.324 263.232 221.625C263.434 221.926 263.728 222.154 264.069 222.276C264.62 222.381 265.191 222.265 265.658 221.953C266.101 221.654 266.494 221.286 266.823 220.864C267.683 219.964 268.332 218.882 268.722 217.699C268.851 217.133 268.896 216.55 268.855 215.971C268.807 214.796 268.618 213.631 268.291 212.502C268.006 211.546 267.715 210.242 266.905 209.52C266.202 208.887 265.284 209.102 264.594 209.78C264.227 210.13 263.966 210.576 263.839 211.067C263.713 211.558 263.727 212.075 263.879 212.559C264.164 213.648 264.816 214.698 264.537 215.857Z" fill="url(#paint24_linear_3_222)"/>
<path d="M239.722 159.414C240.09 160.016 240.514 160.582 240.988 161.104L243.989 164.637C244.856 163.915 245.818 162.978 245.647 161.858C245.563 161.476 245.418 161.11 245.217 160.775C244.736 159.816 244.366 158.805 244.115 157.762C243.891 157.001 243.852 156.198 244.001 155.42C244.131 155.057 244.218 154.681 244.261 154.299C244.261 153.546 243.691 152.932 243.147 152.4C242.857 152.051 242.457 151.81 242.013 151.716C241.677 151.715 241.348 151.809 241.064 151.989C239.918 152.622 238.943 153.54 238.867 154.875C238.704 156.439 239.001 158.017 239.722 159.414Z" fill="url(#paint25_linear_3_222)"/>
<path d="M276.052 153.736C276.021 154.736 275.248 155.534 274.495 156.198C273.803 156.858 273.01 157.403 272.147 157.813C271.83 157.104 271.656 156.341 271.634 155.565L271.343 152.369C271.32 152.273 271.32 152.173 271.343 152.077C271.391 151.986 271.463 151.91 271.551 151.856C272.184 151.4 273.767 150.128 274.615 150.653C274.995 150.887 275.248 151.628 275.476 152.008C275.826 152.519 276.025 153.117 276.052 153.736Z" fill="url(#paint26_linear_3_222)"/>
<path d="M109.244 148.279C108.871 151.064 109.51 153.869 110.029 156.629C110.707 160.193 111.188 163.896 110.339 167.391C109.491 170.885 107.073 174.266 103.591 175.279C101.619 175.753 99.562 175.753 97.5898 175.279C95.9047 175.048 94.2966 174.428 92.8925 173.468C90.0565 171.297 89.4804 167.138 90.411 163.675C91.3416 160.212 93.4686 157.243 95.2475 154.141C97.0264 151.039 98.533 147.526 98.0202 144.012C97.8874 143.388 97.8195 142.751 97.8177 142.113C97.8893 141.635 98.0694 141.18 98.3442 140.783C98.6189 140.385 98.9809 140.056 99.4025 139.82C99.8242 139.584 100.294 139.448 100.777 139.422C101.259 139.396 101.741 139.481 102.186 139.67L103.521 142.936C103.548 143.102 103.618 143.259 103.724 143.389C103.83 143.52 103.969 143.62 104.126 143.68C104.284 143.74 104.454 143.757 104.62 143.73C104.786 143.702 104.942 143.632 105.072 143.525C106.604 142.816 107.94 141.733 109.504 141.1C110.126 140.799 110.809 140.642 111.501 140.642C112.193 140.642 112.876 140.799 113.498 141.1C113.023 143.544 109.675 145.063 109.244 148.279Z" fill="#68E1FD"/>
<path d="M109.244 148.279C108.871 151.064 109.51 153.869 110.029 156.629C110.707 160.193 111.188 163.896 110.339 167.391C109.491 170.885 107.073 174.266 103.591 175.279C101.619 175.753 99.562 175.753 97.5898 175.279C95.9047 175.048 94.2966 174.428 92.8925 173.468C90.0565 171.297 89.4804 167.138 90.411 163.675C91.3416 160.212 93.4686 157.243 95.2475 154.141C97.0264 151.039 98.533 147.526 98.0202 144.012C97.8874 143.388 97.8195 142.751 97.8177 142.113C97.8893 141.635 98.0694 141.18 98.3442 140.783C98.6189 140.385 98.9809 140.056 99.4025 139.82C99.8242 139.584 100.294 139.448 100.777 139.422C101.259 139.396 101.741 139.481 102.186 139.67L103.521 142.936C103.548 143.102 103.618 143.259 103.724 143.389C103.83 143.52 103.969 143.62 104.126 143.68C104.284 143.74 104.454 143.757 104.62 143.73C104.786 143.702 104.942 143.632 105.072 143.525C106.604 142.816 107.94 141.733 109.504 141.1C110.126 140.799 110.809 140.642 111.501 140.642C112.193 140.642 112.876 140.799 113.498 141.1C113.023 143.544 109.675 145.063 109.244 148.279Z" fill="url(#paint27_linear_3_222)"/>
<path d="M44.3188 70.0912C44.0466 73.4084 45.6608 76.561 47.2308 79.5047C42.0461 80.0807 38.1086 85.8351 39.476 90.8995C39.6912 91.6972 40.0077 92.5898 39.6026 93.3051C39.267 93.7683 38.7991 94.1191 38.2605 94.3116C33.3417 96.7109 29.0876 100.775 27.2645 105.934C25.4413 111.094 26.3782 117.329 30.2461 121.204C33.576 124.54 38.5137 125.755 43.2236 125.907C47.9335 126.059 52.637 125.306 57.3532 125.363C60.6894 125.401 64.0889 125.844 67.3301 125.052C70.5713 124.261 73.7365 121.811 74.034 118.481C74.4012 114.386 70.5649 111.277 67.1148 109.024C68.95 107.497 70.1898 105.374 70.6168 103.026C71.0439 100.678 70.6311 98.2537 69.4508 96.1791C67.4947 92.9506 63.9053 91.1527 60.5058 89.5131C63.0886 88.3104 63.9876 84.7843 62.8861 82.1571C61.7846 79.53 59.1891 77.7828 56.467 76.9345C58.1192 76.0166 59.8411 75.0353 60.8413 73.4274C61.8415 71.8195 61.8099 69.4012 60.2653 68.3124C59.4106 67.6793 58.2079 67.578 57.5938 66.7297C57.3118 66.2178 57.0989 65.6707 56.9607 65.1028C54.6691 59.2345 44.6733 65.7422 44.3188 70.0912Z" fill="#68E1FD"/>
<path d="M252.731 95.5776C249.724 98.9391 249.528 104.7 252.8 107.802C251.129 109.46 249.363 111.341 249.179 113.689C248.869 117.728 253.693 120.602 257.681 119.899C261.67 119.197 264.79 116.19 267.62 113.29C269.179 115.042 271.201 116.318 273.454 116.97C275.706 117.622 278.097 117.624 280.351 116.975C281.705 116.632 282.911 115.859 283.788 114.772C285.206 112.803 284.687 109.935 283.231 107.992C281.775 106.048 279.585 104.826 277.464 103.63C280.737 102.275 283.415 99.11 283.421 95.5713C283.427 92.0325 280.154 88.6078 276.647 89.1079C280.275 86.62 280.927 81.0238 278.547 77.3458C276.166 73.6678 271.349 71.9713 266.993 72.5537C261.967 73.2247 257.017 77.8333 258.181 82.7711C255.516 80.9922 251.446 81.6885 249.686 84.36C247.926 87.0315 249.053 91.2033 251.997 92.463C255.472 93.9507 255.187 92.8239 252.731 95.5776Z" fill="#68E1FD"/>
<path d="M44.3188 70.0912C44.0466 73.4084 45.6608 76.561 47.2308 79.5047C42.0461 80.0807 38.1086 85.8351 39.476 90.8995C39.6912 91.6972 40.0077 92.5898 39.6026 93.3051C39.267 93.7683 38.7991 94.1191 38.2605 94.3116C33.3417 96.7109 29.0876 100.775 27.2645 105.934C25.4413 111.094 26.3782 117.329 30.2461 121.204C33.576 124.54 38.5137 125.755 43.2236 125.907C47.9335 126.059 52.637 125.306 57.3532 125.363C60.6894 125.401 64.0889 125.844 67.3301 125.052C70.5713 124.261 73.7365 121.811 74.034 118.481C74.4012 114.386 70.5649 111.277 67.1148 109.024C68.95 107.497 70.1898 105.374 70.6168 103.026C71.0439 100.678 70.6311 98.2537 69.4508 96.1791C67.4947 92.9506 63.9053 91.1527 60.5058 89.5131C63.0886 88.3104 63.9876 84.7843 62.8861 82.1571C61.7846 79.53 59.1891 77.7828 56.467 76.9345C58.1192 76.0166 59.8411 75.0353 60.8413 73.4274C61.8415 71.8195 61.8099 69.4012 60.2653 68.3124C59.4106 67.6793 58.2079 67.578 57.5938 66.7297C57.3118 66.2178 57.0989 65.6707 56.9607 65.1028C54.6691 59.2345 44.6733 65.7422 44.3188 70.0912Z" fill="url(#paint28_linear_3_222)"/>
<path d="M252.731 95.5776C249.724 98.9391 249.528 104.7 252.8 107.802C251.129 109.46 249.363 111.341 249.179 113.689C248.869 117.728 253.693 120.602 257.681 119.899C261.67 119.197 264.79 116.19 267.62 113.29C269.179 115.042 271.201 116.318 273.454 116.97C275.706 117.622 278.097 117.624 280.351 116.975C281.705 116.632 282.911 115.859 283.788 114.772C285.206 112.803 284.687 109.935 283.231 107.992C281.775 106.048 279.585 104.826 277.464 103.63C280.737 102.275 283.415 99.11 283.421 95.5713C283.427 92.0325 280.154 88.6078 276.647 89.1079C280.275 86.62 280.927 81.0238 278.547 77.3458C276.166 73.6678 271.349 71.9713 266.993 72.5537C261.967 73.2247 257.017 77.8333 258.181 82.7711C255.516 80.9922 251.446 81.6885 249.686 84.36C247.926 87.0315 249.053 91.2033 251.997 92.463C255.472 93.9507 255.187 92.8239 252.731 95.5776Z" fill="url(#paint29_linear_3_222)"/>
<path d="M262.398 108.707C260.929 106.39 258.878 104.504 256.858 102.642L262.41 106.441C262.696 106.684 263.054 106.826 263.429 106.846C264.537 106.789 264.455 105.118 264.012 104.098L258.587 91.7604C262.032 94.8803 264.54 98.8985 265.829 103.364C267.263 101.694 268.482 99.8499 269.456 97.8756C270.184 100.718 267.873 103.396 267.373 106.289C267.202 107.674 267.254 109.078 267.525 110.448C268.458 116.516 270.005 122.474 272.14 128.23C266.379 128.54 265.436 128.028 265.443 122.261C265.449 117.582 264.949 112.74 262.398 108.707Z" fill="#68E1FD"/>
<path d="M157.812 145.867C157.748 148.057 156.748 150.102 155.615 151.97C149.481 162.067 138.808 169.353 134.94 180.52C131.641 190.016 134.015 200.657 138.219 209.811C142.422 218.965 144.708 228.341 149.069 237.418C167.947 237.127 210.861 241.426 229.397 245.015C219.831 238.773 175.588 201.968 169.542 181.223C166.871 172.05 175.41 167.384 173.973 157.933C172.796 150.835 169.098 144.401 163.56 139.809C162.059 138.543 157.185 134.187 155.102 136.049C152.918 138.011 157.888 142.942 157.812 145.867Z" fill="#68E1FD"/>
<path d="M157.812 145.867C157.748 148.057 156.748 150.102 155.615 151.97C149.481 162.067 138.808 169.353 134.94 180.52C131.641 190.016 134.015 200.657 138.219 209.811C142.422 218.965 144.708 228.341 149.069 237.418C167.947 237.127 210.861 241.426 229.397 245.015C219.831 238.773 175.588 201.968 169.542 181.223C166.871 172.05 175.41 167.384 173.973 157.933C172.796 150.835 169.098 144.401 163.56 139.809C162.059 138.543 157.185 134.187 155.102 136.049C152.918 138.011 157.888 142.942 157.812 145.867Z" fill="url(#paint30_linear_3_222)"/>
<path d="M44.0972 131.339C43.9483 131.607 43.8547 131.903 43.8221 132.209C43.7894 132.514 43.8184 132.823 43.9073 133.117C44.2618 133.858 45.2557 133.966 46.0787 133.972H51.9534C50.7696 131.731 50.9468 129.047 51.1557 126.521C51.4659 122.723 51.9027 118.678 54.4539 115.892C56.3214 113.854 59.0752 112.809 60.9806 110.828C60.835 110.226 59.9614 110.315 59.3853 110.543L52.0736 113.455C50.2758 110.651 50.605 107.017 51.2507 103.75C51.8964 100.484 52.7953 97.0907 51.9154 93.8938C51.0473 97.9407 49.8901 101.92 48.4526 105.801L45.2874 103.39C45.4782 104.246 45.717 105.092 46.0027 105.922C46.4348 106.715 46.7463 107.569 46.927 108.454C47.275 111.051 47.3768 113.675 47.2308 116.291C47.0181 121.445 45.9595 126.528 44.0972 131.339Z" fill="#68E1FD"/>
<path d="M248.736 15.2883C247.028 16.4552 245.582 17.9664 244.492 19.7248C243.402 21.4833 242.691 23.4502 242.406 25.4994C242.385 26.1963 242.165 26.8727 241.773 27.4492C240.868 28.4684 239.241 27.9999 237.918 27.6518C231.46 25.9489 224.035 30.184 222.186 36.5714C215.552 36.8816 207.753 37.8375 204.562 43.6932C203.981 44.6414 203.72 45.7506 203.815 46.8584C204.227 49.8084 207.86 50.9289 210.829 51.2518C217.66 51.9988 224.548 51.9418 231.416 51.8848C253.269 51.7076 275.141 51.5303 296.924 49.8464C297.893 49.7705 299.026 49.5995 299.494 48.7449C299.729 48.2049 299.788 47.6051 299.665 47.0294C298.64 38.2553 293.588 30.4562 287.77 23.8092C283.206 18.5929 277.008 13.5031 270.165 14.5034C265.81 15.1364 264.075 15.4593 260.163 14.0033C258.291 13.304 256.281 13.0559 254.296 13.2792C252.311 13.5025 250.406 14.1908 248.736 15.2883Z" fill="white"/>
<path d="M73.7366 37.2108C74.6901 37.9119 75.7624 38.4351 76.9018 38.7554C79.7442 39.3125 82.2511 37.0209 84.8339 35.6978C91.7088 32.178 100.027 35.5332 106.744 39.2998C107.961 40.0737 109.295 40.6465 110.694 40.9964C112.277 41.3003 113.91 40.9964 115.511 40.8698C121.734 40.338 127.887 42.1359 133.87 43.9591C134.889 44.2629 135.997 44.6364 136.56 45.548C137.193 46.5989 136.858 48.0042 136.212 49.0614C133.629 53.2395 127.812 53.6384 122.918 53.5624L34.7028 52.2393C32.9999 52.2393 31.2527 52.176 29.6828 51.505C28.859 51.1526 28.1163 50.6351 27.5005 49.9843C26.8846 49.3335 26.4088 48.5633 26.1025 47.7214C25.7961 46.8794 25.6657 45.9836 25.7192 45.0892C25.7728 44.1949 26.0092 43.321 26.4139 42.5216C26.8186 41.7222 27.3829 41.0144 28.072 40.4417C28.7611 39.8691 29.5603 39.4439 30.4202 39.1924C31.2801 38.9408 32.1825 38.8684 33.0716 38.9794C33.9606 39.0904 34.8174 39.3826 35.5891 39.8379C41.6157 27.177 63.9433 31.0765 73.7366 37.2108Z" fill="white"/>
<path d="M101.572 129.281C100.027 129.762 98.8559 131.022 97.9 132.326C97.5461 132.779 97.2425 133.27 96.9948 133.789C96.2414 135.453 96.3617 137.587 94.9627 138.783C95.7236 138.751 96.4473 138.445 97.0011 137.922C96.1022 138.976 94.9997 139.837 93.7599 140.455C93.8578 140.652 94.011 140.817 94.2009 140.93C94.3908 141.042 94.6093 141.097 94.8297 141.088C95.2697 141.065 95.7004 140.953 96.0958 140.758C97.2622 140.438 98.3311 139.834 99.207 139C100.083 138.166 100.739 137.128 101.116 135.979C100.824 136.558 100.584 137.161 100.401 137.783C100.349 137.881 100.322 137.989 100.322 138.1C100.322 138.21 100.349 138.319 100.401 138.416C100.635 138.701 101.097 138.416 101.344 138.163C102.61 136.745 103.465 134.934 104.971 133.77C105.604 133.263 106.478 132.782 106.585 131.953C106.902 129.515 103.192 128.768 101.572 129.281Z" fill="#3F3D56"/>
<path d="M253.908 183.198C253.864 182.761 253.718 182.217 253.275 182.141C252.849 183.237 252.535 184.374 252.338 185.534L251.667 188.851C251.341 190.188 251.173 191.558 251.167 192.934C251.164 194.025 251.498 195.091 252.123 195.985C252.554 196.542 253.864 197.973 254.617 197.062C255.029 196.561 255.124 193.985 255.162 193.377C255.238 192.136 254.143 185.357 253.908 183.198Z" fill="url(#paint31_linear_3_222)"/>
<path d="M247.053 194.2C247.725 193.964 248.412 193.774 249.11 193.631C249.818 193.644 250.512 193.833 251.129 194.181L253.237 195.144C253.524 195.251 253.785 195.417 254.003 195.631C254.109 195.741 254.18 195.879 254.206 196.03C254.232 196.18 254.212 196.334 254.149 196.473C254.048 196.599 253.919 196.7 253.774 196.769C253.628 196.838 253.468 196.873 253.307 196.872C252.068 197.027 250.811 196.969 249.591 196.701C248.658 196.473 247.742 196.181 246.85 195.827C246.407 195.663 245.255 195.321 245.337 194.694C245.419 194.067 246.597 194.289 247.053 194.2Z" fill="#3F3D56"/>
<path d="M246.983 215.844C246.967 216.014 246.997 216.185 247.071 216.338C247.191 216.502 247.367 216.617 247.565 216.661C248.603 217.009 249.926 216.87 250.553 215.971C251.06 215.249 250.977 214.287 250.92 213.439C250.642 208.9 251.762 204.405 252.129 199.872C252.302 198.545 252.212 197.196 251.864 195.903C251.503 194.789 250.597 193.681 249.42 193.745C247.249 193.865 247.179 195.783 247.166 197.41L247.103 203.639C247.065 207.707 247.025 211.776 246.983 215.844Z" fill="url(#paint32_linear_3_222)"/>
<path d="M246.749 220.035L247.261 221.896C247.284 222.022 247.338 222.139 247.42 222.238C247.499 222.299 247.589 222.344 247.686 222.37C247.783 222.396 247.884 222.403 247.983 222.39C249.39 222.361 250.784 222.115 252.117 221.662C252.228 221.635 252.33 221.58 252.414 221.503C252.506 221.381 252.555 221.232 252.554 221.079C252.698 219.587 252.713 218.086 252.598 216.591C252.612 215.971 252.408 215.367 252.022 214.882C251.943 214.792 251.84 214.726 251.724 214.692C251.608 214.688 251.491 214.708 251.382 214.75C251.274 214.793 251.175 214.857 251.091 214.939C250.424 215.412 249.635 215.682 248.819 215.717C248.392 215.752 247.963 215.707 247.553 215.584C247.331 215.509 246.976 215.154 246.755 215.148C245.286 215.129 246.533 219.269 246.749 220.035Z" fill="#3F3D56"/>
<path d="M273.21 244.857C274.267 245.591 275.407 246.338 276.692 246.395C278.54 246.477 280.104 245.129 281.826 244.439C283.794 243.654 285.985 243.749 288.087 243.496C293.429 242.863 298.215 239.932 302.761 237.083C296.519 231.386 287.245 230.987 279.293 228.106C277.451 227.442 275.666 226.631 273.862 225.878C270.512 224.479 267.086 223.27 263.6 222.257C262.853 222.751 263.309 223.909 263.841 224.631C267.217 229.209 271.273 233.243 275.869 236.596C274.438 237.71 272.362 236.887 270.804 235.963C265.616 232.984 260.764 229.454 256.333 225.435C255.181 224.384 250.002 219.522 248.736 222.149C247.717 224.245 253.516 228.587 254.668 229.689C260.456 235.206 266.655 240.277 273.21 244.857Z" fill="url(#paint33_linear_3_222)"/>
<path d="M102.306 148.171C103.754 148.495 105.068 149.258 106.066 150.355C107.006 151.587 107.569 153.064 107.687 154.609C107.877 156.135 107.839 157.686 108.016 159.212C108.174 160.56 108.491 161.883 108.554 163.231C108.685 164.59 108.348 165.953 107.598 167.093C106.155 165.447 106.066 163.067 105.699 160.908C105.354 158.555 104.554 156.291 103.344 154.242C102.629 153.065 101.66 151.906 100.325 151.564C99.6019 151.45 98.8721 151.387 98.1406 151.374C97.6911 151.324 97.153 151.128 97.0897 150.678C97.0815 150.48 97.1251 150.284 97.2163 150.108C97.5455 149.292 97.7544 148.051 98.6913 147.76C99.6283 147.469 101.356 147.937 102.306 148.171Z" fill="url(#paint34_linear_3_222)"/>
<path d="M100.603 161.984C100.338 161.069 99.815 160.249 99.0965 159.623C97.6911 158.636 95.7666 159.345 94.241 160.123C93.5806 160.415 92.9764 160.82 92.4558 161.32C91.7917 162.134 91.3724 163.119 91.2467 164.162C91.0443 165.271 90.9489 166.397 90.9618 167.524C90.9362 168.215 91.066 168.903 91.3416 169.537C91.8103 170.318 92.5217 170.925 93.3674 171.265C95.6572 172.338 98.2701 172.496 100.673 171.708C101.383 171.519 102.023 171.127 102.515 170.581C103.382 169.486 102.477 167.954 102.205 166.783C101.789 165.146 101.254 163.543 100.603 161.984Z" fill="url(#paint35_linear_3_222)"/>
<path d="M246.521 122.273C246.526 123.184 246.465 124.094 246.337 124.996C246.185 125.673 245.862 126.363 246.046 127.04C246.228 127.555 246.587 127.988 247.059 128.262C247.526 128.533 247.969 128.844 248.382 129.193C248.867 129.701 249.225 130.317 249.426 130.991C249.537 131.443 249.728 131.872 249.99 132.257C250.363 132.681 250.879 132.954 251.439 133.023C251.994 133.092 252.556 133.092 253.111 133.023L254.966 132.864C255.343 132.878 255.711 132.749 255.997 132.504C256.263 132.212 256.257 131.769 256.453 131.427C256.561 131.25 256.719 131.104 256.814 130.921C256.899 130.718 256.961 130.505 256.998 130.288C257.251 129.269 258.264 128.566 258.542 127.559C258.675 127.091 258.656 126.591 258.827 126.135C259.125 125.331 259.941 124.831 260.327 124.065C259.656 124.012 259.029 123.707 258.574 123.21C258.485 123.109 258.435 122.9 258.574 122.875C258.811 122.95 259.06 122.984 259.308 122.976L257.77 121.121C257.376 120.581 256.887 120.118 256.327 119.754C255.333 119.197 254.124 119.304 252.984 119.26C252.897 119.267 252.81 119.244 252.737 119.197C252.686 119.136 252.643 119.068 252.611 118.994C252.529 118.912 252.429 118.85 252.319 118.814C252.209 118.778 252.092 118.768 251.978 118.785C250.666 118.836 249.376 119.139 248.179 119.678C247.027 120.096 246.609 121.115 246.521 122.273Z" fill="#3F3D56"/>
<defs>
<linearGradient id="paint0_linear_3_222" x1="153.133" y1="32.9566" x2="168.504" y2="73.8198" gradientUnits="userSpaceOnUse">
<stop stop-color="white" stop-opacity="0"/>
<stop offset="0.99" stop-color="white"/>
</linearGradient>
<linearGradient id="paint1_linear_3_222" x1="247.249" y1="130.642" x2="257.27" y2="130.642" gradientUnits="userSpaceOnUse">
<stop stop-color="#ECC4D7"/>
<stop offset="0.42" stop-color="#EFD4D1"/>
<stop offset="1" stop-color="#F2EAC9"/>
</linearGradient>
<linearGradient id="paint2_linear_3_222" x1="128.85" y1="147.513" x2="110.542" y2="157.078" gradientUnits="userSpaceOnUse">
<stop offset="0.05" stop-opacity="0"/>
<stop offset="0.89" stop-opacity="0.75"/>
<stop offset="0.99"/>
</linearGradient>
<linearGradient id="paint3_linear_3_222" x1="110.384" y1="152.919" x2="123.026" y2="152.919" gradientUnits="userSpaceOnUse">
<stop stop-color="white" stop-opacity="0"/>
<stop offset="0.99" stop-color="white"/>
</linearGradient>
<linearGradient id="paint4_linear_3_222" x1="74.8064" y1="261.911" x2="110.168" y2="190.554" gradientUnits="userSpaceOnUse">
<stop offset="0.05" stop-opacity="0"/>
<stop offset="0.89" stop-opacity="0.75"/>
<stop offset="0.99"/>
</linearGradient>
<linearGradient id="paint5_linear_3_222" x1="103.99" y1="199.929" x2="110.681" y2="199.929" gradientUnits="userSpaceOnUse">
<stop stop-color="#ECC4D7"/>
<stop offset="0.42" stop-color="#EFD4D1"/>
<stop offset="1" stop-color="#F2EAC9"/>
</linearGradient>
<linearGradient id="paint6_linear_3_222" x1="97.2099" y1="196.511" x2="104.173" y2="196.511" gradientUnits="userSpaceOnUse">
<stop stop-color="#ECC4D7"/>
<stop offset="0.42" stop-color="#EFD4D1"/>
<stop offset="1" stop-color="#F2EAC9"/>
</linearGradient>
<linearGradient id="paint7_linear_3_222" x1="111.58" y1="152.02" x2="120.114" y2="152.02" gradientUnits="userSpaceOnUse">
<stop stop-color="#ECC4D7"/>
<stop offset="0.42" stop-color="#EFD4D1"/>
<stop offset="1" stop-color="#F2EAC9"/>
</linearGradient>
<linearGradient id="paint8_linear_3_222" x1="158.552" y1="169.258" x2="157.084" y2="69.7051" gradientUnits="userSpaceOnUse">
<stop stop-color="white" stop-opacity="0"/>
<stop offset="0.99" stop-color="white"/>
</linearGradient>
<linearGradient id="paint9_linear_3_222" x1="156.14" y1="69.2555" x2="165.459" y2="221.276" gradientUnits="userSpaceOnUse">
<stop stop-opacity="0"/>
<stop offset="0.99"/>
</linearGradient>
<linearGradient id="paint10_linear_3_222" x1="148.962" y1="39.3187" x2="163.674" y2="165.188" gradientUnits="userSpaceOnUse">
<stop stop-color="white" stop-opacity="0"/>
<stop offset="0.99" stop-color="white"/>
</linearGradient>
<linearGradient id="paint11_linear_3_222" x1="104.946" y1="136.643" x2="113.878" y2="136.643" gradientUnits="userSpaceOnUse">
<stop stop-color="#ECC4D7"/>
<stop offset="0.42" stop-color="#EFD4D1"/>
<stop offset="1" stop-color="#F2EAC9"/>
</linearGradient>
<linearGradient id="paint12_linear_3_222" x1="97.3112" y1="154.04" x2="115.378" y2="154.04" gradientUnits="userSpaceOnUse">
<stop stop-color="white" stop-opacity="0"/>
<stop offset="0.99" stop-color="white"/>
</linearGradient>
<linearGradient id="paint13_linear_3_222" x1="86.923" y1="149.203" x2="101.534" y2="149.203" gradientUnits="userSpaceOnUse">
<stop stop-color="#ECC4D7"/>
<stop offset="0.42" stop-color="#EFD4D1"/>
<stop offset="1" stop-color="#F2EAC9"/>
</linearGradient>
<linearGradient id="paint14_linear_3_222" x1="62.8417" y1="165.2" x2="116.239" y2="180.894" gradientUnits="userSpaceOnUse">
<stop offset="0.05" stop-opacity="0"/>
<stop offset="0.89" stop-opacity="0.75"/>
<stop offset="0.99"/>
</linearGradient>
<linearGradient id="paint15_linear_3_222" x1="102.268" y1="199.549" x2="100.141" y2="261.993" gradientUnits="userSpaceOnUse">
<stop stop-color="white" stop-opacity="0"/>
<stop offset="0.99" stop-color="white"/>
</linearGradient>
<linearGradient id="paint16_linear_3_222" x1="110.352" y1="131.459" x2="106.649" y2="131.567" gradientUnits="userSpaceOnUse">
<stop offset="0.05" stop-opacity="0"/>
<stop offset="0.89" stop-opacity="0.75"/>
<stop offset="0.99"/>
</linearGradient>
<linearGradient id="paint17_linear_3_222" x1="264.056" y1="106.656" x2="255.554" y2="157.332" gradientUnits="userSpaceOnUse">
<stop stop-color="white" stop-opacity="0"/>
<stop offset="0.99" stop-color="white"/>
</linearGradient>
<linearGradient id="paint18_linear_3_222" x1="265.905" y1="193.89" x2="272.438" y2="109.764" gradientUnits="userSpaceOnUse">
<stop stop-color="white" stop-opacity="0"/>
<stop offset="0.99" stop-color="white"/>
</linearGradient>
<linearGradient id="paint19_linear_3_222" x1="238.076" y1="213.793" x2="244.615" y2="129.667" gradientUnits="userSpaceOnUse">
<stop stop-color="white" stop-opacity="0"/>
<stop offset="0.99" stop-color="white"/>
</linearGradient>
<linearGradient id="paint20_linear_3_222" x1="249.673" y1="124.729" x2="287.599" y2="228.366" gradientUnits="userSpaceOnUse">
<stop stop-opacity="0"/>
<stop offset="0.99"/>
</linearGradient>
<linearGradient id="paint21_linear_3_222" x1="244.115" y1="135.776" x2="296.753" y2="184.325" gradientUnits="userSpaceOnUse">
<stop stop-color="white" stop-opacity="0"/>
<stop offset="0.99" stop-color="white"/>
</linearGradient>
<linearGradient id="paint22_linear_3_222" x1="243.64" y1="131.908" x2="260.859" y2="210.59" gradientUnits="userSpaceOnUse">
<stop offset="0.05" stop-opacity="0"/>
<stop offset="0.89" stop-opacity="0.75"/>
<stop offset="0.99"/>
</linearGradient>
<linearGradient id="paint23_linear_3_222" x1="258.599" y1="201.354" x2="266.417" y2="201.354" gradientUnits="userSpaceOnUse">
<stop stop-color="#ECC4D7"/>
<stop offset="0.42" stop-color="#EFD4D1"/>
<stop offset="1" stop-color="#F2EAC9"/>
</linearGradient>
<linearGradient id="paint24_linear_3_222" x1="272.919" y1="200.784" x2="246.274" y2="255.714" gradientUnits="userSpaceOnUse">
<stop stop-color="white" stop-opacity="0"/>
<stop offset="0.99" stop-color="white"/>
</linearGradient>
<linearGradient id="paint25_linear_3_222" x1="238.842" y1="158.18" x2="245.666" y2="158.18" gradientUnits="userSpaceOnUse">
<stop stop-color="#ECC4D7"/>
<stop offset="0.42" stop-color="#EFD4D1"/>
<stop offset="1" stop-color="#F2EAC9"/>
</linearGradient>
<linearGradient id="paint26_linear_3_222" x1="271.336" y1="154.173" x2="276.059" y2="154.173" gradientUnits="userSpaceOnUse">
<stop stop-color="#ECC4D7"/>
<stop offset="0.42" stop-color="#EFD4D1"/>
<stop offset="1" stop-color="#F2EAC9"/>
</linearGradient>
<linearGradient id="paint27_linear_3_222" x1="59.3094" y1="186.376" x2="148.563" y2="125.894" gradientUnits="userSpaceOnUse">
<stop offset="0.05" stop-opacity="0"/>
<stop offset="0.89" stop-opacity="0.75"/>
<stop offset="0.99"/>
</linearGradient>
<linearGradient id="paint28_linear_3_222" x1="50.491" y1="83.5182" x2="48.5285" y2="299.622" gradientUnits="userSpaceOnUse">
<stop stop-opacity="0"/>
<stop offset="0.99"/>
</linearGradient>
<linearGradient id="paint29_linear_3_222" x1="256.732" y1="76.0544" x2="308.711" y2="220.231" gradientUnits="userSpaceOnUse">
<stop stop-opacity="0"/>
<stop offset="0.99"/>
</linearGradient>
<linearGradient id="paint30_linear_3_222" x1="279.18" y1="416.387" x2="1.24619" y2="-124.85" gradientUnits="userSpaceOnUse">
<stop offset="0.05" stop-opacity="0"/>
<stop offset="0.89" stop-opacity="0.75"/>
<stop offset="0.99"/>
</linearGradient>
<linearGradient id="paint31_linear_3_222" x1="244.723" y1="188.123" x2="261.657" y2="191.212" gradientUnits="userSpaceOnUse">
<stop offset="0.05" stop-opacity="0"/>
<stop offset="0.89" stop-opacity="0.75"/>
<stop offset="0.99"/>
</linearGradient>
<linearGradient id="paint32_linear_3_222" x1="246.983" y1="205.272" x2="252.199" y2="205.272" gradientUnits="userSpaceOnUse">
<stop stop-color="#ECC4D7"/>
<stop offset="0.42" stop-color="#EFD4D1"/>
<stop offset="1" stop-color="#F2EAC9"/>
</linearGradient>
<linearGradient id="paint33_linear_3_222" x1="315.865" y1="267.146" x2="220.73" y2="180.837" gradientUnits="userSpaceOnUse">
<stop offset="0.05" stop-opacity="0"/>
<stop offset="0.89" stop-opacity="0.75"/>
<stop offset="0.99"/>
</linearGradient>
<linearGradient id="paint34_linear_3_222" x1="119.791" y1="137.473" x2="83.6121" y2="180.52" gradientUnits="userSpaceOnUse">
<stop offset="0.05" stop-opacity="0"/>
<stop offset="0.89" stop-opacity="0.75"/>
<stop offset="0.99"/>
</linearGradient>
<linearGradient id="paint35_linear_3_222" x1="103.585" y1="138.517" x2="88.7144" y2="203.253" gradientUnits="userSpaceOnUse">
<stop offset="0.05" stop-opacity="0"/>
<stop offset="0.89" stop-opacity="0.75"/>
<stop offset="0.99"/>
</linearGradient>
</defs>
</svg>
