<svg width="213" height="119" viewBox="0 0 213 119" fill="none" xmlns="http://www.w3.org/2000/svg">
<g clip-path="url(#clip0_290_4)" filter="url(#filter0_d_290_4)">
<path d="M92.23 42.41C83.5401 62.98 70.41 81.66 54.0301 96.84C49.4101 101.12 44.52 105.07 39.49 108.85C38.89 109.3 39.02 109.95 39.68 110.19C40.46 110.48 41.65 110.22 42.31 109.76C60.94 96.66 76.5701 78.89 87.8301 59.14C91.0101 53.57 93.84 47.8 96.3301 41.89C96.7001 41.02 94.9901 40.96 94.5601 41.01C93.6701 41.12 92.6 41.52 92.23 42.4V42.41Z" fill="black"/>
<path d="M38.17 98.16C36.3 102.92 34.58 107.75 33.02 112.62C32.92 112.95 33.18 113.23 33.44 113.37C35.83 114.58 38.52 114.4 41.07 113.86C43.97 113.24 46.81 112.23 49.64 111.38C55.61 109.58 61.68 107.96 67.57 105.89C68.12 105.7 69 105.1 68.69 104.43C68.38 103.76 67.04 103.96 66.52 104.09C61.21 105.43 55.99 107.19 50.74 108.77C48.19 109.54 45.65 110.31 43.1 111.07C41 111.7 38.82 112.39 36.74 111.35L37.16 112.1C38.7 107.23 40.4 102.41 42.26 97.64C42.6 96.76 40.93 96.7 40.48 96.76C39.61 96.87 38.49 97.27 38.14 98.16H38.17Z" fill="black"/>
</g>
<path d="M2.1123 24V6.5H7.0623V20.075H15.4123V24H2.1123ZM24.9473 24.225C23.3473 24.225 21.9473 23.925 20.7473 23.325C19.5639 22.7083 18.6389 21.875 17.9723 20.825C17.3223 19.7583 16.9973 18.55 16.9973 17.2C16.9973 15.85 17.3139 14.65 17.9473 13.6C18.5973 12.5333 19.4889 11.7083 20.6223 11.125C21.7556 10.525 23.0306 10.225 24.4473 10.225C25.7806 10.225 26.9973 10.5 28.0973 11.05C29.1973 11.5833 30.0723 12.375 30.7223 13.425C31.3723 14.475 31.6973 15.75 31.6973 17.25C31.6973 17.4167 31.6889 17.6083 31.6723 17.825C31.6556 18.0417 31.6389 18.2417 31.6223 18.425H20.8973V15.925H29.0973L27.2973 16.625C27.3139 16.0083 27.1973 15.475 26.9473 15.025C26.7139 14.575 26.3806 14.225 25.9473 13.975C25.5306 13.725 25.0389 13.6 24.4723 13.6C23.9056 13.6 23.4056 13.725 22.9723 13.975C22.5556 14.225 22.2306 14.5833 21.9973 15.05C21.7639 15.5 21.6473 16.0333 21.6473 16.65V17.375C21.6473 18.0417 21.7806 18.6167 22.0473 19.1C22.3306 19.5833 22.7306 19.9583 23.2473 20.225C23.7639 20.475 24.3806 20.6 25.0973 20.6C25.7639 20.6 26.3306 20.5083 26.7973 20.325C27.2806 20.125 27.7556 19.825 28.2223 19.425L30.7223 22.025C30.0723 22.7417 29.2723 23.2917 28.3223 23.675C27.3723 24.0417 26.2473 24.225 24.9473 24.225ZM40.6873 24.225C38.954 24.225 37.604 23.8 36.6373 22.95C35.6706 22.0833 35.1873 20.7833 35.1873 19.05V7.425H39.9373V19C39.9373 19.4833 40.0706 19.8667 40.3373 20.15C40.604 20.4167 40.9456 20.55 41.3623 20.55C41.929 20.55 42.4123 20.4083 42.8123 20.125L43.9873 23.45C43.5873 23.7167 43.0956 23.9083 42.5123 24.025C41.929 24.1583 41.3206 24.225 40.6873 24.225ZM33.2123 14.5V10.95H43.0373V14.5H33.2123ZM46.0439 14.55L47.9189 8.05L48.5939 10.75C47.7606 10.75 47.0773 10.5083 46.5439 10.025C46.0106 9.525 45.7439 8.85833 45.7439 8.025C45.7439 7.175 46.0106 6.5 46.5439 6C47.0939 5.48333 47.7773 5.225 48.5939 5.225C49.4106 5.225 50.0856 5.48333 50.6189 6C51.1523 6.5 51.4189 7.175 51.4189 8.025C51.4189 8.25833 51.4023 8.5 51.3689 8.75C51.3356 8.98333 51.2606 9.26667 51.1439 9.6C51.0439 9.91667 50.8689 10.35 50.6189 10.9L49.0189 14.55H46.0439ZM58.8602 24.225C57.7102 24.225 56.5852 24.0917 55.4852 23.825C54.4018 23.5583 53.5268 23.225 52.8602 22.825L54.2852 19.575C54.9185 19.9583 55.6602 20.2667 56.5102 20.5C57.3602 20.7167 58.1935 20.825 59.0102 20.825C59.8102 20.825 60.3602 20.7417 60.6602 20.575C60.9768 20.4083 61.1352 20.1833 61.1352 19.9C61.1352 19.6333 60.9852 19.4417 60.6852 19.325C60.4018 19.1917 60.0185 19.0917 59.5352 19.025C59.0685 18.9583 58.5518 18.8833 57.9852 18.8C57.4185 18.7167 56.8435 18.6083 56.2602 18.475C55.6935 18.325 55.1685 18.1083 54.6852 17.825C54.2185 17.525 53.8435 17.125 53.5602 16.625C53.2768 16.125 53.1352 15.4917 53.1352 14.725C53.1352 13.8583 53.3852 13.0917 53.8852 12.425C54.4018 11.7417 55.1518 11.2083 56.1352 10.825C57.1185 10.425 58.3185 10.225 59.7352 10.225C60.6852 10.225 61.6435 10.325 62.6102 10.525C63.5935 10.7083 64.4185 10.9917 65.0852 11.375L63.6602 14.6C62.9935 14.2167 62.3268 13.9583 61.6602 13.825C60.9935 13.675 60.3602 13.6 59.7602 13.6C58.9602 13.6 58.3935 13.6917 58.0602 13.875C57.7435 14.0583 57.5852 14.2833 57.5852 14.55C57.5852 14.8167 57.7268 15.025 58.0102 15.175C58.2935 15.3083 58.6685 15.4167 59.1352 15.5C59.6185 15.5667 60.1435 15.6417 60.7102 15.725C61.2768 15.7917 61.8435 15.9 62.4102 16.05C62.9935 16.2 63.5185 16.425 63.9852 16.725C64.4685 17.0083 64.8518 17.4 65.1352 17.9C65.4185 18.3833 65.5602 19.0083 65.5602 19.775C65.5602 20.6083 65.3018 21.3583 64.7852 22.025C64.2852 22.6917 63.5352 23.225 62.5352 23.625C61.5518 24.025 60.3268 24.225 58.8602 24.225ZM81.3074 24.225C80.1574 24.225 79.0324 24.0917 77.9324 23.825C76.8491 23.5583 75.9741 23.225 75.3074 22.825L76.7324 19.575C77.3658 19.9583 78.1074 20.2667 78.9574 20.5C79.8074 20.7167 80.6408 20.825 81.4574 20.825C82.2574 20.825 82.8074 20.7417 83.1074 20.575C83.4241 20.4083 83.5824 20.1833 83.5824 19.9C83.5824 19.6333 83.4324 19.4417 83.1324 19.325C82.8491 19.1917 82.4658 19.0917 81.9824 19.025C81.5158 18.9583 80.9991 18.8833 80.4324 18.8C79.8658 18.7167 79.2908 18.6083 78.7074 18.475C78.1408 18.325 77.6158 18.1083 77.1324 17.825C76.6658 17.525 76.2908 17.125 76.0074 16.625C75.7241 16.125 75.5824 15.4917 75.5824 14.725C75.5824 13.8583 75.8324 13.0917 76.3324 12.425C76.8491 11.7417 77.5991 11.2083 78.5824 10.825C79.5658 10.425 80.7658 10.225 82.1824 10.225C83.1324 10.225 84.0908 10.325 85.0574 10.525C86.0408 10.7083 86.8658 10.9917 87.5324 11.375L86.1074 14.6C85.4408 14.2167 84.7741 13.9583 84.1074 13.825C83.4408 13.675 82.8074 13.6 82.2074 13.6C81.4074 13.6 80.8408 13.6917 80.5074 13.875C80.1908 14.0583 80.0324 14.2833 80.0324 14.55C80.0324 14.8167 80.1741 15.025 80.4574 15.175C80.7408 15.3083 81.1158 15.4167 81.5824 15.5C82.0658 15.5667 82.5908 15.6417 83.1574 15.725C83.7241 15.7917 84.2908 15.9 84.8574 16.05C85.4408 16.2 85.9658 16.425 86.4324 16.725C86.9158 17.0083 87.2991 17.4 87.5824 17.9C87.8658 18.3833 88.0074 19.0083 88.0074 19.775C88.0074 20.6083 87.7491 21.3583 87.2324 22.025C86.7324 22.6917 85.9824 23.225 84.9824 23.625C83.9991 24.025 82.7741 24.225 81.3074 24.225ZM96.8543 24.225C95.121 24.225 93.771 23.8 92.8043 22.95C91.8376 22.0833 91.3543 20.7833 91.3543 19.05V7.425H96.1043V19C96.1043 19.4833 96.2376 19.8667 96.5043 20.15C96.771 20.4167 97.1126 20.55 97.5293 20.55C98.096 20.55 98.5793 20.4083 98.9793 20.125L100.154 23.45C99.7543 23.7167 99.2626 23.9083 98.6793 24.025C98.096 24.1583 97.4876 24.225 96.8543 24.225ZM89.3793 14.5V10.95H99.2043V14.5H89.3793ZM111.011 24V21.475L110.686 20.85V16.2C110.686 15.45 110.453 14.875 109.986 14.475C109.536 14.0583 108.811 13.85 107.811 13.85C107.161 13.85 106.503 13.9583 105.836 14.175C105.169 14.375 104.603 14.6583 104.136 15.025L102.536 11.8C103.303 11.3 104.219 10.9167 105.286 10.65C106.369 10.3667 107.444 10.225 108.511 10.225C110.711 10.225 112.411 10.7333 113.611 11.75C114.828 12.75 115.436 14.325 115.436 16.475V24H111.011ZM107.011 24.225C105.928 24.225 105.011 24.0417 104.261 23.675C103.511 23.3083 102.936 22.8083 102.536 22.175C102.153 21.5417 101.961 20.8333 101.961 20.05C101.961 19.2167 102.169 18.5 102.586 17.9C103.019 17.2833 103.678 16.8167 104.561 16.5C105.444 16.1667 106.586 16 107.986 16H111.186V18.475H108.636C107.869 18.475 107.328 18.6 107.011 18.85C106.711 19.1 106.561 19.4333 106.561 19.85C106.561 20.2667 106.719 20.6 107.036 20.85C107.353 21.1 107.786 21.225 108.336 21.225C108.853 21.225 109.319 21.1 109.736 20.85C110.169 20.5833 110.486 20.1833 110.686 19.65L111.336 21.4C111.086 22.3333 110.594 23.0417 109.861 23.525C109.144 23.9917 108.194 24.225 107.011 24.225ZM119.184 24V10.45H123.709V14.4L123.034 13.275C123.434 12.2583 124.084 11.5 124.984 11C125.884 10.4833 126.976 10.225 128.259 10.225V14.5C128.043 14.4667 127.851 14.45 127.684 14.45C127.534 14.4333 127.368 14.425 127.184 14.425C126.218 14.425 125.434 14.6917 124.834 15.225C124.234 15.7417 123.934 16.5917 123.934 17.775V24H119.184ZM137.434 24.225C135.701 24.225 134.351 23.8 133.384 22.95C132.418 22.0833 131.934 20.7833 131.934 19.05V7.425H136.684V19C136.684 19.4833 136.818 19.8667 137.084 20.15C137.351 20.4167 137.693 20.55 138.109 20.55C138.676 20.55 139.159 20.4083 139.559 20.125L140.734 23.45C140.334 23.7167 139.843 23.9083 139.259 24.025C138.676 24.1583 138.068 24.225 137.434 24.225ZM129.959 14.5V10.95H139.784V14.5H129.959ZM160.166 10.225C161.216 10.225 162.166 10.4417 163.016 10.875C163.866 11.2917 164.533 11.9417 165.016 12.825C165.516 13.7083 165.766 14.85 165.766 16.25V24H161.016V17.025C161.016 16.0583 160.816 15.3583 160.416 14.925C160.033 14.475 159.491 14.25 158.791 14.25C158.291 14.25 157.833 14.3667 157.416 14.6C157 14.8167 156.675 15.1583 156.441 15.625C156.208 16.0917 156.091 16.7 156.091 17.45V24H151.341V5.45H156.091V14.3L154.991 13.175C155.508 12.1917 156.216 11.4583 157.116 10.975C158.016 10.475 159.033 10.225 160.166 10.225ZM176.77 24.225C175.17 24.225 173.77 23.925 172.57 23.325C171.386 22.7083 170.461 21.875 169.795 20.825C169.145 19.7583 168.82 18.55 168.82 17.2C168.82 15.85 169.136 14.65 169.77 13.6C170.42 12.5333 171.311 11.7083 172.445 11.125C173.578 10.525 174.853 10.225 176.27 10.225C177.603 10.225 178.82 10.5 179.92 11.05C181.02 11.5833 181.895 12.375 182.545 13.425C183.195 14.475 183.52 15.75 183.52 17.25C183.52 17.4167 183.511 17.6083 183.495 17.825C183.478 18.0417 183.461 18.2417 183.445 18.425H172.72V15.925H180.92L179.12 16.625C179.136 16.0083 179.02 15.475 178.77 15.025C178.536 14.575 178.203 14.225 177.77 13.975C177.353 13.725 176.861 13.6 176.295 13.6C175.728 13.6 175.228 13.725 174.795 13.975C174.378 14.225 174.053 14.5833 173.82 15.05C173.586 15.5 173.47 16.0333 173.47 16.65V17.375C173.47 18.0417 173.603 18.6167 173.87 19.1C174.153 19.5833 174.553 19.9583 175.07 20.225C175.586 20.475 176.203 20.6 176.92 20.6C177.586 20.6 178.153 20.5083 178.62 20.325C179.103 20.125 179.578 19.825 180.045 19.425L182.545 22.025C181.895 22.7417 181.095 23.2917 180.145 23.675C179.195 24.0417 178.07 24.225 176.77 24.225ZM186.46 24V10.45H190.985V14.4L190.31 13.275C190.71 12.2583 191.36 11.5 192.26 11C193.16 10.4833 194.251 10.225 195.535 10.225V14.5C195.318 14.4667 195.126 14.45 194.96 14.45C194.81 14.4333 194.643 14.425 194.46 14.425C193.493 14.425 192.71 14.6917 192.11 15.225C191.51 15.7417 191.21 16.5917 191.21 17.775V24H186.46ZM205.223 24.225C203.623 24.225 202.223 23.925 201.023 23.325C199.839 22.7083 198.914 21.875 198.248 20.825C197.598 19.7583 197.273 18.55 197.273 17.2C197.273 15.85 197.589 14.65 198.223 13.6C198.873 12.5333 199.764 11.7083 200.898 11.125C202.031 10.525 203.306 10.225 204.723 10.225C206.056 10.225 207.273 10.5 208.373 11.05C209.473 11.5833 210.348 12.375 210.998 13.425C211.648 14.475 211.973 15.75 211.973 17.25C211.973 17.4167 211.964 17.6083 211.948 17.825C211.931 18.0417 211.914 18.2417 211.898 18.425H201.173V15.925H209.373L207.573 16.625C207.589 16.0083 207.473 15.475 207.223 15.025C206.989 14.575 206.656 14.225 206.223 13.975C205.806 13.725 205.314 13.6 204.748 13.6C204.181 13.6 203.681 13.725 203.248 13.975C202.831 14.225 202.506 14.5833 202.273 15.05C202.039 15.5 201.923 16.0333 201.923 16.65V17.375C201.923 18.0417 202.056 18.6167 202.323 19.1C202.606 19.5833 203.006 19.9583 203.523 20.225C204.039 20.475 204.656 20.6 205.373 20.6C206.039 20.6 206.606 20.5083 207.073 20.325C207.556 20.125 208.031 19.825 208.498 19.425L210.998 22.025C210.348 22.7417 209.548 23.2917 208.598 23.675C207.648 24.0417 206.523 24.225 205.223 24.225Z" fill="black"/>
<defs>
<filter id="filter0_d_290_4" x="32" y="41" width="65.3901" height="77.27" filterUnits="userSpaceOnUse" color-interpolation-filters="sRGB">
<feFlood flood-opacity="0" result="BackgroundImageFix"/>
<feColorMatrix in="SourceAlpha" type="matrix" values="0 0 0 0 0 0 0 0 0 0 0 0 0 0 0 0 0 0 127 0" result="hardAlpha"/>
<feOffset dy="3"/>
<feGaussianBlur stdDeviation="0.5"/>
<feComposite in2="hardAlpha" operator="out"/>
<feColorMatrix type="matrix" values="0 0 0 0 0 0 0 0 0 0 0 0 0 0 0 0 0 0 0.25 0"/>
<feBlend mode="normal" in2="BackgroundImageFix" result="effect1_dropShadow_290_4"/>
<feBlend mode="normal" in="SourceGraphic" in2="effect1_dropShadow_290_4" result="shape"/>
</filter>
<clipPath id="clip0_290_4">
<rect width="63.39" height="73.27" fill="white" transform="translate(33 41)"/>
</clipPath>
</defs>
</svg>
