<svg width="798" height="281" viewBox="0 0 798 281" fill="none" xmlns="http://www.w3.org/2000/svg">
<g filter="url(#filter0_d_3_66)">
<path d="M8.92207 87.5846V24.5846H37.7221C43.4821 24.5846 48.4321 25.5146 52.5721 27.3746C56.7721 29.2346 60.0121 31.9346 62.2921 35.4746C64.5721 38.9546 65.7121 43.0946 65.7121 47.8946C65.7121 52.6346 64.5721 56.7446 62.2921 60.2246C60.0121 63.7046 56.7721 66.4046 52.5721 68.3246C48.4321 70.1846 43.4821 71.1146 37.7221 71.1146H18.8221L26.7421 63.3746V87.5846H8.92207ZM26.7421 65.2646L18.8221 57.0746H36.6421C40.3621 57.0746 43.1221 56.2646 44.9221 54.6446C46.7821 53.0246 47.7121 50.7746 47.7121 47.8946C47.7121 44.9546 46.7821 42.6746 44.9221 41.0546C43.1221 39.4346 40.3621 38.6246 36.6421 38.6246H18.8221L26.7421 30.4346V65.2646ZM77.1695 87.5846V20.8046H94.2695V87.5846H77.1695ZM133.642 88.3946C127.882 88.3946 122.842 87.3146 118.522 85.1546C114.262 82.9346 110.932 79.9346 108.532 76.1546C106.192 72.3146 105.022 67.9646 105.022 63.1046C105.022 58.2446 106.162 53.9246 108.442 50.1446C110.782 46.3046 113.992 43.3346 118.072 41.2346C122.152 39.0746 126.742 37.9946 131.842 37.9946C136.642 37.9946 141.022 38.9846 144.982 40.9646C148.942 42.8846 152.092 45.7346 154.432 49.5146C156.772 53.2946 157.942 57.8846 157.942 63.2846C157.942 63.8846 157.912 64.5746 157.852 65.3546C157.792 66.1346 157.732 66.8546 157.672 67.5146H119.062V58.5146H148.582L142.102 61.0346C142.162 58.8146 141.742 56.8946 140.842 55.2746C140.002 53.6546 138.802 52.3946 137.242 51.4946C135.742 50.5946 133.972 50.1446 131.932 50.1446C129.892 50.1446 128.092 50.5946 126.532 51.4946C125.032 52.3946 123.862 53.6846 123.022 55.3646C122.182 56.9846 121.762 58.9046 121.762 61.1246V63.7346C121.762 66.1346 122.242 68.2046 123.202 69.9446C124.222 71.6846 125.662 73.0346 127.522 73.9946C129.382 74.8946 131.602 75.3446 134.182 75.3446C136.582 75.3446 138.622 75.0146 140.302 74.3546C142.042 73.6346 143.752 72.5546 145.432 71.1146L154.432 80.4746C152.092 83.0546 149.212 85.0346 145.792 86.4146C142.372 87.7346 138.322 88.3946 133.642 88.3946ZM196.998 87.5846V78.4946L195.828 76.2446V59.5046C195.828 56.8046 194.988 54.7346 193.308 53.2946C191.688 51.7946 189.078 51.0446 185.478 51.0446C183.138 51.0446 180.768 51.4346 178.368 52.2146C175.968 52.9346 173.928 53.9546 172.248 55.2746L166.488 43.6646C169.248 41.8646 172.548 40.4846 176.388 39.5246C180.288 38.5046 184.158 37.9946 187.998 37.9946C195.918 37.9946 202.038 39.8246 206.358 43.4846C210.738 47.0846 212.928 52.7546 212.928 60.4946V87.5846H196.998ZM182.598 88.3946C178.698 88.3946 175.398 87.7346 172.698 86.4146C169.998 85.0946 167.928 83.2946 166.488 81.0146C165.108 78.7346 164.418 76.1846 164.418 73.3646C164.418 70.3646 165.168 67.7846 166.668 65.6246C168.228 63.4046 170.598 61.7246 173.778 60.5846C176.958 59.3846 181.068 58.7846 186.108 58.7846H197.628V67.6946H188.448C185.688 67.6946 183.738 68.1446 182.598 69.0446C181.518 69.9446 180.978 71.1446 180.978 72.6446C180.978 74.1446 181.548 75.3446 182.688 76.2446C183.828 77.1446 185.388 77.5946 187.368 77.5946C189.228 77.5946 190.908 77.1446 192.408 76.2446C193.968 75.2846 195.108 73.8446 195.828 71.9246L198.168 78.2246C197.268 81.5846 195.498 84.1346 192.858 85.8746C190.278 87.5546 186.858 88.3946 182.598 88.3946ZM244.152 88.3946C240.012 88.3946 235.962 87.9146 232.002 86.9546C228.102 85.9946 224.952 84.7946 222.552 83.3546L227.682 71.6546C229.962 73.0346 232.632 74.1446 235.692 74.9846C238.752 75.7646 241.752 76.1546 244.692 76.1546C247.572 76.1546 249.552 75.8546 250.632 75.2546C251.772 74.6546 252.342 73.8446 252.342 72.8246C252.342 71.8646 251.802 71.1746 250.722 70.7546C249.702 70.2746 248.322 69.9146 246.582 69.6746C244.902 69.4346 243.042 69.1646 241.002 68.8646C238.962 68.5646 236.892 68.1746 234.792 67.6946C232.752 67.1546 230.862 66.3746 229.122 65.3546C227.442 64.2746 226.092 62.8346 225.072 61.0346C224.052 59.2346 223.542 56.9546 223.542 54.1946C223.542 51.0746 224.442 48.3146 226.242 45.9146C228.102 43.4546 230.802 41.5346 234.342 40.1546C237.882 38.7146 242.202 37.9946 247.302 37.9946C250.722 37.9946 254.172 38.3546 257.652 39.0746C261.192 39.7346 264.162 40.7546 266.562 42.1346L261.432 53.7446C259.032 52.3646 256.632 51.4346 254.232 50.9546C251.832 50.4146 249.552 50.1446 247.392 50.1446C244.512 50.1446 242.472 50.4746 241.272 51.1346C240.132 51.7946 239.562 52.6046 239.562 53.5646C239.562 54.5246 240.072 55.2746 241.092 55.8146C242.112 56.2946 243.462 56.6846 245.142 56.9846C246.882 57.2246 248.772 57.4946 250.812 57.7946C252.852 58.0346 254.892 58.4246 256.932 58.9646C259.032 59.5046 260.922 60.3146 262.602 61.3946C264.342 62.4146 265.722 63.8246 266.742 65.6246C267.762 67.3646 268.272 69.6146 268.272 72.3746C268.272 75.3746 267.342 78.0746 265.482 80.4746C263.682 82.8746 260.982 84.7946 257.382 86.2346C253.842 87.6746 249.432 88.3946 244.152 88.3946ZM303.901 88.3946C298.141 88.3946 293.101 87.3146 288.781 85.1546C284.521 82.9346 281.191 79.9346 278.791 76.1546C276.451 72.3146 275.281 67.9646 275.281 63.1046C275.281 58.2446 276.421 53.9246 278.701 50.1446C281.041 46.3046 284.251 43.3346 288.331 41.2346C292.411 39.0746 297.001 37.9946 302.101 37.9946C306.901 37.9946 311.281 38.9846 315.241 40.9646C319.201 42.8846 322.351 45.7346 324.691 49.5146C327.031 53.2946 328.201 57.8846 328.201 63.2846C328.201 63.8846 328.171 64.5746 328.111 65.3546C328.051 66.1346 327.991 66.8546 327.931 67.5146H289.321V58.5146H318.841L312.361 61.0346C312.421 58.8146 312.001 56.8946 311.101 55.2746C310.261 53.6546 309.061 52.3946 307.501 51.4946C306.001 50.5946 304.231 50.1446 302.191 50.1446C300.151 50.1446 298.351 50.5946 296.791 51.4946C295.291 52.3946 294.121 53.6846 293.281 55.3646C292.441 56.9846 292.021 58.9046 292.021 61.1246V63.7346C292.021 66.1346 292.501 68.2046 293.461 69.9446C294.481 71.6846 295.921 73.0346 297.781 73.9946C299.641 74.8946 301.861 75.3446 304.441 75.3446C306.841 75.3446 308.881 75.0146 310.561 74.3546C312.301 73.6346 314.011 72.5546 315.691 71.1146L324.691 80.4746C322.351 83.0546 319.471 85.0346 316.051 86.4146C312.631 87.7346 308.581 88.3946 303.901 88.3946ZM368.486 87.5846V24.5846H386.306V73.4546H416.366V87.5846H368.486ZM450.692 88.3946C444.932 88.3946 439.892 87.3146 435.572 85.1546C431.312 82.9346 427.982 79.9346 425.582 76.1546C423.242 72.3146 422.072 67.9646 422.072 63.1046C422.072 58.2446 423.212 53.9246 425.492 50.1446C427.832 46.3046 431.042 43.3346 435.122 41.2346C439.202 39.0746 443.792 37.9946 448.892 37.9946C453.692 37.9946 458.072 38.9846 462.032 40.9646C465.992 42.8846 469.142 45.7346 471.482 49.5146C473.822 53.2946 474.992 57.8846 474.992 63.2846C474.992 63.8846 474.962 64.5746 474.902 65.3546C474.842 66.1346 474.782 66.8546 474.722 67.5146H436.112V58.5146H465.632L459.152 61.0346C459.212 58.8146 458.792 56.8946 457.892 55.2746C457.052 53.6546 455.852 52.3946 454.292 51.4946C452.792 50.5946 451.022 50.1446 448.982 50.1446C446.942 50.1446 445.142 50.5946 443.582 51.4946C442.082 52.3946 440.912 53.6846 440.072 55.3646C439.232 56.9846 438.812 58.9046 438.812 61.1246V63.7346C438.812 66.1346 439.292 68.2046 440.252 69.9446C441.272 71.6846 442.712 73.0346 444.572 73.9946C446.432 74.8946 448.652 75.3446 451.232 75.3446C453.632 75.3446 455.672 75.0146 457.352 74.3546C459.092 73.6346 460.802 72.5546 462.482 71.1146L471.482 80.4746C469.142 83.0546 466.262 85.0346 462.842 86.4146C459.422 87.7346 455.372 88.3946 450.692 88.3946ZM498.287 87.5846L478.217 38.8046H495.767L511.787 79.5746H502.967L519.797 38.8046H536.087L515.927 87.5846H498.287ZM567.449 88.3946C561.689 88.3946 556.649 87.3146 552.329 85.1546C548.069 82.9346 544.739 79.9346 542.339 76.1546C539.999 72.3146 538.829 67.9646 538.829 63.1046C538.829 58.2446 539.969 53.9246 542.249 50.1446C544.589 46.3046 547.799 43.3346 551.879 41.2346C555.959 39.0746 560.549 37.9946 565.649 37.9946C570.449 37.9946 574.829 38.9846 578.789 40.9646C582.749 42.8846 585.899 45.7346 588.239 49.5146C590.579 53.2946 591.749 57.8846 591.749 63.2846C591.749 63.8846 591.719 64.5746 591.659 65.3546C591.599 66.1346 591.539 66.8546 591.479 67.5146H552.869V58.5146H582.389L575.909 61.0346C575.969 58.8146 575.549 56.8946 574.649 55.2746C573.809 53.6546 572.609 52.3946 571.049 51.4946C569.549 50.5946 567.779 50.1446 565.739 50.1446C563.699 50.1446 561.899 50.5946 560.339 51.4946C558.839 52.3946 557.669 53.6846 556.829 55.3646C555.989 56.9846 555.569 58.9046 555.569 61.1246V63.7346C555.569 66.1346 556.049 68.2046 557.009 69.9446C558.029 71.6846 559.469 73.0346 561.329 73.9946C563.189 74.8946 565.409 75.3446 567.989 75.3446C570.389 75.3446 572.429 75.0146 574.109 74.3546C575.849 73.6346 577.559 72.5546 579.239 71.1146L588.239 80.4746C585.899 83.0546 583.019 85.0346 579.599 86.4146C576.179 87.7346 572.129 88.3946 567.449 88.3946ZM602.334 87.5846V20.8046H619.434V87.5846H602.334ZM692.018 88.8446C682.718 88.8446 675.458 86.2946 670.238 81.1946C665.018 76.0946 662.408 68.8646 662.408 59.5046V24.5846H680.228V58.9646C680.228 64.3646 681.278 68.2346 683.378 70.5746C685.538 72.9146 688.478 74.0846 692.198 74.0846C695.918 74.0846 698.828 72.9146 700.928 70.5746C703.028 68.2346 704.078 64.3646 704.078 58.9646V24.5846H721.628V59.5046C721.628 68.8646 719.018 76.0946 713.798 81.1946C708.578 86.2946 701.318 88.8446 692.018 88.8446ZM766.28 88.3946C762.14 88.3946 758.6 87.4946 755.66 85.6946C752.72 83.8346 750.47 81.0746 748.91 77.4146C747.41 73.6946 746.66 68.9546 746.66 63.1946C746.66 57.3746 747.38 52.6346 748.82 48.9746C750.26 45.2546 752.42 42.4946 755.3 40.6946C758.24 38.8946 761.9 37.9946 766.28 37.9946C770.72 37.9946 774.74 39.0446 778.34 41.1446C782 43.1846 784.88 46.0946 786.98 49.8746C789.14 53.5946 790.22 58.0346 790.22 63.1946C790.22 68.3546 789.14 72.8246 786.98 76.6046C784.88 80.3846 782 83.2946 778.34 85.3346C774.74 87.3746 770.72 88.3946 766.28 88.3946ZM735.59 105.045V38.8046H751.88V47.0846L751.79 63.1946L752.69 79.3946V105.045H735.59ZM762.68 74.8046C764.6 74.8046 766.31 74.3546 767.81 73.4546C769.37 72.5546 770.6 71.2346 771.5 69.4946C772.46 67.7546 772.94 65.6546 772.94 63.1946C772.94 60.7346 772.46 58.6346 771.5 56.8946C770.6 55.1546 769.37 53.8346 767.81 52.9346C766.31 52.0346 764.6 51.5846 762.68 51.5846C760.76 51.5846 759.02 52.0346 757.46 52.9346C755.96 53.8346 754.73 55.1546 753.77 56.8946C752.87 58.6346 752.42 60.7346 752.42 63.1946C752.42 65.6546 752.87 67.7546 753.77 69.4946C754.73 71.2346 755.96 72.5546 757.46 73.4546C759.02 74.3546 760.76 74.8046 762.68 74.8046ZM183.65 197.585V134.585H198.32L224.42 177.425H216.68L242.06 134.585H256.73L256.91 197.585H240.53L240.35 159.515H243.14L224.15 191.375H216.23L196.7 159.515H200.12V197.585H183.65ZM279.78 215.855C277.2 215.855 274.59 215.435 271.95 214.595C269.37 213.815 267.27 212.765 265.65 211.445L271.59 199.475C272.61 200.375 273.78 201.065 275.1 201.545C276.48 202.085 277.83 202.355 279.15 202.355C281.01 202.355 282.48 201.935 283.56 201.095C284.64 200.255 285.57 198.935 286.35 197.135L288.6 191.465L289.95 189.755L306.51 148.805H322.8L301.74 199.565C300.06 203.765 298.11 207.035 295.89 209.375C293.73 211.775 291.3 213.455 288.6 214.415C285.96 215.375 283.02 215.855 279.78 215.855ZM286.44 199.655L264.93 148.805H282.48L298.32 188.225L286.44 199.655ZM381.761 198.845C376.601 198.845 371.621 198.215 366.821 196.955C362.081 195.635 358.211 193.955 355.211 191.915L361.061 178.775C363.881 180.575 367.121 182.075 370.781 183.275C374.501 184.415 378.191 184.985 381.851 184.985C384.311 184.985 386.291 184.775 387.791 184.355C389.291 183.875 390.371 183.275 391.031 182.555C391.751 181.775 392.111 180.875 392.111 179.855C392.111 178.415 391.451 177.275 390.131 176.435C388.811 175.595 387.101 174.905 385.001 174.365C382.901 173.825 380.561 173.285 377.981 172.745C375.461 172.205 372.911 171.515 370.331 170.675C367.811 169.835 365.501 168.755 363.401 167.435C361.301 166.055 359.591 164.285 358.271 162.125C356.951 159.905 356.291 157.115 356.291 153.755C356.291 149.975 357.311 146.555 359.351 143.495C361.451 140.435 364.571 137.975 368.711 136.115C372.851 134.255 378.011 133.325 384.191 133.325C388.331 133.325 392.381 133.805 396.341 134.765C400.361 135.665 403.931 137.015 407.051 138.815L401.561 152.045C398.561 150.425 395.591 149.225 392.651 148.445C389.711 147.605 386.861 147.185 384.101 147.185C381.641 147.185 379.661 147.455 378.161 147.995C376.661 148.475 375.581 149.135 374.921 149.975C374.261 150.815 373.931 151.775 373.931 152.855C373.931 154.235 374.561 155.345 375.821 156.185C377.141 156.965 378.851 157.625 380.951 158.165C383.111 158.645 385.451 159.155 387.971 159.695C390.551 160.235 393.101 160.925 395.621 161.765C398.201 162.545 400.541 163.625 402.641 165.005C404.741 166.325 406.421 168.095 407.681 170.315C409.001 172.475 409.661 175.205 409.661 178.505C409.661 182.165 408.611 185.555 406.511 188.675C404.471 191.735 401.381 194.195 397.241 196.055C393.161 197.915 388.001 198.845 381.761 198.845ZM434.003 188.585L434.453 168.155L454.343 148.805H474.593L452.543 171.575L443.813 178.595L434.003 188.585ZM419.783 197.585V130.805H436.883V197.585H419.783ZM455.603 197.585L440.663 178.865L451.283 165.725L476.303 197.585H455.603ZM484.182 197.585V148.805H501.282V197.585H484.182ZM492.732 143.405C489.612 143.405 487.092 142.535 485.172 140.795C483.252 139.055 482.292 136.895 482.292 134.315C482.292 131.735 483.252 129.575 485.172 127.835C487.092 126.095 489.612 125.225 492.732 125.225C495.852 125.225 498.372 126.065 500.292 127.745C502.212 129.365 503.172 131.465 503.172 134.045C503.172 136.745 502.212 138.995 500.292 140.795C498.432 142.535 495.912 143.405 492.732 143.405ZM515.095 197.585V130.805H532.195V197.585H515.095ZM546.008 197.585V130.805H563.108V197.585H546.008ZM594.651 198.395C590.511 198.395 586.461 197.915 582.501 196.955C578.601 195.995 575.451 194.795 573.051 193.355L578.181 181.655C580.461 183.035 583.131 184.145 586.191 184.985C589.251 185.765 592.251 186.155 595.191 186.155C598.071 186.155 600.051 185.855 601.131 185.255C602.271 184.655 602.841 183.845 602.841 182.825C602.841 181.865 602.301 181.175 601.221 180.755C600.201 180.275 598.821 179.915 597.081 179.675C595.401 179.435 593.541 179.165 591.501 178.865C589.461 178.565 587.391 178.175 585.291 177.695C583.251 177.155 581.361 176.375 579.621 175.355C577.941 174.275 576.591 172.835 575.571 171.035C574.551 169.235 574.041 166.955 574.041 164.195C574.041 161.075 574.941 158.315 576.741 155.915C578.601 153.455 581.301 151.535 584.841 150.155C588.381 148.715 592.701 147.995 597.801 147.995C601.221 147.995 604.671 148.355 608.151 149.075C611.691 149.735 614.661 150.755 617.061 152.135L611.931 163.745C609.531 162.365 607.131 161.435 604.731 160.955C602.331 160.415 600.051 160.145 597.891 160.145C595.011 160.145 592.971 160.475 591.771 161.135C590.631 161.795 590.061 162.605 590.061 163.565C590.061 164.525 590.571 165.275 591.591 165.815C592.611 166.295 593.961 166.685 595.641 166.985C597.381 167.225 599.271 167.495 601.311 167.795C603.351 168.035 605.391 168.425 607.431 168.965C609.531 169.505 611.421 170.315 613.101 171.395C614.841 172.415 616.221 173.825 617.241 175.625C618.261 177.365 618.771 179.615 618.771 182.375C618.771 185.375 617.841 188.075 615.981 190.475C614.181 192.875 611.481 194.795 607.881 196.235C604.341 197.675 599.931 198.395 594.651 198.395Z" fill="white"/>
</g>
<g clip-path="url(#clip0_3_66)">
<path d="M616.172 213.242L418.938 215.96C400.498 216.224 382.058 216.465 363.618 216.729L361.177 211.559C422.612 215.382 484.071 219.206 545.505 223.005C562.761 224.087 580.041 225.145 597.297 226.228C598.916 226.324 601.744 227.31 602.372 228.993C603.001 230.676 601.164 231.35 599.714 231.35C536.998 231.782 474.21 232.239 411.591 236.111C394.046 237.193 376.524 238.54 359.026 240.247L356.609 235.101C394.021 239.526 431.433 243.926 468.845 248.351C470.488 248.543 473.292 249.385 473.944 251.14C474.597 252.896 472.736 253.449 471.286 253.497C441.463 254.507 411.688 256.455 381.986 259.34L379.545 254.17C407.362 256.815 435.131 259.845 462.876 263.308C464.543 263.524 467.371 264.342 468.023 266.121C468.676 267.901 466.791 268.478 465.341 268.502C446.466 268.911 427.784 271.676 409.61 276.75L407.386 271.917C418.987 274.297 430.587 276.654 442.188 279.059C443.807 279.395 448.302 281.992 445.281 283.652C439.119 287.042 432.424 289.134 425.44 289.952C423.264 290.192 420.582 289.808 418.938 288.221C417.682 287.018 417.73 285.215 419.808 284.974C426.213 284.229 432.207 282.281 437.838 279.131L440.931 283.724C429.331 281.343 417.754 278.962 406.154 276.558C403.858 276.077 399.894 272.855 403.93 271.724C422.757 266.506 442.188 263.693 461.74 263.26L464.181 268.454C436.436 265.015 408.667 261.937 380.85 259.292C379.206 259.148 376.379 258.234 375.75 256.503C375.122 254.771 376.983 254.266 378.409 254.122C408.111 251.236 437.886 249.289 467.709 248.279L470.15 253.425C432.738 249 395.326 244.575 357.89 240.175C356.247 239.982 353.444 239.141 352.815 237.385C352.187 235.63 354.048 235.149 355.474 235.029C417.923 228.993 480.687 227.31 543.403 226.612C560.997 226.42 578.567 226.3 596.161 226.179L598.578 231.301C537.143 227.478 475.709 223.679 414.25 219.879L362.458 216.681C360.839 216.585 357.963 215.575 357.359 213.891C356.755 212.208 358.567 211.535 360.017 211.511C425.754 210.573 491.49 209.683 557.227 208.769L612.547 208C614.529 207.976 617.622 208.673 618.686 210.525C619.749 212.377 617.767 213.218 616.172 213.242Z" fill="white"/>
</g>
<defs>
<filter id="filter0_d_3_66" x="4.92212" y="20.8046" width="789.298" height="203.05" filterUnits="userSpaceOnUse" color-interpolation-filters="sRGB">
<feFlood flood-opacity="0" result="BackgroundImageFix"/>
<feColorMatrix in="SourceAlpha" type="matrix" values="0 0 0 0 0 0 0 0 0 0 0 0 0 0 0 0 0 0 127 0" result="hardAlpha"/>
<feOffset dy="4"/>
<feGaussianBlur stdDeviation="2"/>
<feComposite in2="hardAlpha" operator="out"/>
<feColorMatrix type="matrix" values="0 0 0 0 0 0 0 0 0 0 0 0 0 0 0 0 0 0 0.25 0"/>
<feBlend mode="normal" in2="BackgroundImageFix" result="effect1_dropShadow_3_66"/>
<feBlend mode="normal" in="SourceGraphic" in2="effect1_dropShadow_3_66" result="shape"/>
</filter>
<clipPath id="clip0_3_66">
<rect width="273" height="82" fill="white" transform="matrix(-1 0 0 1 619 199)"/>
</clipPath>
</defs>
</svg>
