<svg width="650" height="674" viewBox="0 0 650 674" fill="none" xmlns="http://www.w3.org/2000/svg">
<path d="M109.772 197V170.36L113.912 181.07L85.7424 134H104.552L124.892 168.11H114.002L134.432 134H151.712L123.632 181.07L127.592 170.36V197H109.772ZM177.253 197.81C171.913 197.81 167.173 196.73 163.033 194.57C158.893 192.41 155.623 189.44 153.223 185.66C150.883 181.82 149.713 177.44 149.713 172.52C149.713 167.6 150.883 163.25 153.223 159.47C155.623 155.69 158.893 152.75 163.033 150.65C167.173 148.49 171.913 147.41 177.253 147.41C182.593 147.41 187.333 148.49 191.473 150.65C195.673 152.75 198.943 155.69 201.283 159.47C203.623 163.25 204.793 167.6 204.793 172.52C204.793 177.44 203.623 181.82 201.283 185.66C198.943 189.44 195.673 192.41 191.473 194.57C187.333 196.73 182.593 197.81 177.253 197.81ZM177.253 184.22C179.233 184.22 180.973 183.77 182.473 182.87C184.033 181.97 185.263 180.65 186.163 178.91C187.063 177.11 187.513 174.98 187.513 172.52C187.513 170.06 187.063 167.99 186.163 166.31C185.263 164.57 184.033 163.25 182.473 162.35C180.973 161.45 179.233 161 177.253 161C175.333 161 173.593 161.45 172.033 162.35C170.533 163.25 169.303 164.57 168.343 166.31C167.443 167.99 166.993 170.06 166.993 172.52C166.993 174.98 167.443 177.11 168.343 178.91C169.303 180.65 170.533 181.97 172.033 182.87C173.593 183.77 175.333 184.22 177.253 184.22ZM235.935 197.81C231.975 197.81 228.405 197.03 225.225 195.47C222.105 193.91 219.645 191.48 217.845 188.18C216.105 184.82 215.235 180.59 215.235 175.49V148.22H232.335V172.7C232.335 176.48 233.025 179.18 234.405 180.8C235.845 182.42 237.855 183.23 240.435 183.23C242.115 183.23 243.645 182.84 245.025 182.06C246.405 181.28 247.515 180.05 248.355 178.37C249.195 176.63 249.615 174.41 249.615 171.71V148.22H266.715V197H250.425V183.23L253.575 187.1C251.895 190.7 249.465 193.4 246.285 195.2C243.105 196.94 239.655 197.81 235.935 197.81ZM278.539 162.98L285.289 139.58L287.719 149.3C284.719 149.3 282.259 148.43 280.339 146.69C278.419 144.89 277.459 142.49 277.459 139.49C277.459 136.43 278.419 134 280.339 132.2C282.319 130.34 284.779 129.41 287.719 129.41C290.659 129.41 293.089 130.34 295.009 132.2C296.929 134 297.889 136.43 297.889 139.49C297.889 140.33 297.829 141.2 297.709 142.1C297.589 142.94 297.319 143.96 296.899 145.16C296.539 146.3 295.909 147.86 295.009 149.84L289.249 162.98H278.539ZM308.618 197V148.22H324.908V162.44L322.478 158.39C323.918 154.73 326.258 152 329.498 150.2C332.738 148.34 336.668 147.41 341.288 147.41V162.8C340.508 162.68 339.818 162.62 339.218 162.62C338.678 162.56 338.078 162.53 337.418 162.53C333.938 162.53 331.118 163.49 328.958 165.41C326.798 167.27 325.718 170.33 325.718 174.59V197H308.618ZM376.165 197.81C370.405 197.81 365.365 196.73 361.045 194.57C356.785 192.35 353.455 189.35 351.055 185.57C348.715 181.73 347.545 177.38 347.545 172.52C347.545 167.66 348.685 163.34 350.965 159.56C353.305 155.72 356.515 152.75 360.595 150.65C364.675 148.49 369.265 147.41 374.365 147.41C379.165 147.41 383.545 148.4 387.505 150.38C391.465 152.3 394.615 155.15 396.955 158.93C399.295 162.71 400.465 167.3 400.465 172.7C400.465 173.3 400.435 173.99 400.375 174.77C400.315 175.55 400.255 176.27 400.195 176.93H361.585V167.93H391.105L384.625 170.45C384.685 168.23 384.265 166.31 383.365 164.69C382.525 163.07 381.325 161.81 379.765 160.91C378.265 160.01 376.495 159.56 374.455 159.56C372.415 159.56 370.615 160.01 369.055 160.91C367.555 161.81 366.385 163.1 365.545 164.78C364.705 166.4 364.285 168.32 364.285 170.54V173.15C364.285 175.55 364.765 177.62 365.725 179.36C366.745 181.1 368.185 182.45 370.045 183.41C371.905 184.31 374.125 184.76 376.705 184.76C379.105 184.76 381.145 184.43 382.825 183.77C384.565 183.05 386.275 181.97 387.955 180.53L396.955 189.89C394.615 192.47 391.735 194.45 388.315 195.83C384.895 197.15 380.845 197.81 376.165 197.81ZM464.42 197.81C459.08 197.81 454.34 196.73 450.2 194.57C446.06 192.41 442.79 189.44 440.39 185.66C438.05 181.82 436.88 177.44 436.88 172.52C436.88 167.6 438.05 163.25 440.39 159.47C442.79 155.69 446.06 152.75 450.2 150.65C454.34 148.49 459.08 147.41 464.42 147.41C469.76 147.41 474.5 148.49 478.64 150.65C482.84 152.75 486.11 155.69 488.45 159.47C490.79 163.25 491.96 167.6 491.96 172.52C491.96 177.44 490.79 181.82 488.45 185.66C486.11 189.44 482.84 192.41 478.64 194.57C474.5 196.73 469.76 197.81 464.42 197.81ZM464.42 184.22C466.4 184.22 468.14 183.77 469.64 182.87C471.2 181.97 472.43 180.65 473.33 178.91C474.23 177.11 474.68 174.98 474.68 172.52C474.68 170.06 474.23 167.99 473.33 166.31C472.43 164.57 471.2 163.25 469.64 162.35C468.14 161.45 466.4 161 464.42 161C462.5 161 460.76 161.45 459.2 162.35C457.7 163.25 456.47 164.57 455.51 166.31C454.61 167.99 454.16 170.06 454.16 172.52C454.16 174.98 454.61 177.11 455.51 178.91C456.47 180.65 457.7 181.97 459.2 182.87C460.76 183.77 462.5 184.22 464.42 184.22ZM534.352 147.41C538.132 147.41 541.552 148.19 544.612 149.75C547.672 151.25 550.072 153.59 551.812 156.77C553.612 159.95 554.512 164.06 554.512 169.1V197H537.412V171.89C537.412 168.41 536.692 165.89 535.252 164.33C533.872 162.71 531.922 161.9 529.402 161.9C527.602 161.9 525.952 162.32 524.452 163.16C522.952 163.94 521.782 165.17 520.942 166.85C520.102 168.53 519.682 170.72 519.682 173.42V197H502.582V148.22H518.872V162.08L515.722 158.03C517.582 154.49 520.132 151.85 523.372 150.11C526.612 148.31 530.272 147.41 534.352 147.41ZM40.671 307V280.36L44.811 291.07L16.641 244H35.451L55.791 278.11H44.901L65.331 244H82.611L54.531 291.07L58.491 280.36V307H40.671ZM108.152 307.81C102.812 307.81 98.072 306.73 93.932 304.57C89.792 302.41 86.522 299.44 84.122 295.66C81.782 291.82 80.612 287.44 80.612 282.52C80.612 277.6 81.782 273.25 84.122 269.47C86.522 265.69 89.792 262.75 93.932 260.65C98.072 258.49 102.812 257.41 108.152 257.41C113.492 257.41 118.232 258.49 122.372 260.65C126.572 262.75 129.842 265.69 132.182 269.47C134.522 273.25 135.692 277.6 135.692 282.52C135.692 287.44 134.522 291.82 132.182 295.66C129.842 299.44 126.572 302.41 122.372 304.57C118.232 306.73 113.492 307.81 108.152 307.81ZM108.152 294.22C110.132 294.22 111.872 293.77 113.372 292.87C114.932 291.97 116.162 290.65 117.062 288.91C117.962 287.11 118.412 284.98 118.412 282.52C118.412 280.06 117.962 277.99 117.062 276.31C116.162 274.57 114.932 273.25 113.372 272.35C111.872 271.45 110.132 271 108.152 271C106.232 271 104.492 271.45 102.932 272.35C101.432 273.25 100.202 274.57 99.242 276.31C98.342 277.99 97.892 280.06 97.892 282.52C97.892 284.98 98.342 287.11 99.242 288.91C100.202 290.65 101.432 291.97 102.932 292.87C104.492 293.77 106.232 294.22 108.152 294.22ZM166.833 307.81C162.873 307.81 159.303 307.03 156.123 305.47C153.003 303.91 150.543 301.48 148.743 298.18C147.003 294.82 146.133 290.59 146.133 285.49V258.22H163.233V282.7C163.233 286.48 163.923 289.18 165.303 290.8C166.743 292.42 168.753 293.23 171.333 293.23C173.013 293.23 174.543 292.84 175.923 292.06C177.303 291.28 178.413 290.05 179.253 288.37C180.093 286.63 180.513 284.41 180.513 281.71V258.22H197.613V307H181.323V293.23L184.473 297.1C182.793 300.7 180.363 303.4 177.183 305.2C174.003 306.94 170.553 307.81 166.833 307.81ZM211.328 307V258.22H227.618V272.44L225.188 268.39C226.628 264.73 228.968 262 232.208 260.2C235.448 258.34 239.378 257.41 243.998 257.41V272.8C243.218 272.68 242.528 272.62 241.928 272.62C241.388 272.56 240.788 272.53 240.128 272.53C236.648 272.53 233.828 273.49 231.668 275.41C229.508 277.27 228.428 280.33 228.428 284.59V307H211.328ZM299.202 307L278.772 244H297.132L314.322 298.54H305.052L323.142 244H339.522L356.622 298.54H347.712L365.442 244H382.452L362.022 307H342.942L328.362 260.65H333.492L318.282 307H299.202ZM416.913 307V297.91L415.743 295.66V278.92C415.743 276.22 414.903 274.15 413.223 272.71C411.603 271.21 408.993 270.46 405.393 270.46C403.053 270.46 400.683 270.85 398.283 271.63C395.883 272.35 393.843 273.37 392.163 274.69L386.403 263.08C389.163 261.28 392.463 259.9 396.303 258.94C400.203 257.92 404.073 257.41 407.913 257.41C415.833 257.41 421.953 259.24 426.273 262.9C430.653 266.5 432.843 272.17 432.843 279.91V307H416.913ZM402.513 307.81C398.613 307.81 395.313 307.15 392.613 305.83C389.913 304.51 387.843 302.71 386.403 300.43C385.023 298.15 384.333 295.6 384.333 292.78C384.333 289.78 385.083 287.2 386.583 285.04C388.143 282.82 390.513 281.14 393.693 280C396.873 278.8 400.983 278.2 406.023 278.2H417.543V287.11H408.363C405.603 287.11 403.653 287.56 402.513 288.46C401.433 289.36 400.893 290.56 400.893 292.06C400.893 293.56 401.463 294.76 402.603 295.66C403.743 296.56 405.303 297.01 407.283 297.01C409.143 297.01 410.823 296.56 412.323 295.66C413.883 294.7 415.023 293.26 415.743 291.34L418.083 297.64C417.183 301 415.413 303.55 412.773 305.29C410.193 306.97 406.773 307.81 402.513 307.81ZM453.828 325.27C451.248 325.27 448.638 324.85 445.998 324.01C443.418 323.23 441.318 322.18 439.698 320.86L445.638 308.89C446.658 309.79 447.828 310.48 449.148 310.96C450.528 311.5 451.878 311.77 453.198 311.77C455.058 311.77 456.528 311.35 457.608 310.51C458.688 309.67 459.618 308.35 460.398 306.55L462.648 300.88L463.998 299.17L480.558 258.22H496.848L475.788 308.98C474.108 313.18 472.158 316.45 469.938 318.79C467.778 321.19 465.348 322.87 462.648 323.83C460.008 324.79 457.068 325.27 453.828 325.27ZM460.488 309.07L438.978 258.22H456.528L472.368 297.64L460.488 309.07ZM554.64 307.81C548.4 307.81 543.54 306.28 540.06 303.22C536.58 300.1 534.84 295.42 534.84 289.18V247.33H551.94V289C551.94 290.74 552.42 292.12 553.38 293.14C554.34 294.1 555.57 294.58 557.07 294.58C559.11 294.58 560.85 294.07 562.29 293.05L566.52 305.02C565.08 305.98 563.31 306.67 561.21 307.09C559.11 307.57 556.92 307.81 554.64 307.81ZM527.73 272.8V260.02H563.1V272.8H527.73ZM598.888 307.81C593.548 307.81 588.808 306.73 584.668 304.57C580.528 302.41 577.258 299.44 574.858 295.66C572.518 291.82 571.348 287.44 571.348 282.52C571.348 277.6 572.518 273.25 574.858 269.47C577.258 265.69 580.528 262.75 584.668 260.65C588.808 258.49 593.548 257.41 598.888 257.41C604.228 257.41 608.968 258.49 613.108 260.65C617.308 262.75 620.578 265.69 622.918 269.47C625.258 273.25 626.428 277.6 626.428 282.52C626.428 287.44 625.258 291.82 622.918 295.66C620.578 299.44 617.308 302.41 613.108 304.57C608.968 306.73 604.228 307.81 598.888 307.81ZM598.888 294.22C600.868 294.22 602.608 293.77 604.108 292.87C605.668 291.97 606.898 290.65 607.798 288.91C608.698 287.11 609.148 284.98 609.148 282.52C609.148 280.06 608.698 277.99 607.798 276.31C606.898 274.57 605.668 273.25 604.108 272.35C602.608 271.45 600.868 271 598.888 271C596.968 271 595.228 271.45 593.668 272.35C592.168 273.25 590.938 274.57 589.978 276.31C589.078 277.99 588.628 280.06 588.628 282.52C588.628 284.98 589.078 287.11 589.978 288.91C590.938 290.65 592.168 291.97 593.668 292.87C595.228 293.77 596.968 294.22 598.888 294.22ZM34.5285 417V354H52.3485V402.87H82.4085V417H34.5285ZM116.734 417.81C110.974 417.81 105.934 416.73 101.614 414.57C97.3544 412.35 94.0244 409.35 91.6244 405.57C89.2844 401.73 88.1144 397.38 88.1144 392.52C88.1144 387.66 89.2544 383.34 91.5344 379.56C93.8744 375.72 97.0844 372.75 101.164 370.65C105.244 368.49 109.834 367.41 114.934 367.41C119.734 367.41 124.114 368.4 128.074 370.38C132.034 372.3 135.184 375.15 137.524 378.93C139.864 382.71 141.034 387.3 141.034 392.7C141.034 393.3 141.004 393.99 140.944 394.77C140.884 395.55 140.824 396.27 140.764 396.93H102.154V387.93H131.674L125.194 390.45C125.254 388.23 124.834 386.31 123.934 384.69C123.094 383.07 121.894 381.81 120.334 380.91C118.834 380.01 117.064 379.56 115.024 379.56C112.984 379.56 111.184 380.01 109.624 380.91C108.124 381.81 106.954 383.1 106.114 384.78C105.274 386.4 104.854 388.32 104.854 390.54V393.15C104.854 395.55 105.334 397.62 106.294 399.36C107.314 401.1 108.754 402.45 110.614 403.41C112.474 404.31 114.694 404.76 117.274 404.76C119.674 404.76 121.714 404.43 123.394 403.77C125.134 403.05 126.844 401.97 128.524 400.53L137.524 409.89C135.184 412.47 132.304 414.45 128.884 415.83C125.464 417.15 121.414 417.81 116.734 417.81ZM164.33 417L144.26 368.22H161.81L177.83 408.99H169.01L185.84 368.22H202.13L181.97 417H164.33ZM233.492 417.81C227.732 417.81 222.692 416.73 218.372 414.57C214.112 412.35 210.782 409.35 208.382 405.57C206.042 401.73 204.872 397.38 204.872 392.52C204.872 387.66 206.012 383.34 208.292 379.56C210.632 375.72 213.842 372.75 217.922 370.65C222.002 368.49 226.592 367.41 231.692 367.41C236.492 367.41 240.872 368.4 244.832 370.38C248.792 372.3 251.942 375.15 254.282 378.93C256.622 382.71 257.792 387.3 257.792 392.7C257.792 393.3 257.762 393.99 257.702 394.77C257.642 395.55 257.582 396.27 257.522 396.93H218.912V387.93H248.432L241.952 390.45C242.012 388.23 241.592 386.31 240.692 384.69C239.852 383.07 238.652 381.81 237.092 380.91C235.592 380.01 233.822 379.56 231.782 379.56C229.742 379.56 227.942 380.01 226.382 380.91C224.882 381.81 223.712 383.1 222.872 384.78C222.032 386.4 221.612 388.32 221.612 390.54V393.15C221.612 395.55 222.092 397.62 223.052 399.36C224.072 401.1 225.512 402.45 227.372 403.41C229.232 404.31 231.452 404.76 234.032 404.76C236.432 404.76 238.472 404.43 240.152 403.77C241.892 403.05 243.602 401.97 245.282 400.53L254.282 409.89C251.942 412.47 249.062 414.45 245.642 415.83C242.222 417.15 238.172 417.81 233.492 417.81ZM268.376 417V350.22H285.476V417H268.376ZM299.289 417V368.22H316.389V417H299.289ZM307.839 362.82C304.719 362.82 302.199 361.95 300.279 360.21C298.359 358.47 297.399 356.31 297.399 353.73C297.399 351.15 298.359 348.99 300.279 347.25C302.199 345.51 304.719 344.64 307.839 344.64C310.959 344.64 313.479 345.48 315.399 347.16C317.319 348.78 318.279 350.88 318.279 353.46C318.279 356.16 317.319 358.41 315.399 360.21C313.539 361.95 311.019 362.82 307.839 362.82ZM361.972 367.41C365.752 367.41 369.172 368.19 372.232 369.75C375.292 371.25 377.692 373.59 379.432 376.77C381.232 379.95 382.132 384.06 382.132 389.1V417H365.032V391.89C365.032 388.41 364.312 385.89 362.872 384.33C361.492 382.71 359.542 381.9 357.022 381.9C355.222 381.9 353.572 382.32 352.072 383.16C350.572 383.94 349.402 385.17 348.562 386.85C347.722 388.53 347.302 390.72 347.302 393.42V417H330.202V368.22H346.492V382.08L343.342 378.03C345.202 374.49 347.752 371.85 350.992 370.11C354.232 368.31 357.892 367.41 361.972 367.41ZM420.033 435.27C415.353 435.27 410.883 434.73 406.623 433.65C402.423 432.57 398.823 430.98 395.823 428.88L402.033 416.91C404.073 418.53 406.593 419.79 409.593 420.69C412.653 421.65 415.623 422.13 418.503 422.13C423.123 422.13 426.453 421.11 428.493 419.07C430.533 417.09 431.553 414.18 431.553 410.34V404.58L432.453 390.9L432.363 377.13V368.22H448.653V408.09C448.653 417.33 446.163 424.17 441.183 428.61C436.203 433.05 429.153 435.27 420.033 435.27ZM417.063 414.48C412.743 414.48 408.753 413.52 405.093 411.6C401.493 409.62 398.583 406.89 396.363 403.41C394.203 399.87 393.123 395.7 393.123 390.9C393.123 386.1 394.203 381.96 396.363 378.48C398.583 374.94 401.493 372.21 405.093 370.29C408.753 368.37 412.743 367.41 417.063 367.41C421.203 367.41 424.743 368.25 427.683 369.93C430.623 371.55 432.843 374.1 434.343 377.58C435.903 381.06 436.683 385.5 436.683 390.9C436.683 396.3 435.903 400.74 434.343 404.22C432.843 407.7 430.623 410.28 427.683 411.96C424.743 413.64 421.203 414.48 417.063 414.48ZM421.113 400.89C423.153 400.89 424.953 400.47 426.513 399.63C428.133 398.79 429.393 397.62 430.293 396.12C431.253 394.62 431.733 392.88 431.733 390.9C431.733 388.92 431.253 387.18 430.293 385.68C429.393 384.18 428.133 383.04 426.513 382.26C424.953 381.42 423.153 381 421.113 381C419.073 381 417.243 381.42 415.623 382.26C414.003 383.04 412.713 384.18 411.753 385.68C410.853 387.18 410.403 388.92 410.403 390.9C410.403 392.88 410.853 394.62 411.753 396.12C412.713 397.62 414.003 398.79 415.623 399.63C417.243 400.47 419.073 400.89 421.113 400.89ZM521.111 418.26C511.811 418.26 504.551 415.71 499.331 410.61C494.111 405.51 491.501 398.28 491.501 388.92V354H509.321V388.38C509.321 393.78 510.371 397.65 512.471 399.99C514.631 402.33 517.571 403.5 521.291 403.5C525.011 403.5 527.921 402.33 530.021 399.99C532.121 397.65 533.171 393.78 533.171 388.38V354H550.721V388.92C550.721 398.28 548.111 405.51 542.891 410.61C537.671 415.71 530.411 418.26 521.111 418.26ZM595.373 417.81C591.233 417.81 587.693 416.91 584.753 415.11C581.813 413.25 579.563 410.49 578.003 406.83C576.503 403.11 575.753 398.37 575.753 392.61C575.753 386.79 576.473 382.05 577.913 378.39C579.353 374.67 581.513 371.91 584.393 370.11C587.333 368.31 590.993 367.41 595.373 367.41C599.813 367.41 603.833 368.46 607.433 370.56C611.093 372.6 613.973 375.51 616.073 379.29C618.233 383.01 619.313 387.45 619.313 392.61C619.313 397.77 618.233 402.24 616.073 406.02C613.973 409.8 611.093 412.71 607.433 414.75C603.833 416.79 599.813 417.81 595.373 417.81ZM564.683 434.46V368.22H580.973V376.5L580.883 392.61L581.783 408.81V434.46H564.683ZM591.773 404.22C593.693 404.22 595.403 403.77 596.903 402.87C598.463 401.97 599.693 400.65 600.593 398.91C601.553 397.17 602.033 395.07 602.033 392.61C602.033 390.15 601.553 388.05 600.593 386.31C599.693 384.57 598.463 383.25 596.903 382.35C595.403 381.45 593.693 381 591.773 381C589.853 381 588.113 381.45 586.553 382.35C585.053 383.25 583.823 384.57 582.863 386.31C581.963 388.05 581.513 390.15 581.513 392.61C581.513 395.07 581.963 397.17 582.863 398.91C583.823 400.65 585.053 401.97 586.553 402.87C588.113 403.77 589.853 404.22 591.773 404.22Z" fill="white"/>
<g clip-path="url(#clip0_290_3)">
<path d="M162.049 456.611C222.71 452.06 283.454 448.72 344.254 446.592C405.276 444.464 466.326 443.548 527.376 443.818C561.694 443.979 596.04 444.518 630.358 445.461L634.415 439.724C556.665 442.66 478.914 445.568 401.164 448.477L167.94 457.258L36.0584 462.187L32.0847 467.789C101.138 464.665 170.246 463.049 239.355 462.86C308.463 462.698 377.599 463.991 446.68 466.765C485.361 468.328 524.014 470.321 562.639 472.799L565.335 467.223C508.175 471.129 451.015 474.657 393.828 477.862C336.612 481.04 279.341 483.842 222.098 486.293C189.781 487.666 157.464 488.932 125.146 490.09L122.479 495.612C179.972 489.363 237.743 485.431 295.57 483.922C353.368 482.387 411.251 483.222 468.994 486.4C501.395 488.178 533.768 490.737 566.057 493.996L568.753 488.42C502.478 492.918 436.204 497.039 369.874 500.594C303.545 504.15 238.076 507.166 172.136 509.51C134.817 510.856 97.4697 511.961 60.1227 512.849L57.4273 518.425C132.205 513.469 207.121 510.587 282.092 510.075C356.786 509.563 431.508 511.26 506.091 515.22C548.106 517.455 590.094 520.31 631.998 523.973C634.082 524.162 637.528 523.192 638.639 521.307C639.862 519.26 637.583 518.586 635.916 518.425C560.833 511.907 485.583 507.57 410.223 505.604C335.306 503.638 260.362 503.934 185.474 506.493C143.236 507.92 100.999 510.048 58.8445 512.957C57.0383 513.092 53.8704 514.142 53.1757 515.974C52.481 517.805 54.5096 518.586 56.149 518.532C122.784 516.889 189.392 514.573 255.972 511.61C322.524 508.675 389.048 505.119 455.517 501.106C492.808 498.871 530.072 496.474 567.363 493.942C570.976 493.699 576.478 489.013 570.059 488.366C512.315 482.522 454.322 479.047 396.245 477.943C337.974 476.839 279.675 478.158 221.543 481.795C188.92 483.842 156.352 486.643 123.868 490.198C122.062 490.386 118.95 491.302 118.255 493.188C117.56 495.073 119.561 495.773 121.201 495.719C178.916 493.645 236.604 491.248 294.291 488.447C351.701 485.673 409.111 482.549 466.465 479.047C498.977 477.081 531.461 474.98 563.945 472.772C565.751 472.637 568.919 471.587 569.614 469.755C570.309 467.924 568.252 467.304 566.641 467.196C497.671 462.779 428.59 459.816 359.482 458.335C290.373 456.854 221.237 456.854 152.128 458.335C113.42 459.17 74.7392 460.463 36.0584 462.214C33.8631 462.321 30.5564 462.833 29.3337 464.907C28.1944 466.819 30.3063 467.87 32.1125 467.816L265.309 459.116C343.031 456.207 420.782 453.298 498.505 450.417C542.465 448.774 586.398 447.158 630.358 445.515C632.609 445.434 635.999 444.868 637.25 442.767C638.5 440.666 636.221 439.832 634.415 439.805C573.171 438.054 511.871 437.596 450.598 438.35C389.326 439.131 328.109 441.124 266.92 444.329C232.408 446.134 197.923 448.343 163.466 450.928C161.66 451.063 157.742 452.275 157.436 454.403C157.13 456.719 160.465 456.719 161.993 456.611H162.049Z" fill="white"/>
</g>
<g clip-path="url(#clip1_290_3)">
<path d="M305.571 593.967C312.683 594.073 320.023 594.81 326.891 596.744C329.933 597.596 333.038 598.973 334.776 601.754C336.369 604.297 336.422 607.454 335.995 610.332C335.494 613.691 334.435 616.968 333.401 620.188C332.239 623.8 330.994 627.386 330.037 631.06C328.466 637.067 327.672 643.573 329.356 649.647C331.405 657.032 337.263 662.108 343.023 666.718C343.483 667.082 344.19 667.335 344.777 667.187C345.255 667.067 345.441 666.66 345.013 666.314C339.771 662.003 334.258 657.466 332.119 650.762C330.127 644.525 330.939 637.804 332.567 631.589C333.54 627.875 334.799 624.241 335.961 620.579C337.024 617.235 338.125 613.813 338.544 610.315C338.886 607.451 338.699 604.464 337.209 601.925C335.477 598.963 332.294 597.196 329.158 596.104C325.342 594.784 321.276 594.094 317.295 593.525C313.089 592.931 308.844 592.611 304.6 592.546C304.155 592.535 303.652 592.795 303.921 593.282C304.19 593.769 305.063 593.956 305.571 593.967Z" fill="white"/>
<path d="M332.525 664.537C335.399 665.837 338.269 667.134 341.147 668.428C342.49 669.034 343.824 669.692 345.192 670.242C346.405 670.731 347.783 671.081 349.07 670.696C349.224 670.65 349.544 670.56 349.571 670.343C349.744 668.637 349.148 667.079 348.59 665.493C347.965 663.729 347.369 661.952 346.789 660.171C345.616 656.558 344.549 652.908 343.575 649.234C343.36 648.433 340.937 648.036 341.16 648.933C342.047 652.515 343.046 656.062 344.153 659.58C344.703 661.316 345.278 663.045 345.877 664.767C346.429 666.328 347.177 667.965 347.012 669.656L347.512 669.302C346.564 669.588 345.614 668.926 344.774 668.547L341.084 666.875C338.58 665.74 336.067 664.607 333.563 663.471C333.14 663.276 332.208 663.07 331.853 663.5C331.479 663.954 332.221 664.39 332.543 664.541L332.525 664.537Z" fill="white"/>
</g>
<defs>
<clipPath id="clip0_290_3">
<rect width="610" height="86" fill="white" transform="translate(29 438)"/>
</clipPath>
<clipPath id="clip1_290_3">
<rect width="78.3324" height="57.9961" fill="white" transform="translate(308.998 584) rotate(30)"/>
</clipPath>
</defs>
</svg>
