<svg width="392" height="124" viewBox="0 0 392 124" fill="none" xmlns="http://www.w3.org/2000/svg">
<g filter="url(#filter0_d_2_57)">
<path d="M13.842 34V23.64L15.452 27.805L4.49698 9.5H11.812L19.722 22.765H15.487L23.432 9.5H30.152L19.232 27.805L20.772 23.64V34H13.842ZM40.0846 34.315C38.0079 34.315 36.1646 33.895 34.5546 33.055C32.9446 32.215 31.6729 31.06 30.7396 29.59C29.8296 28.0967 29.3746 26.3933 29.3746 24.48C29.3746 22.5667 29.8296 20.875 30.7396 19.405C31.6729 17.935 32.9446 16.7917 34.5546 15.975C36.1646 15.135 38.0079 14.715 40.0846 14.715C42.1613 14.715 44.0046 15.135 45.6146 15.975C47.2479 16.7917 48.5196 17.935 49.4296 19.405C50.3396 20.875 50.7946 22.5667 50.7946 24.48C50.7946 26.3933 50.3396 28.0967 49.4296 29.59C48.5196 31.06 47.2479 32.215 45.6146 33.055C44.0046 33.895 42.1613 34.315 40.0846 34.315ZM40.0846 29.03C40.8546 29.03 41.5313 28.855 42.1146 28.505C42.7213 28.155 43.1996 27.6417 43.5496 26.965C43.8996 26.265 44.0746 25.4367 44.0746 24.48C44.0746 23.5233 43.8996 22.7183 43.5496 22.065C43.1996 21.3883 42.7213 20.875 42.1146 20.525C41.5313 20.175 40.8546 20 40.0846 20C39.3379 20 38.6613 20.175 38.0546 20.525C37.4713 20.875 36.9929 21.3883 36.6196 22.065C36.2696 22.7183 36.0946 23.5233 36.0946 24.48C36.0946 25.4367 36.2696 26.265 36.6196 26.965C36.9929 27.6417 37.4713 28.155 38.0546 28.505C38.6613 28.855 39.3379 29.03 40.0846 29.03ZM62.9051 34.315C61.3651 34.315 59.9768 34.0117 58.7401 33.405C57.5268 32.7983 56.5701 31.8533 55.8701 30.57C55.1935 29.2633 54.8551 27.6183 54.8551 25.635V15.03H61.5051V24.55C61.5051 26.02 61.7735 27.07 62.3101 27.7C62.8701 28.33 63.6518 28.645 64.6551 28.645C65.3085 28.645 65.9035 28.4933 66.4401 28.19C66.9768 27.8867 67.4085 27.4083 67.7351 26.755C68.0618 26.0783 68.2251 25.215 68.2251 24.165V15.03H74.8751V34H68.5401V28.645L69.7651 30.15C69.1118 31.55 68.1668 32.6 66.9301 33.3C65.6935 33.9767 64.3518 34.315 62.9051 34.315ZM79.4735 20.77L82.0985 11.67L83.0435 15.45C81.8769 15.45 80.9202 15.1117 80.1735 14.435C79.4269 13.735 79.0535 12.8017 79.0535 11.635C79.0535 10.445 79.4269 9.5 80.1735 8.8C80.9435 8.07667 81.9002 7.715 83.0435 7.715C84.1869 7.715 85.1319 8.07667 85.8785 8.8C86.6252 9.5 86.9985 10.445 86.9985 11.635C86.9985 11.9617 86.9752 12.3 86.9285 12.65C86.8819 12.9767 86.7769 13.3733 86.6135 13.84C86.4735 14.2833 86.2285 14.89 85.8785 15.66L83.6385 20.77H79.4735ZM91.1706 34V15.03H97.5056V20.56L96.5606 18.985C97.1206 17.5617 98.0306 16.5 99.2906 15.8C100.551 15.0767 102.079 14.715 103.876 14.715V20.7C103.572 20.6533 103.304 20.63 103.071 20.63C102.861 20.6067 102.627 20.595 102.371 20.595C101.017 20.595 99.9206 20.9683 99.0806 21.715C98.2406 22.4383 97.8206 23.6283 97.8206 25.285V34H91.1706ZM117.439 34.315C115.199 34.315 113.239 33.895 111.559 33.055C109.902 32.1917 108.607 31.025 107.674 29.555C106.764 28.0617 106.309 26.37 106.309 24.48C106.309 22.59 106.752 20.91 107.639 19.44C108.549 17.9467 109.797 16.7917 111.384 15.975C112.971 15.135 114.756 14.715 116.739 14.715C118.606 14.715 120.309 15.1 121.849 15.87C123.389 16.6167 124.614 17.725 125.524 19.195C126.434 20.665 126.889 22.45 126.889 24.55C126.889 24.7833 126.877 25.0517 126.854 25.355C126.831 25.6583 126.807 25.9383 126.784 26.195H111.769V22.695H123.249L120.729 23.675C120.752 22.8117 120.589 22.065 120.239 21.435C119.912 20.805 119.446 20.315 118.839 19.965C118.256 19.615 117.567 19.44 116.774 19.44C115.981 19.44 115.281 19.615 114.674 19.965C114.091 20.315 113.636 20.8167 113.309 21.47C112.982 22.1 112.819 22.8467 112.819 23.71V24.725C112.819 25.6583 113.006 26.4633 113.379 27.14C113.776 27.8167 114.336 28.3417 115.059 28.715C115.782 29.065 116.646 29.24 117.649 29.24C118.582 29.24 119.376 29.1117 120.029 28.855C120.706 28.575 121.371 28.155 122.024 27.595L125.524 31.235C124.614 32.2383 123.494 33.0083 122.164 33.545C120.834 34.0583 119.259 34.315 117.439 34.315ZM151.761 34.315C149.684 34.315 147.841 33.895 146.231 33.055C144.621 32.215 143.349 31.06 142.416 29.59C141.506 28.0967 141.051 26.3933 141.051 24.48C141.051 22.5667 141.506 20.875 142.416 19.405C143.349 17.935 144.621 16.7917 146.231 15.975C147.841 15.135 149.684 14.715 151.761 14.715C153.837 14.715 155.681 15.135 157.291 15.975C158.924 16.7917 160.196 17.935 161.106 19.405C162.016 20.875 162.471 22.5667 162.471 24.48C162.471 26.3933 162.016 28.0967 161.106 29.59C160.196 31.06 158.924 32.215 157.291 33.055C155.681 33.895 153.837 34.315 151.761 34.315ZM151.761 29.03C152.531 29.03 153.207 28.855 153.791 28.505C154.397 28.155 154.876 27.6417 155.226 26.965C155.576 26.265 155.751 25.4367 155.751 24.48C155.751 23.5233 155.576 22.7183 155.226 22.065C154.876 21.3883 154.397 20.875 153.791 20.525C153.207 20.175 152.531 20 151.761 20C151.014 20 150.337 20.175 149.731 20.525C149.147 20.875 148.669 21.3883 148.296 22.065C147.946 22.7183 147.771 23.5233 147.771 24.48C147.771 25.4367 147.946 26.265 148.296 26.965C148.669 27.6417 149.147 28.155 149.731 28.505C150.337 28.855 151.014 29.03 151.761 29.03ZM178.956 14.715C180.426 14.715 181.756 15.0183 182.946 15.625C184.136 16.2083 185.069 17.1183 185.746 18.355C186.446 19.5917 186.796 21.19 186.796 23.15V34H180.146V24.235C180.146 22.8817 179.866 21.9017 179.306 21.295C178.769 20.665 178.011 20.35 177.031 20.35C176.331 20.35 175.689 20.5133 175.106 20.84C174.523 21.1433 174.068 21.6217 173.741 22.275C173.414 22.9283 173.251 23.78 173.251 24.83V34H166.601V15.03H172.936V20.42L171.711 18.845C172.434 17.4683 173.426 16.4417 174.686 15.765C175.946 15.065 177.369 14.715 178.956 14.715ZM209.767 34V23.64L211.377 27.805L200.422 9.5H207.737L215.647 22.765H211.412L219.357 9.5H226.077L215.157 27.805L216.697 23.64V34H209.767ZM236.009 34.315C233.933 34.315 232.089 33.895 230.479 33.055C228.869 32.215 227.598 31.06 226.664 29.59C225.754 28.0967 225.299 26.3933 225.299 24.48C225.299 22.5667 225.754 20.875 226.664 19.405C227.598 17.935 228.869 16.7917 230.479 15.975C232.089 15.135 233.933 14.715 236.009 14.715C238.086 14.715 239.929 15.135 241.539 15.975C243.173 16.7917 244.444 17.935 245.354 19.405C246.264 20.875 246.719 22.5667 246.719 24.48C246.719 26.3933 246.264 28.0967 245.354 29.59C244.444 31.06 243.173 32.215 241.539 33.055C239.929 33.895 238.086 34.315 236.009 34.315ZM236.009 29.03C236.779 29.03 237.456 28.855 238.039 28.505C238.646 28.155 239.124 27.6417 239.474 26.965C239.824 26.265 239.999 25.4367 239.999 24.48C239.999 23.5233 239.824 22.7183 239.474 22.065C239.124 21.3883 238.646 20.875 238.039 20.525C237.456 20.175 236.779 20 236.009 20C235.263 20 234.586 20.175 233.979 20.525C233.396 20.875 232.918 21.3883 232.544 22.065C232.194 22.7183 232.019 23.5233 232.019 24.48C232.019 25.4367 232.194 26.265 232.544 26.965C232.918 27.6417 233.396 28.155 233.979 28.505C234.586 28.855 235.263 29.03 236.009 29.03ZM258.83 34.315C257.29 34.315 255.902 34.0117 254.665 33.405C253.452 32.7983 252.495 31.8533 251.795 30.57C251.118 29.2633 250.78 27.6183 250.78 25.635V15.03H257.43V24.55C257.43 26.02 257.698 27.07 258.235 27.7C258.795 28.33 259.577 28.645 260.58 28.645C261.233 28.645 261.828 28.4933 262.365 28.19C262.902 27.8867 263.333 27.4083 263.66 26.755C263.987 26.0783 264.15 25.215 264.15 24.165V15.03H270.8V34H264.465V28.645L265.69 30.15C265.037 31.55 264.092 32.6 262.855 33.3C261.618 33.9767 260.277 34.315 258.83 34.315ZM276.133 34V15.03H282.468V20.56L281.523 18.985C282.083 17.5617 282.993 16.5 284.253 15.8C285.513 15.0767 287.042 14.715 288.838 14.715V20.7C288.535 20.6533 288.267 20.63 288.033 20.63C287.823 20.6067 287.59 20.595 287.333 20.595C285.98 20.595 284.883 20.9683 284.043 21.715C283.203 22.4383 282.783 23.6283 282.783 25.285V34H276.133ZM310.306 34L302.361 9.5H309.501L316.186 30.71H312.581L319.616 9.5H325.986L332.636 30.71H329.171L336.066 9.5H342.681L334.736 34H327.316L321.646 15.975H323.641L317.726 34H310.306ZM356.083 34V30.465L355.628 29.59V23.08C355.628 22.03 355.301 21.225 354.648 20.665C354.018 20.0817 353.003 19.79 351.603 19.79C350.693 19.79 349.771 19.9417 348.838 20.245C347.905 20.525 347.111 20.9217 346.458 21.435L344.218 16.92C345.291 16.22 346.575 15.6833 348.068 15.31C349.585 14.9133 351.09 14.715 352.583 14.715C355.663 14.715 358.043 15.4267 359.723 16.85C361.426 18.25 362.278 20.455 362.278 23.465V34H356.083ZM350.483 34.315C348.966 34.315 347.683 34.0583 346.633 33.545C345.583 33.0317 344.778 32.3317 344.218 31.445C343.681 30.5583 343.413 29.5667 343.413 28.47C343.413 27.3033 343.705 26.3 344.288 25.46C344.895 24.5967 345.816 23.9433 347.053 23.5C348.29 23.0333 349.888 22.8 351.848 22.8H356.328V26.265H352.758C351.685 26.265 350.926 26.44 350.483 26.79C350.063 27.14 349.853 27.6067 349.853 28.19C349.853 28.7733 350.075 29.24 350.518 29.59C350.961 29.94 351.568 30.115 352.338 30.115C353.061 30.115 353.715 29.94 354.298 29.59C354.905 29.2167 355.348 28.6567 355.628 27.91L356.538 30.36C356.188 31.6667 355.5 32.6583 354.473 33.335C353.47 33.9883 352.14 34.315 350.483 34.315ZM370.439 41.105C369.436 41.105 368.421 40.9417 367.394 40.615C366.391 40.3117 365.574 39.9033 364.944 39.39L367.254 34.735C367.651 35.085 368.106 35.3533 368.619 35.54C369.156 35.75 369.681 35.855 370.194 35.855C370.917 35.855 371.489 35.6917 371.909 35.365C372.329 35.0383 372.691 34.525 372.994 33.825L373.869 31.62L374.394 30.955L380.834 15.03H387.169L378.979 34.77C378.326 36.4033 377.567 37.675 376.704 38.585C375.864 39.5183 374.919 40.1717 373.869 40.545C372.842 40.9183 371.699 41.105 370.439 41.105ZM373.029 34.805L364.664 15.03H371.489L377.649 30.36L373.029 34.805ZM65.8171 77.315C63.3904 77.315 61.5004 76.72 60.1471 75.53C58.7938 74.3167 58.1171 72.4967 58.1171 70.07V53.795H64.7671V70C64.7671 70.6767 64.9538 71.2133 65.3271 71.61C65.7004 71.9833 66.1788 72.17 66.7621 72.17C67.5554 72.17 68.2321 71.9717 68.7921 71.575L70.4371 76.23C69.8771 76.6033 69.1888 76.8717 68.3721 77.035C67.5554 77.2217 66.7038 77.315 65.8171 77.315ZM55.3521 63.7V58.73H69.1071V63.7H55.3521ZM83.0245 77.315C80.9479 77.315 79.1045 76.895 77.4945 76.055C75.8845 75.215 74.6129 74.06 73.6795 72.59C72.7695 71.0967 72.3145 69.3933 72.3145 67.48C72.3145 65.5667 72.7695 63.875 73.6795 62.405C74.6129 60.935 75.8845 59.7917 77.4945 58.975C79.1045 58.135 80.9479 57.715 83.0245 57.715C85.1012 57.715 86.9445 58.135 88.5545 58.975C90.1879 59.7917 91.4595 60.935 92.3695 62.405C93.2795 63.875 93.7345 65.5667 93.7345 67.48C93.7345 69.3933 93.2795 71.0967 92.3695 72.59C91.4595 74.06 90.1879 75.215 88.5545 76.055C86.9445 76.895 85.1012 77.315 83.0245 77.315ZM83.0245 72.03C83.7945 72.03 84.4712 71.855 85.0545 71.505C85.6612 71.155 86.1395 70.6417 86.4895 69.965C86.8395 69.265 87.0145 68.4367 87.0145 67.48C87.0145 66.5233 86.8395 65.7183 86.4895 65.065C86.1395 64.3883 85.6612 63.875 85.0545 63.525C84.4712 63.175 83.7945 63 83.0245 63C82.2779 63 81.6012 63.175 80.9945 63.525C80.4112 63.875 79.9329 64.3883 79.5595 65.065C79.2095 65.7183 79.0345 66.5233 79.0345 67.48C79.0345 68.4367 79.2095 69.265 79.5595 69.965C79.9329 70.6417 80.4112 71.155 80.9945 71.505C81.6012 71.855 82.2779 72.03 83.0245 72.03ZM109.416 77V52.5H116.346V71.505H128.036V77H109.416ZM141.385 77.315C139.145 77.315 137.185 76.895 135.505 76.055C133.848 75.1917 132.553 74.025 131.62 72.555C130.71 71.0617 130.255 69.37 130.255 67.48C130.255 65.59 130.698 63.91 131.585 62.44C132.495 60.9467 133.743 59.7917 135.33 58.975C136.916 58.135 138.701 57.715 140.685 57.715C142.551 57.715 144.255 58.1 145.795 58.87C147.335 59.6167 148.56 60.725 149.47 62.195C150.38 63.665 150.835 65.45 150.835 67.55C150.835 67.7833 150.823 68.0517 150.8 68.355C150.776 68.6583 150.753 68.9383 150.73 69.195H135.715V65.695H147.195L144.675 66.675C144.698 65.8117 144.535 65.065 144.185 64.435C143.858 63.805 143.391 63.315 142.785 62.965C142.201 62.615 141.513 62.44 140.72 62.44C139.926 62.44 139.226 62.615 138.62 62.965C138.036 63.315 137.581 63.8167 137.255 64.47C136.928 65.1 136.765 65.8467 136.765 66.71V67.725C136.765 68.6583 136.951 69.4633 137.325 70.14C137.721 70.8167 138.281 71.3417 139.005 71.715C139.728 72.065 140.591 72.24 141.595 72.24C142.528 72.24 143.321 72.1117 143.975 71.855C144.651 71.575 145.316 71.155 145.97 70.595L149.47 74.235C148.56 75.2383 147.44 76.0083 146.11 76.545C144.78 77.0583 143.205 77.315 141.385 77.315ZM159.894 77L152.089 58.03H158.914L165.144 73.885H161.714L168.259 58.03H174.594L166.754 77H159.894ZM186.79 77.315C184.55 77.315 182.59 76.895 180.91 76.055C179.254 75.1917 177.959 74.025 177.025 72.555C176.115 71.0617 175.66 69.37 175.66 67.48C175.66 65.59 176.104 63.91 176.99 62.44C177.9 60.9467 179.149 59.7917 180.735 58.975C182.322 58.135 184.107 57.715 186.09 57.715C187.957 57.715 189.66 58.1 191.2 58.87C192.74 59.6167 193.965 60.725 194.875 62.195C195.785 63.665 196.24 65.45 196.24 67.55C196.24 67.7833 196.229 68.0517 196.205 68.355C196.182 68.6583 196.159 68.9383 196.135 69.195H181.12V65.695H192.6L190.08 66.675C190.104 65.8117 189.94 65.065 189.59 64.435C189.264 63.805 188.797 63.315 188.19 62.965C187.607 62.615 186.919 62.44 186.125 62.44C185.332 62.44 184.632 62.615 184.025 62.965C183.442 63.315 182.987 63.8167 182.66 64.47C182.334 65.1 182.17 65.8467 182.17 66.71V67.725C182.17 68.6583 182.357 69.4633 182.73 70.14C183.127 70.8167 183.687 71.3417 184.41 71.715C185.134 72.065 185.997 72.24 187 72.24C187.934 72.24 188.727 72.1117 189.38 71.855C190.057 71.575 190.722 71.155 191.375 70.595L194.875 74.235C193.965 75.2383 192.845 76.0083 191.515 76.545C190.185 77.0583 188.61 77.315 186.79 77.315ZM200.356 77V51.03H207.006V77H200.356ZM212.378 77V58.03H219.028V77H212.378ZM215.703 55.93C214.49 55.93 213.51 55.5917 212.763 54.915C212.016 54.2383 211.643 53.3983 211.643 52.395C211.643 51.3917 212.016 50.5517 212.763 49.875C213.51 49.1983 214.49 48.86 215.703 48.86C216.916 48.86 217.896 49.1867 218.643 49.84C219.39 50.47 219.763 51.2867 219.763 52.29C219.763 53.34 219.39 54.215 218.643 54.915C217.92 55.5917 216.94 55.93 215.703 55.93ZM236.755 57.715C238.225 57.715 239.555 58.0183 240.745 58.625C241.935 59.2083 242.868 60.1183 243.545 61.355C244.245 62.5917 244.595 64.19 244.595 66.15V77H237.945V67.235C237.945 65.8817 237.665 64.9017 237.105 64.295C236.568 63.665 235.81 63.35 234.83 63.35C234.13 63.35 233.488 63.5133 232.905 63.84C232.321 64.1433 231.866 64.6217 231.54 65.275C231.213 65.9283 231.05 66.78 231.05 67.83V77H224.4V58.03H230.735V63.42L229.51 61.845C230.233 60.4683 231.225 59.4417 232.485 58.765C233.745 58.065 235.168 57.715 236.755 57.715ZM259.334 84.105C257.514 84.105 255.776 83.895 254.119 83.475C252.486 83.055 251.086 82.4367 249.919 81.62L252.334 76.965C253.127 77.595 254.107 78.085 255.274 78.435C256.464 78.8083 257.619 78.995 258.739 78.995C260.536 78.995 261.831 78.5983 262.624 77.805C263.417 77.035 263.814 75.9033 263.814 74.41V72.17L264.164 66.85L264.129 61.495V58.03H270.464V73.535C270.464 77.1283 269.496 79.7883 267.559 81.515C265.622 83.2417 262.881 84.105 259.334 84.105ZM258.179 76.02C256.499 76.02 254.947 75.6467 253.524 74.9C252.124 74.13 250.992 73.0683 250.129 71.715C249.289 70.3383 248.869 68.7167 248.869 66.85C248.869 64.9833 249.289 63.3733 250.129 62.02C250.992 60.6433 252.124 59.5817 253.524 58.835C254.947 58.0883 256.499 57.715 258.179 57.715C259.789 57.715 261.166 58.0417 262.309 58.695C263.452 59.325 264.316 60.3167 264.899 61.67C265.506 63.0233 265.809 64.75 265.809 66.85C265.809 68.95 265.506 70.6767 264.899 72.03C264.316 73.3833 263.452 74.3867 262.309 75.04C261.166 75.6933 259.789 76.02 258.179 76.02ZM259.754 70.735C260.547 70.735 261.247 70.5717 261.854 70.245C262.484 69.9183 262.974 69.4633 263.324 68.88C263.697 68.2967 263.884 67.62 263.884 66.85C263.884 66.08 263.697 65.4033 263.324 64.82C262.974 64.2367 262.484 63.7933 261.854 63.49C261.247 63.1633 260.547 63 259.754 63C258.961 63 258.249 63.1633 257.619 63.49C256.989 63.7933 256.487 64.2367 256.114 64.82C255.764 65.4033 255.589 66.08 255.589 66.85C255.589 67.62 255.764 68.2967 256.114 68.88C256.487 69.4633 256.989 69.9183 257.619 70.245C258.249 70.5717 258.961 70.735 259.754 70.735ZM298.642 77.49C295.026 77.49 292.202 76.4983 290.172 74.515C288.142 72.5317 287.127 69.72 287.127 66.08V52.5H294.057V65.87C294.057 67.97 294.466 69.475 295.282 70.385C296.122 71.295 297.266 71.75 298.712 71.75C300.159 71.75 301.291 71.295 302.107 70.385C302.924 69.475 303.332 67.97 303.332 65.87V52.5H310.157V66.08C310.157 69.72 309.142 72.5317 307.112 74.515C305.082 76.4983 302.259 77.49 298.642 77.49ZM327.522 77.315C325.912 77.315 324.535 76.965 323.392 76.265C322.249 75.5417 321.374 74.4683 320.767 73.045C320.184 71.5983 319.892 69.755 319.892 67.515C319.892 65.2517 320.172 63.4083 320.732 61.985C321.292 60.5383 322.132 59.465 323.252 58.765C324.395 58.065 325.819 57.715 327.522 57.715C329.249 57.715 330.812 58.1233 332.212 58.94C333.635 59.7333 334.755 60.865 335.572 62.335C336.412 63.7817 336.832 65.5083 336.832 67.515C336.832 69.5217 336.412 71.26 335.572 72.73C334.755 74.2 333.635 75.3317 332.212 76.125C330.812 76.9183 329.249 77.315 327.522 77.315ZM315.587 83.79V58.03H321.922V61.25L321.887 67.515L322.237 73.815V83.79H315.587ZM326.122 72.03C326.869 72.03 327.534 71.855 328.117 71.505C328.724 71.155 329.202 70.6417 329.552 69.965C329.925 69.2883 330.112 68.4717 330.112 67.515C330.112 66.5583 329.925 65.7417 329.552 65.065C329.202 64.3883 328.724 63.875 328.117 63.525C327.534 63.175 326.869 63 326.122 63C325.375 63 324.699 63.175 324.092 63.525C323.509 63.875 323.03 64.3883 322.657 65.065C322.307 65.7417 322.132 66.5583 322.132 67.515C322.132 68.4717 322.307 69.2883 322.657 69.965C323.03 70.6417 323.509 71.155 324.092 71.505C324.699 71.855 325.375 72.03 326.122 72.03Z" fill="white"/>
</g>
<g clip-path="url(#clip0_2_57)">
<path d="M149.183 96.5744C174.342 94.7219 199.536 93.3627 224.753 92.4967C250.062 91.6308 275.383 91.2581 300.704 91.3677C314.937 91.4334 329.182 91.6527 343.416 92.0363L345.098 89.7015C312.851 90.8963 280.604 92.0802 248.356 93.264L151.626 96.8375L96.9275 98.8434L95.2794 101.123C123.919 99.8519 152.582 99.1942 181.245 99.1174C209.909 99.0517 238.583 99.5778 267.235 100.707C283.278 101.343 299.309 102.154 315.329 103.162L316.447 100.893C292.74 102.483 269.033 103.919 245.314 105.223C221.583 106.516 197.83 107.656 174.088 108.654C160.685 109.213 147.281 109.728 133.877 110.199L132.771 112.447C156.616 109.904 180.577 108.303 204.561 107.689C228.533 107.065 252.54 107.404 276.489 108.698C289.928 109.421 303.354 110.463 316.747 111.789L317.865 109.52C290.377 111.35 262.89 113.028 235.379 114.474C207.869 115.921 180.715 117.149 153.366 118.103C137.888 118.651 122.398 119.1 106.908 119.462L105.79 121.731C136.805 119.714 167.876 118.541 198.971 118.333C229.951 118.125 260.942 118.815 291.875 120.427C309.301 121.336 326.716 122.498 344.096 123.989C344.96 124.066 346.389 123.671 346.85 122.904C347.357 122.071 346.412 121.797 345.721 121.731C314.58 119.078 283.37 117.313 252.114 116.513C221.042 115.713 189.958 115.834 158.898 116.875C141.38 117.456 123.862 118.322 106.378 119.506C105.629 119.561 104.315 119.988 104.027 120.733C103.739 121.479 104.58 121.797 105.26 121.775C132.897 121.106 160.523 120.163 188.138 118.958C215.74 117.763 243.331 116.316 270.9 114.683C286.366 113.773 301.822 112.797 317.288 111.767C318.787 111.668 321.069 109.761 318.406 109.498C294.457 107.119 270.404 105.705 246.316 105.256C222.148 104.806 197.968 105.344 173.858 106.823C160.327 107.656 146.82 108.796 133.347 110.243C132.598 110.32 131.307 110.693 131.019 111.46C130.731 112.227 131.561 112.512 132.241 112.49C156.178 111.646 180.104 110.671 204.031 109.531C227.842 108.402 251.653 107.13 275.44 105.705C288.925 104.905 302.398 104.05 315.871 103.151C316.62 103.096 317.934 102.669 318.222 101.924C318.51 101.178 317.657 100.926 316.989 100.882C288.383 99.0846 259.732 97.8788 231.069 97.2759C202.406 96.673 173.731 96.673 145.068 97.2759C129.014 97.6157 112.971 98.1419 96.9275 98.8544C96.017 98.8982 94.6455 99.1065 94.1384 99.9505C93.6659 100.729 94.5418 101.156 95.2909 101.134L192.01 97.5938C224.246 96.41 256.493 95.2261 288.729 94.0532C306.962 93.3846 325.183 92.7269 343.416 92.0583C344.349 92.0254 345.755 91.7952 346.274 90.9402C346.793 90.0852 345.848 89.7454 345.098 89.7344C319.697 89.0219 294.273 88.8356 268.86 89.1425C243.447 89.4604 218.057 90.2715 192.678 91.5759C178.364 92.3104 164.061 93.2092 149.77 94.2615C149.021 94.3163 147.396 94.8096 147.269 95.6755C147.143 96.6182 148.526 96.6182 149.159 96.5744H149.183Z" fill="white"/>
</g>
<defs>
<filter id="filter0_d_2_57" x="0.496948" y="7.715" width="390.672" height="84.39" filterUnits="userSpaceOnUse" color-interpolation-filters="sRGB">
<feFlood flood-opacity="0" result="BackgroundImageFix"/>
<feColorMatrix in="SourceAlpha" type="matrix" values="0 0 0 0 0 0 0 0 0 0 0 0 0 0 0 0 0 0 127 0" result="hardAlpha"/>
<feOffset dy="4"/>
<feGaussianBlur stdDeviation="2"/>
<feComposite in2="hardAlpha" operator="out"/>
<feColorMatrix type="matrix" values="0 0 0 0 0 0 0 0 0 0 0 0 0 0 0 0 0 0 0.25 0"/>
<feBlend mode="normal" in2="BackgroundImageFix" result="effect1_dropShadow_2_57"/>
<feBlend mode="normal" in="SourceGraphic" in2="effect1_dropShadow_2_57" result="shape"/>
</filter>
<clipPath id="clip0_2_57">
<rect width="253" height="35" fill="white" transform="translate(94 89)"/>
</clipPath>
</defs>
</svg>
